<svg width="46" height="46" viewBox="0 0 46 46" fill="none" xmlns="http://www.w3.org/2000/svg">
<circle cx="23" cy="23" r="23" fill="url(#paint0_linear_1411_6367)"/>
<path d="M16.4687 23.529H19.6544V35.8394C19.6544 36.0824 19.8642 36.2794 20.1232 36.2794H25.5247C25.7836 36.2794 25.9935 36.0824 25.9935 35.8394V23.587H29.6557C29.8938 23.587 30.0942 23.4193 30.1214 23.1972L30.6776 18.6652C30.6929 18.5405 30.6508 18.4156 30.5619 18.3221C30.4729 18.2284 30.3456 18.1748 30.212 18.1748H25.9936V15.3339C25.9936 14.4775 26.4849 14.0433 27.4539 14.0433C27.592 14.0433 30.212 14.0433 30.212 14.0433C30.471 14.0433 30.6808 13.8462 30.6808 13.6033V9.44325C30.6808 9.2002 30.471 9.00326 30.212 9.00326H26.4109C26.3841 9.00202 26.3246 9 26.2368 9C25.5773 9 23.2848 9.12153 21.4739 10.6852C19.4675 12.4181 19.7464 14.4929 19.8131 14.8527V18.1748H16.4687C16.2098 18.1748 15.9999 18.3717 15.9999 18.6148V23.0889C15.9999 23.332 16.2098 23.529 16.4687 23.529Z" fill="#FCFCFC"/>
<defs>
<linearGradient id="paint0_linear_1411_6367" x1="-6.81884e-08" y1="23" x2="45.9985" y2="23.2603" gradientUnits="userSpaceOnUse">
<stop stop-color="#2F15AA"/>
<stop offset="0.47831" stop-color="#2F15AA" stop-opacity="0.8"/>
<stop offset="1" stop-color="#2F15AA" stop-opacity="0.4"/>
</linearGradient>
</defs>
</svg>
