<svg width="46" height="46" viewBox="0 0 46 46" fill="none" xmlns="http://www.w3.org/2000/svg">
<circle cx="23" cy="23" r="23" fill="url(#paint0_linear_1411_6356)"/>
<path d="M23.2347 16.9512C21.9922 16.9512 20.7776 17.3196 19.7445 18.0099C18.7114 18.7002 17.9062 19.6813 17.4307 20.8292C16.9552 21.9771 16.8308 23.2402 17.0732 24.4588C17.3156 25.6774 17.9139 26.7967 18.7925 27.6753C19.6711 28.5539 20.7905 29.1522 22.0091 29.3946C23.2278 29.637 24.4909 29.5125 25.6389 29.0371C26.7868 28.5616 27.768 27.7564 28.4583 26.7233C29.1486 25.6903 29.517 24.4757 29.517 23.2332C29.5171 22.4082 29.3546 21.5913 29.0389 20.8292C28.7232 20.067 28.2604 19.3744 27.677 18.7911C27.0937 18.2078 26.4011 17.745 25.6389 17.4293C24.8767 17.1136 24.0598 16.9512 23.2347 16.9512ZM23.2347 27.3115C22.4281 27.3115 21.6396 27.0723 20.9689 26.6242C20.2981 26.1761 19.7754 25.5391 19.4667 24.7939C19.158 24.0487 19.0773 23.2286 19.2346 22.4375C19.392 21.6464 19.7804 20.9197 20.3508 20.3493C20.9212 19.779 21.648 19.3906 22.4391 19.2332C23.2303 19.0758 24.0503 19.1566 24.7956 19.4653C25.5408 19.774 26.1778 20.2967 26.6259 20.9674C27.0741 21.6381 27.3133 22.4266 27.3133 23.2332C27.3133 23.7688 27.2079 24.2992 27.0029 24.794C26.798 25.2888 26.4976 25.7385 26.1188 26.1172C25.7401 26.4959 25.2905 26.7963 24.7956 27.0012C24.3007 27.2062 23.7704 27.3116 23.2347 27.3115Z" fill="#FCFCFC"/>
<path d="M35.3948 18.1902C35.3748 17.1753 35.1827 16.1712 34.8266 15.2207C34.5188 14.4045 34.0373 13.665 33.4154 13.0534C32.8047 12.4309 32.0654 11.9493 31.2491 11.6423C30.2986 11.286 29.2944 11.0939 28.2794 11.0741C26.9749 11.0147 26.5579 11 23.2354 11C19.9129 11 19.4956 11.0138 18.1903 11.0741C17.1754 11.0941 16.1713 11.2863 15.2207 11.6423C14.4043 11.9496 13.6647 12.4311 13.0534 13.0534C12.4305 13.6642 11.9489 14.4039 11.6423 15.2207C11.2862 16.1712 11.0941 17.1753 11.074 18.1902C11.0137 19.4946 10.9999 19.9117 10.9999 23.234C10.9999 26.5564 11.0137 26.9734 11.074 28.2778C11.0941 29.2927 11.2862 30.2968 11.6423 31.2474C11.9489 32.0641 12.4306 32.8038 13.0534 33.4146C13.665 34.0366 14.4045 34.518 15.2207 34.8257C16.1713 35.1816 17.1754 35.3738 18.1903 35.394C19.4956 35.4533 19.9119 35.4681 23.2344 35.4681C26.5569 35.4681 26.974 35.4542 28.2785 35.394C29.2934 35.3739 30.2975 35.1817 31.2481 34.8257C32.0609 34.5115 32.7992 34.0308 33.4154 33.4146C34.0316 32.7984 34.5123 32.0602 34.8266 31.2474C35.183 30.2969 35.3752 29.2928 35.3948 28.2778C35.4542 26.9725 35.468 26.5564 35.468 23.234C35.468 19.9117 35.4542 19.4946 35.3948 18.1902ZM33.1939 28.1781C33.1844 28.9539 33.0421 29.7224 32.773 30.4501C32.5694 30.9777 32.2575 31.4568 31.8575 31.8566C31.4575 32.2564 30.9783 32.568 30.4506 32.7714C29.723 33.0411 28.9544 33.1835 28.1785 33.1922C26.8889 33.2515 26.5016 33.2634 23.2343 33.2634C19.9671 33.2634 19.5808 33.2515 18.2916 33.1922C17.5157 33.1834 16.7471 33.041 16.0195 32.7714C15.4881 32.575 15.0073 32.2623 14.6123 31.8563C14.2056 31.4621 13.8928 30.9815 13.6971 30.4501C13.4274 29.7226 13.285 28.954 13.2763 28.1781C13.2169 26.8886 13.2051 26.5012 13.2051 23.2341C13.2051 19.967 13.2179 19.5808 13.2763 18.2901C13.286 17.5144 13.4284 16.746 13.6971 16.0182C13.8935 15.4868 14.2062 15.0061 14.6123 14.611C15.0066 14.2041 15.4876 13.8913 16.0195 13.6959C16.7471 13.4262 17.5157 13.2839 18.2916 13.2751C19.5812 13.2158 19.9685 13.2039 23.2343 13.2039C26.5001 13.2039 26.8878 13.2168 28.1785 13.2751C28.9543 13.2849 29.7227 13.4272 30.4506 13.6959C30.9784 13.8993 31.4578 14.2111 31.8578 14.6111C32.2578 15.011 32.5696 15.4904 32.773 16.0183C33.0427 16.7458 33.1851 17.5143 33.1939 18.2901C33.2532 19.5808 33.265 19.9671 33.265 23.2341C33.265 26.5012 33.2532 26.8875 33.1939 28.1781Z" fill="#FCFCFC"/>
<path d="M29.7663 15.2373C29.377 15.2374 29.0031 15.3921 28.7279 15.6674C28.4527 15.9427 28.2981 16.316 28.2981 16.7053C28.2981 17.0945 28.4528 17.4678 28.7281 17.7431C29.0034 18.0183 29.3767 18.173 29.766 18.173C30.1553 18.173 30.5286 18.0183 30.8039 17.7431C31.0792 17.4678 31.2338 17.0945 31.2339 16.7053C31.2339 16.316 31.0793 15.9427 30.8041 15.6674C30.5288 15.3921 30.1555 15.2374 29.7663 15.2373Z" fill="#FCFCFC"/>
<defs>
<linearGradient id="paint0_linear_1411_6356" x1="-6.81884e-08" y1="23" x2="45.9985" y2="23.2603" gradientUnits="userSpaceOnUse">
<stop stop-color="#2F15AA"/>
<stop offset="0.47831" stop-color="#2F15AA" stop-opacity="0.8"/>
<stop offset="1" stop-color="#2F15AA" stop-opacity="0.4"/>
</linearGradient>
</defs>
</svg>
