<svg width="46" height="46" viewBox="0 0 46 46" fill="none" xmlns="http://www.w3.org/2000/svg">
<circle cx="23" cy="23" r="23" fill="url(#paint0_linear_1411_6362)"/>
<path d="M29.1047 25.0585C29.0571 25.0356 27.2733 24.1572 26.9563 24.0431C26.8269 23.9967 26.6883 23.9513 26.5408 23.9513C26.3 23.9513 26.0976 24.0713 25.94 24.3071C25.7618 24.572 25.2224 25.2025 25.0557 25.3909C25.034 25.4157 25.0043 25.4454 24.9865 25.4454C24.9705 25.4454 24.6944 25.3318 24.6109 25.2955C22.6973 24.4643 21.2449 22.4654 21.0457 22.1284C21.0173 22.0799 21.0161 22.0579 21.0159 22.0579C21.0229 22.0322 21.0872 21.9677 21.1204 21.9344C21.2176 21.8383 21.3228 21.7116 21.4247 21.589C21.4729 21.5309 21.5212 21.4728 21.5686 21.418C21.7164 21.2461 21.7822 21.1126 21.8584 20.958L21.8984 20.8777C22.0846 20.5077 21.9256 20.1955 21.8742 20.0947C21.832 20.0104 21.0788 18.1926 20.9987 18.0016C20.8061 17.5407 20.5517 17.3262 20.1981 17.3262C20.1653 17.3262 20.1981 17.3262 20.0605 17.332C19.893 17.339 18.9806 17.4592 18.5772 17.7135C18.1494 17.9832 17.4257 18.8429 17.4257 20.3548C17.4257 21.7156 18.2892 23.0004 18.6599 23.489C18.6692 23.5013 18.6861 23.5264 18.7106 23.5623C20.1305 25.6359 21.9005 27.1726 23.6949 27.8894C25.4224 28.5794 26.2404 28.6592 26.7054 28.6592H26.7055C26.9009 28.6592 27.0574 28.6439 27.1953 28.6303L27.2829 28.6219C27.8797 28.569 29.1911 27.8895 29.4894 27.0605C29.7244 26.4076 29.7863 25.6942 29.63 25.4353C29.5229 25.2592 29.3384 25.1707 29.1047 25.0585Z" fill="#FCFCFC"/>
<path d="M23.4513 11C16.8246 11 11.4333 16.3507 11.4333 22.9276C11.4333 25.0548 12.0026 27.1371 13.081 28.9595L11.0169 35.0483C10.9784 35.1618 11.007 35.2874 11.091 35.3728C11.1516 35.4347 11.2338 35.4681 11.3178 35.4681C11.35 35.4681 11.3824 35.4632 11.414 35.4531L17.763 33.4356C19.5004 34.3639 21.4641 34.8539 23.4514 34.8539C30.0775 34.854 35.4681 29.5038 35.4681 22.9276C35.4681 16.3507 30.0775 11 23.4513 11ZM23.4513 32.3694C21.5813 32.3694 19.7701 31.8294 18.2132 30.8078C18.1609 30.7734 18.1001 30.7558 18.0389 30.7558C18.0066 30.7558 17.9742 30.7607 17.9426 30.7707L14.7622 31.7817L15.7889 28.7526C15.8221 28.6546 15.8055 28.5465 15.7443 28.4629C14.5587 26.8429 13.932 24.9289 13.932 22.9276C13.932 17.7208 18.2023 13.4846 23.4512 13.4846C28.6995 13.4846 32.9693 17.7208 32.9693 22.9276C32.9694 28.1339 28.6996 32.3694 23.4513 32.3694Z" fill="#FCFCFC"/>
<defs>
<linearGradient id="paint0_linear_1411_6362" x1="-6.81884e-08" y1="23" x2="45.9985" y2="23.2603" gradientUnits="userSpaceOnUse">
<stop stop-color="#2F15AA"/>
<stop offset="0.47831" stop-color="#2F15AA" stop-opacity="0.8"/>
<stop offset="1" stop-color="#2F15AA" stop-opacity="0.4"/>
</linearGradient>
</defs>
</svg>
