<svg width="20" height="20" viewBox="0 0 20 20" fill="none" xmlns="http://www.w3.org/2000/svg">
<g id="Frame">
<path id="Vector" d="M12.3566 6.46491L7.64251 11.1789C7.31707 11.5043 7.31707 12.032 7.64251 12.3574C7.96795 12.6829 8.4956 12.6829 8.82101 12.3574L13.5351 7.64341C14.5113 6.66711 14.5113 5.0842 13.5351 4.10788C12.5588 3.13157 10.9758 3.13157 9.99952 4.10788L5.28549 8.82193C3.65831 10.4491 3.65831 13.0873 5.28549 14.7145C6.91267 16.3417 9.55085 16.3417 11.178 14.7145L15.8921 10.0004L17.0706 11.1789L12.3566 15.893C10.0785 18.171 6.38504 18.171 4.10698 15.893C1.82892 13.6149 1.82892 9.92151 4.10698 7.64341L8.82101 2.92937C10.4482 1.30219 13.0864 1.30219 14.7136 2.92937C16.3408 4.55656 16.3408 7.19474 14.7136 8.82193L9.99952 13.536C9.02326 14.5123 7.44031 14.5123 6.46401 13.536C5.48769 12.5597 5.48769 10.9768 6.46401 10.0004L11.178 5.2864L12.3566 6.46491Z" fill="#464E5F"/>
</g>
</svg>
