<svg width="40" height="42" viewBox="0 0 40 42" fill="none" xmlns="http://www.w3.org/2000/svg">
<rect width="40" height="42" rx="4" fill="#D9D9D9"/>
<path d="M31.8546 33.7274C31.051 32.3448 31.0599 30.8791 31.8811 29.2447C32.1095 28.7901 31.9278 29.4626 31.9858 10.4589C31.9858 8.55117 30.4291 7 28.5141 7H11.4732C9.54553 7 8.00143 8.58028 8.00143 10.4589C8.00269 31.1489 7.9926 31.4799 8.01278 31.6108C8.06324 33.5966 9.71458 35.207 11.7028 35.207L31.0006 35.2083C31.7386 35.2083 32.2457 34.4023 31.8546 33.7274ZM8.82778 29.1954C8.742 29.3012 8.61458 29.4825 8.578 29.5404C8.60197 9.17535 8.52627 10.5267 8.62846 9.95222C8.87446 8.59101 10.0666 7.57737 11.472 7.57737H12.6767C12.765 7.57737 12.8559 7.64411 12.8559 7.75618V27.8163C11.2424 27.8289 10.0226 27.7196 8.82778 29.1954ZM13.4337 8.41224H27.3498C29.1033 8.41224 30.5326 9.83388 30.5326 11.5841V27.8163H13.4339L13.4337 8.41224ZM31.0007 34.6326H11.7043C10.0189 34.6326 8.62112 33.2613 8.5896 31.5765C8.54293 29.8237 9.96845 28.3932 11.7043 28.3932H31.0007C31.1673 28.3932 31.4978 28.7282 31.3653 28.9888C30.4507 30.8084 30.4482 32.4529 31.3565 34.0169C31.5205 34.299 31.3023 34.6326 31.0007 34.6326Z" fill="black"/>
<path d="M29.9459 29.21H11.7065C10.4348 29.21 9.40039 30.2425 9.40039 31.5105C9.40039 32.7798 10.4348 33.8111 11.7065 33.8111H29.909C30.1071 33.8111 30.2484 33.6159 30.1803 33.4257C29.7425 32.2081 29.7551 30.9174 30.2181 29.5904C30.2825 29.4065 30.1439 29.21 29.9459 29.21ZM29.5119 33.2368H11.7052C10.7515 33.2368 9.97567 32.4624 9.97567 31.5117C9.97567 30.5598 10.7515 29.7866 11.7052 29.7866H29.551C29.2066 30.969 29.194 32.1275 29.5119 33.2368Z" fill="black"/>
<path d="M25.0411 11.3238C21.7876 8.72354 16.8665 9.87319 15.1519 13.7553C13.2798 18.0317 16.4374 22.7561 21.0371 22.7561C24.6742 22.7561 27.4645 19.8045 27.4645 16.3441C27.4645 14.3798 26.5814 12.55 25.0411 11.3238ZM21.0371 22.1807C17.0154 22.1807 14.1288 18.1828 15.5556 14.3168C15.7057 14.8533 15.6717 15.0434 15.8281 15.2172C15.7676 14.9641 15.7764 14.6946 15.8546 14.4453C16.1498 14.8142 16.0665 15.1567 16.1082 15.3003C16.223 15.6957 16.855 15.5773 16.9307 15.5899C17.1502 15.6264 17.7154 16.2674 17.9614 16.2422C18.0661 16.2321 18.1519 16.091 18.0762 16.018C17.9778 16.0231 17.8768 16.0029 17.7873 15.9626C17.8112 15.8266 17.8226 15.6894 17.8226 15.5509C17.7923 15.5786 17.762 15.605 17.7318 15.6315C17.5173 15.5886 17.4063 15.2915 17.5387 15.119C17.4517 15.0648 17.3319 15.09 17.2511 15.153C17.1691 15.2159 17.1174 15.3079 17.0669 15.3973C16.8386 15.2537 16.7793 14.9011 16.9471 14.6909C17.1552 14.4302 17.5514 14.4541 17.8819 14.502C17.8731 14.6644 18.0963 14.784 18.2275 14.6871C18.0585 14.0789 18.5013 14.2766 18.6136 14.1053C18.6464 14.0562 18.6426 13.992 18.6602 13.9353C18.7284 13.7313 19.0374 13.7187 19.1459 13.5336C19.1737 13.4871 19.185 13.4316 19.2153 13.3876C19.2456 13.3422 19.3061 13.3095 19.3541 13.336C19.3818 13.3511 19.397 13.3838 19.4209 13.4052C19.4865 13.4669 19.5963 13.4354 19.6707 13.3851C19.7452 13.3334 19.8158 13.2654 19.9066 13.2579C20.0164 13.2491 20.1198 13.3385 20.2283 13.3221C20.3999 13.2957 20.4377 13.0489 20.5904 12.9682C20.4289 12.6358 20.2674 12.3034 20.1072 11.9709C20.198 11.8425 20.3128 11.7317 20.4428 11.6436C20.4617 11.5113 20.3469 11.4043 20.2523 11.3099C20.1577 11.2154 20.0719 11.0681 20.1476 10.9586C20.1854 10.9032 20.2561 10.878 20.323 10.8641C20.6661 10.7949 20.9903 10.9623 21.0584 11.0946C21.1543 11.2822 20.9752 11.4131 21.0117 11.9055C21.0155 11.9558 21.0218 12.0087 21.0496 12.0515C21.1076 12.1435 21.2401 12.1598 21.341 12.1221C21.4419 12.0843 21.5214 12.0049 21.6034 11.9344C22.2165 11.4106 22.6644 11.5554 22.7703 11.3917C22.7993 11.3464 22.7981 11.2872 22.822 11.2381C22.8725 11.1374 23.0403 11.1122 23.1513 10.8956C23.6572 11.0933 24.1227 11.3615 24.5478 11.6813C24.1996 11.9898 24.2841 11.9055 24.1719 12.1561C24.2703 12.2367 24.4481 12.1498 24.5289 12.2429C24.3863 12.2757 24.3939 12.4016 24.3611 12.4671C24.3447 12.525 24.187 12.6799 24.0609 12.7026C23.9688 12.7252 23.859 12.6686 23.8527 12.5703C23.8527 12.5363 23.8641 12.5011 23.8413 12.4721C23.83 12.4545 23.7947 12.4495 23.7833 12.4318C23.7657 12.4029 23.7833 12.3626 23.7833 12.3286C23.7833 12.2152 23.5487 12.1838 23.478 12.2304C23.4036 12.2769 23.4149 12.3915 23.3506 12.4432C23.2913 12.4872 23.2308 12.4545 23.2118 12.6623C23.2118 12.7026 23.2118 12.7491 23.2409 12.7768C23.3077 12.8436 23.4074 12.7592 23.4944 12.7479C23.5348 12.7479 23.5865 12.7768 23.5928 12.8171C23.5928 12.8637 23.5461 12.8977 23.5525 12.9443C23.5613 12.9896 23.7429 13.0828 23.7543 13.3007C23.5133 13.3813 23.174 13.2226 23.0907 13.6344C23.0731 13.686 23.0617 13.749 23.097 13.8019C23.1311 13.8598 23.1954 13.8711 23.2585 13.8887C23.3052 13.8824 23.3569 13.8711 23.3973 13.8484C23.5588 13.7679 23.5474 13.613 23.5815 13.5777C23.6105 13.5437 23.6799 13.5601 23.7089 13.5261C23.7316 13.4971 23.7152 13.4455 23.7379 13.4165C23.7606 13.3939 23.8073 13.4052 23.8413 13.4052C23.9915 13.4052 24.0255 13.2352 24.2047 13.3422C24.3195 13.4115 24.4292 13.4808 24.5453 13.5437C24.6449 13.6105 24.5642 13.6734 24.5793 13.7515C24.5163 13.7742 24.4519 13.7918 24.3838 13.8031C24.3712 13.9341 24.7017 13.9567 24.8052 13.6596C24.8052 13.6281 24.8493 13.6193 24.8682 13.6482C24.8909 13.6709 24.8632 13.7943 25.1218 13.856C25.2202 13.8787 25.33 13.89 25.4334 13.885C25.4511 13.885 25.4738 13.885 25.4914 13.8963C25.5255 13.9076 25.5381 13.9542 25.5608 13.9882C25.6416 14.1154 25.8093 14.0864 25.9241 14.0348C25.9708 14.0121 26.0276 13.9719 26.0743 14.0008C26.1739 14.06 26.1462 14.2917 25.8951 14.3697C25.5999 14.4516 25.4258 14.2816 25.2555 14.2375C25.1521 14.2149 25.0133 14.2375 24.9666 14.3408C24.9401 14.3937 24.9477 14.4151 24.8796 14.4151C24.6197 14.4088 24.3775 14.2023 24.3321 13.9492C24.3321 13.9227 24.3232 13.9202 24.3031 13.9202C23.9271 13.8308 23.7076 13.9416 23.3922 14.0008C23.3695 14.0298 23.3001 14.0474 23.3001 14.0877C23.2081 14.1456 23.1046 14.2023 23.0579 14.3068C22.9545 14.5662 22.9583 14.507 22.7236 14.7034C22.5331 14.876 22.4183 15.1291 22.4297 15.3884C22.4297 15.5458 22.5255 15.9362 22.5975 16.0621C22.6631 16.2006 22.8649 16.4197 22.9381 16.4713C23.1399 16.5985 23.3872 16.533 24.0457 16.4537C24.2173 16.4348 24.269 16.4512 24.409 16.5922C24.3068 17.0103 24.3031 17.2206 24.4898 17.5127C24.6046 17.7079 24.7206 17.9219 24.6853 18.1461C24.6588 18.3727 24.602 18.3224 24.6563 18.6233C24.7862 19.2705 24.7686 19.2378 24.9855 19.5614C25.1924 19.8246 25.2164 19.8724 25.6352 19.9455C24.5188 21.3646 22.8511 22.1807 21.0371 22.1807Z" fill="black"/>
<path d="M20.4745 16.8127C20.3837 16.7157 20.3849 16.5445 20.2714 16.4777C20.2159 16.445 20.1478 16.4463 20.0847 16.4337C19.951 16.406 19.8362 16.304 19.792 16.1755C19.7605 16.0824 19.7554 15.9652 19.6709 15.9136C19.5725 15.8544 19.4527 15.9325 19.3391 15.9476C19.1259 15.9766 18.9077 15.7776 18.7134 15.867C18.5936 15.9224 18.5419 16.0647 18.4409 16.1491C18.2971 16.27 18.4523 16.4702 18.34 16.5772C18.2391 16.6742 18.0663 16.892 18.0423 17.0192C18.0057 17.2055 18.2164 17.5934 18.3463 17.7634C18.417 17.8553 18.5255 17.9384 18.5343 18.0543C18.586 18.1122 18.5444 18.1374 18.6289 18.1839C18.6983 18.2217 18.7752 18.2469 18.8446 18.2834C19.02 18.3753 19.0301 18.471 19.0313 18.6247C19.0351 19.0654 19.0919 19.5099 19.1436 19.9481C19.2243 20.6356 19.4514 20.9718 19.8589 21.2614C19.898 21.2891 19.9409 21.3168 19.9901 21.3194C20.038 21.3206 20.091 21.2854 20.0897 21.2375C20.0872 21.162 19.8387 20.9454 19.7908 20.5978C19.7794 20.5966 19.7744 20.584 19.7718 20.5726C19.7365 20.4178 19.7933 20.2566 19.8665 20.1155C19.8942 20.0627 19.9068 20.0564 19.9611 20.0299C20.3976 19.8146 20.4026 19.3713 20.636 18.9181C20.6675 18.8576 20.7028 18.7959 20.7533 18.7506C20.8038 18.704 20.887 18.6574 20.9539 18.6687C21.0699 18.6247 21.297 18.6549 21.2491 18.3225C21.2112 18.053 21.2024 18.0454 21.3614 17.8566C21.6111 17.5606 21.5746 17.2685 21.4131 17.13C21.2175 16.9613 20.6196 16.9688 20.4745 16.8127Z" fill="black"/>
<path d="M26.5453 31.9785H21.6671C21.2848 31.9785 21.2861 32.554 21.6671 32.554H26.5453C26.9275 32.554 26.9263 31.9785 26.5453 31.9785Z" fill="black"/>
<path d="M24.9906 30.5371H14.588C14.2057 30.5371 14.207 31.1126 14.588 31.1126H24.9906C25.3716 31.1126 25.3716 30.5371 24.9906 30.5371Z" fill="black"/>
<path d="M26.6529 24.4268H16.2694C16.1104 24.4268 15.9805 24.5552 15.9805 24.7151C15.9805 24.8738 16.1091 25.0035 16.2694 25.0035H26.6529C27.0339 25.0022 27.0339 24.4268 26.6529 24.4268Z" fill="black"/>
<path d="M26.6529 25.9619H16.2694C16.1104 25.9619 15.9805 26.0904 15.9805 26.2503C15.9805 26.4089 16.1091 26.5386 16.2694 26.5386H26.6529C27.0339 26.5374 27.0339 25.9619 26.6529 25.9619Z" fill="black"/>
<path d="M11.1582 15.9629V20.7038C11.1582 21.0853 11.7347 21.0841 11.7347 20.7038V15.9629C11.7347 15.5814 11.1582 15.5814 11.1582 15.9629Z" fill="black"/>
<path d="M11.1582 22.0128V22.4824C11.1582 22.864 11.7347 22.8627 11.7347 22.4824V22.0128C11.7347 21.6325 11.1582 21.6325 11.1582 22.0128Z" fill="black"/>
</svg>
