<svg width="24" height="24" viewBox="0 0 24 24" fill="none" xmlns="http://www.w3.org/2000/svg">
<g clip-path="url(#clip0_724_3487)">
<path d="M18.8491 4.33431H18.3595L16.2543 1.62031C15.983 1.27321 15.6358 0.992043 15.239 0.798112C14.8422 0.604181 14.4063 0.50257 13.9641 0.500977L10.2396 0.500977C9.79749 0.50257 9.36152 0.604181 8.96472 0.798112C8.56793 0.992043 8.22073 1.27321 7.94942 1.62031L5.84428 4.33431H5.35462C4.07689 4.33583 2.85193 4.84116 1.94844 5.73944C1.04494 6.63772 0.536687 7.85562 0.535156 9.12598L0.535156 18.7093C0.536687 19.9797 1.04494 21.1976 1.94844 22.0959C2.85193 22.9941 4.07689 23.4995 5.35462 23.501H18.8491C20.1269 23.4995 21.3518 22.9941 22.2553 22.0959C23.1588 21.1976 23.6671 19.9797 23.6686 18.7093V9.12598C23.6671 7.85562 23.1588 6.63772 22.2553 5.73944C21.3518 4.84116 20.1269 4.33583 18.8491 4.33431ZM9.47623 2.79139C9.56652 2.67549 9.68221 2.58158 9.81449 2.51681C9.94678 2.45205 10.0922 2.41813 10.2396 2.41764H13.9641C14.1115 2.41827 14.2569 2.45225 14.3892 2.51701C14.5214 2.58176 14.6371 2.67559 14.7275 2.79139L15.9247 4.33431H8.27907L9.47623 2.79139ZM21.7408 18.7093C21.7408 19.4718 21.4361 20.2031 20.8939 20.7423C20.3516 21.2814 19.616 21.5843 18.8491 21.5843H5.35462C4.5877 21.5843 3.85219 21.2814 3.3099 20.7423C2.7676 20.2031 2.46294 19.4718 2.46294 18.7093V9.12598C2.46294 8.36348 2.7676 7.63221 3.3099 7.09305C3.85219 6.55388 4.5877 6.25098 5.35462 6.25098H18.8491C19.616 6.25098 20.3516 6.55388 20.8939 7.09305C21.4361 7.63221 21.7408 8.36348 21.7408 9.12598V18.7093Z" fill="#464E5F"/>
<path d="M12.1017 8.16797C10.9579 8.16797 9.83973 8.5052 8.88866 9.13702C7.93759 9.76884 7.19632 10.6669 6.75859 11.7175C6.32087 12.7682 6.20634 13.9243 6.42949 15.0397C6.65264 16.1551 7.20345 17.1797 8.01227 17.9838C8.82109 18.788 9.85158 19.3356 10.9734 19.5575C12.0953 19.7794 13.2581 19.6655 14.3149 19.2303C15.3717 18.7951 16.2749 18.0581 16.9104 17.1125C17.5459 16.1669 17.8851 15.0552 17.8851 13.918C17.8835 12.3934 17.2737 10.9318 16.1895 9.85379C15.1052 8.77578 13.6351 8.16949 12.1017 8.16797ZM12.1017 17.7513C11.3392 17.7513 10.5937 17.5265 9.95968 17.1053C9.32563 16.6841 8.83146 16.0854 8.53964 15.3849C8.24782 14.6845 8.17146 13.9137 8.32023 13.1701C8.469 12.4265 8.83621 11.7435 9.37542 11.2074C9.91463 10.6713 10.6016 10.3062 11.3495 10.1583C12.0974 10.0104 12.8727 10.0863 13.5772 10.3764C14.2817 10.6666 14.8839 11.1579 15.3075 11.7883C15.7312 12.4187 15.9573 13.1598 15.9573 13.918C15.9573 14.9346 15.5511 15.9097 14.828 16.6285C14.105 17.3474 13.1243 17.7513 12.1017 17.7513Z" fill="#464E5F"/>
</g>
<defs>
<clipPath id="clip0_724_3487">
<rect width="23.1334" height="23" fill="white" transform="translate(0.535156 0.500977)"/>
</clipPath>
</defs>
</svg>
