<svg xmlns="http://www.w3.org/2000/svg" width="38" height="39" viewBox="0 0 38 39" fill="none">
  <path d="M18.9993 35.6452C10.2548 35.6452 3.16602 28.5563 3.16602 19.8119C3.16602 11.0673 10.2548 3.97852 18.9993 3.97852C27.7438 3.97852 34.8327 11.0673 34.8327 19.8119C34.8327 28.5563 27.7438 35.6452 18.9993 35.6452ZM18.9993 32.4785C25.995 32.4785 31.666 26.8075 31.666 19.8119C31.666 12.8162 25.995 7.14518 18.9993 7.14518C12.0037 7.14518 6.33268 12.8162 6.33268 19.8119C6.33268 26.8075 12.0037 32.4785 18.9993 32.4785ZM18.9993 17.5727L23.4776 13.0943L25.7168 15.3335L21.2385 19.8119L25.7168 24.2902L23.4776 26.5293L18.9993 22.051L14.521 26.5293L12.2818 24.2902L16.7602 19.8119L12.2818 15.3335L14.521 13.0943L18.9993 17.5727Z" fill="black"/>
</svg>