<svg width="102" height="115" viewBox="0 0 102 115" fill="none" xmlns="http://www.w3.org/2000/svg">
<path d="M77.775 114.75H24.225C15.046 114.75 7.65 107.354 7.65 98.175V29.325H3.825C1.65852 29.325 0 27.6665 0 25.5V21.675C0 19.5085 1.65852 17.85 3.825 17.85H98.175C100.341 17.85 102 19.5085 102 21.675V25.5C102 27.6665 100.341 29.325 98.175 29.325H94.35V98.175C94.35 107.354 86.954 114.75 77.775 114.75ZM68.85 47.175H63.75C61.5835 47.175 59.925 48.8335 59.925 51V89.25C59.925 91.4165 61.5835 93.075 63.75 93.075H68.85C71.0165 93.075 72.675 91.4165 72.675 89.25V51C72.675 48.8335 71.0165 47.175 68.85 47.175ZM38.25 47.175H33.15C30.9835 47.175 29.325 48.8335 29.325 51V89.25C29.325 91.4165 30.9835 93.075 33.15 93.075H38.25C40.4165 93.075 42.075 91.4165 42.075 89.25V51C42.075 48.8335 40.4165 47.175 38.25 47.175ZM65.025 11.475H36.975C34.8085 11.475 33.15 9.81648 33.15 7.65V3.825C33.15 1.65852 34.8085 0 36.975 0H65.025C67.1915 0 68.85 1.65852 68.85 3.825V7.65C68.85 9.81648 67.1915 11.475 65.025 11.475Z" fill="url(#paint0_linear_1_3)"/>
<defs>
<linearGradient id="paint0_linear_1_3" x1="51" y1="35.9264" x2="39.9147" y2="107.95" gradientUnits="userSpaceOnUse">
<stop stop-color="#E90D35"/>
<stop offset="0.47831" stop-color="#E90D35" stop-opacity="0.7"/>
<stop offset="1" stop-color="#E90D35" stop-opacity="0"/>
</linearGradient>
</defs>
</svg>
