<svg width="20" height="20" viewBox="0 0 20 20" fill="none" xmlns="http://www.w3.org/2000/svg">
<g id="Frame">
<path id="Vector" d="M1.66602 18.333C1.66602 14.6511 4.65078 11.6663 8.33268 11.6663C12.0146 11.6663 14.9993 14.6511 14.9993 18.333H13.3327C13.3327 15.5716 11.0941 13.333 8.33268 13.333C5.57126 13.333 3.33268 15.5716 3.33268 18.333H1.66602ZM8.33268 10.833C5.57018 10.833 3.33268 8.59551 3.33268 5.83301C3.33268 3.07051 5.57018 0.833008 8.33268 0.833008C11.0952 0.833008 13.3327 3.07051 13.3327 5.83301C13.3327 8.59551 11.0952 10.833 8.33268 10.833ZM8.33268 9.16634C10.1743 9.16634 11.666 7.67467 11.666 5.83301C11.666 3.99134 10.1743 2.49967 8.33268 2.49967C6.49102 2.49967 4.99935 3.99134 4.99935 5.83301C4.99935 7.67467 6.49102 9.16634 8.33268 9.16634ZM15.2358 12.252C17.553 13.2964 19.166 15.6263 19.166 18.333H17.4993C17.4993 16.303 16.2896 14.5556 14.5517 13.7723L15.2358 12.252ZM14.6628 2.84402C16.328 3.53053 17.4993 5.16935 17.4993 7.08301C17.4993 9.47484 15.6695 11.4373 13.3327 11.6477V9.97017C14.7466 9.76817 15.8327 8.55301 15.8327 7.08301C15.8327 5.93247 15.1673 4.93803 14.2002 4.4633L14.6628 2.84402Z" fill="#F0F0F0"/>
</g>
</svg>
