<svg width="26" height="26" viewBox="0 0 26 26" fill="none" xmlns="http://www.w3.org/2000/svg">
<path d="M23 15.25C20.9026 15.25 18.9393 15.824 17.2585 16.8234C18.7385 18.5548 19.9086 20.5589 20.6831 22.75H23V15.25ZM18.0046 22.75C15.5557 16.8776 9.75987 12.75 3 12.75V22.75H18.0046ZM3 10.25C7.78643 10.25 12.154 12.0435 15.4672 14.9951C17.6309 13.5756 20.219 12.75 23 12.75V2.75H24.2603C24.945 2.75 25.5 3.30619 25.5 3.99175V24.0082C25.5 24.694 24.9309 25.25 24.2603 25.25H1.73975C1.05506 25.25 0.5 24.6939 0.5 24.0082V3.99175C0.5 3.30595 1.06914 2.75 1.73975 2.75H5.5V0.25H8V5.25H3V10.25ZM20.5 0.25V5.25H10.5V2.75H18V0.25H20.5ZM18.625 11.5C17.5895 11.5 16.75 10.6605 16.75 9.625C16.75 8.58946 17.5895 7.75 18.625 7.75C19.6605 7.75 20.5 8.58946 20.5 9.625C20.5 10.6605 19.6605 11.5 18.625 11.5Z" fill="url(#paint0_linear_546_2827)"/>
<defs>
<linearGradient id="paint0_linear_546_2827" x1="0.5" y1="12.75" x2="25.4992" y2="12.8915" gradientUnits="userSpaceOnUse">
<stop stop-color="#2F15AA"/>
<stop offset="0.47831" stop-color="#2F15AA" stop-opacity="0.8"/>
<stop offset="1" stop-color="#2F15AA" stop-opacity="0.4"/>
</linearGradient>
</defs>
</svg>
