<svg width="18" height="21" viewBox="0 0 18 21" fill="none" xmlns="http://www.w3.org/2000/svg">
<path fill-rule="evenodd" clip-rule="evenodd" d="M12.3023 13H5.69712C3.75309 13.1013 2.03077 14.3482 1.24924 16.22C0.306598 18.1632 2.18788 20 4.37582 20H13.6236C15.8129 20 17.6941 18.1632 16.7502 16.22C15.9686 14.3482 14.2463 13.1013 12.3023 13Z" stroke="#F0F0F0" stroke-width="1.5" stroke-linecap="round" stroke-linejoin="round"/>
<path fill-rule="evenodd" clip-rule="evenodd" d="M13 5C13 7.20914 11.2091 9 9 9C6.79086 9 5 7.20914 5 5C5 2.79086 6.79086 1 9 1C10.0609 1 11.0783 1.42143 11.8284 2.17157C12.5786 2.92172 13 3.93913 13 5Z" stroke="#F0F0F0" stroke-width="1.5" stroke-linecap="round" stroke-linejoin="round"/>
</svg>
