<svg width="25" height="25" viewBox="0 0 25 25" fill="none" xmlns="http://www.w3.org/2000/svg">
<g clip-path="url(#clip0_1399_6528)">
<path d="M12.1963 21.8302L17.146 16.8804C19.8797 14.1468 19.8797 9.71458 17.146 6.98091C14.4124 4.24724 9.98021 4.24724 7.24654 6.98091C4.51287 9.71458 4.51287 14.1468 7.24654 16.8804L12.1963 21.8302ZM12.1963 24.6586L5.83233 18.2947C2.31761 14.7799 2.31761 9.08142 5.83233 5.5667C9.34705 2.05198 15.0455 2.05198 18.5603 5.5667C22.075 9.08142 22.075 14.7799 18.5603 18.2947L12.1963 24.6586ZM11.1963 10.9307V7.93066H13.1963V10.9307H16.1963V12.9307H13.1963V15.9307H11.1963V12.9307H8.19629V10.9307H11.1963Z" fill="#F0F0F0"/>
</g>
<defs>
<clipPath id="clip0_1399_6528">
<rect width="24" height="24" fill="white" transform="translate(0.196289 0.930664)"/>
</clipPath>
</defs>
</svg>
