<svg width="349" height="262" viewBox="0 0 349 262" fill="none" xmlns="http://www.w3.org/2000/svg">
<path d="M349 230.241H0V230.417H349V230.241Z" fill="#EBEBEB"/>
<path d="M314.03 241.557H298.897V241.732H314.03V241.557Z" fill="#EBEBEB"/>
<path d="M240.579 237.914H216.77V238.09H240.579V237.914Z" fill="#EBEBEB"/>
<path d="M307.901 235.031H276.819V235.207H307.901V235.031Z" fill="#EBEBEB"/>
<path d="M120.767 238.574H112.991V238.75H120.767V238.574Z" fill="#EBEBEB"/>
<path d="M106.773 238.574H79.9771V238.75H106.773V238.574Z" fill="#EBEBEB"/>
<path d="M65.6188 235.607H46.2842V235.783H65.6188V235.607Z" fill="#EBEBEB"/>
<path d="M165.425 198.877H30.6485C29.5927 198.875 28.5807 198.451 27.8348 197.698C27.0889 196.945 26.6699 195.925 26.6699 194.861V3.98035C26.6791 2.92269 27.1021 1.9114 27.8471 1.16613C28.592 0.420861 29.5987 0.00181182 30.6485 0H165.425C166.482 0 167.496 0.423062 168.244 1.17612C168.991 1.92917 169.411 2.95053 169.411 4.01551V194.861C169.411 195.926 168.991 196.948 168.244 197.701C167.496 198.454 166.482 198.877 165.425 198.877ZM30.6485 0.140649C29.639 0.142512 28.6714 0.547872 27.9582 1.26775C27.245 1.98764 26.8444 2.96322 26.8444 3.98035V194.861C26.8444 195.879 27.245 196.854 27.9582 197.574C28.6714 198.294 29.639 198.699 30.6485 198.701H165.425C166.436 198.699 167.404 198.294 168.118 197.574C168.832 196.855 169.235 195.879 169.236 194.861V3.98035C169.235 2.96257 168.832 1.98701 168.118 1.26732C167.404 0.547643 166.436 0.142508 165.425 0.140649H30.6485Z" fill="#EBEBEB"/>
<path d="M316.41 198.877H181.626C180.569 198.875 179.557 198.451 178.81 197.699C178.062 196.946 177.642 195.926 177.64 194.861V3.98035C177.651 2.92205 178.076 1.91076 178.822 1.16569C179.568 0.420615 180.575 0.00179207 181.626 0H316.41C317.458 0.00366002 318.463 0.423527 319.206 1.1686C319.95 1.91367 320.372 2.92391 320.381 3.98035V194.861C320.381 195.924 319.963 196.943 319.219 197.696C318.474 198.449 317.464 198.873 316.41 198.877ZM181.626 0.140649C180.616 0.142508 179.647 0.547643 178.933 1.26732C178.219 1.98701 177.816 2.96257 177.815 3.98035V194.861C177.816 195.879 178.219 196.855 178.933 197.574C179.647 198.294 180.616 198.699 181.626 198.701H316.41C317.42 198.699 318.388 198.294 319.102 197.574C319.817 196.855 320.219 195.879 320.221 194.861V3.98035C320.219 2.96257 319.817 1.98701 319.102 1.26732C318.388 0.547643 317.42 0.142508 316.41 0.140649H181.626Z" fill="#EBEBEB"/>
<path d="M80.2694 84.1284C84.1403 84.1284 87.8527 82.5791 90.5898 79.8214C93.3269 77.0637 94.8646 73.3235 94.8646 69.4236C94.8646 65.5236 93.3269 61.7834 90.5898 59.0257C87.8527 56.268 84.1403 54.7188 80.2694 54.7188H78.4756V84.1284H80.2694Z" fill="#E0E0E0"/>
<path d="M78.4619 84.1284C86.5226 84.1284 93.0571 77.5448 93.0571 69.4236C93.0571 61.3023 86.5226 54.7188 78.4619 54.7188C70.4012 54.7188 63.8667 61.3023 63.8667 69.4236C63.8667 77.5448 70.4012 84.1284 78.4619 84.1284Z" fill="#F5F5F5"/>
<path d="M77.7911 71.2661C72.6077 71.2661 67.6366 69.1916 63.9714 65.4988C60.3062 61.8061 58.2471 56.7976 58.2471 51.5753V39.8241C58.2471 39.3336 58.4405 38.8632 58.7847 38.5163C59.129 38.1695 59.5959 37.9746 60.0828 37.9746C60.5697 37.9746 61.0366 38.1695 61.3809 38.5163C61.7251 38.8632 61.9186 39.3336 61.9186 39.8241V51.5824C61.9222 55.8213 63.5948 59.8856 66.5691 62.8836C69.5435 65.8816 73.5768 67.5685 77.7841 67.5741C78.0342 67.5585 78.2849 67.5947 78.5206 67.6805C78.7563 67.7662 78.9721 67.8996 79.1547 68.0726C79.3372 68.2455 79.4827 68.4543 79.5822 68.6861C79.6817 68.9178 79.733 69.1676 79.733 69.4201C79.733 69.6726 79.6817 69.9224 79.5822 70.1541C79.4827 70.3859 79.3372 70.5947 79.1547 70.7676C78.9721 70.9406 78.7563 71.074 78.5206 71.1597C78.2849 71.2455 78.0342 71.2817 77.7841 71.2661H77.7911Z" fill="#E0E0E0"/>
<path d="M43.8567 50.1762H76.3276C76.8469 50.1763 77.3593 50.0562 77.8253 49.8253C78.2913 49.5945 78.6984 49.2589 79.0154 48.8444C79.3323 48.43 79.5506 47.9477 79.6534 47.4349C79.7562 46.922 79.7407 46.3923 79.6082 45.8864L76.7813 35.162C76.5905 34.4334 76.1661 33.7888 75.574 33.3284C74.982 32.868 74.2556 32.6176 73.5077 32.6162H46.6766C45.9278 32.6173 45.2003 32.8674 44.6071 33.3277C44.0139 33.788 43.5882 34.4328 43.396 35.162L40.604 45.8723C40.4681 46.3769 40.4491 46.9062 40.5486 47.4194C40.6481 47.9325 40.8634 48.4158 41.1778 48.8317C41.4921 49.2477 41.8972 49.5853 42.3617 49.8184C42.8262 50.0515 43.3377 50.1739 43.8567 50.1762Z" fill="#F5F5F5"/>
<path d="M286.376 84.1284C290.247 84.1284 293.959 82.5791 296.696 79.8214C299.433 77.0637 300.971 73.3235 300.971 69.4236C300.971 65.5236 299.433 61.7834 296.696 59.0257C293.959 56.268 290.247 54.7188 286.376 54.7188H284.582V84.1284H286.376Z" fill="#E0E0E0"/>
<path d="M284.582 84.1284C292.643 84.1284 299.178 77.5448 299.178 69.4236C299.178 61.3023 292.643 54.7188 284.582 54.7188C276.522 54.7188 269.987 61.3023 269.987 69.4236C269.987 77.5448 276.522 84.1284 284.582 84.1284Z" fill="#F5F5F5"/>
<path d="M283.912 71.2661C278.728 71.2661 273.757 69.1916 270.092 65.4988C266.427 61.8061 264.368 56.7976 264.368 51.5753V39.8241C264.368 39.3336 264.561 38.8632 264.905 38.5163C265.25 38.1695 265.717 37.9746 266.203 37.9746C266.69 37.9746 267.157 38.1695 267.501 38.5163C267.846 38.8632 268.039 39.3336 268.039 39.8241V51.5824C268.043 55.8213 269.715 59.8856 272.69 62.8836C275.664 65.8816 279.697 67.5685 283.905 67.5741C284.155 67.5585 284.405 67.5947 284.641 67.6805C284.877 67.7662 285.093 67.8996 285.275 68.0726C285.458 68.2455 285.603 68.4543 285.703 68.6861C285.802 68.9178 285.854 69.1676 285.854 69.4201C285.854 69.6726 285.802 69.9224 285.703 70.1541C285.603 70.3859 285.458 70.5947 285.275 70.7676C285.093 70.9406 284.877 71.074 284.641 71.1597C284.405 71.2455 284.155 71.2817 283.905 71.2661H283.912Z" fill="#E0E0E0"/>
<path d="M249.974 50.1768H282.445C282.964 50.1768 283.477 50.0568 283.943 49.8259C284.409 49.595 284.816 49.2594 285.133 48.845C285.45 48.4305 285.668 47.9483 285.771 47.4355C285.873 46.9226 285.858 46.3929 285.726 45.887L282.934 35.1766C282.743 34.448 282.318 33.8034 281.726 33.343C281.134 32.8827 280.408 32.6323 279.66 32.6309H252.794C252.045 32.6319 251.318 32.882 250.724 33.3424C250.131 33.8027 249.706 34.4475 249.513 35.1766L246.721 45.887C246.588 46.3907 246.571 46.9184 246.672 47.4298C246.772 47.9411 246.988 48.4224 247.302 48.8366C247.616 49.2509 248.02 49.587 248.484 49.8194C248.947 50.0517 249.457 50.1739 249.974 50.1768Z" fill="#F5F5F5"/>
<path d="M93.5182 183.447H104.135V142.005H93.5182V183.447Z" fill="#E6E6E6"/>
<path d="M64.7397 183.441H99.9678L105.287 134.938H70.0585L64.7397 183.441Z" fill="#F0F0F0"/>
<path d="M60.9219 183.441H97.3156L102.634 134.938H66.2476L60.9219 183.441Z" fill="#F5F5F5"/>
<path d="M94.6848 179.622L99.166 138.764H68.8728L64.3916 179.622H94.6848Z" fill="white"/>
<path d="M88.4292 169.713L88.6456 168.075C89.7694 157.822 83.4176 148.687 75.1672 148.687L74.9788 150.353C73.855 160.599 80.2068 169.735 88.4641 169.735L88.4292 169.713Z" fill="#F5F5F5"/>
<path d="M41.2451 230.242H72.5435V183.441H41.2451L41.2451 230.242Z" fill="#E6E6E6"/>
<path d="M44.3863 230.241H41.2383V221.219H47.6878L44.3863 230.241Z" fill="#F0F0F0"/>
<path d="M128.963 230.242H160.261V183.441H128.963V230.242Z" fill="#E6E6E6"/>
<path d="M41.2373 224.707H131.705V183.448H41.2373V224.707Z" fill="#F0F0F0"/>
<path d="M128.557 230.241H131.705V221.219H125.255L128.557 230.241Z" fill="#F0F0F0"/>
<path d="M43.6799 202.674H129.262V186.021H43.6799V202.674Z" fill="#E6E6E6"/>
<path d="M80.7652 196.909H92.1775C94.6312 196.91 97.0593 196.406 99.3132 195.429C101.567 194.452 103.599 193.022 105.286 191.227H67.6567C69.3439 193.021 71.3764 194.451 73.6302 195.428C75.884 196.405 78.3117 196.909 80.7652 196.909Z" fill="#F0F0F0"/>
<path d="M43.6799 222.014H129.262V205.361H43.6799V222.014Z" fill="#E6E6E6"/>
<path d="M80.7652 216.219H92.1775C94.6312 216.22 97.0593 215.717 99.3132 214.74C101.567 213.763 103.599 212.333 105.286 210.537H67.6567C69.3439 212.332 71.3764 213.761 73.6302 214.738C75.884 215.715 78.3117 216.219 80.7652 216.219Z" fill="#F0F0F0"/>
<path d="M125.975 181.536H126.785C126.785 179.855 126.785 175.6 126.869 165.846C127.015 148.16 127.295 147.084 127.295 147.084L125.368 155.249C124.147 164.285 125.724 173.371 125.975 181.536Z" fill="#E6E6E6"/>
<path d="M124.377 154.009C121.585 150.683 115.686 149.713 109.628 148.883C107.248 148.559 115.875 154.038 120.098 157.927C123.378 160.95 125.472 161.787 126.38 164.797C126.841 161.042 126.764 156.9 124.377 154.009Z" fill="#E6E6E6"/>
<path d="M128.055 159.973C130.847 156.647 136.746 155.683 142.804 154.854C145.184 154.53 136.522 160.008 132.334 163.897C129.054 166.921 126.96 167.758 126.052 170.768C125.592 167.013 125.64 162.842 128.055 159.973Z" fill="#E6E6E6"/>
<path d="M126.869 146.274C128.963 142.294 134.17 138.539 140.04 137.132C142.343 136.577 134.7 144.474 131.797 149.573C129.542 153.525 126.555 158.18 126.087 161.528C125.389 154.931 124.789 150.276 126.869 146.274Z" fill="#E6E6E6"/>
<path d="M126.617 183.441C124.147 183.441 122.101 182.196 121.955 180.593L121.543 177.864H131.699L131.28 180.593C131.14 182.196 129.13 183.441 126.617 183.441Z" fill="#F0F0F0"/>
<path d="M132.355 178.912H120.887L120.559 175.867H132.683L132.355 178.912Z" fill="#F0F0F0"/>
<path d="M118.339 120.761L230.166 120.761V17.9959L118.339 17.9959L118.339 120.761Z" fill="#E6E6E6"/>
<path d="M115.827 120.761L229.07 120.761V17.9959L115.827 17.9959L115.827 120.761Z" fill="#F5F5F5"/>
<path d="M224.546 116.161V22.6016L120.335 22.6016V116.161H224.546Z" fill="#FAFAFA"/>
<path d="M211.766 116.161L170.752 22.6016H156.82L197.834 116.161H211.766Z" fill="white"/>
<path d="M193.883 116.161L152.868 22.6016H143.278L184.292 116.161H193.883Z" fill="white"/>
<path d="M159.032 116.155V22.5957H153.644V116.155H159.032Z" fill="#E6E6E6"/>
<path d="M194.854 116.155V22.5957H189.466V116.155H194.854Z" fill="#E6E6E6"/>
<path d="M158.062 119.08V19.1777H151.25V119.08H158.062Z" fill="#F5F5F5"/>
<path d="M193.883 119.08V19.1777H187.071V119.08H193.883Z" fill="#F5F5F5"/>
<path d="M120.824 116.161V22.6016H120.342V116.161H120.824Z" fill="#E6E6E6"/>
<path d="M113.928 12.0742H235.073C235.228 12.076 235.376 12.1389 235.486 12.2493C235.595 12.3596 235.658 12.5088 235.659 12.6649C235.657 12.8204 235.595 12.9688 235.485 13.0781C235.375 13.1874 235.227 13.2486 235.073 13.2486H113.928C113.774 13.2486 113.626 13.1874 113.516 13.0781C113.406 12.9688 113.344 12.8204 113.342 12.6649C113.344 12.5088 113.406 12.3596 113.516 12.2493C113.625 12.1389 113.773 12.076 113.928 12.0742Z" fill="#E6E6E6"/>
<path d="M230.165 15.9494C230.373 15.9475 230.572 15.863 230.718 15.7142C230.864 15.5653 230.946 15.3643 230.946 15.1547V13.4529C230.947 13.3488 230.928 13.2457 230.889 13.1493C230.85 13.0529 230.793 12.9653 230.72 12.8914C230.647 12.8175 230.561 12.7588 230.466 12.7188C230.37 12.6788 230.268 12.6582 230.165 12.6582C229.957 12.6582 229.757 12.741 229.609 12.8885C229.462 13.036 229.378 13.2363 229.376 13.4458V15.1477C229.376 15.3591 229.459 15.562 229.607 15.7121C229.754 15.8622 229.955 15.9475 230.165 15.9494Z" fill="#E6E6E6"/>
<path d="M122.709 15.9494C122.917 15.9475 123.117 15.8632 123.264 15.7146C123.412 15.566 123.495 15.3649 123.497 15.1547V13.4529C123.497 13.2421 123.414 13.04 123.266 12.891C123.118 12.7419 122.918 12.6582 122.709 12.6582C122.501 12.6582 122.302 12.7412 122.156 12.8889C122.009 13.0366 121.927 13.2369 121.927 13.4458V15.1477C121.926 15.252 121.945 15.3556 121.984 15.4523C122.023 15.5491 122.08 15.6372 122.153 15.7117C122.225 15.7861 122.312 15.8454 122.407 15.8862C122.503 15.927 122.605 15.9485 122.709 15.9494Z" fill="#E6E6E6"/>
<path opacity="0.6" d="M114.109 93.1377L227.276 93.1377V12.6586L114.109 12.6586L114.109 93.1377Z" fill="#E0E0E0"/>
<path d="M237.522 144.144H218.006C215.932 144.144 214.251 145.837 214.251 147.927V157.027C214.251 159.116 215.932 160.81 218.006 160.81H237.522C239.596 160.81 241.278 159.116 241.278 157.027V147.927C241.278 145.837 239.596 144.144 237.522 144.144Z" fill="#FAFAFA"/>
<path d="M240.014 141.063H215.514C214.817 141.063 214.251 141.633 214.251 142.336V143.363C214.251 144.066 214.817 144.636 215.514 144.636H240.014C240.712 144.636 241.278 144.066 241.278 143.363V142.336C241.278 141.633 240.712 141.063 240.014 141.063Z" fill="#E6E6E6"/>
<path d="M214.649 179.326C214.649 179.326 215.005 191.049 228.561 191.049C242.116 191.049 242.472 179.326 242.472 179.326H214.649Z" fill="#F0F0F0"/>
<path d="M245.557 179.326C245.557 179.326 245.913 191.049 259.468 191.049C273.023 191.049 273.379 179.326 273.379 179.326H245.557Z" fill="#F0F0F0"/>
<path d="M266.664 136.598H239.861C237.008 136.598 234.695 138.928 234.695 141.802V155.613C234.695 158.487 237.008 160.817 239.861 160.817H266.664C269.516 160.817 271.829 158.487 271.829 155.613V141.802C271.829 138.928 269.516 136.598 266.664 136.598Z" fill="#F0F0F0"/>
<path d="M270.098 132.364H236.426C235.47 132.364 234.695 133.145 234.695 134.108V135.529C234.695 136.492 235.47 137.273 236.426 137.273H270.098C271.054 137.273 271.829 136.492 271.829 135.529V134.108C271.829 133.145 271.054 132.364 270.098 132.364Z" fill="#F5F5F5"/>
<path d="M204.438 230.242H207.956V172.126H204.438V230.242Z" fill="#E6E6E6"/>
<path d="M306.017 160.811H286.969V172.119H306.017V160.811Z" fill="#E6E6E6"/>
<path d="M192.258 172.125H286.963V160.817H192.258V172.125Z" fill="#F5F5F5"/>
<path d="M306.017 191.016H286.969V202.324H306.017V191.016Z" fill="#E6E6E6"/>
<path d="M192.258 202.323H286.963V191.015H192.258V202.323Z" fill="#F5F5F5"/>
<path d="M299.143 230.242H302.661V172.126H299.143V230.242Z" fill="#E6E6E6"/>
<path d="M283.451 230.242H286.969V172.126H283.451V230.242Z" fill="#F5F5F5"/>
<path d="M192.258 230.242H195.776V172.126H192.258V230.242Z" fill="#F5F5F5"/>
<path d="M174.499 262C249.243 262 309.835 258.435 309.835 254.039C309.835 249.642 249.243 246.078 174.499 246.078C99.7557 246.078 39.1641 249.642 39.1641 254.039C39.1641 258.435 99.7557 262 174.499 262Z" fill="#F5F5F5"/>
<path d="M181.767 218.357H92.723C91.2911 218.336 89.9199 217.771 88.8842 216.775C87.8486 215.778 87.2252 214.424 87.139 212.984L79.1539 57.1805C79.1096 56.4875 79.2079 55.7928 79.4426 55.1398C79.6773 54.4868 80.0434 53.8898 80.5178 53.386C80.9923 52.8822 81.5649 52.4826 82.1998 52.2123C82.8347 51.9419 83.5182 51.8066 84.2074 51.8148H173.251C174.683 51.8335 176.054 52.3971 177.09 53.3924C178.125 54.3877 178.749 55.741 178.835 57.1805L186.806 212.984C186.851 213.676 186.753 214.37 186.519 215.022C186.285 215.675 185.92 216.272 185.448 216.776C184.975 217.28 184.404 217.68 183.771 217.952C183.137 218.224 182.455 218.362 181.767 218.357Z" fill="url(#paint0_linear_1427_8490)"/>
<path opacity="0.8" d="M181.767 218.357H92.723C91.2911 218.336 89.9199 217.771 88.8842 216.775C87.8486 215.778 87.2252 214.424 87.139 212.984L79.1539 57.1805C79.1096 56.4875 79.2079 55.7928 79.4426 55.1398C79.6773 54.4868 80.0434 53.8898 80.5178 53.386C80.9923 52.8822 81.5649 52.4826 82.1998 52.2123C82.8347 51.9419 83.5182 51.8066 84.2074 51.8148H173.251C174.683 51.8335 176.054 52.3971 177.09 53.3924C178.125 54.3877 178.749 55.741 178.835 57.1805L186.806 212.984C186.851 213.676 186.753 214.37 186.519 215.022C186.285 215.675 185.92 216.272 185.448 216.776C184.975 217.28 184.404 217.68 183.771 217.952C183.137 218.224 182.455 218.362 181.767 218.357Z" fill="white"/>
<path d="M164.463 46.7373H154.614V47.4405H164.463V46.7373Z" fill="url(#paint1_linear_1427_8490)"/>
<path d="M151.2 46.7373H147.592V47.4405H151.2V46.7373Z" fill="url(#paint2_linear_1427_8490)"/>
<path d="M185.599 208.469H100.443C99.0716 208.456 97.7562 207.92 96.7616 206.968C95.7669 206.017 95.1669 204.722 95.0822 203.343L87.4601 54.3254C87.4177 53.6622 87.5118 52.9973 87.7365 52.3724C87.9612 51.7476 88.3116 51.1762 88.7658 50.6942C89.22 50.2122 89.7681 49.83 90.3758 49.5714C90.9834 49.3129 91.6376 49.1836 92.2972 49.1918H177.453C178.824 49.207 180.139 49.7451 181.132 50.6976C182.126 51.6501 182.724 52.9464 182.807 54.3254L190.429 203.343C190.471 204.005 190.377 204.669 190.153 205.293C189.929 205.917 189.579 206.487 189.125 206.969C188.672 207.45 188.125 207.832 187.518 208.09C186.911 208.348 186.258 208.477 185.599 208.469Z" fill="url(#paint3_linear_1427_8490)"/>
<path d="M185.598 205.045H100.442C99.9427 205.027 99.467 204.826 99.1054 204.478C98.7438 204.131 98.5215 203.662 98.4807 203.16L90.8515 54.15C90.8343 53.9518 90.8589 53.7521 90.9239 53.5642C90.9889 53.3763 91.0927 53.2044 91.2285 53.0599C91.3646 52.9158 91.5296 52.8024 91.7125 52.7272C91.8954 52.6521 92.092 52.6169 92.2894 52.6239H177.445C177.944 52.6429 178.418 52.8452 178.778 53.1925C179.138 53.5398 179.359 54.008 179.4 54.5086L187.064 203.519C187.081 203.716 187.056 203.915 186.991 204.102C186.926 204.289 186.823 204.461 186.688 204.605C186.553 204.749 186.389 204.862 186.207 204.938C186.025 205.014 185.83 205.05 185.633 205.045H185.598ZM92.2894 52.7997C92.1159 52.7941 91.9431 52.8249 91.782 52.8903C91.621 52.9557 91.4753 53.0542 91.3541 53.1795C91.2376 53.3094 91.1484 53.4617 91.092 53.6273C91.0356 53.7929 91.0132 53.9683 91.026 54.1429L98.6482 203.153C98.687 203.609 98.8901 204.036 99.2192 204.352C99.5483 204.668 99.9808 204.852 100.435 204.869H185.591C185.764 204.876 185.936 204.845 186.096 204.78C186.256 204.714 186.4 204.615 186.519 204.489C186.639 204.361 186.73 204.209 186.786 204.043C186.843 203.877 186.864 203.701 186.847 203.526L179.232 54.5157C179.195 54.0599 178.993 53.6336 178.666 53.3175C178.338 53.0013 177.906 52.8171 177.452 52.7997H92.2894Z" fill="white"/>
<path opacity="0.3" d="M155.812 106.932C165.498 96.9183 164.867 80.4724 154.404 70.1991C143.94 59.9258 127.606 59.7154 117.921 69.729C108.235 79.7427 108.866 96.1885 119.329 106.462C129.793 116.735 146.127 116.946 155.812 106.932Z" fill="white"/>
<path d="M157.749 88.3334C157.944 91.7893 157.254 95.2377 155.746 98.3476C154.113 101.683 151.577 104.486 148.432 106.433C145.286 108.38 141.659 109.393 137.968 109.353C134.142 109.319 130.391 108.287 127.078 106.358C123.766 104.429 121.006 101.67 119.066 98.3476C117.258 95.3095 116.218 91.8709 116.037 88.3334C115.864 85.6205 116.25 82.901 117.169 80.345C118.088 77.7891 119.521 75.4518 121.378 73.4794C123.234 71.507 125.475 69.942 127.96 68.8822C130.445 67.8224 133.12 67.2908 135.818 67.3205C141.433 67.3795 146.818 69.5801 150.887 73.4791C154.957 77.3781 157.409 82.6859 157.749 88.3334Z" fill="white"/>
<path d="M155.724 98.3479C154.091 101.684 151.555 104.486 148.41 106.434C145.265 108.381 141.637 109.393 137.946 109.354C134.12 109.319 130.369 108.287 127.056 106.358C123.744 104.43 120.984 101.67 119.044 98.3479C124.348 94.6572 130.648 92.6937 137.094 92.722C143.713 92.7471 150.183 94.701 155.724 98.3479Z" fill="url(#paint4_linear_1427_8490)"/>
<path d="M143.334 87.8452C146.823 84.2375 146.595 78.3112 142.823 74.6085C139.052 70.9058 133.166 70.8287 129.677 74.4364C126.187 78.0441 126.416 83.9704 130.187 87.6731C133.958 91.3759 139.844 91.4529 143.334 87.8452Z" fill="url(#paint5_linear_1427_8490)"/>
<path d="M173.391 150.493H106.711C106.131 150.487 105.574 150.26 105.153 149.856C104.732 149.453 104.478 148.904 104.443 148.32L103.94 138.475C103.923 138.195 103.963 137.914 104.059 137.65C104.154 137.387 104.302 137.146 104.494 136.942C104.686 136.739 104.918 136.578 105.174 136.469C105.431 136.36 105.707 136.305 105.986 136.309H172.666C173.245 136.315 173.801 136.541 174.222 136.943C174.643 137.345 174.897 137.892 174.934 138.475L175.437 148.32C175.455 148.601 175.415 148.882 175.321 149.147C175.226 149.411 175.078 149.653 174.886 149.857C174.694 150.061 174.462 150.223 174.205 150.333C173.947 150.442 173.671 150.497 173.391 150.493Z" fill="white"/>
<path opacity="0.3" d="M152.975 130.873H125.125C124.542 130.869 123.982 130.641 123.559 130.236C123.137 129.831 122.883 129.28 122.849 128.693L122.745 126.583C122.726 126.303 122.766 126.021 122.861 125.757C122.955 125.492 123.104 125.25 123.296 125.046C123.488 124.842 123.72 124.68 123.977 124.571C124.234 124.461 124.511 124.407 124.79 124.41H152.633C153.214 124.416 153.771 124.644 154.192 125.047C154.613 125.45 154.866 125.999 154.901 126.583L155.013 128.693C155.03 128.973 154.99 129.254 154.896 129.518C154.801 129.782 154.653 130.023 154.462 130.228C154.271 130.432 154.041 130.595 153.785 130.706C153.529 130.817 153.254 130.874 152.975 130.873Z" fill="black"/>
<path opacity="0.3" d="M163.333 197.829H121.614C120.626 197.816 119.679 197.428 118.963 196.742C118.247 196.056 117.815 195.123 117.754 194.13L117.51 189.277C117.485 188.8 117.557 188.323 117.721 187.875C117.886 187.427 118.139 187.018 118.465 186.672C118.792 186.326 119.185 186.05 119.621 185.862C120.056 185.674 120.526 185.577 121 185.578H162.705C163.693 185.59 164.64 185.978 165.356 186.664C166.071 187.35 166.503 188.284 166.565 189.277L166.809 194.13C166.834 194.605 166.762 195.081 166.599 195.528C166.435 195.975 166.183 196.384 165.858 196.73C165.533 197.076 165.142 197.352 164.708 197.54C164.274 197.729 163.806 197.827 163.333 197.829Z" fill="black"/>
<path d="M174.613 174.306H107.926C107.346 174.298 106.79 174.07 106.369 173.667C105.948 173.264 105.694 172.716 105.657 172.133L105.155 162.287C105.138 162.007 105.178 161.726 105.273 161.462C105.368 161.198 105.516 160.956 105.708 160.753C105.9 160.549 106.131 160.387 106.388 160.277C106.645 160.167 106.921 160.112 107.2 160.114H173.88C174.461 160.12 175.018 160.348 175.439 160.751C175.859 161.154 176.113 161.703 176.148 162.287L176.658 172.133C176.674 172.413 176.633 172.693 176.538 172.957C176.442 173.221 176.294 173.462 176.102 173.665C175.911 173.869 175.679 174.031 175.423 174.141C175.167 174.251 174.891 174.307 174.613 174.306Z" fill="white"/>
<path d="M115.171 143.398C115.19 143.709 115.146 144.021 115.04 144.313C114.935 144.606 114.77 144.873 114.557 145.099C114.344 145.325 114.088 145.504 113.803 145.625C113.518 145.746 113.212 145.807 112.903 145.803C112.261 145.796 111.645 145.543 111.181 145.097C110.716 144.651 110.436 144.044 110.397 143.398C110.377 143.088 110.42 142.777 110.525 142.484C110.63 142.192 110.794 141.924 111.006 141.698C111.218 141.472 111.475 141.293 111.759 141.172C112.044 141.05 112.35 140.99 112.658 140.993C113.301 141.001 113.917 141.253 114.383 141.699C114.849 142.145 115.131 142.752 115.171 143.398Z" fill="#263238"/>
<path d="M122.52 143.398C122.54 143.709 122.497 144.02 122.392 144.313C122.287 144.605 122.123 144.873 121.911 145.099C121.699 145.325 121.442 145.504 121.158 145.625C120.874 145.746 120.567 145.807 120.259 145.803C119.616 145.797 119 145.546 118.535 145.099C118.069 144.653 117.79 144.045 117.753 143.398C117.733 143.088 117.776 142.777 117.881 142.484C117.986 142.192 118.15 141.924 118.362 141.698C118.574 141.472 118.831 141.293 119.115 141.172C119.399 141.05 119.706 140.99 120.014 140.993C120.657 140.999 121.273 141.251 121.738 141.698C122.204 142.144 122.483 142.752 122.52 143.398Z" fill="#263238"/>
<path d="M129.829 143.398C129.849 143.709 129.805 144.02 129.701 144.313C129.596 144.605 129.432 144.873 129.22 145.099C129.007 145.325 128.751 145.504 128.467 145.625C128.182 145.746 127.876 145.807 127.567 145.803C126.925 145.796 126.309 145.544 125.843 145.098C125.377 144.652 125.095 144.045 125.055 143.398C125.035 143.088 125.08 142.776 125.186 142.484C125.291 142.191 125.456 141.923 125.669 141.698C125.882 141.472 126.138 141.293 126.423 141.172C126.708 141.051 127.014 140.99 127.323 140.993C127.965 141.001 128.58 141.253 129.045 141.7C129.51 142.146 129.79 142.753 129.829 143.398Z" fill="#263238"/>
<path d="M137.193 143.398C137.212 143.709 137.168 144.019 137.063 144.311C136.958 144.604 136.794 144.871 136.582 145.096C136.369 145.322 136.114 145.501 135.83 145.623C135.546 145.744 135.24 145.806 134.932 145.803C134.289 145.796 133.673 145.544 133.207 145.098C132.741 144.652 132.459 144.045 132.419 143.398C132.4 143.088 132.444 142.777 132.549 142.485C132.655 142.193 132.818 141.926 133.03 141.7C133.243 141.475 133.499 141.295 133.782 141.174C134.066 141.052 134.372 140.991 134.68 140.993C135.323 141.001 135.939 141.253 136.405 141.699C136.871 142.145 137.153 142.752 137.193 143.398Z" fill="#263238"/>
<path d="M116.406 167.196C116.426 167.507 116.383 167.818 116.278 168.111C116.173 168.403 116.009 168.671 115.797 168.897C115.585 169.122 115.328 169.302 115.044 169.423C114.759 169.544 114.453 169.605 114.145 169.601C113.502 169.594 112.886 169.342 112.42 168.896C111.954 168.45 111.672 167.843 111.632 167.196C111.613 166.885 111.657 166.574 111.763 166.281C111.868 165.989 112.033 165.721 112.246 165.496C112.459 165.27 112.715 165.091 113 164.97C113.285 164.848 113.591 164.788 113.9 164.791C114.542 164.799 115.158 165.051 115.623 165.497C116.087 165.944 116.367 166.551 116.406 167.196Z" fill="#263238"/>
<path d="M123.742 167.196C123.761 167.506 123.717 167.817 123.612 168.109C123.506 168.402 123.343 168.669 123.13 168.894C122.918 169.12 122.662 169.299 122.378 169.421C122.095 169.542 121.789 169.604 121.48 169.601C120.838 169.594 120.222 169.342 119.756 168.896C119.29 168.45 119.008 167.843 118.968 167.196C118.947 166.886 118.991 166.575 119.096 166.282C119.201 165.989 119.365 165.722 119.577 165.496C119.789 165.27 120.046 165.091 120.33 164.97C120.614 164.848 120.92 164.788 121.229 164.791C121.872 164.799 122.488 165.051 122.954 165.497C123.42 165.943 123.702 166.55 123.742 167.196Z" fill="#263238"/>
<path d="M131.079 167.196C131.098 167.507 131.054 167.818 130.948 168.111C130.842 168.404 130.678 168.671 130.465 168.897C130.252 169.123 129.995 169.302 129.711 169.423C129.426 169.544 129.119 169.605 128.81 169.601C128.168 169.595 127.552 169.344 127.086 168.897C126.621 168.45 126.342 167.843 126.305 167.196C126.284 166.886 126.328 166.575 126.433 166.282C126.538 165.989 126.701 165.722 126.914 165.496C127.126 165.27 127.383 165.091 127.667 164.97C127.951 164.848 128.257 164.788 128.566 164.791C129.209 164.799 129.825 165.051 130.291 165.497C130.757 165.943 131.038 166.55 131.079 167.196Z" fill="#263238"/>
<path d="M138.407 167.196C138.427 167.507 138.384 167.818 138.279 168.111C138.174 168.403 138.01 168.671 137.798 168.897C137.586 169.122 137.329 169.302 137.045 169.423C136.76 169.544 136.454 169.605 136.146 169.601C135.503 169.594 134.887 169.342 134.421 168.896C133.955 168.45 133.673 167.843 133.633 167.196C133.614 166.885 133.658 166.574 133.764 166.281C133.869 165.989 134.034 165.721 134.247 165.496C134.46 165.27 134.716 165.091 135.001 164.97C135.286 164.848 135.592 164.788 135.901 164.791C136.544 164.797 137.16 165.049 137.625 165.496C138.09 165.942 138.37 166.55 138.407 167.196Z" fill="#263238"/>
<path d="M145.743 167.196C145.763 167.507 145.72 167.818 145.615 168.11C145.51 168.403 145.346 168.671 145.134 168.897C144.921 169.122 144.665 169.302 144.381 169.423C144.096 169.544 143.79 169.605 143.481 169.601C142.839 169.594 142.223 169.342 141.757 168.896C141.291 168.45 141.009 167.843 140.969 167.196C140.95 166.886 140.994 166.575 141.099 166.283C141.204 165.991 141.368 165.724 141.58 165.498C141.792 165.273 142.048 165.093 142.332 164.972C142.616 164.85 142.922 164.789 143.23 164.791C143.873 164.799 144.489 165.051 144.955 165.497C145.421 165.943 145.703 166.55 145.743 167.196Z" fill="#263238"/>
<path d="M153.08 167.196C153.099 167.507 153.055 167.818 152.949 168.111C152.843 168.404 152.679 168.671 152.466 168.897C152.253 169.123 151.996 169.302 151.712 169.423C151.427 169.544 151.12 169.605 150.811 169.601C150.169 169.594 149.554 169.341 149.089 168.895C148.624 168.449 148.344 167.842 148.306 167.196C148.285 166.886 148.329 166.575 148.434 166.282C148.539 165.989 148.702 165.722 148.915 165.496C149.127 165.27 149.384 165.091 149.668 164.97C149.952 164.848 150.258 164.788 150.567 164.791C151.21 164.799 151.826 165.051 152.292 165.497C152.758 165.943 153.039 166.55 153.08 167.196Z" fill="#263238"/>
<path d="M232.434 85.5283C232.608 85.7956 232.699 85.9362 232.811 86.1261L233.125 86.6465C233.327 86.9981 233.509 87.3497 233.683 87.6943C234.032 88.3976 234.381 89.1008 234.66 89.804C235.245 91.2007 235.749 92.6308 236.168 94.0868C237.013 96.963 237.57 99.9173 237.829 102.905L237.878 103.461C237.884 103.573 237.884 103.686 237.878 103.799V104.171C237.89 104.66 237.862 105.15 237.794 105.634C237.66 106.532 237.426 107.412 237.096 108.257C236.483 109.767 235.671 111.186 234.681 112.477C232.835 114.858 230.645 116.947 228.183 118.672L226.256 116.401C228.009 114.406 229.562 112.241 230.891 109.938C231.489 108.893 231.958 107.778 232.287 106.619C232.42 106.127 232.498 105.622 232.517 105.114C232.539 104.896 232.539 104.677 232.517 104.46V104.312C232.524 104.246 232.524 104.18 232.517 104.115L232.434 103.623C231.985 101.002 231.35 98.4167 230.535 95.8871C230.13 94.6283 229.635 93.4117 229.139 92.2232C228.895 91.6254 228.616 91.0417 228.336 90.4792L227.904 89.6493L227.687 89.2625L227.506 88.9531L232.434 85.5283Z" fill="#803E3C"/>
<path d="M225.944 118.687L228.471 124.066L230.474 119.516C230.474 119.516 228.694 115.578 226.286 115.944L225.944 118.687Z" fill="#7F3E3B"/>
<path d="M230.278 124.333L232.288 121.014L230.473 119.516L228.47 124.066L230.278 124.333Z" fill="#7F3E3B"/>
<path d="M218.914 248.399C219.436 248.386 219.956 248.316 220.463 248.188C220.489 248.181 220.512 248.166 220.53 248.146C220.549 248.127 220.562 248.102 220.568 248.076C220.572 248.049 220.568 248.021 220.557 247.996C220.546 247.971 220.528 247.95 220.505 247.935C220.303 247.802 218.53 246.648 217.846 246.958C217.77 246.993 217.705 247.049 217.657 247.118C217.609 247.187 217.58 247.268 217.573 247.352C217.552 247.479 217.562 247.609 217.602 247.732C217.642 247.854 217.712 247.965 217.804 248.055C218.12 248.301 218.514 248.423 218.914 248.399ZM220.065 247.985C219.053 248.195 218.285 248.16 217.971 247.886C217.907 247.822 217.86 247.743 217.834 247.655C217.809 247.568 217.805 247.476 217.825 247.387C217.825 247.267 217.894 247.232 217.943 247.211C218.32 247.042 219.346 247.541 220.065 247.985Z" fill="url(#paint6_linear_1427_8490)"/>
<path d="M220.429 248.188H220.499C220.52 248.174 220.537 248.155 220.55 248.133C220.562 248.111 220.568 248.086 220.569 248.061C220.569 247.991 220.569 246.296 219.927 245.726C219.848 245.655 219.755 245.602 219.653 245.57C219.552 245.539 219.445 245.529 219.34 245.544C219.23 245.544 219.124 245.583 219.039 245.654C218.954 245.724 218.895 245.822 218.873 245.93C218.74 246.598 219.801 247.864 220.359 248.188H220.429ZM219.431 245.804C219.488 245.802 219.544 245.812 219.597 245.832C219.649 245.853 219.697 245.884 219.738 245.923C220.106 246.47 220.297 247.119 220.283 247.78C219.724 247.33 219.061 246.373 219.145 245.972C219.145 245.909 219.194 245.825 219.368 245.804H219.431Z" fill="url(#paint7_linear_1427_8490)"/>
<path d="M212.324 245.53C212.341 245.509 212.351 245.484 212.355 245.458C212.359 245.432 212.355 245.405 212.345 245.381C212.335 245.357 212.319 245.335 212.298 245.319C212.277 245.304 212.253 245.294 212.226 245.291C211.94 245.291 209.434 245.171 208.862 245.79V245.832C208.815 245.893 208.784 245.965 208.773 246.042C208.762 246.118 208.771 246.196 208.799 246.268C208.837 246.389 208.902 246.499 208.991 246.588C209.08 246.677 209.189 246.744 209.309 246.781C210.119 247.035 211.549 246.113 212.331 245.544L212.324 245.53ZM209.072 245.973C209.386 245.635 210.768 245.544 211.801 245.558C210.719 246.303 209.818 246.655 209.365 246.514C209.286 246.49 209.214 246.447 209.155 246.388C209.097 246.329 209.054 246.256 209.03 246.177C209.016 246.149 209.008 246.119 209.008 246.089C209.008 246.058 209.016 246.028 209.03 246.001L209.072 245.973Z" fill="url(#paint8_linear_1427_8490)"/>
<path d="M212.326 245.53C212.337 245.508 212.342 245.484 212.342 245.459C212.342 245.435 212.337 245.411 212.326 245.389C212.291 245.333 211.509 243.983 210.588 243.701C210.456 243.662 210.317 243.651 210.18 243.668C210.043 243.685 209.911 243.73 209.792 243.8C209.457 243.997 209.436 244.229 209.478 244.376C209.66 245.03 211.44 245.607 212.207 245.6C212.232 245.6 212.255 245.593 212.276 245.581C212.297 245.568 212.314 245.551 212.326 245.53ZM209.82 244.123C209.86 244.084 209.904 244.051 209.953 244.025C210.039 243.969 210.136 243.934 210.238 243.92C210.339 243.907 210.442 243.916 210.539 243.947C211.147 244.109 211.712 244.897 211.97 245.284C211.14 245.192 209.876 244.679 209.771 244.285C209.763 244.255 209.762 244.223 209.771 244.193C209.78 244.163 209.797 244.137 209.82 244.116V244.123Z" fill="url(#paint9_linear_1427_8490)"/>
<path d="M220.01 64.9307C219.312 68.4469 217.805 76.0489 220.227 78.3837C220.227 78.3837 219.277 81.8999 212.835 81.8999C205.743 81.8999 209.45 78.3837 209.45 78.3837C213.316 77.4554 213.219 74.5581 212.542 71.8435L220.01 64.9307Z" fill="#7F3E3B"/>
<path d="M208.2 56.6877C208.239 56.6941 208.28 56.6941 208.319 56.6877C208.352 56.6712 208.382 56.6483 208.406 56.6202C208.43 56.5922 208.449 56.5596 208.46 56.5242C208.472 56.4889 208.477 56.4516 208.474 56.4145C208.471 56.3773 208.461 56.3411 208.444 56.3079C208.257 55.9068 207.976 55.5569 207.626 55.2876C207.277 55.0184 206.868 54.8377 206.434 54.7608C206.362 54.7546 206.289 54.7767 206.232 54.8225C206.175 54.8682 206.138 54.9342 206.127 55.0069C206.119 55.0805 206.14 55.1542 206.186 55.2122C206.232 55.2701 206.298 55.3075 206.371 55.3163C206.714 55.3825 207.035 55.53 207.31 55.7465C207.584 55.9629 207.803 56.2422 207.949 56.5611C207.976 56.6027 208.013 56.6363 208.058 56.6585C208.102 56.6808 208.151 56.6908 208.2 56.6877Z" fill="#263238"/>
<path d="M206.086 59.7754C205.536 60.8019 204.85 61.7483 204.047 62.5884C204.265 62.7888 204.523 62.9391 204.804 63.029C205.085 63.1188 205.381 63.1461 205.674 63.1088L206.086 59.7754Z" fill="#630F0F"/>
<path d="M206.608 58.9803C206.552 59.4515 206.252 59.8031 205.952 59.7679C205.652 59.7328 205.442 59.3179 205.498 58.8467C205.554 58.3755 205.854 58.0239 206.196 58.0591C206.538 58.0942 206.657 58.5091 206.608 58.9803Z" fill="#263238"/>
<path d="M206.287 58.102L205.212 57.666C205.212 57.666 205.666 58.5943 206.287 58.102Z" fill="#263238"/>
<path d="M218.489 244.194L212.793 245.53L209.331 232.337L215.027 231.001L218.489 244.194Z" fill="#7F3E3B"/>
<path d="M227.228 248.048H221.386L221.84 234.412H227.689L227.228 248.048Z" fill="#7F3E3B"/>
<path d="M220.918 247.365H227.486C227.6 247.364 227.71 247.405 227.797 247.48C227.883 247.555 227.939 247.659 227.954 247.773L228.701 253.005C228.716 253.138 228.702 253.272 228.662 253.398C228.622 253.525 228.555 253.642 228.467 253.741C228.378 253.84 228.27 253.919 228.149 253.973C228.028 254.027 227.898 254.054 227.765 254.053C225.476 254.018 224.373 253.877 221.483 253.877C219.703 253.877 217.107 254.067 214.657 254.067C212.207 254.067 212.067 251.62 213.093 251.402C217.672 250.403 218.398 249.039 219.941 247.731C220.213 247.496 220.56 247.367 220.918 247.365Z" fill="#263238"/>
<path d="M212.29 244.651L218.257 241.887C218.359 241.838 218.474 241.829 218.582 241.86C218.69 241.891 218.783 241.96 218.844 242.056L221.699 246.5C221.765 246.615 221.807 246.742 221.822 246.874C221.837 247.005 221.824 247.139 221.785 247.265C221.746 247.392 221.68 247.509 221.593 247.608C221.506 247.708 221.399 247.788 221.28 247.843C219.186 248.772 218.125 249.116 215.5 250.333C213.888 251.078 210.614 252.794 208.395 253.849C206.175 254.904 205.03 252.717 205.868 252.084C209.616 249.271 210.691 247.253 211.55 245.417C211.695 245.079 211.958 244.806 212.29 244.651Z" fill="#263238"/>
<path opacity="0.2" d="M209.331 232.337L211.188 239.412L216.814 237.801L215.034 231.001L209.331 232.337Z" fill="black"/>
<path opacity="0.2" d="M227.688 234.412H221.839L221.609 241.445H227.458L227.688 234.412Z" fill="black"/>
<path d="M230.34 79.7195C232.769 80.261 235.366 89.0586 235.366 89.0586L228.497 96.4215C228.497 96.4215 222.795 88.1514 223.96 85.1134C225.14 81.9418 227.443 79.0866 230.34 79.7195Z" fill="#263238"/>
<path opacity="0.4" d="M226.46 85.3248C225.232 84.1925 224.401 84.5301 223.836 85.4302C223.277 88.0463 226.586 93.5246 227.919 95.5991C228.533 93.1237 229.238 87.9057 226.46 85.3248Z" fill="black"/>
<path d="M199.567 79.8948C199.567 79.8948 196.775 80.8794 202.359 115.444H226.091C225.693 105.711 225.679 99.7052 230.279 79.719C226.953 79.0278 223.582 78.5812 220.193 78.3829C216.605 78.1224 213.003 78.1224 209.415 78.3829C204.816 78.8119 199.567 79.8948 199.567 79.8948Z" fill="#263238"/>
<path opacity="0.4" d="M199.349 93.1577C199.502 94.8385 199.705 96.7302 199.97 98.868C201.917 97.1029 203.509 92.0817 202.922 89.1562C201.531 90.2939 200.325 91.6441 199.349 93.1577Z" fill="black"/>
<path d="M201.889 87.9053C200.608 91.1526 199.166 94.3329 197.568 97.4342C195.989 100.647 194.12 103.708 191.984 106.576L191.538 107.132L191.314 107.406C191.237 107.498 191.175 107.582 191.056 107.709C190.636 108.17 190.168 108.585 189.66 108.946C188.762 109.572 187.78 110.065 186.742 110.409C184.933 110.991 183.056 111.327 181.158 111.408C177.605 111.55 174.049 111.231 170.577 110.458L170.961 107.505C172.566 107.505 174.248 107.505 175.847 107.371C177.452 107.291 179.051 107.113 180.635 106.837C182.106 106.605 183.544 106.199 184.921 105.627C185.476 105.388 185.996 105.071 186.463 104.685C186.642 104.534 186.803 104.364 186.945 104.178C186.945 104.178 187.029 104.066 187.084 103.988L187.245 103.756L187.573 103.292C189.324 100.566 190.885 97.7208 192.243 94.7759C193.639 91.7872 195.035 88.6859 196.312 85.6338L201.889 87.9053Z" fill="#803E3C"/>
<path d="M199.566 79.8953C196.655 80.5986 193.082 88.6437 193.082 88.6437L199.112 97.5748C199.112 97.5748 207.146 87.3849 206.19 84.2765C205.213 81.0346 203.119 79.0233 199.566 79.8953Z" fill="#263238"/>
<path d="M172.637 107.955L167.604 105.613L167.102 110.656C167.102 110.656 171.29 111.9 173.384 110.656L172.637 107.955Z" fill="#7F3E3B"/>
<path d="M164.596 105.106L164.114 108.946L167.102 110.655L167.604 105.613L164.596 105.106Z" fill="#7F3E3B"/>
<path d="M222.537 59.3248C221.469 65.0703 221.141 67.5317 217.874 70.1407C212.988 74.0648 206.183 71.4909 205.527 65.5415C204.926 60.1828 206.769 51.6876 212.681 50.0701C213.984 49.7082 215.356 49.6883 216.668 50.0126C217.98 50.3368 219.188 50.9942 220.176 51.9222C221.165 52.8503 221.901 54.0179 222.314 55.3137C222.727 56.6096 222.804 57.9905 222.537 59.3248Z" fill="#7F3E3B"/>
<path d="M210.008 60.5354C209.68 63.468 209.555 71.0841 215.948 71.3232C223.773 71.6115 226.118 64.8744 225.42 62.181C229.497 58.8406 230.083 53.0951 225.504 48.6999C220.925 44.3046 210.846 46.7589 208.054 51.0417C204.515 56.3511 210.008 60.5354 210.008 60.5354Z" fill="#263238"/>
<path d="M217.846 50.4087C217.469 47.3144 217.762 45.1836 220.638 45.1836C223.513 45.1836 227.436 46.2314 228.874 49.1921C230.312 52.1527 230.43 56.7871 226.417 56.3159C222.403 55.8448 218.299 54.1077 217.846 50.4087Z" fill="url(#paint10_linear_1427_8490)"/>
<path d="M222.299 49.6629C221.601 45.9779 224.874 35.598 232.824 34.8948C236.51 34.5783 238.213 38.5727 236.314 39.2338C239.804 39.1916 242.038 43.84 238.785 44.5362C241.354 46.1959 240.719 49.5996 237.054 51.2733C234.325 52.5391 223.241 54.7684 222.299 49.6629Z" fill="#263238"/>
<path d="M230.795 53.623C228.233 53.623 225.56 53.2432 223.899 52.1251C223.434 51.843 223.043 51.4534 222.758 50.9887C222.473 50.524 222.302 49.9975 222.258 49.4528C222.256 49.4065 222.272 49.3612 222.302 49.326C222.331 49.2907 222.373 49.2682 222.419 49.2629C222.442 49.2599 222.466 49.2619 222.488 49.2686C222.51 49.2753 222.531 49.2866 222.549 49.3018C222.566 49.3171 222.581 49.3358 222.591 49.357C222.601 49.3781 222.607 49.4012 222.607 49.4246C222.65 49.9162 222.806 50.3908 223.064 50.8099C223.323 51.229 223.676 51.5808 224.094 51.8368C227.256 53.9465 234.564 53.2432 236.84 52.54C238.808 51.893 240.141 50.6342 240.406 49.1855C240.489 48.6539 240.424 48.1096 240.218 47.6131C240.012 47.1165 239.674 46.6871 239.241 46.3726C239.224 46.3568 239.211 46.3377 239.202 46.3165C239.193 46.2954 239.188 46.2726 239.188 46.2495C239.188 46.2264 239.193 46.2036 239.202 46.1824C239.211 46.1613 239.224 46.1422 239.241 46.1264C239.273 46.0942 239.317 46.0762 239.363 46.0762C239.409 46.0762 239.452 46.0942 239.485 46.1264C239.972 46.4846 240.351 46.9722 240.579 47.5348C240.807 48.0973 240.876 48.7127 240.776 49.3121C240.49 50.8944 239.073 52.2446 236.979 52.9338C234.959 53.447 232.878 53.6788 230.795 53.623Z" fill="#263238"/>
<path d="M208.229 59.7758C207.579 60.6944 207.311 61.8326 207.482 62.9475C207.712 64.4243 209.136 64.5227 210.169 63.5804C211.202 62.638 212.103 60.9362 211.342 59.7125C211.173 59.4482 210.94 59.2319 210.664 59.0842C210.388 58.9364 210.08 58.8622 209.768 58.8685C209.456 58.8749 209.151 58.9616 208.881 59.1204C208.612 59.2792 208.387 59.5049 208.229 59.7758Z" fill="#7F3E3B"/>
<path d="M208.626 115.444C208.626 115.444 212.019 155.874 215.544 178.659C218.384 197.063 220.632 240.08 220.632 240.08H228.603C228.603 240.08 231.437 198.35 229.999 180.15C226.349 134.087 234.494 130.332 226.111 115.451L208.626 115.444Z" fill="url(#paint11_linear_1427_8490)"/>
<path opacity="0.4" d="M218.662 130.726C215.503 134.066 212.953 137.942 211.13 142.174C212.059 151.26 213.162 161.345 214.334 170.177C219.146 157.627 220.637 144.032 218.662 130.726Z" fill="black"/>
<path d="M203.049 115.191C203.049 115.191 195.686 159.348 194.527 179.25C197.417 197.654 209.241 236.557 209.241 236.557L216.493 233.906C216.493 233.906 212.479 191.486 208.117 179.876C217.938 146.563 225.155 138.138 223.054 115.445C218.022 115.445 203.049 115.191 203.049 115.191Z" fill="url(#paint12_linear_1427_8490)"/>
<path d="M208.269 238.498L218.069 235.819L217.511 231.881L207.02 234.743L208.269 238.498Z" fill="#263238"/>
<path d="M219.536 240.241H229.692L230.222 236.655L219.48 236.289L219.536 240.241Z" fill="#263238"/>
<path d="M226.46 114.038L227.528 116.182C227.612 116.351 227.417 116.52 227.145 116.52H202.24C202.03 116.52 201.849 116.414 201.835 116.274L201.619 114.164C201.619 114.016 201.793 113.89 202.023 113.89H226.07C226.142 113.88 226.215 113.888 226.284 113.914C226.352 113.94 226.413 113.982 226.46 114.038Z" fill="url(#paint13_linear_1427_8490)"/>
<path opacity="0.5" d="M226.46 114.038L227.528 116.182C227.612 116.351 227.417 116.52 227.145 116.52H202.24C202.03 116.52 201.849 116.414 201.835 116.274L201.619 114.164C201.619 114.016 201.793 113.89 202.023 113.89H226.07C226.142 113.88 226.215 113.888 226.284 113.914C226.352 113.94 226.413 113.982 226.46 114.038Z" fill="black"/>
<path d="M223.228 116.738H223.87C224.002 116.738 224.1 116.668 224.093 116.591L223.786 113.778C223.786 113.693 223.667 113.63 223.542 113.63H222.893C222.767 113.63 222.669 113.693 222.676 113.778L222.976 116.591C222.99 116.682 223.102 116.738 223.228 116.738Z" fill="url(#paint14_linear_1427_8490)"/>
<path d="M214.587 96.2596C214.51 96.2585 214.436 96.2326 214.374 96.1858C214.313 96.139 214.268 96.0738 214.245 95.9994C211.97 87.5183 207.265 80.5281 204.983 79.4732C204.806 79.3635 204.593 79.3282 204.39 79.3748C204.347 79.3972 204.301 79.4106 204.254 79.4143C204.206 79.418 204.158 79.4118 204.113 79.3962C204.068 79.3806 204.027 79.3559 203.992 79.3235C203.957 79.2912 203.928 79.2519 203.909 79.2082C203.889 79.1644 203.879 79.1171 203.878 79.0691C203.877 79.0211 203.886 78.9734 203.905 78.9291C203.923 78.8847 203.95 78.8446 203.984 78.8112C204.018 78.7778 204.059 78.7518 204.103 78.7348C204.294 78.6643 204.498 78.6365 204.701 78.6535C204.903 78.6705 205.1 78.7319 205.276 78.8333C207.691 79.9866 212.466 86.8784 214.853 95.5494C216.563 95.5494 219.201 95.3173 219.843 95.261C220.639 94.3046 226.488 86.9346 224.304 78.8684C224.291 78.8241 224.287 78.7777 224.293 78.7319C224.298 78.6861 224.313 78.6419 224.336 78.6019C224.358 78.5619 224.389 78.5269 224.425 78.499C224.462 78.4711 224.504 78.4509 224.548 78.4395C224.637 78.4157 224.731 78.4283 224.811 78.4744C224.891 78.5205 224.949 78.5964 224.974 78.6856C227.41 87.659 220.346 95.7533 220.269 95.8307C220.242 95.8648 220.208 95.893 220.17 95.9135C220.131 95.9341 220.089 95.9466 220.046 95.9502C220.011 95.9502 216.528 96.2596 214.587 96.2596Z" fill="url(#paint15_linear_1427_8490)"/>
<path d="M226.152 101.225C222.348 94.0447 220.791 93.5384 220.114 91.2318C220.627 89.9419 221.359 88.752 222.278 87.7156C221.817 87.5819 220.826 87.385 220.184 87.2655C220.254 86.949 220.331 86.6396 220.4 86.3372C219.702 86.2584 218.995 86.2917 218.306 86.4357V85.7324C217.42 85.5381 216.509 85.4788 215.605 85.5566C215.684 85.8895 215.761 86.227 215.835 86.5693C215.137 86.7029 214.076 86.9209 213.567 87.0686C214.557 88.1984 215.284 89.5366 215.696 90.9856C213.644 94.537 205.673 117.364 218.641 119.115C231.61 120.866 229.949 108.412 226.152 101.225Z" fill="url(#paint16_linear_1427_8490)"/>
<path opacity="0.4" d="M226.152 101.225C222.348 94.0447 220.791 93.5384 220.114 91.2318C220.627 89.9419 221.359 88.752 222.278 87.7156C221.817 87.5819 220.826 87.385 220.184 87.2655C220.254 86.949 220.331 86.6396 220.4 86.3372C219.702 86.2584 218.995 86.2917 218.306 86.4357V85.7324C217.42 85.5381 216.509 85.4788 215.605 85.5566C215.684 85.8895 215.761 86.227 215.835 86.5693C215.137 86.7029 214.076 86.9209 213.567 87.0686C214.557 88.1984 215.284 89.5366 215.696 90.9856C213.644 94.537 205.673 117.364 218.641 119.115C231.61 120.866 229.949 108.412 226.152 101.225Z" fill="white"/>
<path d="M215.166 90.3027C215.086 90.6649 215.05 91.0358 215.062 91.4068C215.062 91.667 215.76 91.8428 216.534 91.9202C217.309 91.9976 220.562 92.1241 220.457 91.7584C220.352 91.3928 220.618 90.8935 220.632 90.584C220.646 90.2746 219.34 90.2605 218.245 90.3027C217.149 90.3449 215.383 89.9089 215.166 90.3027Z" fill="url(#paint17_linear_1427_8490)"/>
<path d="M207.622 116.738H208.264C208.389 116.738 208.487 116.668 208.48 116.591L208.18 113.778C208.18 113.693 208.061 113.63 207.929 113.63H207.308C207.182 113.63 207.084 113.693 207.091 113.778L207.391 116.591C207.377 116.682 207.489 116.738 207.622 116.738Z" fill="url(#paint18_linear_1427_8490)"/>
<defs>
<linearGradient id="paint0_linear_1427_8490" x1="79.1436" y1="135.086" x2="186.815" y2="135.48" gradientUnits="userSpaceOnUse">
<stop stop-color="#2F15AA"/>
<stop offset="0.47831" stop-color="#2F15AA" stop-opacity="0.8"/>
<stop offset="1" stop-color="#2F15AA" stop-opacity="0.4"/>
</linearGradient>
<linearGradient id="paint1_linear_1427_8490" x1="154.614" y1="47.0889" x2="164.402" y2="47.8647" gradientUnits="userSpaceOnUse">
<stop stop-color="#2F15AA"/>
<stop offset="0.47831" stop-color="#2F15AA" stop-opacity="0.8"/>
<stop offset="1" stop-color="#2F15AA" stop-opacity="0.4"/>
</linearGradient>
<linearGradient id="paint2_linear_1427_8490" x1="147.592" y1="47.0889" x2="151.197" y2="47.1936" gradientUnits="userSpaceOnUse">
<stop stop-color="#2F15AA"/>
<stop offset="0.47831" stop-color="#2F15AA" stop-opacity="0.8"/>
<stop offset="1" stop-color="#2F15AA" stop-opacity="0.4"/>
</linearGradient>
<linearGradient id="paint3_linear_1427_8490" x1="87.4502" y1="128.831" x2="190.438" y2="129.207" gradientUnits="userSpaceOnUse">
<stop stop-color="#2F15AA"/>
<stop offset="0.47831" stop-color="#2F15AA" stop-opacity="0.8"/>
<stop offset="1" stop-color="#2F15AA" stop-opacity="0.4"/>
</linearGradient>
<linearGradient id="paint4_linear_1427_8490" x1="119.044" y1="101.038" x2="155.718" y2="101.496" gradientUnits="userSpaceOnUse">
<stop stop-color="#2F15AA"/>
<stop offset="0.47831" stop-color="#2F15AA" stop-opacity="0.8"/>
<stop offset="1" stop-color="#2F15AA" stop-opacity="0.4"/>
</linearGradient>
<linearGradient id="paint5_linear_1427_8490" x1="130.187" y1="87.6731" x2="142.989" y2="74.7731" gradientUnits="userSpaceOnUse">
<stop stop-color="#2F15AA"/>
<stop offset="0.47831" stop-color="#2F15AA" stop-opacity="0.8"/>
<stop offset="1" stop-color="#2F15AA" stop-opacity="0.4"/>
</linearGradient>
<linearGradient id="paint6_linear_1427_8490" x1="217.562" y1="247.654" x2="220.569" y2="247.688" gradientUnits="userSpaceOnUse">
<stop stop-color="#2F15AA"/>
<stop offset="0.47831" stop-color="#2F15AA" stop-opacity="0.8"/>
<stop offset="1" stop-color="#2F15AA" stop-opacity="0.4"/>
</linearGradient>
<linearGradient id="paint7_linear_1427_8490" x1="218.861" y1="246.862" x2="220.569" y2="246.869" gradientUnits="userSpaceOnUse">
<stop stop-color="#2F15AA"/>
<stop offset="0.47831" stop-color="#2F15AA" stop-opacity="0.8"/>
<stop offset="1" stop-color="#2F15AA" stop-opacity="0.4"/>
</linearGradient>
<linearGradient id="paint8_linear_1427_8490" x1="208.769" y1="246.053" x2="212.356" y2="246.1" gradientUnits="userSpaceOnUse">
<stop stop-color="#2F15AA"/>
<stop offset="0.47831" stop-color="#2F15AA" stop-opacity="0.8"/>
<stop offset="1" stop-color="#2F15AA" stop-opacity="0.4"/>
</linearGradient>
<linearGradient id="paint9_linear_1427_8490" x1="209.462" y1="244.63" x2="212.342" y2="244.654" gradientUnits="userSpaceOnUse">
<stop stop-color="#2F15AA"/>
<stop offset="0.47831" stop-color="#2F15AA" stop-opacity="0.8"/>
<stop offset="1" stop-color="#2F15AA" stop-opacity="0.4"/>
</linearGradient>
<linearGradient id="paint10_linear_1427_8490" x1="217.714" y1="50.7664" x2="229.787" y2="50.8403" gradientUnits="userSpaceOnUse">
<stop stop-color="#2F15AA"/>
<stop offset="0.47831" stop-color="#2F15AA" stop-opacity="0.8"/>
<stop offset="1" stop-color="#2F15AA" stop-opacity="0.4"/>
</linearGradient>
<linearGradient id="paint11_linear_1427_8490" x1="208.626" y1="177.762" x2="230.406" y2="177.784" gradientUnits="userSpaceOnUse">
<stop stop-color="#2F15AA"/>
<stop offset="0.47831" stop-color="#2F15AA" stop-opacity="0.8"/>
<stop offset="1" stop-color="#2F15AA" stop-opacity="0.4"/>
</linearGradient>
<linearGradient id="paint12_linear_1427_8490" x1="194.527" y1="175.874" x2="223.42" y2="175.913" gradientUnits="userSpaceOnUse">
<stop stop-color="#2F15AA"/>
<stop offset="0.47831" stop-color="#2F15AA" stop-opacity="0.8"/>
<stop offset="1" stop-color="#2F15AA" stop-opacity="0.4"/>
</linearGradient>
<linearGradient id="paint13_linear_1427_8490" x1="201.619" y1="115.203" x2="227.468" y2="116.643" gradientUnits="userSpaceOnUse">
<stop stop-color="#2F15AA"/>
<stop offset="0.47831" stop-color="#2F15AA" stop-opacity="0.8"/>
<stop offset="1" stop-color="#2F15AA" stop-opacity="0.4"/>
</linearGradient>
<linearGradient id="paint14_linear_1427_8490" x1="222.676" y1="115.184" x2="224.093" y2="115.188" gradientUnits="userSpaceOnUse">
<stop stop-color="#2F15AA"/>
<stop offset="0.47831" stop-color="#2F15AA" stop-opacity="0.8"/>
<stop offset="1" stop-color="#2F15AA" stop-opacity="0.4"/>
</linearGradient>
<linearGradient id="paint15_linear_1427_8490" x1="203.878" y1="87.3437" x2="225.483" y2="87.4919" gradientUnits="userSpaceOnUse">
<stop stop-color="#2F15AA"/>
<stop offset="0.47831" stop-color="#2F15AA" stop-opacity="0.8"/>
<stop offset="1" stop-color="#2F15AA" stop-opacity="0.4"/>
</linearGradient>
<linearGradient id="paint16_linear_1427_8490" x1="211.391" y1="102.403" x2="228.884" y2="102.454" gradientUnits="userSpaceOnUse">
<stop stop-color="#2F15AA"/>
<stop offset="0.47831" stop-color="#2F15AA" stop-opacity="0.8"/>
<stop offset="1" stop-color="#2F15AA" stop-opacity="0.4"/>
</linearGradient>
<linearGradient id="paint17_linear_1427_8490" x1="215.06" y1="91.0712" x2="220.63" y2="91.1652" gradientUnits="userSpaceOnUse">
<stop stop-color="#2F15AA"/>
<stop offset="0.47831" stop-color="#2F15AA" stop-opacity="0.8"/>
<stop offset="1" stop-color="#2F15AA" stop-opacity="0.4"/>
</linearGradient>
<linearGradient id="paint18_linear_1427_8490" x1="207.091" y1="115.184" x2="208.481" y2="115.188" gradientUnits="userSpaceOnUse">
<stop stop-color="#2F15AA"/>
<stop offset="0.47831" stop-color="#2F15AA" stop-opacity="0.8"/>
<stop offset="1" stop-color="#2F15AA" stop-opacity="0.4"/>
</linearGradient>
</defs>
</svg>
