<svg width="40" height="42" viewBox="0 0 40 42" fill="none" xmlns="http://www.w3.org/2000/svg">
<rect width="40" height="42" rx="4" fill="#D9D9D9"/>
<path d="M32.5443 29.59H6.45566C5.65326 29.59 5 28.9357 5 28.1316V22.8084C5 21.79 5.40026 20.8286 6.12526 20.1041C6.85026 19.3797 7.80938 18.9814 8.82702 18.9814H30.173C31.1906 18.9814 32.1497 19.3797 32.8747 20.1041C33.5997 20.8286 34 21.79 34 22.8084V28.1316C34 28.9357 33.3467 29.59 32.5443 29.59ZM8.82702 19.8917C7.21654 19.8917 5.90625 21.2002 5.90625 22.8103V28.1335C5.90625 28.4313 6.15736 28.6816 6.45566 28.6816H32.5424C32.8408 28.6816 33.0919 28.4313 33.0919 28.1335V22.8103C33.0919 21.2021 31.7816 19.8917 30.1711 19.8917H8.82702Z" fill="black"/>
<path d="M29.9485 19.8924H9.05188C8.91217 19.8924 8.78001 19.828 8.69505 19.718C8.61009 19.608 8.57799 19.4639 8.61197 19.3273L9.97135 13.8277C10.1979 12.9118 10.6208 12.1247 11.1948 11.5558C11.8594 10.8959 12.7146 10.5488 13.6662 10.5488H25.3304C26.282 10.5488 27.1372 10.8978 27.8018 11.5558C28.3758 12.1247 28.7987 12.9099 29.0253 13.8277L30.3846 19.3273C30.4186 19.4639 30.3884 19.608 30.3016 19.718C30.2147 19.828 30.0882 19.8924 29.9485 19.8924ZM9.63151 18.9822H29.3689L28.1473 14.0458C27.9982 13.439 27.3525 11.4572 25.3323 11.4572H13.6681C11.6479 11.4572 11.0022 13.439 10.8531 14.0458L9.63151 18.9822Z" fill="black"/>
<path d="M12.1173 33.5753H9.70065C8.72454 33.5753 7.92969 32.7788 7.92969 31.8003V29.1358C7.92969 28.8836 8.13171 28.6807 8.38281 28.6807H13.4352C13.6863 28.6807 13.8883 28.8836 13.8883 29.1358V31.8003C13.8883 32.7788 13.0934 33.5753 12.1173 33.5753ZM8.83594 29.5909V31.8003C8.83594 32.2763 9.22298 32.665 9.70065 32.665H12.1173C12.595 32.665 12.982 32.2763 12.982 31.8003V29.5909H8.83594Z" fill="black"/>
<path d="M29.299 33.5753H26.8823C25.9062 33.5753 25.1113 32.7788 25.1113 31.8003V29.1358C25.1113 28.8836 25.3133 28.6807 25.5645 28.6807H30.6168C30.8679 28.6807 31.0699 28.8836 31.0699 29.1358V31.8003C31.0699 32.7788 30.2751 33.5753 29.299 33.5753ZM26.0176 29.5909V31.8003C26.0176 32.2763 26.4046 32.665 26.8823 32.665H29.299C29.7766 32.665 30.1637 32.2763 30.1637 31.8003V29.5909H26.0176Z" fill="black"/>
<path d="M10.2451 27.4577C8.49681 27.4577 7.07324 26.0354 7.07324 24.285C7.07324 22.5365 8.49681 21.1123 10.2451 21.1123C11.9934 21.1123 13.417 22.5346 13.417 24.285C13.417 26.0354 11.9934 27.4577 10.2451 27.4577ZM10.2451 22.0226C8.99525 22.0226 7.97949 23.0372 7.97949 24.285C7.97949 25.5328 8.99525 26.5474 10.2451 26.5474C11.495 26.5474 12.5107 25.5328 12.5107 24.285C12.5107 23.0372 11.495 22.0226 10.2451 22.0226Z" fill="black"/>
<path d="M28.7549 27.4577C27.0066 27.4577 25.583 26.0354 25.583 24.285C25.583 22.5365 27.0066 21.1123 28.7549 21.1123C30.5032 21.1123 31.9268 22.5346 31.9268 24.285C31.9268 26.0354 30.5032 27.4577 28.7549 27.4577ZM28.7549 22.0226C27.505 22.0226 26.4893 23.0372 26.4893 24.285C26.4893 25.5328 27.505 26.5474 28.7549 26.5474C30.0048 26.5474 31.0205 25.5328 31.0205 24.285C31.0205 23.0372 30.0029 22.0226 28.7549 22.0226Z" fill="black"/>
<path d="M22.1767 22.7023H16.8223C16.5712 22.7023 16.3691 22.4994 16.3691 22.2471C16.3691 21.9949 16.5712 21.792 16.8223 21.792H22.1767C22.4278 21.792 22.6298 21.9949 22.6298 22.2471C22.6298 22.4994 22.4259 22.7023 22.1767 22.7023Z" fill="black"/>
<path d="M22.1767 24.7394H16.8223C16.5712 24.7394 16.3691 24.5365 16.3691 24.2842C16.3691 24.032 16.5712 23.8291 16.8223 23.8291H22.1767C22.4278 23.8291 22.6298 24.032 22.6298 24.2842C22.6298 24.5365 22.4259 24.7394 22.1767 24.7394Z" fill="black"/>
<path d="M22.1767 26.7804H16.8223C16.5712 26.7804 16.3691 26.5775 16.3691 26.3253C16.3691 26.073 16.5712 25.8701 16.8223 25.8701H22.1767C22.4278 25.8701 22.6298 26.073 22.6298 26.3253C22.6298 26.5775 22.4259 26.7804 22.1767 26.7804Z" fill="black"/>
<path d="M15.8468 11.4591C15.8052 11.4591 15.7637 11.4534 15.7222 11.442C15.4824 11.3718 15.3427 11.1196 15.4125 10.8788L15.8883 9.2175C16.1017 8.46652 16.7058 8 17.4629 8H21.5411C22.2981 8 22.9023 8.46652 23.1157 9.2175L23.5914 10.8788C23.6613 11.1196 23.5216 11.3718 23.2818 11.442C23.042 11.5122 22.7909 11.3718 22.7211 11.131L22.2453 9.46972C22.1868 9.26111 22.0149 8.91217 21.5411 8.91217H17.461C16.9871 8.91217 16.8172 9.26111 16.7568 9.46972L16.281 11.131C16.2244 11.3282 16.0431 11.4591 15.8468 11.4591Z" fill="black"/>
<path d="M14.3619 17.77C14.2845 17.77 14.2071 17.751 14.1353 17.7093C13.9182 17.5841 13.8446 17.3054 13.9711 17.0873L16.3877 12.9C16.5142 12.6819 16.7899 12.608 17.007 12.735C17.2241 12.8621 17.2978 13.1389 17.1713 13.357L14.7546 17.5443C14.6715 17.6884 14.5186 17.77 14.3619 17.77Z" fill="black"/>
<path d="M18.2896 17.7709C18.2122 17.7709 18.1348 17.7519 18.0631 17.7102C17.8459 17.5832 17.7723 17.3063 17.8988 17.0882L20.3174 12.899C20.4439 12.6809 20.7195 12.607 20.9366 12.734C21.1537 12.8611 21.2274 13.138 21.1009 13.3561L18.6823 17.5433C18.5974 17.6894 18.4463 17.7709 18.2896 17.7709Z" fill="black"/>
<path d="M22.2193 17.77C22.1419 17.77 22.0645 17.751 21.9927 17.7093C21.7756 17.5841 21.702 17.3054 21.8285 17.0873L24.2452 12.9C24.3717 12.6819 24.6473 12.608 24.8644 12.735C25.0815 12.8602 25.1552 13.1389 25.0287 13.357L22.612 17.5443C22.5271 17.6884 22.376 17.77 22.2193 17.77Z" fill="black"/>
<path d="M29.9482 19.893C29.6971 19.893 29.4951 19.6901 29.4951 19.4379V18.9448C29.4951 18.2299 29.8387 17.5491 30.4656 17.0294C31.0527 16.5421 31.8419 16.2367 32.6896 16.1647C32.9389 16.1438 33.1579 16.3297 33.1786 16.58C33.1994 16.8303 33.0144 17.0503 32.7652 17.0712C31.4398 17.1812 30.4033 18.0042 30.4033 18.9429V19.436C30.4014 19.6882 30.1975 19.893 29.9482 19.893Z" fill="black"/>
<path d="M9.0514 19.8921C8.80029 19.8921 8.59827 19.6892 8.59827 19.437V18.9439C8.59827 18.0052 7.55986 17.1821 6.23636 17.0721C5.98714 17.0513 5.80211 16.8313 5.82288 16.581C5.84365 16.3306 6.06266 16.1448 6.31188 16.1657C7.1596 16.2358 7.95068 16.543 8.53597 17.0304C9.1609 17.55 9.50641 18.229 9.50641 18.9458V19.4389C9.50452 19.6873 9.3025 19.8921 9.0514 19.8921Z" fill="black"/>
</svg>
