<svg width="256" height="125" viewBox="0 0 256 125" fill="none" xmlns="http://www.w3.org/2000/svg">
<mask id="path-1-outside-1_0_6" maskUnits="userSpaceOnUse" x="7" y="19" width="243" height="83" fill="black">
<rect fill="white" x="7" y="19" width="243" height="83"/>
<path d="M10.8398 22.6816H79.1016V36.2559H26.3184V56.2266H71.1426V68.9707H26.3184V99H10.8398V22.6816ZM231.293 22.6816H246.869V99H231.293V22.6816Z"/>
</mask>
<path d="M10.8398 22.6816V19.6816H7.83984V22.6816H10.8398ZM79.1016 22.6816H82.1016V19.6816H79.1016V22.6816ZM79.1016 36.2559V39.2559H82.1016V36.2559H79.1016ZM26.3184 36.2559V33.2559H23.3184V36.2559H26.3184ZM26.3184 56.2266H23.3184V59.2266H26.3184V56.2266ZM71.1426 56.2266H74.1426V53.2266H71.1426V56.2266ZM71.1426 68.9707V71.9707H74.1426V68.9707H71.1426ZM26.3184 68.9707V65.9707H23.3184V68.9707H26.3184ZM26.3184 99V102H29.3184V99H26.3184ZM10.8398 99H7.83984V102H10.8398V99ZM10.8398 25.6816H79.1016V19.6816H10.8398V25.6816ZM76.1016 22.6816V36.2559H82.1016V22.6816H76.1016ZM79.1016 33.2559H26.3184V39.2559H79.1016V33.2559ZM23.3184 36.2559V56.2266H29.3184V36.2559H23.3184ZM26.3184 59.2266H71.1426V53.2266H26.3184V59.2266ZM68.1426 56.2266V68.9707H74.1426V56.2266H68.1426ZM71.1426 65.9707H26.3184V71.9707H71.1426V65.9707ZM23.3184 68.9707V99H29.3184V68.9707H23.3184ZM26.3184 96H10.8398V102H26.3184V96ZM13.8398 99V22.6816H7.83984V99H13.8398ZM231.293 22.6816V19.6816H228.293V22.6816H231.293ZM246.869 22.6816H249.869V19.6816H246.869V22.6816ZM246.869 99V102H249.869V99H246.869ZM231.293 99H228.293V102H231.293V99ZM231.293 25.6816H246.869V19.6816H231.293V25.6816ZM243.869 22.6816V99H249.869V22.6816H243.869ZM246.869 96H231.293V102H246.869V96ZM234.293 99V22.6816H228.293V99H234.293Z" fill="#464E5F" mask="url(#path-1-outside-1_0_6)"/>
<path fill-rule="evenodd" clip-rule="evenodd" d="M177.503 22.7004L171.61 30.4L178.031 36.8207L184.451 43.2414L184.373 35.5165C184.33 31.2679 184.092 24.9132 183.845 21.3961L183.397 15L177.503 22.7004ZM167.365 40.9246C166.063 42.9772 162.774 48.1598 160.056 52.4407C155.434 59.7243 155.043 60.6568 153.972 66.9335C153.213 71.3873 152.829 77.8045 152.829 86.0284V98.4145H155.598C157.122 98.4145 158.559 98.7244 158.793 99.1031C159.028 99.4819 157.905 101.57 156.298 103.745C153.841 107.071 153.53 107.848 154.334 108.644C155.135 109.438 156.259 109.032 161.333 106.113L167.379 102.636L169.67 93.9375C170.931 89.1534 172.164 84.9308 172.409 84.5534C172.655 84.1767 176.642 81.6863 181.268 79.0195L189.679 74.1708L186.89 73.7829L184.1 73.395L191.379 69.9179L198.658 66.4409L191.93 62.576C188.23 60.4502 185.192 58.522 185.179 58.2901C185.165 58.0589 186.935 58.1488 189.112 58.4904C191.289 58.8319 193.166 59.0153 193.283 58.8979C193.471 58.7096 181.059 47.1991 172.764 39.8705L169.732 37.1918L167.365 40.9246ZM171.18 63.8683C169.022 66.8991 167.771 67.6938 165.762 67.3102C164.403 67.0502 163.278 67.5287 161.404 69.1597C158.74 71.4801 158.867 71.0135 162.146 66.4409C164.078 63.7446 167.313 62.1586 171.323 61.9421C172.521 61.8775 172.513 61.9969 171.18 63.8683Z" fill="#464E5F"/>
<path fill-rule="evenodd" clip-rule="evenodd" d="M128.155 22.7004L134.048 30.4L127.628 36.8207L121.207 43.2414L121.286 35.5165C121.328 31.2679 121.566 24.9132 121.813 21.3961L122.261 15L128.155 22.7004ZM138.293 40.9246C139.595 42.9772 142.884 48.1598 145.602 52.4407C150.224 59.7243 150.615 60.6568 151.686 66.9335C152.445 71.3873 152.829 77.8045 152.829 86.0284V98.4145H150.06C148.536 98.4145 147.099 98.7244 146.865 99.1031C146.63 99.4819 147.753 101.57 149.36 103.745C151.817 107.071 152.128 107.848 151.324 108.644C150.523 109.438 149.399 109.032 144.325 106.113L138.279 102.636L135.988 93.9375C134.727 89.1534 133.494 84.9308 133.249 84.5534C133.003 84.1767 129.016 81.6863 124.39 79.0195L115.979 74.1708L118.768 73.7829L121.558 73.395L114.279 69.9179L107 66.4409L113.728 62.576C117.428 60.4502 120.466 58.522 120.479 58.2901C120.493 58.0589 118.723 58.1488 116.546 58.4904C114.369 58.8319 112.492 59.0153 112.375 58.8979C112.187 58.7096 124.6 47.1991 132.894 39.8705L135.926 37.1918L138.293 40.9246ZM134.478 63.8683C136.636 66.8991 137.887 67.6938 139.896 67.3102C141.255 67.0502 142.38 67.5287 144.254 69.1597C146.918 71.4801 146.791 71.0135 143.512 66.4409C141.58 63.7446 138.345 62.1586 134.335 61.9421C133.137 61.8775 133.145 61.9969 134.478 63.8683Z" fill="#464E5F"/>
</svg>
