<svg width="40" height="42" viewBox="0 0 40 42" fill="none" xmlns="http://www.w3.org/2000/svg">
<rect width="40" height="42" rx="4" fill="#D9D9D9"/>
<path d="M19.5003 18.1757C20.8788 18.1757 22.2264 17.7689 23.3726 17.0068C24.5188 16.2446 25.4122 15.1614 25.9397 13.894C26.4673 12.6266 26.6053 11.232 26.3363 9.88657C26.0674 8.54111 25.4036 7.30524 24.4288 6.33522C23.454 5.3652 22.2121 4.70461 20.8601 4.43699C19.508 4.16936 18.1066 4.30672 16.833 4.83169C15.5594 5.35665 14.4708 6.24566 13.7049 7.38628C12.9391 8.5269 12.5303 9.8679 12.5303 11.2397C12.5303 13.0793 13.2646 14.8435 14.5717 16.1442C15.8789 17.445 17.6517 18.1757 19.5003 18.1757ZM19.5003 5.11971C20.7166 5.11971 21.9057 5.47865 22.917 6.15112C23.9284 6.82359 24.7167 7.77941 25.1821 8.89769C25.6476 10.016 25.7694 11.2465 25.5321 12.4337C25.2948 13.6208 24.7091 14.7113 23.849 15.5672C22.9889 16.4231 21.8931 17.006 20.7001 17.2421C19.5071 17.4783 18.2705 17.3571 17.1468 16.8939C16.023 16.4306 15.0625 15.6462 14.3867 14.6398C13.711 13.6334 13.3503 12.4501 13.3503 11.2397C13.3503 9.61659 13.9982 8.05994 15.1516 6.91222C16.3049 5.7645 17.8692 5.11971 19.5003 5.11971Z" fill="black"/>
<path d="M8.72096 12.9902L7.36796 11.6478H11.2999V10.8318H7.36796L8.72096 9.48952L8.13876 8.91016L5.80176 11.2398L8.13876 13.5695L8.72096 12.9902Z" fill="black"/>
<path d="M30.2791 12.9902L30.8613 13.5695L33.1983 11.2398L30.8613 8.91016L30.2791 9.48952L31.6321 10.8318H27.7002V11.6478H31.6321L30.2791 12.9902Z" fill="black"/>
<path d="M17.4012 10.351L16.4336 13.9414C16.3488 14.2552 16.3928 14.5897 16.5558 14.8713C16.7188 15.1529 16.9875 15.3585 17.3028 15.4429C17.6182 15.5273 17.9543 15.4836 18.2373 15.3214C18.5202 15.1592 18.7268 14.8917 18.8116 14.5779L19.4102 12.3502L20.0498 12.9826L19.5004 14.1577L21.2921 15.9406L22.3335 13.5171L24.7607 12.4645L22.969 10.6815L21.7882 11.2405L21.1404 10.6162L23.3913 10.0165C23.6256 9.95323 23.8358 9.82242 23.9954 9.64055C24.1551 9.45867 24.2572 9.23384 24.2887 8.99438C24.3203 8.75491 24.28 8.51151 24.1728 8.2948C24.0656 8.0781 23.8965 7.89779 23.6865 7.77656C23.5468 7.6953 23.3922 7.6423 23.2318 7.62059C23.0714 7.59889 22.9083 7.60891 22.7517 7.65008L19.1396 8.61296L17.6636 7.16048C17.429 6.93894 17.1179 6.81543 16.7944 6.81543C16.471 6.81543 16.1599 6.93894 15.9252 7.16048C15.8106 7.2742 15.7196 7.40932 15.6575 7.5581C15.5954 7.70688 15.5635 7.86639 15.5635 8.02748C15.5635 8.18858 15.5954 8.34809 15.6575 8.49687C15.7196 8.64565 15.8106 8.78077 15.9252 8.89448L17.4012 10.351ZM16.5074 7.7276C16.5838 7.65223 16.6869 7.60974 16.7944 7.60928C16.8484 7.60897 16.9019 7.61927 16.9518 7.63957C17.0018 7.65987 17.0472 7.68979 17.0855 7.7276L18.8977 9.53096L22.9649 8.44568C23.017 8.43176 23.0714 8.42819 23.1248 8.43519C23.1783 8.44219 23.2299 8.45962 23.2765 8.48648C23.3696 8.54099 23.4373 8.62983 23.465 8.73373C23.4926 8.83762 23.4779 8.94817 23.4241 9.04136C23.3708 9.13509 23.2824 9.20403 23.1781 9.23312L19.566 10.196L21.616 12.236L22.7804 11.6811L23.3093 12.2034L21.6693 12.897L20.9723 14.529L20.4475 14.0026L21.0051 12.8276L18.9551 10.7876L17.9875 14.3821C17.9738 14.4342 17.9497 14.483 17.9169 14.5258C17.884 14.5686 17.8429 14.6046 17.796 14.6315C17.7492 14.6584 17.6974 14.6758 17.6437 14.6828C17.59 14.6897 17.5355 14.6859 17.4832 14.6718C17.4309 14.658 17.3818 14.6341 17.3388 14.6014C17.2958 14.5687 17.2597 14.5279 17.2326 14.4812C17.2056 14.4345 17.1881 14.383 17.1811 14.3296C17.1742 14.2762 17.1779 14.2219 17.1921 14.1699L18.2827 10.1226L16.5074 8.30288C16.4311 8.22644 16.3882 8.12303 16.3882 8.01524C16.3882 7.90746 16.4311 7.80405 16.5074 7.7276Z" fill="black"/>
<path d="M8.8402 31.2324C8.51583 31.2324 8.19876 31.3281 7.92906 31.5075C7.65936 31.6868 7.44916 31.9417 7.32503 32.2399C7.20091 32.5381 7.16843 32.8662 7.23171 33.1828C7.29499 33.4994 7.45118 33.7902 7.68054 34.0184C7.9099 34.2467 8.20212 34.4021 8.52025 34.4651C8.83838 34.528 9.16813 34.4957 9.4678 34.3722C9.76747 34.2487 10.0236 34.0395 10.2038 33.7711C10.384 33.5027 10.4802 33.1872 10.4802 32.8644C10.4802 32.4316 10.3074 32.0165 9.99985 31.7104C9.69229 31.4044 9.27515 31.2324 8.8402 31.2324ZM8.8402 33.6804C8.67802 33.6804 8.51948 33.6326 8.38463 33.5429C8.24978 33.4532 8.14468 33.3258 8.08261 33.1767C8.02055 33.0276 8.00431 32.8635 8.03595 32.7052C8.06759 32.5469 8.14569 32.4015 8.26037 32.2874C8.37505 32.1733 8.52116 32.0956 8.68022 32.0641C8.83929 32.0326 9.00416 32.0488 9.154 32.1105C9.30383 32.1723 9.4319 32.2769 9.522 32.4111C9.6121 32.5453 9.6602 32.703 9.6602 32.8644C9.6602 33.0808 9.5738 33.2884 9.42002 33.4414C9.26624 33.5945 9.05767 33.6804 8.8402 33.6804Z" fill="black"/>
<path d="M27.2904 31.2324C26.966 31.2324 26.649 31.3281 26.3793 31.5075C26.1096 31.6868 25.8994 31.9417 25.7752 32.2399C25.6511 32.5381 25.6186 32.8662 25.6819 33.1828C25.7452 33.4994 25.9014 33.7902 26.1307 34.0184C26.3601 34.2467 26.6523 34.4021 26.9704 34.4651C27.2886 34.528 27.6183 34.4957 27.918 34.3722C28.2177 34.2487 28.4738 34.0395 28.654 33.7711C28.8342 33.5027 28.9304 33.1872 28.9304 32.8644C28.9304 32.4316 28.7576 32.0165 28.45 31.7104C28.1425 31.4044 27.7253 31.2324 27.2904 31.2324ZM27.2904 33.6804C27.1282 33.6804 26.9697 33.6326 26.8348 33.5429C26.7 33.4532 26.5949 33.3258 26.5328 33.1767C26.4707 33.0276 26.4545 32.8635 26.4861 32.7052C26.5178 32.5469 26.5959 32.4015 26.7106 32.2874C26.8252 32.1733 26.9714 32.0956 27.1304 32.0641C27.2895 32.0326 27.4544 32.0488 27.6042 32.1105C27.754 32.1723 27.8821 32.2769 27.9722 32.4111C28.0623 32.5453 28.1104 32.703 28.1104 32.8644C28.1104 33.0808 28.024 33.2884 27.8702 33.4414C27.7164 33.5945 27.5079 33.6804 27.2904 33.6804Z" fill="black"/>
<path d="M13.3499 27.776C13.2286 27.8874 13.1438 28.0327 13.1068 28.1928C13.0698 28.353 13.0822 28.5205 13.1425 28.6735C13.2027 28.8265 13.308 28.9578 13.4445 29.0503C13.581 29.1428 13.7424 29.1921 13.9075 29.1917H20.7299V25.9277H17.0891C15.6377 25.9277 14.256 26.9355 13.3499 27.776ZM19.9099 28.3757H13.9075C14.5635 27.7678 15.8427 26.7437 17.0891 26.7437H19.9099V28.3757Z" fill="black"/>
<path d="M23.5998 25.9285H21.5498V29.1925H25.9245C26.0581 29.1919 26.1896 29.1589 26.3075 29.0963C26.4253 29.0336 26.526 28.9433 26.6008 28.8331C26.6756 28.7229 26.7221 28.5962 26.7365 28.464C26.7508 28.3318 26.7324 28.1981 26.683 28.0745C26.4646 27.4374 26.0481 26.886 25.4938 26.5002C24.9395 26.1143 24.2761 25.9141 23.5998 25.9285ZM22.3698 28.3765V26.7445H23.5998C24.1123 26.7308 24.6155 26.8823 25.0345 27.1764C25.4534 27.4705 25.7656 27.8914 25.9245 28.3765H22.3698Z" fill="black"/>
<path d="M19.9095 29.5996H18.2695V30.4156H19.9095V29.5996Z" fill="black"/>
<path d="M32.6205 25.5195H30.9805V26.3355H32.6205V25.5195Z" fill="black"/>
<path d="M34.6703 29.5996H33.0303V30.4156H34.6703V29.5996Z" fill="black"/>
<path d="M33.4399 32.0479V31.2319H32.0992C32.1673 30.2548 32.0001 29.2757 31.6113 28.3759H34.6699V27.5599H29.1595C28.8031 27.0691 28.3649 26.6428 27.8639 26.2992H30.1599V25.4832H26.4248C24.9816 24.8345 22.8619 24.2959 19.8033 24.2959C15.2933 24.2959 13.9075 25.2465 10.7218 27.9679C8.64722 28.1678 4.10032 28.7227 3.55502 29.8121C2.23072 32.4559 3.09992 33.4555 3.21882 33.5616L3.34182 33.6799H6.08882C6.265 34.2699 6.628 34.7874 7.12373 35.1555C7.61947 35.5235 8.22142 35.7224 8.83992 35.7224C9.45842 35.7224 10.0604 35.5235 10.5561 35.1555C11.0518 34.7874 11.4148 34.2699 11.591 33.6799H24.5388C24.715 34.2699 25.078 34.7874 25.5737 35.1555C26.0695 35.5235 26.6714 35.7224 27.2899 35.7224C27.9084 35.7224 28.5104 35.5235 29.0061 35.1555C29.5018 34.7874 29.8648 34.2699 30.041 33.6799H30.6724C30.8466 33.6796 31.0176 33.6329 31.1676 33.5447C31.3176 33.4564 31.441 33.3298 31.5252 33.1781C31.7221 32.8228 31.8697 32.4426 31.9639 32.0479H33.4399ZM8.83992 34.9039C8.43447 34.9039 8.03812 34.7843 7.701 34.5601C7.36388 34.3359 7.10113 34.0173 6.94597 33.6446C6.79081 33.2718 6.75021 32.8616 6.82931 32.4659C6.90841 32.0702 7.10365 31.7067 7.39035 31.4214C7.67705 31.1361 8.04232 30.9418 8.43998 30.8631C8.83765 30.7844 9.24983 30.8248 9.62442 30.9792C9.99901 31.1336 10.3192 31.3951 10.5444 31.7305C10.7697 32.066 10.8899 32.4604 10.8899 32.8639C10.8899 33.4049 10.6739 33.9238 10.2895 34.3064C9.90504 34.689 9.38361 34.9039 8.83992 34.9039ZM27.2899 34.9039C26.8845 34.9039 26.4881 34.7843 26.151 34.5601C25.8139 34.3359 25.5511 34.0173 25.396 33.6446C25.2408 33.2718 25.2002 32.8616 25.2793 32.4659C25.3584 32.0702 25.5537 31.7067 25.8403 31.4214C26.127 31.1361 26.4923 30.9418 26.89 30.8631C27.2876 30.7844 27.6998 30.8248 28.0744 30.9792C28.449 31.1336 28.7692 31.3951 28.9944 31.7305C29.2197 32.066 29.3399 32.4604 29.3399 32.8639C29.3399 33.4049 29.1239 33.9238 28.7395 34.3064C28.355 34.689 27.8336 34.9039 27.2899 34.9039ZM30.8077 32.7823C30.7945 32.8067 30.775 32.8271 30.7513 32.8415C30.7275 32.8558 30.7002 32.8636 30.6724 32.8639H30.1599C30.1599 32.1064 29.8575 31.38 29.3193 30.8444C28.7811 30.3088 28.0511 30.0079 27.2899 30.0079C26.5287 30.0079 25.7988 30.3088 25.2605 30.8444C24.7223 31.38 24.4199 32.1064 24.4199 32.8639H11.7099C11.7099 32.1064 11.4075 31.38 10.8693 30.8444C10.3311 30.3088 9.60109 30.0079 8.83992 30.0079C8.07875 30.0079 7.34875 30.3088 6.81052 30.8444C6.27229 31.38 5.96992 32.1064 5.96992 32.8639H3.74362C3.63292 32.5905 3.50992 31.8521 4.18232 30.4159H5.55992V29.6448C7.32431 29.2225 9.11847 28.9347 10.9268 28.7839H11.058L11.1564 28.6982C14.3134 25.9728 15.5188 25.1119 19.8033 25.1119C26.8799 25.1119 28.5486 28.1229 28.565 28.1515L28.6757 28.3759H30.7257C30.9029 28.7693 31.0403 29.1793 31.1357 29.5999H29.7499V30.4159H31.2792C31.3586 31.2336 31.1946 32.0566 30.8077 32.7823Z" fill="black"/>
<path d="M36.3099 31.2324H34.6699V32.0484H36.3099V31.2324Z" fill="black"/>
<path d="M35.4901 32.8643H32.6201V33.6803H35.4901V32.8643Z" fill="black"/>
</svg>
