<svg width="40" height="42" viewBox="0 0 40 42" fill="none" xmlns="http://www.w3.org/2000/svg">
<rect width="40" height="42" rx="4" fill="#D9D9D9"/>
<path d="M34.0653 24.2687C33.2705 23.6619 31.7929 23.9627 31.1519 24.4627L25.9497 27.3729C25.9403 27.1932 25.8903 27.0226 25.8013 26.8625C25.391 26.1307 24.2575 25.8937 23.379 25.8247L20.2605 25.5773C19.9353 25.5512 19.6695 25.4848 19.3726 25.3559C17.5428 24.5604 15.8818 24.0981 13.7144 24.4262C11.7861 24.7179 10.3327 25.7049 8.79443 26.7505C8.46382 26.9757 8.12107 27.2049 7.77427 27.4289C7.2291 26.8703 6.33849 26.7218 5.62056 27.1216L4.33319 27.839C3.92835 28.0643 3.63959 28.4288 3.51678 28.8676C3.39533 29.3051 3.4574 29.7609 3.69086 30.1515L6.68391 35.1542C6.91736 35.5448 7.29654 35.8247 7.74995 35.9419C7.90244 35.981 8.05627 36.0005 8.20875 36.0005C8.51237 36.0005 8.81194 35.9237 9.08047 35.774L10.3678 35.0565C10.9009 34.7597 11.2099 34.2323 11.2409 33.6789L13.4823 32.9836C13.9856 32.8274 14.4431 32.7779 14.9694 32.8235L23.5519 33.5631C24.7947 33.6699 25.9093 33.3313 26.8647 32.5566L34.0491 26.7286C34.0883 26.6973 34.1193 26.6583 34.1422 26.6153C34.8574 25.2676 34.4944 24.5958 34.0653 24.2676L34.0653 24.2687ZM9.98749 34.4237L8.70011 35.1411C8.47071 35.2687 8.20352 35.3026 7.94443 35.2362C7.68669 35.1698 7.47213 35.0109 7.33989 34.7896L4.34683 29.7869C4.21459 29.5655 4.1795 29.3064 4.24968 29.0577C4.3185 28.809 4.48313 28.602 4.71252 28.4744L5.99989 27.757C6.15642 27.6697 6.3278 27.6281 6.49648 27.6281C6.84058 27.6281 7.17661 27.7999 7.36011 28.1085L10.3532 33.1112C10.6271 33.5708 10.4638 34.1594 9.98882 34.4237L9.98749 34.4237ZM33.5012 26.218L26.3762 31.998C25.5814 32.6438 24.6516 32.9251 23.6179 32.8352L15.0355 32.0956C14.4039 32.041 13.8534 32.1009 13.2488 32.2884L11.1113 32.9511C11.0816 32.8808 11.0492 32.8118 11.0088 32.7454L8.19251 28.0397C8.54605 27.8106 8.8942 27.5775 9.22888 27.3509C10.693 26.3561 12.0762 25.4173 13.8303 25.1517C15.818 24.8496 17.3053 25.2624 19.0595 26.0254C19.4346 26.1894 19.7868 26.2767 20.1971 26.3092L23.3156 26.5566C24.2656 26.6322 24.9443 26.8769 25.1333 27.2142C25.2237 27.3757 25.1994 27.5931 25.0725 27.8561C23.9201 28.39 22.3561 28.3001 20.8407 28.2129C20.336 28.183 19.8151 28.153 19.3132 28.1465C19.1121 28.1387 18.9313 28.3041 18.9286 28.5072C18.9259 28.709 19.0932 28.8757 19.3023 28.8783C19.7868 28.8848 20.2996 28.9147 20.7962 28.9434C21.3872 28.9772 21.985 29.0124 22.5707 29.0124C23.638 29.0124 24.6663 28.8965 25.538 28.4525C25.5407 28.4512 25.5434 28.4486 25.5461 28.4473C25.5475 28.446 25.5502 28.446 25.5515 28.446L31.5617 25.084C31.582 25.0722 31.6009 25.0605 31.6184 25.0449C32.0624 24.6777 33.1622 24.5136 33.598 24.8457C33.9718 25.1308 33.7155 25.8027 33.5036 26.2207L33.5012 26.218ZM16.9584 23.6998C19.915 23.6998 22.5492 22.3404 24.2264 20.2374C24.4572 20.3429 24.692 20.438 24.9335 20.5148V21.1737C24.9335 21.7935 25.4558 22.2987 26.0994 22.2987H27.6122C28.2545 22.2987 28.7781 21.7948 28.7781 21.1737V20.5148C29.5891 20.2583 30.3407 19.839 30.9776 19.2882L31.57 19.6176C31.8386 19.7674 32.1516 19.8065 32.4539 19.7296C32.7548 19.6515 33.0072 19.4653 33.1624 19.2062L33.9194 17.9419C34.0746 17.6827 34.1151 17.3794 34.0341 17.089C33.9531 16.7973 33.7602 16.5551 33.4916 16.4054L32.9006 16.076C32.9883 15.6749 33.0315 15.2635 33.0315 14.8494C33.0315 14.4353 32.987 14.0239 32.9006 13.6228L33.4916 13.2934C34.0476 12.9835 34.2392 12.2947 33.9181 11.7569L33.1624 10.4926C33.0072 10.2335 32.7562 10.0473 32.4539 9.96917C32.1517 9.89104 31.8386 9.93141 31.57 10.0812L30.9777 10.4106C30.3394 9.85851 29.5878 9.43921 28.7781 9.18401V8.52515C28.7781 7.90535 28.2559 7.40015 27.6122 7.40015H26.0995C25.4571 7.40015 24.9335 7.90535 24.9335 8.52515V9.18401C24.692 9.26084 24.4572 9.35589 24.2264 9.46136C22.5477 7.35849 19.9152 5.99902 16.9584 5.99902C11.902 5.99902 7.78764 9.96902 7.78764 14.848C7.78764 19.727 11.902 23.697 16.9584 23.697L16.9584 23.6998ZM12.0858 21.4602V20.3026C12.0858 18.8742 13.2895 17.7128 14.7698 17.7128H19.1488C20.6291 17.7128 21.8328 18.8742 21.8328 20.3026V21.4602C20.4563 22.4081 18.775 22.9667 16.9588 22.9667C15.1424 22.9667 13.461 22.4068 12.0861 21.4602H12.0858ZM25.4155 9.81051C25.5801 9.76624 25.6935 9.62301 25.6935 9.45764V8.52664C25.6935 8.3105 25.8756 8.13341 26.101 8.13341H27.6137C27.8377 8.13341 28.0212 8.30919 28.0212 8.52664V9.45634C28.0212 9.62171 28.1346 9.76494 28.2992 9.80921C29.1845 10.0449 30.0009 10.4993 30.658 11.1256C30.7795 11.2415 30.9657 11.2649 31.1141 11.1816L31.9508 10.7155C32.0439 10.6634 32.1532 10.6491 32.2598 10.6764C32.3651 10.7037 32.4528 10.7689 32.5068 10.8587L33.2624 12.123C33.3744 12.3105 33.3083 12.5514 33.114 12.6595L32.2787 13.1243C32.1316 13.2064 32.0587 13.3743 32.1019 13.5332C32.2166 13.9603 32.2746 14.403 32.2746 14.8483C32.2746 15.2936 32.2166 15.7363 32.1019 16.1634C32.0587 16.3222 32.1316 16.4902 32.2787 16.5723L33.114 17.0371C33.2071 17.0892 33.2746 17.1738 33.3029 17.2754C33.3313 17.3769 33.3164 17.4824 33.2638 17.5736L32.5081 18.8379C32.4541 18.9277 32.3664 18.9928 32.2612 19.0202C32.1559 19.0475 32.0466 19.0332 31.9521 18.9811L31.1155 18.515C30.967 18.433 30.7808 18.4551 30.6594 18.571C30.0009 19.1973 29.1858 19.6517 28.3006 19.8874C28.136 19.9316 28.0226 20.0749 28.0226 20.2402V21.1712C28.0226 21.3874 27.8404 21.5632 27.6151 21.5632H26.1024C25.8783 21.5632 25.6948 21.3874 25.6948 21.1712V20.2402C25.6948 20.0749 25.5801 19.9316 25.4168 19.8874C25.1631 19.8197 24.9135 19.7324 24.672 19.6296C25.1105 18.9746 25.4627 18.2611 25.7097 17.5033C26.0727 17.6491 26.4613 17.7285 26.8594 17.7285C28.5057 17.7285 29.8443 16.4356 29.8443 14.8483C29.8443 13.2598 28.5057 11.9668 26.8594 11.9668C26.4613 11.9668 26.0727 12.0462 25.7097 12.1934C25.4614 11.4356 25.1092 10.722 24.672 10.0671C24.9135 9.96422 25.1632 9.87568 25.4168 9.80927L25.4155 9.81051ZM25.9053 12.9095C26.2009 12.7741 26.5247 12.7011 26.8567 12.7011C28.0847 12.7011 29.0846 13.6647 29.0846 14.8509C29.0846 16.0358 28.086 16.9993 26.8567 16.9993C26.5247 16.9993 26.2009 16.9264 25.9053 16.791C26.0511 16.166 26.1307 15.5175 26.1307 14.8509C26.1307 14.1842 26.0511 13.5358 25.9053 12.9108V12.9095ZM16.9574 6.73248C21.5968 6.73248 25.3699 10.3745 25.3699 14.8498C25.3699 17.2378 24.2957 19.3875 22.5887 20.8731V20.3015C22.5887 18.4695 21.0449 16.9799 19.1463 16.9799H14.7673C12.8687 16.9799 11.3249 18.4708 11.3249 20.3015V20.8731C9.61927 19.3862 8.54376 17.2365 8.54376 14.8498C8.54376 10.3745 12.3182 6.73248 16.9563 6.73248H16.9574ZM13.6675 13.8521H14.4825C14.6917 13.8521 14.8617 13.6881 14.8617 13.4862V11.5735C14.8617 11.3717 14.6917 11.2076 14.4825 11.2076H14.0575C14.1641 9.75184 15.4231 8.59821 16.9587 8.59821C18.4944 8.59821 19.752 9.75184 19.86 11.2076H19.4349C19.2257 11.2076 19.0557 11.3716 19.0557 11.5735V13.4862C19.0557 13.6881 19.2257 13.8521 19.4349 13.8521H19.5806C19.1758 14.4862 18.4201 14.7428 17.8331 14.8443C17.6685 14.5384 17.3406 14.3261 16.9587 14.3261C16.4136 14.3261 15.9696 14.7545 15.9696 15.2805C15.9696 15.8066 16.4136 16.235 16.9587 16.235C17.3959 16.235 17.763 15.9576 17.8939 15.5774C19.1758 15.3795 20.0624 14.7688 20.4349 13.8352C21.0056 13.748 21.4442 13.2753 21.4442 12.7011V12.3626C21.4442 11.8535 21.0974 11.4251 20.6211 11.2727C20.5455 9.38471 18.9343 7.86908 16.9586 7.86908C14.9829 7.86908 13.3717 9.38471 13.2961 11.2727C12.8197 11.4251 12.4729 11.8535 12.4729 12.3626V12.7011C12.4729 13.3365 13.0087 13.8534 13.6672 13.8534L13.6675 13.8521ZM16.9574 15.5019C16.8305 15.5019 16.7266 15.4016 16.7266 15.2792C16.7266 15.1568 16.8305 15.0566 16.9574 15.0566C17.0842 15.0566 17.1881 15.1568 17.1881 15.2792C17.1881 15.4016 17.0842 15.5019 16.9574 15.5019ZM20.6831 12.6985C20.6831 12.9302 20.4874 13.119 20.2472 13.119H19.8114V11.9393H20.2472C20.4874 11.9393 20.6831 12.1281 20.6831 12.3599V12.6985ZM13.2303 12.3599C13.2303 12.1282 13.4259 11.9394 13.6661 11.9394H14.102V13.1191H13.6661C13.4259 13.1191 13.2303 12.9303 13.2303 12.6985V12.3599Z" fill="black"/>
</svg>
