<svg width="230" height="220" viewBox="0 0 230 220" fill="none" xmlns="http://www.w3.org/2000/svg">
<path d="M57.3719 165.328C75.0101 165.328 89.3087 158.514 89.3087 150.108C89.3087 141.701 75.0101 134.887 57.3719 134.887C39.7337 134.887 25.4351 141.701 25.4351 150.108C25.4351 158.514 39.7337 165.328 57.3719 165.328Z" fill="#E0E0E0"/>
<path d="M17.2368 149.116L20.8264 147.067C20.8264 147.067 22.5512 137.58 21.2632 129.427C19.4488 117.958 11.6424 114.004 8.80882 115.141C5.97522 116.278 5.30882 119.677 10.4272 126.302C13.4736 130.2 17.3376 138.476 17.2368 149.116Z" fill="#2F15AA"/>
<g opacity="0.1">
<path d="M17.2368 149.116L20.8264 147.067C20.8264 147.067 22.5512 137.58 21.2632 129.427C19.4488 117.958 11.6424 114.004 8.80882 115.141C5.97522 116.278 5.30882 119.677 10.4272 126.302C13.4736 130.2 17.3376 138.476 17.2368 149.116Z" fill="black"/>
</g>
<path d="M18.5416 144.564H18.5136C18.4467 144.553 18.3867 144.516 18.346 144.462C18.3053 144.408 18.2871 144.34 18.2952 144.272C19.768 133.56 15.4504 121.8 10.6008 117.04C10.5548 116.992 10.5292 116.927 10.5294 116.861C10.5296 116.794 10.5557 116.73 10.6021 116.682C10.6484 116.634 10.7116 116.606 10.7782 116.604C10.8448 116.602 10.9097 116.626 10.9592 116.67C15.8984 121.497 20.3 133.47 18.7992 144.345C18.7898 144.407 18.7585 144.462 18.7112 144.503C18.6639 144.543 18.6037 144.564 18.5416 144.564Z" fill="white"/>
<path d="M7.28002 154.873C6.72002 155.198 5.54402 154.487 5.09602 154.184C4.32844 153.661 3.70767 152.949 3.29282 152.118C2.83294 151.173 2.67646 150.109 2.84482 149.072C2.93448 148.524 3.06362 147.983 3.23122 147.453L3.68482 145.88C3.86596 145.372 3.94401 144.833 3.91442 144.295C3.77442 143.22 2.79442 142.464 1.95442 141.814C0.991224 141.097 -0.00557651 140.134 2.34863e-05 138.852C0.064603 137.849 0.458321 136.897 1.12002 136.141C1.73602 135.357 2.46962 134.668 3.02962 133.84C3.46849 133.263 3.69939 132.554 3.68482 131.829C3.62241 131.384 3.47202 130.956 3.24242 130.569C2.71774 129.768 2.2589 128.925 1.87042 128.049C1.55122 127.142 1.59603 126.016 2.30722 125.367C2.62394 125.128 2.98548 124.955 3.3703 124.859C3.75513 124.763 4.15538 124.745 4.54722 124.807C5.28301 124.894 5.99047 125.143 6.61922 125.535C8.67442 126.655 9.85042 129.108 12.0288 130.015C12.8964 130.281 13.779 130.496 14.672 130.659C15.1154 130.741 15.5368 130.915 15.909 131.17C16.2813 131.424 16.5962 131.754 16.8336 132.137C17.6344 133.739 16.1504 135.704 16.716 137.407C17.2144 138.908 18.6704 139.479 19.516 140.834C19.8482 141.432 19.9816 142.121 19.8968 142.8C19.8289 143.95 19.5498 145.077 19.0736 146.126C18.5389 147.166 17.9287 148.166 17.248 149.116C17.2032 149.15 7.36402 154.84 7.28002 154.873Z" fill="#2F15AA"/>
<path d="M13.104 151.765C13.0704 151.765 13.0373 151.757 13.0067 151.743C12.976 151.73 12.9484 151.71 12.9254 151.686C12.9024 151.661 12.8846 151.632 12.873 151.601C12.8613 151.569 12.8561 151.536 12.8576 151.502C13.2776 141.338 8.48962 130.121 5.01762 126.862C4.99335 126.839 4.97381 126.812 4.96012 126.782C4.94642 126.751 4.93883 126.718 4.93779 126.685C4.93675 126.652 4.94228 126.619 4.95405 126.588C4.96583 126.556 4.98362 126.528 5.00642 126.504C5.02922 126.479 5.05657 126.46 5.08692 126.446C5.11727 126.432 5.15002 126.425 5.1833 126.424C5.21658 126.423 5.24974 126.428 5.28089 126.44C5.31203 126.452 5.34055 126.47 5.36482 126.492C8.91522 129.813 13.804 141.22 13.3728 151.519C13.3721 151.553 13.3646 151.587 13.3505 151.618C13.3365 151.649 13.3163 151.677 13.2912 151.7C13.266 151.723 13.2365 151.74 13.2043 151.752C13.1722 151.763 13.138 151.768 13.104 151.765Z" fill="white"/>
<path d="M11.5864 139.764H11.508C9.10014 139.101 6.6272 138.701 4.13282 138.572C4.07174 138.563 4.01595 138.532 3.97562 138.485C3.93529 138.438 3.9131 138.379 3.9131 138.317C3.9131 138.255 3.93529 138.195 3.97562 138.149C4.01595 138.102 4.07174 138.071 4.13282 138.062C6.67059 138.192 9.18671 138.598 11.6368 139.272C11.6957 139.29 11.7462 139.328 11.7792 139.38C11.8122 139.432 11.8255 139.494 11.8167 139.555C11.8079 139.616 11.7776 139.672 11.7312 139.712C11.6849 139.753 11.6256 139.775 11.564 139.776L11.5864 139.764Z" fill="white"/>
<path d="M192.545 200.821C194.477 196.621 201.505 189.319 208.365 185.869C215.225 182.42 223.899 181.58 228.004 185.477C231.823 189.106 228.603 194.824 221.284 196.24C213.965 197.657 203.442 198.811 197.898 204.512L188.989 210.537L192.545 200.821Z" fill="#2F15AA"/>
<path opacity="0.1" d="M192.545 200.821C194.477 196.621 201.505 189.319 208.365 185.869C215.225 182.42 223.899 181.58 228.004 185.477C231.823 189.106 228.603 194.824 221.284 196.24C213.965 197.657 203.442 198.811 197.898 204.512L188.989 210.537L192.545 200.821Z" fill="black"/>
<path d="M189.599 206.421C189.668 206.447 189.744 206.449 189.815 206.428C189.885 206.406 189.947 206.363 189.991 206.304C199.382 193.261 216.311 186.939 224.442 187.549C224.532 187.555 224.621 187.526 224.689 187.467C224.757 187.409 224.799 187.325 224.806 187.236C224.809 187.192 224.804 187.147 224.79 187.105C224.775 187.063 224.753 187.025 224.724 186.991C224.695 186.958 224.659 186.931 224.62 186.911C224.58 186.892 224.537 186.88 224.493 186.877C216.216 186.25 198.974 192.668 189.442 205.917C189.417 205.953 189.398 205.994 189.388 206.037C189.378 206.08 189.376 206.125 189.384 206.169C189.391 206.213 189.407 206.254 189.43 206.292C189.454 206.329 189.485 206.362 189.521 206.388C189.544 206.404 189.571 206.415 189.599 206.421Z" fill="white"/>
<path d="M187.527 216.574C189.286 214.524 193.956 211.954 200.094 210.879C206.886 209.686 214.161 211.047 216.938 208.969C220.27 206.472 218.91 202.042 213.315 200.267C207.721 198.492 195.082 201.443 188.597 211.64L187.527 216.574Z" fill="#2F15AA"/>
<path d="M187.634 213.64C187.695 213.662 187.762 213.666 187.825 213.651C187.889 213.636 187.947 213.603 187.992 213.556C198.022 203.296 209.367 203.291 213.965 204.719C214.007 204.732 214.052 204.736 214.096 204.732C214.14 204.728 214.182 204.715 214.221 204.694C214.26 204.673 214.295 204.645 214.323 204.611C214.351 204.577 214.372 204.537 214.385 204.495C214.399 204.453 214.404 204.409 214.4 204.365C214.397 204.321 214.385 204.278 214.364 204.239C214.344 204.2 214.316 204.165 214.282 204.137C214.248 204.109 214.209 204.088 214.166 204.075C209.082 202.496 197.747 202.613 187.505 213.085C187.473 213.116 187.449 213.154 187.432 213.194C187.415 213.235 187.406 213.279 187.406 213.323C187.406 213.367 187.415 213.411 187.432 213.452C187.449 213.493 187.473 213.53 187.505 213.561C187.541 213.597 187.585 213.624 187.634 213.64Z" fill="white"/>
<path d="M85.8479 163.929L92.4223 167.72L90.2327 168.985H98.9911V163.929L96.8015 165.194L90.2327 161.397L85.8479 163.929Z" fill="#2F15AA"/>
<path d="M102.816 171.735C102.721 171.735 102.629 171.71 102.547 171.662L100.912 170.716C100.793 170.641 100.707 170.523 100.671 170.387C100.634 170.251 100.65 170.107 100.716 169.982C100.79 169.861 100.908 169.773 101.046 169.735C101.183 169.698 101.329 169.714 101.455 169.781L103.09 170.727C103.181 170.794 103.25 170.887 103.287 170.994C103.324 171.101 103.328 171.216 103.299 171.325C103.269 171.434 103.207 171.532 103.121 171.605C103.035 171.678 102.928 171.723 102.816 171.735Z" fill="#2F15AA"/>
<path d="M171.713 211.512C171.618 211.512 171.525 211.487 171.444 211.439L168.291 209.619C168.201 209.531 168.143 209.415 168.126 209.29C168.11 209.165 168.136 209.038 168.201 208.93C168.266 208.822 168.365 208.738 168.483 208.694C168.601 208.649 168.731 208.646 168.851 208.684L171.998 210.504C172.089 210.571 172.158 210.663 172.195 210.769C172.233 210.876 172.237 210.991 172.208 211.1C172.179 211.209 172.118 211.306 172.032 211.38C171.947 211.453 171.841 211.499 171.729 211.512H171.713ZM164.057 207.088C163.964 207.088 163.871 207.065 163.789 207.021L160.636 205.201C160.555 205.175 160.482 205.132 160.42 205.073C160.359 205.015 160.312 204.944 160.282 204.865C160.252 204.786 160.24 204.701 160.248 204.617C160.255 204.533 160.282 204.452 160.325 204.379C160.368 204.307 160.428 204.245 160.498 204.199C160.569 204.152 160.649 204.123 160.733 204.112C160.817 204.101 160.902 204.109 160.982 204.136C161.062 204.162 161.135 204.207 161.196 204.265L164.349 206.085C164.438 206.153 164.505 206.246 164.54 206.352C164.576 206.457 164.58 206.572 164.55 206.679C164.521 206.787 164.46 206.884 164.375 206.957C164.29 207.029 164.185 207.075 164.074 207.088H164.057ZM156.402 202.669C156.308 202.67 156.215 202.645 156.133 202.597L152.981 200.76C152.862 200.685 152.776 200.567 152.739 200.431C152.703 200.295 152.719 200.151 152.785 200.026C152.86 199.906 152.978 199.819 153.116 199.782C153.253 199.746 153.399 199.763 153.524 199.83L156.677 201.65C156.766 201.718 156.833 201.811 156.868 201.916C156.904 202.022 156.908 202.136 156.878 202.244C156.849 202.352 156.788 202.449 156.703 202.521C156.618 202.594 156.513 202.64 156.402 202.653V202.669ZM148.747 198.251C148.653 198.251 148.56 198.226 148.478 198.178L145.326 196.358C145.207 196.283 145.12 196.166 145.084 196.03C145.048 195.894 145.064 195.749 145.129 195.625C145.204 195.503 145.322 195.415 145.459 195.378C145.597 195.34 145.743 195.356 145.869 195.423L149.016 197.243C149.107 197.31 149.175 197.402 149.213 197.509C149.25 197.615 149.255 197.73 149.226 197.839C149.197 197.948 149.135 198.045 149.05 198.119C148.965 198.192 148.859 198.238 148.747 198.251ZM141.092 193.833C140.997 193.833 140.905 193.808 140.823 193.76L137.67 191.94C137.58 191.852 137.522 191.736 137.505 191.611C137.489 191.486 137.515 191.359 137.58 191.251C137.645 191.142 137.744 191.059 137.862 191.015C137.98 190.97 138.11 190.966 138.23 191.005L141.383 192.825C141.503 192.9 141.591 193.018 141.627 193.156C141.663 193.293 141.646 193.439 141.579 193.564C141.528 193.647 141.457 193.716 141.371 193.763C141.286 193.81 141.189 193.834 141.092 193.833ZM133.437 189.414C133.342 189.413 133.25 189.388 133.168 189.341L130.015 187.521C129.935 187.496 129.861 187.452 129.8 187.394C129.738 187.336 129.691 187.265 129.661 187.186C129.631 187.107 129.619 187.022 129.627 186.938C129.634 186.854 129.661 186.773 129.704 186.7C129.748 186.628 129.807 186.566 129.878 186.52C129.948 186.473 130.028 186.443 130.112 186.432C130.196 186.422 130.281 186.43 130.361 186.456C130.441 186.483 130.515 186.527 130.575 186.586L133.728 188.406C133.847 188.482 133.933 188.599 133.969 188.735C134.006 188.871 133.989 189.015 133.924 189.14C133.874 189.224 133.802 189.294 133.717 189.342C133.631 189.39 133.535 189.415 133.437 189.414ZM125.781 184.99C125.688 184.991 125.595 184.968 125.513 184.923L122.36 183.103C122.269 183.015 122.211 182.899 122.195 182.774C122.179 182.649 122.205 182.522 122.27 182.414C122.335 182.306 122.434 182.222 122.552 182.178C122.67 182.133 122.8 182.13 122.92 182.168L126.073 183.988C126.162 184.055 126.229 184.148 126.264 184.254C126.3 184.36 126.304 184.474 126.274 184.582C126.245 184.69 126.184 184.786 126.099 184.859C126.014 184.932 125.909 184.977 125.798 184.99H125.781ZM118.126 180.6C118.032 180.6 117.939 180.575 117.857 180.527L114.705 178.707C114.586 178.632 114.5 178.514 114.463 178.379C114.427 178.243 114.443 178.098 114.509 177.973C114.583 177.852 114.701 177.764 114.838 177.726C114.976 177.689 115.122 177.705 115.248 177.772L118.401 179.592C118.492 179.659 118.56 179.752 118.598 179.859C118.635 179.965 118.639 180.081 118.609 180.19C118.579 180.299 118.517 180.397 118.431 180.47C118.345 180.543 118.239 180.588 118.126 180.6ZM110.471 176.181C110.377 176.182 110.284 176.157 110.202 176.109L107.049 174.289C106.959 174.201 106.901 174.085 106.885 173.96C106.868 173.835 106.895 173.708 106.959 173.599C107.024 173.491 107.124 173.408 107.242 173.363C107.36 173.319 107.489 173.315 107.609 173.353L110.762 175.173C110.883 175.249 110.97 175.367 111.006 175.504C111.043 175.642 111.025 175.788 110.958 175.913C110.904 175.991 110.831 176.054 110.746 176.096C110.661 176.138 110.566 176.158 110.471 176.153V176.181Z" fill="#2F15AA"/>
<path d="M177.85 215.051C177.756 215.052 177.664 215.028 177.581 214.984L175.946 214.037C175.827 213.962 175.741 213.845 175.705 213.709C175.669 213.573 175.685 213.428 175.75 213.304C175.825 213.183 175.943 213.094 176.08 213.057C176.217 213.019 176.364 213.036 176.489 213.102L178.119 214.049C178.208 214.116 178.275 214.208 178.311 214.314C178.347 214.419 178.351 214.533 178.322 214.64C178.293 214.748 178.233 214.845 178.149 214.918C178.065 214.991 177.961 215.037 177.85 215.051Z" fill="#2F15AA"/>
<path d="M213.562 73.8192L213.058 73.528L197.411 64.568C193.791 62.173 189.532 60.9258 185.192 60.9896C179.721 60.9896 174.199 62.972 167.698 66.5896C144.978 79.1784 125.569 115.478 125.569 139.311V145.88C125.569 174.765 163.559 210.022 163.559 210.022L179.312 219.122C179.319 219.133 179.33 219.141 179.342 219.146C179.353 219.151 179.367 219.153 179.379 219.15C178.853 218.529 196.118 193.34 212.419 144.206C230.418 89.796 213.898 74.1328 213.562 73.8192ZM186.973 160.182C174.093 167.614 163.324 163.722 160.272 151.732C154.375 150.92 150.114 146.384 148.798 138.936C147.146 114.856 159.925 95.7096 178.226 87.9368C186.066 85.0864 192.606 87.1192 196.112 93.0104C206.864 91.1624 214.558 98.532 214.558 112.409C214.558 129.993 202.194 151.396 186.973 160.182Z" fill="#455A64"/>
<path d="M214.558 112.409C214.558 129.993 202.21 151.396 186.973 160.182C174.093 167.614 163.324 163.722 160.272 151.732C164.142 152.292 168.711 151.256 173.622 148.417C187.578 140.37 198.878 120.781 198.878 104.686C198.878 99.904 197.882 95.9672 196.112 93.0104C206.864 91.1624 214.558 98.532 214.558 112.409Z" fill="#464E5F"/>
<path d="M165.48 150.052L174.233 155.109V138.152L165.48 133.095V150.052Z" fill="#2F15AA"/>
<path opacity="0.2" d="M165.48 150.052L174.233 155.109V138.152L165.48 133.095V150.052Z" fill="black"/>
<path d="M207.25 119.09L186.962 109.581L166.673 142.52L174.233 138.152V155.109L183.82 149.576V138.482L190.098 134.859V145.947L199.696 140.403V123.446L207.25 119.09Z" fill="#2F15AA"/>
<path d="M178.203 104.524L186.962 109.581L166.673 142.52L157.914 137.463L178.203 104.524Z" fill="#2F15AA"/>
<path opacity="0.1" d="M178.203 104.524L186.962 109.581L166.673 142.52L157.914 137.463L178.203 104.524Z" fill="black"/>
<path d="M178.203 104.524L186.962 109.581L207.25 119.09L198.492 114.033L178.203 104.524Z" fill="#2F15AA"/>
<path opacity="0.4" d="M178.203 104.524L186.962 109.581L207.25 119.09L198.492 114.033L178.203 104.524Z" fill="white"/>
<path d="M183.82 149.576L190.098 145.947V134.859L183.82 138.482V149.576Z" fill="#2F15AA"/>
<path opacity="0.2" d="M183.82 149.576L190.098 145.947V134.859L183.82 138.482V149.576Z" fill="black"/>
<path d="M213.562 73.8192L213.058 73.528C205.464 69.2608 195.317 69.832 184.167 76.2608C167.367 85.9768 152.807 106.383 145.925 127.781C143.192 136.265 142.038 140.756 142.038 148.96V155.551C142.038 177.811 166.858 207.754 178.466 218.445C178.726 218.686 179.009 218.9 179.312 219.083C179.319 219.094 179.33 219.102 179.342 219.107C179.353 219.112 179.367 219.114 179.379 219.111C180.057 219.53 180.815 219.802 181.604 219.909C182.393 220.017 183.196 219.958 183.961 219.737C184.726 219.515 185.436 219.136 186.046 218.623C186.655 218.11 187.15 217.475 187.499 216.759C197.501 196.28 226.666 134.54 226.666 110.6V104.031C226.666 89.1912 221.648 78.68 213.562 73.8192ZM160.272 151.732C160.115 151.122 159.97 150.483 159.858 149.828C159.529 147.991 159.371 146.128 159.387 144.262C159.387 126.678 171.707 105.28 186.973 96.4936C188.583 95.5613 190.269 94.767 192.013 94.1192C193.345 93.624 194.719 93.2491 196.118 92.9992C206.87 91.1512 214.564 98.5208 214.564 112.398C214.564 129.982 202.216 151.385 186.978 160.171C174.11 167.614 163.324 163.722 160.272 151.732Z" fill="#37474F"/>
<path d="M74.2897 50.4445H62.5297C59.9781 50.4445 57.531 49.4308 55.7267 47.6266C53.9225 45.8223 52.9089 43.3752 52.9089 40.8237V38.1077C52.9089 35.2739 54.0346 32.5561 56.0384 30.5524C58.0422 28.5486 60.7599 27.4229 63.5937 27.4229C66.4275 27.4229 69.1452 28.5486 71.149 30.5524C73.1527 32.5561 74.2785 35.2739 74.2785 38.1077L74.2897 50.4445Z" fill="#464E5F"/>
<path d="M54.6169 32.7877L52.1137 31.4605C52.1928 31.2935 52.3049 31.1443 52.4433 31.022C52.5816 30.8996 52.7434 30.8065 52.9187 30.7484C53.0941 30.6903 53.2794 30.6684 53.4635 30.6839C53.6475 30.6995 53.8265 30.7522 53.9897 30.8389C54.3245 31.021 54.5763 31.325 54.6931 31.6878C54.8099 32.0506 54.7826 32.4444 54.6169 32.7877Z" fill="#464E5F"/>
<path d="M54.8241 33.0677L52.1921 34.0533C52.1187 33.8839 52.0804 33.7014 52.0795 33.5168C52.0786 33.3323 52.1151 33.1494 52.1868 32.9793C52.2585 32.8092 52.3639 32.6554 52.4966 32.5272C52.6294 32.399 52.7868 32.299 52.9593 32.2333C53.3179 32.1085 53.7106 32.1253 54.0572 32.2804C54.4038 32.4355 54.6781 32.7171 54.8241 33.0677Z" fill="#464E5F"/>
<path d="M78.1873 64.0804L81.4241 70.0109L76.9273 73.8693L72.4305 66.8973L78.1873 64.0804Z" fill="#D78D90"/>
<path d="M69.1377 51.3573C70.8177 51.5029 72.5873 52.2253 73.8025 54.7173L78.8425 65.0661C78.8425 65.0661 77.9913 68.4709 73.5561 68.9245L71.7977 66.2252L69.1377 51.3573Z" fill="#2F15AA"/>
<path opacity="0.1" d="M69.1377 51.3573C70.8177 51.5029 72.5873 52.2253 73.8025 54.7173L78.8425 65.0661C78.8425 65.0661 77.9913 68.4709 73.5561 68.9245L71.7977 66.2252L69.1377 51.3573Z" fill="black"/>
<path d="M39.2337 132.776C38.3881 132.339 37.8561 133.408 37.0889 134.271C36.5289 134.87 35.7169 135.828 35.5937 136.511C35.4089 137.53 36.3273 139.126 37.3409 140.011C38.3545 140.896 39.5305 141.523 39.9001 143.455C40.2697 145.387 41.0201 146.535 43.0249 147.403C45.2201 148.349 48.1601 148.047 49.1569 147.403C50.3385 146.636 49.2577 145.801 47.6057 143.432C45.4441 140.341 43.7585 138.129 43.7585 135.245L39.2337 132.776Z" fill="#464E5F"/>
<path d="M40.9641 130.239L39.1889 132.843C38.8136 133.383 38.6667 134.05 38.7799 134.698C38.8931 135.346 39.2574 135.923 39.7937 136.304L39.8497 136.343C40.3884 136.666 41.0235 136.791 41.6445 136.695C42.2655 136.598 42.8332 136.288 43.2489 135.816L46.0153 132.792L40.9641 130.239Z" fill="#CC8789"/>
<path d="M72.8673 80.8748C72.9793 84.19 73.5617 96.2748 71.1425 102.62C69.8005 106.222 68.1126 109.686 66.1025 112.963C65.3801 114.2 44.6209 134.411 44.6209 134.411C44.6209 134.411 41.0929 134.153 40.5329 130.737C40.5329 130.737 49.0393 116.272 50.8817 113.31C52.7241 110.348 59.2481 105.795 59.2481 105.795L58.6545 77.9908L72.8673 80.8748Z" fill="#37474F"/>
<path d="M68.9801 150.112L73.3704 149.114L71.9165 142.719L67.5261 143.718L68.9801 150.112Z" fill="#CC8789"/>
<path d="M65.5537 90.9996C67.0571 89.6112 68.4035 88.0619 69.5689 86.3796C72.9289 81.7428 72.4081 77.6268 72.4081 77.6268H71.0305L52.8809 77.9964C51.0777 80.9476 50.6857 85.422 51.2961 89.7564C52.5561 98.8004 60.0489 114.452 60.0489 114.452C59.9425 115.69 59.4217 120.887 60.6089 125.496C62.4737 132.776 67.5473 145.096 67.5473 145.096C67.5473 145.096 70.7225 145.549 72.3017 143.712C72.3017 143.712 69.5017 118.731 68.7345 112.352C67.9001 105.397 65.5537 90.9996 65.5537 90.9996Z" fill="#37474F"/>
<path d="M72.8785 146.944L72.7329 146.316C73.1977 146.406 75.1689 149.676 77.1233 151.099C79.2625 152.656 81.1217 153.574 82.0793 154.28C83.3561 155.215 81.5193 157.141 78.3553 157.309C76.7929 157.393 73.9481 156.917 73.0689 156.088C72.1897 155.26 71.5569 153.848 70.8625 153.288C70.1681 152.728 68.7569 152.168 68.2809 151.401C68.0233 150.981 67.9785 149.934 68.0121 149.038C68.0457 148.142 68.0625 147.313 68.3481 147.324C68.3481 147.42 68.4545 147.806 68.4545 147.806C69.2811 148.224 70.2 148.426 71.1257 148.394C71.8649 148.349 73.2425 148.176 72.8785 146.944Z" fill="#464E5F"/>
<path d="M68.1633 108.085C68.1633 108.085 66.0465 93.0492 65.5537 90.9996C65.5537 90.9996 69.2833 89.5772 70.4313 88.278C70.4313 88.278 69.6137 90.098 66.9425 91.7164L68.1633 108.085Z" fill="#464E5F"/>
<path d="M56.9521 107.503C56.9521 107.503 59.1361 113.232 60.0433 114.469C60.0433 114.469 59.8137 118.731 59.8473 119.593L58.6657 120.618C58.6657 120.618 58.6097 117.04 59.2257 114.872C58.1471 112.527 57.3827 110.049 56.9521 107.503Z" fill="#464E5F"/>
<path d="M71.8481 67.418C72.1337 70.05 72.8673 80.858 72.8673 80.858C64.1817 85.4949 53.4073 82.4205 51.7609 80.5109C52.6203 77.3601 54.3039 74.4954 56.6385 72.2116L53.8385 64.3716C53.8385 64.3716 53.5025 63.5653 53.5081 63.5597C53.6817 63.2684 57.8817 59.4829 55.8153 53.4797C55.7422 53.2617 55.7198 53.03 55.7497 52.8021C55.7797 52.5742 55.8612 52.3561 55.9881 52.1645C56.1149 51.9728 56.2839 51.8126 56.482 51.696C56.68 51.5794 56.9021 51.5095 57.1313 51.4916L59.6233 51.29L66.3881 51.0884C68.0009 51.1836 69.1545 51.3348 69.1545 51.3348C70.1905 52.3092 71.8257 54.9692 72.8841 57.6796C73.5505 59.4493 74.2897 62.2436 71.8481 67.418Z" fill="#2F15AA"/>
<path opacity="0.1" d="M55.6361 67.2109L56.6273 63.3748L57.8537 72.2341L55.3729 73.6116L56.6385 72.2284L55.3561 68.65L55.6361 67.2109Z" fill="black"/>
<path d="M70.4705 32.0764C71.5905 32.7428 72.9961 35.582 72.8561 41.5292C72.7385 46.5692 71.1033 47.8236 70.2857 48.182C69.4681 48.5404 67.8833 48.322 66.3657 48.0644V51.094C66.3657 51.094 68.6561 55.3332 68.1409 57.0244C67.0209 57.2148 65.6153 56.4644 63.6273 55.1148C62.1485 54.0103 60.8062 52.7339 59.6289 51.3125L59.6625 44.3516C59.6625 44.3516 58.7553 45.2308 57.2209 43.8868C55.9553 42.7668 55.5409 40.9132 56.5153 39.9052C56.7712 39.667 57.0801 39.493 57.4165 39.3975C57.7529 39.3021 58.1072 39.288 58.4501 39.3563C58.793 39.4247 59.1148 39.5736 59.3888 39.7907C59.6629 40.0079 59.8815 40.2871 60.0265 40.6052C60.0265 40.6052 62.4849 40.7004 65.7497 38.9252C67.0197 38.2353 68.1091 37.2556 68.9293 36.0656C69.7496 34.8756 70.2776 33.5088 70.4705 32.0764Z" fill="#CC8789"/>
<path d="M67.2337 40.2637C67.2357 40.3892 67.2008 40.5125 67.1332 40.6182C67.0655 40.724 66.9682 40.8074 66.8534 40.8582C66.7386 40.9089 66.6114 40.9247 66.4877 40.9035C66.3639 40.8823 66.2492 40.8251 66.1578 40.7391C66.0664 40.6531 66.0024 40.542 65.9738 40.4198C65.9452 40.2976 65.9532 40.1697 65.9969 40.052C66.0406 39.9343 66.118 39.8322 66.2194 39.7582C66.3209 39.6843 66.4419 39.642 66.5673 39.6365C66.7386 39.6319 66.9048 39.6953 67.0297 39.8128C67.1545 39.9303 67.2278 40.0923 67.2337 40.2637Z" fill="#464E5F"/>
<g style="mix-blend-mode:multiply" opacity="0.5">
<path d="M67.3961 44.5197L68.8689 44.9901C68.8419 45.0883 68.7954 45.1801 68.7323 45.2601C68.6692 45.3401 68.5907 45.4066 68.5014 45.4557C68.4121 45.5048 68.3138 45.5355 68.2125 45.5459C68.1111 45.5563 68.0087 45.5463 67.9113 45.5165C67.7128 45.4497 67.548 45.3084 67.4519 45.1224C67.3557 44.9363 67.3357 44.7202 67.3961 44.5197Z" fill="#D78D90"/>
</g>
<path d="M72.4249 38.3148L71.1537 37.43C71.207 37.3433 71.2775 37.2685 71.3609 37.2101C71.4442 37.1517 71.5387 37.111 71.6384 37.0905C71.7381 37.0701 71.8409 37.0703 71.9406 37.0911C72.0402 37.1119 72.1345 37.1529 72.2177 37.2116C72.3887 37.3326 72.506 37.5154 72.5447 37.7213C72.5834 37.9272 72.5404 38.1401 72.4249 38.3148Z" fill="#464E5F"/>
<path d="M72.1281 39.8045C72.1349 39.8892 72.1248 39.9745 72.0982 40.0553C72.0717 40.1361 72.0292 40.2108 71.9734 40.2749C71.9176 40.3391 71.8495 40.3915 71.7732 40.429C71.6968 40.4664 71.6138 40.4883 71.5289 40.4932C71.3975 40.5054 71.2654 40.4779 71.1497 40.4144C71.0341 40.3508 70.9401 40.2541 70.8799 40.1366C70.8197 40.0192 70.7961 39.8864 70.812 39.7554C70.828 39.6244 70.8828 39.5011 70.9694 39.4016C71.0561 39.302 71.1705 39.2306 71.298 39.1967C71.4256 39.1627 71.5604 39.1678 71.685 39.2111C71.8097 39.2545 71.9185 39.3341 71.9975 39.4399C72.0764 39.5456 72.1219 39.6726 72.1281 39.8045Z" fill="#464E5F"/>
<g style="mix-blend-mode:multiply" opacity="0.5">
<path d="M69.1377 39.4461L69.2385 43.2597L71.2489 42.6381L69.1377 39.4461Z" fill="#D78D90"/>
</g>
<g style="mix-blend-mode:multiply" opacity="0.5">
<path d="M66.3433 48.0645C64.7193 47.8517 61.3817 46.894 60.8609 45.5724C61.0707 46.2386 61.4791 46.8248 62.0313 47.2524C63.0281 48.1036 66.3433 49.0669 66.3433 49.0669V48.0645Z" fill="#D78D90"/>
</g>
<path d="M46.3905 76.9548C46.4297 76.3948 47.4545 70.5877 48.1545 67.3341L54.9977 69.4284L53.8777 73.9925L48.1937 79.4973C47.6218 79.3906 47.1139 79.0656 46.7774 78.5911C46.4408 78.1166 46.3021 77.5298 46.3905 76.9548Z" fill="#CC8789"/>
<path d="M57.1145 51.5141C54.4881 51.7437 51.0273 52.1356 49.3809 59.6116C47.8353 66.6172 47.4545 69.0645 47.4545 69.0645C47.4545 69.0645 49.4761 71.6236 54.7065 71.3436L56.6273 63.3748C60.1273 58.766 59.0017 55.4677 57.1145 51.5141Z" fill="#2F15AA"/>
<path d="M79.2401 71.5341C80.1809 69.7869 80.4161 69.7085 80.9705 69.2941C81.5249 68.8797 84.9633 68.398 86.3857 68.2804C88.0657 68.1404 88.6537 68.4485 88.1889 69.8877C87.1921 72.9677 84.1681 79.5085 83.4905 80.4157C83.0481 80.9757 82.9585 81.5357 81.0769 81.7373C79.3185 81.9109 77.1121 82.006 76.4625 82.0452C75.8129 82.0844 74.9169 82.2469 75.4993 80.3373C76.2403 78.1772 77.0983 76.0592 78.0697 73.9925C78.7921 72.4469 79.2401 71.5341 79.2401 71.5341Z" fill="#464E5F"/>
<path d="M53.9001 73.9925C53.9001 73.9925 69.1097 75.5997 71.0753 74.9893C73.0409 74.3789 75.6953 72.4077 77.1177 71.5957C78.5401 70.7837 79.5593 70.7109 79.5593 71.0357C79.5593 71.3605 78.3441 73.2364 78.0697 74.0036C77.7953 74.7708 79.3801 74.7708 81.4633 74.2948C83.5465 73.8188 84.3809 72.6149 84.9241 73.3093C85.4673 74.0037 83.7705 77.4812 80.3097 78.7748C76.8489 80.0684 74.2785 79.2116 71.4225 79.3348C68.5665 79.458 52.1809 80.7349 48.2105 79.4861C48.1102 78.8541 48.185 78.2067 48.4269 77.6143C48.6688 77.0219 49.0685 76.5072 49.5825 76.1261C50.8663 75.1361 52.3338 74.4109 53.9001 73.9925Z" fill="#CC8789"/>
<path d="M151.116 19.7846L155.288 17.3766C155.265 17.2077 155.254 17.0375 155.254 16.867V15.6574C155.317 14.4894 155.654 13.3525 156.238 12.3388C156.822 11.3251 157.636 10.463 158.614 9.82222C158.906 9.62563 159.235 9.49005 159.58 9.42365C159.925 9.35725 160.281 9.36139 160.625 9.43582C160.933 6.37822 163.049 2.92302 165.625 1.43902C168.425 -0.168177 170.665 1.13102 170.665 4.35102V6.15422C170.655 7.03315 170.511 7.90543 170.24 8.74142L173.706 6.74222C174.737 6.14862 175.571 6.63022 175.571 7.82302C175.536 8.47107 175.349 9.1018 175.025 9.66414C174.701 10.2265 174.249 10.7046 173.706 11.0598L151.116 24.1022C150.085 24.6958 149.251 24.2142 149.251 23.0214C149.286 22.3734 149.473 21.7426 149.797 21.1803C150.121 20.618 150.573 20.1398 151.116 19.7846Z" fill="#B6B6B6"/>
<path d="M131.141 47.7902L134.288 45.9702C134.27 45.8422 134.26 45.7131 134.26 45.5838V44.6766C134.308 43.7941 134.564 42.9353 135.005 42.1697C135.447 41.404 136.062 40.7531 136.802 40.2694C137.022 40.1206 137.27 40.018 137.531 39.968C137.792 39.9179 138.06 39.9214 138.32 39.9782C138.476 38.759 138.894 37.5881 139.545 36.5459C140.197 35.5038 141.066 34.6152 142.094 33.9414C144.194 32.7262 145.902 33.7118 145.902 36.1366V37.503C145.893 38.1653 145.784 38.8224 145.577 39.4518L148.193 37.9454C148.971 37.4974 149.604 37.8614 149.604 38.7574C149.577 39.2474 149.435 39.7242 149.19 40.1493C148.945 40.5744 148.603 40.9359 148.193 41.2046L131.141 51.0438C130.362 51.4974 129.729 51.1334 129.729 50.2318C129.756 49.7425 129.898 49.2664 130.143 48.8421C130.388 48.4178 130.73 48.0574 131.141 47.7902Z" fill="#F0F0F0"/>
</svg>
