<svg width="21" height="20" viewBox="0 0 21 20" fill="none" xmlns="http://www.w3.org/2000/svg">
<path d="M1.69531 7.91667V3.33333C1.69531 2.87309 2.06841 2.5 2.52865 2.5H17.5287C17.9889 2.5 18.362 2.87309 18.362 3.33333V7.91667C17.2114 7.91667 16.2787 8.84942 16.2787 10C16.2787 11.1506 17.2114 12.0833 18.362 12.0833V16.6667C18.362 17.1269 17.9889 17.5 17.5287 17.5H2.52865C2.06841 17.5 1.69531 17.1269 1.69531 16.6667V12.0833C2.8459 12.0833 3.77865 11.1506 3.77865 10C3.77865 8.84942 2.8459 7.91667 1.69531 7.91667ZM11.6953 4.16667H3.36198V6.6398C4.59675 7.25343 5.44531 8.52759 5.44531 10C5.44531 11.4723 4.59675 12.7466 3.36198 13.3602V15.8333H11.6953V4.16667ZM13.362 4.16667V15.8333H16.6953V13.3602C15.4606 12.7466 14.612 11.4723 14.612 10C14.612 8.52759 15.4606 7.25343 16.6953 6.6398V4.16667H13.362Z" fill="#F0F0F0"/>
</svg>
