<svg width="25" height="24" viewBox="0 0 25 24" fill="none" xmlns="http://www.w3.org/2000/svg">
<path d="M2.5 22C2.5 17.5817 6.08172 14 10.5 14C14.9183 14 18.5 17.5817 18.5 22H16.5C16.5 18.6863 13.8137 16 10.5 16C7.18629 16 4.5 18.6863 4.5 22H2.5ZM10.5 13C7.185 13 4.5 10.315 4.5 7C4.5 3.685 7.185 1 10.5 1C13.815 1 16.5 3.685 16.5 7C16.5 10.315 13.815 13 10.5 13ZM10.5 11C12.71 11 14.5 9.21 14.5 7C14.5 4.79 12.71 3 10.5 3C8.29 3 6.5 4.79 6.5 7C6.5 9.21 8.29 11 10.5 11ZM18.7837 14.7028C21.5644 15.9561 23.5 18.752 23.5 22H21.5C21.5 19.564 20.0483 17.4671 17.9628 16.5271L18.7837 14.7028ZM18.0962 3.41321C20.0944 4.23703 21.5 6.20361 21.5 8.5C21.5 11.3702 19.3042 13.7252 16.5 13.9776V11.9646C18.1967 11.7222 19.5 10.264 19.5 8.5C19.5 7.11935 18.7016 5.92603 17.541 5.35635L18.0962 3.41321Z" fill="#464E5F"/>
</svg>
