<svg width="15" height="15" viewBox="0 0 15 15" fill="none" xmlns="http://www.w3.org/2000/svg">
<g clip-path="url(#clip0_1409_1351)">
<path d="M13.4775 10.8525L9.5 14.8299L5.52252 10.8525C3.32582 8.65575 3.32582 5.09423 5.52252 2.89753C7.71922 0.700825 11.2808 0.700825 13.4775 2.89753C15.6742 5.09423 15.6742 8.65575 13.4775 10.8525ZM9.5 9.375C10.8807 9.375 12 8.25569 12 6.875C12 5.49429 10.8807 4.375 9.5 4.375C8.11929 4.375 7 5.49429 7 6.875C7 8.25569 8.11929 9.375 9.5 9.375ZM9.5 8.125C8.80963 8.125 8.25 7.56538 8.25 6.875C8.25 6.18464 8.80963 5.625 9.5 5.625C10.1904 5.625 10.75 6.18464 10.75 6.875C10.75 7.56538 10.1904 8.125 9.5 8.125Z" fill="#464E5F"/>
</g>
<defs>
<clipPath id="clip0_1409_1351">
<rect width="15" height="15" fill="white"/>
</clipPath>
</defs>
</svg>
