<svg width="19" height="26" viewBox="0 0 19 26" fill="none" xmlns="http://www.w3.org/2000/svg">
<path d="M15.9463 1H3.05292C1.96737 1 1.08496 1.8824 1.08496 2.96796V15.8603C1.08496 16.9458 1.96737 17.8282 3.05292 17.8282H15.9452C17.0308 17.8282 17.9132 16.9458 17.9132 15.8603L17.9142 2.96796C17.9142 1.8824 17.0308 1 15.9463 1ZM16.7276 15.8603C16.7276 16.2926 16.3755 16.6416 15.9463 16.6416H3.05292C2.62057 16.6416 2.27156 16.2895 2.27156 15.8603V2.96798C2.27156 2.53563 2.62369 2.18663 3.05292 2.18663H15.9452C16.3776 2.18663 16.7266 2.53875 16.7266 2.96798L16.7276 15.8603ZM15.3462 20.2296H3.65299C3.32482 20.2296 3.06124 20.4963 3.06124 20.8214C3.06124 21.1464 3.32794 21.4131 3.65299 21.4131H15.3419C15.6701 21.4131 15.9337 21.1464 15.9337 20.8214C15.9347 20.4963 15.6712 20.2296 15.3462 20.2296ZM13.3699 23.8165H5.62946C5.30128 23.8165 5.0377 24.0832 5.0377 24.4082C5.0377 24.7333 5.3044 25 5.62946 25H13.3691C13.6973 25 13.9609 24.7333 13.9609 24.4082C13.9619 24.0832 13.697 23.8165 13.3699 23.8165Z" fill="#464E5F" stroke="#464E5F" stroke-width="0.5"/>
</svg>
