<svg width="21" height="20" viewBox="0 0 21 20" fill="none" xmlns="http://www.w3.org/2000/svg">
<path d="M1.69141 18.333C1.69141 14.6511 4.67617 11.6663 8.35807 11.6663C12.04 11.6663 15.0247 14.6511 15.0247 18.333H13.3581C13.3581 15.5716 11.1195 13.333 8.35807 13.333C5.59665 13.333 3.35807 15.5716 3.35807 18.333H1.69141ZM8.35807 10.833C5.59557 10.833 3.35807 8.59551 3.35807 5.83301C3.35807 3.07051 5.59557 0.833008 8.35807 0.833008C11.1206 0.833008 13.3581 3.07051 13.3581 5.83301C13.3581 8.59551 11.1206 10.833 8.35807 10.833ZM8.35807 9.16634C10.1997 9.16634 11.6914 7.67467 11.6914 5.83301C11.6914 3.99134 10.1997 2.49967 8.35807 2.49967C6.51641 2.49967 5.02474 3.99134 5.02474 5.83301C5.02474 7.67467 6.51641 9.16634 8.35807 9.16634ZM15.2612 12.252C17.5784 13.2964 19.1914 15.6263 19.1914 18.333H17.5247C17.5247 16.303 16.315 14.5556 14.5771 13.7723L15.2612 12.252ZM14.6882 2.84402C16.3534 3.53053 17.5247 5.16935 17.5247 7.08301C17.5247 9.47484 15.6949 11.4373 13.3581 11.6477V9.97017C14.772 9.76817 15.8581 8.55301 15.8581 7.08301C15.8581 5.93247 15.1927 4.93803 14.2256 4.4633L14.6882 2.84402Z" fill="#F0F0F0"/>
</svg>
