<svg width="31" height="30" viewBox="0 0 31 30" fill="none" xmlns="http://www.w3.org/2000/svg">
<path d="M3.03027 11.875V5C3.03027 4.30964 3.58992 3.75 4.28027 3.75H26.7803C27.4707 3.75 28.0303 4.30964 28.0303 5V11.875C26.3044 11.875 24.9053 13.2741 24.9053 15C24.9053 16.7259 26.3044 18.125 28.0303 18.125V25C28.0303 25.6904 27.4707 26.25 26.7803 26.25H4.28027C3.58992 26.25 3.03027 25.6904 3.03027 25V18.125C4.75616 18.125 6.15527 16.7259 6.15527 15C6.15527 13.2741 4.75616 11.875 3.03027 11.875ZM18.0303 6.25H5.53027V9.9597C7.38242 10.8801 8.65527 12.7914 8.65527 15C8.65527 17.2085 7.38242 19.1199 5.53027 20.0403V23.75H18.0303V6.25ZM20.5303 6.25V23.75H25.5303V20.0403C23.6782 19.1199 22.4053 17.2085 22.4053 15C22.4053 12.7914 23.6782 10.8801 25.5303 9.9597V6.25H20.5303Z" fill="#464E5F"/>
</svg>
