<svg width="20" height="20" viewBox="0 0 20 20" fill="none" xmlns="http://www.w3.org/2000/svg">
<path d="M4.17025 7.5018C4.63049 7.5018 5.00358 7.8749 5.00358 8.33515C6.36589 8.33515 7.61911 8.80215 8.61193 9.58474L10.4203 9.58515C11.5303 9.58515 12.5278 10.0675 13.2144 10.8341L15.8369 10.8352C17.4972 10.8352 18.9306 11.8062 19.6003 13.2113C17.6297 15.8118 14.4385 17.5018 10.8369 17.5018C8.51135 17.5018 6.54506 16.9991 4.95285 16.1202C4.83749 16.4398 4.53057 16.6685 4.17025 16.6685H1.67025C1.21001 16.6685 0.836914 16.2954 0.836914 15.8352V8.33515C0.836914 7.8749 1.21001 7.5018 1.67025 7.5018H4.17025ZM5.00442 10.0018L5.00358 14.1861L5.04138 14.2139C6.53623 15.2642 8.48535 15.8352 10.8369 15.8352C13.3403 15.8352 15.6691 14.8721 17.3662 13.2272L17.4769 13.116L17.3776 13.0323C16.9909 12.7298 16.5166 12.5421 16.0078 12.5076L15.8369 12.5018L14.0772 12.501C14.1381 12.7692 14.1703 13.0484 14.1703 13.3352V14.1685H6.67025V12.5018L12.3286 12.501L12.2999 12.4356C11.9828 11.7742 11.327 11.3062 10.5573 11.2562L10.4203 11.2518L7.97907 11.2517C7.22304 10.4806 6.16961 10.0021 5.00442 10.0018ZM3.33691 9.16849H2.50358V15.0018H3.33691V9.16849ZM11.3756 2.98129L11.67 3.2761L11.9648 2.98129C12.7784 2.1677 14.0976 2.1677 14.9112 2.98129C15.7248 3.79488 15.7248 5.11397 14.9112 5.92756L11.6703 9.16849L8.42935 5.92756C7.61575 5.11397 7.61575 3.79488 8.42935 2.98129C9.24293 2.1677 10.562 2.1677 11.3756 2.98129ZM9.60785 4.1598C9.46318 4.30444 9.44718 4.52895 9.55901 4.69072L9.60693 4.74816L11.6694 6.81097L13.7327 4.74905C13.8773 4.60441 13.8933 4.3799 13.7808 4.2175L13.7327 4.1598C13.588 4.01516 13.3635 3.99909 13.2009 4.11171L13.1432 4.15998L11.6689 5.63383L10.1962 4.1589L10.1394 4.11159C9.97701 3.99909 9.75251 4.01516 9.60785 4.1598Z" fill="#F0F0F0"/>
</svg>
