<svg width="30" height="30" viewBox="0 0 30 30" fill="none" xmlns="http://www.w3.org/2000/svg">
<path d="M6.25586 11.2537C6.94622 11.2537 7.50586 11.8133 7.50586 12.5037C9.54932 12.5037 11.4292 13.2042 12.9184 14.3781L15.6309 14.3787C17.296 14.3787 18.7921 15.1022 19.8221 16.2521L23.7559 16.2537C26.2463 16.2537 28.3964 17.7102 29.401 19.818C26.445 23.7187 21.6583 26.2537 16.2559 26.2537C12.7675 26.2537 9.81808 25.4996 7.42976 24.1812C7.25672 24.6607 6.79635 25.0037 6.25586 25.0037H2.50586C1.81551 25.0037 1.25586 24.4441 1.25586 23.7537V12.5037C1.25586 11.8133 1.81551 11.2537 2.50586 11.2537H6.25586ZM7.50712 15.0037L7.50586 21.2801L7.56256 21.3218C9.80483 22.8973 12.7285 23.7537 16.2559 23.7537C20.0109 23.7537 23.5041 22.3091 26.0498 19.8418L26.2159 19.675L26.0669 19.5495C25.4869 19.0957 24.7754 18.8141 24.0121 18.7623L23.7559 18.7537L21.1163 18.7525C21.2076 19.1548 21.2559 19.5736 21.2559 20.0037V21.2537H10.0059V18.7537L18.4934 18.7525L18.4504 18.6543C17.9748 17.6623 16.991 16.9603 15.8364 16.8853L15.6309 16.8787L11.9691 16.8785C10.835 15.7218 9.25491 15.0041 7.50712 15.0037ZM5.00586 13.7537H3.75586V22.5037H5.00586V13.7537ZM17.0639 4.47291L17.5055 4.91512L17.9478 4.47291C19.1681 3.25252 21.1469 3.25252 22.3673 4.47291C23.5876 5.6933 23.5876 7.67193 22.3673 8.89232L17.5059 13.7537L12.6445 8.89232C11.4241 7.67193 11.4241 5.6933 12.6445 4.47291C13.8649 3.25252 15.8435 3.25252 17.0639 4.47291ZM14.4123 6.24067C14.1953 6.45763 14.1713 6.79441 14.339 7.03706L14.4109 7.12322L17.5046 10.2174L20.5995 7.12456C20.8164 6.9076 20.8405 6.57082 20.6718 6.32723L20.5995 6.24067C20.3825 6.02372 20.0458 5.99961 19.8019 6.16855L19.7153 6.24095L17.5039 8.45172L15.2948 6.23933L15.2096 6.16836C14.966 5.99961 14.6293 6.02372 14.4123 6.24067Z" fill="#464E5F"/>
</svg>
