<svg width="458" height="458" viewBox="0 0 458 458" fill="none" xmlns="http://www.w3.org/2000/svg">
<g filter="url(#filter0_d_1376_4876)">
<rect x="4" width="450" height="450" rx="30" fill="white" shape-rendering="crispEdges"/>
<path d="M120.307 40.4639H52.2129V111.447H120.307V40.4639Z" fill="#E0E0E0"/>
<path d="M115.69 40.4639H47.5962V111.447H115.69V40.4639Z" fill="#FAFAFA"/>
<path d="M115.717 111.474H47.5781V40.4463H115.717V111.474ZM47.6231 111.474H115.672V40.5003H47.6231V111.474Z" fill="#E0E0E0"/>
<path d="M106.537 50.0039H56.749V101.907H106.537V50.0039Z" fill="white"/>
<path d="M56.749 102.249C56.4007 102.774 55.9896 103.255 55.525 103.68C54.724 104.517 53.608 105.651 52.357 106.893C51.106 108.135 49.954 109.224 49.108 109.998C48.6732 110.451 48.1903 110.855 47.668 111.204C48.0157 110.687 48.4269 110.215 48.892 109.8C49.684 108.954 50.8 107.82 52.06 106.578C53.32 105.336 54.472 104.247 55.318 103.464C55.7452 103.004 56.2255 102.596 56.749 102.249Z" fill="#E0E0E0"/>
<path d="M106.537 102.123C107.063 102.474 107.543 102.888 107.968 103.356C108.805 104.148 109.948 105.264 111.181 106.515C112.414 107.766 113.512 108.918 114.295 109.773C114.75 110.204 115.152 110.687 115.492 111.213C114.974 110.859 114.497 110.449 114.07 109.989C113.233 109.197 112.09 108.072 110.857 106.812C109.624 105.552 108.517 104.409 107.734 103.554C107.278 103.128 106.876 102.648 106.537 102.123Z" fill="#E0E0E0"/>
<path d="M106.402 50.1484C106.757 49.6255 107.171 49.1453 107.635 48.7174C108.427 47.8804 109.543 46.7374 110.803 45.5044C112.063 44.2714 113.206 43.1734 114.052 42.3904C114.483 41.9356 114.967 41.5338 115.492 41.1934C115.142 41.7142 114.731 42.1916 114.268 42.6154C113.476 43.4524 112.351 44.5954 111.1 45.8284C109.849 47.0614 108.688 48.1684 107.842 48.9514C107.412 49.407 106.929 49.8089 106.402 50.1484Z" fill="#E0E0E0"/>
<path d="M56.614 50.2746C56.0926 49.9181 55.6126 49.5045 55.183 49.0416C54.346 48.2496 53.212 47.1336 51.979 45.8826C50.746 44.6316 49.648 43.4706 48.865 42.6246C48.4069 42.1969 48.0047 41.7131 47.668 41.1846C48.1888 41.5347 48.6662 41.9456 49.09 42.4086C49.927 43.2006 51.07 44.3256 52.303 45.5766C53.536 46.8276 54.643 47.9886 55.426 48.8436C55.8782 49.2709 56.2771 49.7514 56.614 50.2746Z" fill="#E0E0E0"/>
<path d="M106.402 101.907C106.402 101.907 106.402 101.817 106.402 101.655C106.402 101.493 106.402 101.241 106.402 100.926C106.402 100.278 106.402 99.3422 106.402 98.1272C106.402 95.6702 106.402 92.0972 106.402 87.5522C106.402 78.4622 106.348 65.5112 106.303 50.0042L106.492 50.1932H56.8481L57.0731 49.9682C57.0731 69.0212 57.0731 86.8682 57.0731 101.871L56.8841 101.682L92.8841 101.781L102.982 101.826H105.682H103.045H92.9831L56.9111 101.925H56.5601V101.736C56.5601 86.7062 56.5601 68.8862 56.5601 49.8332V49.6172H56.7851H106.429H106.6V49.8062C106.6 65.3672 106.519 78.3542 106.501 87.4712C106.501 91.9712 106.501 95.5712 106.447 98.0102C106.447 99.2072 106.447 100.134 106.447 100.773C106.447 101.079 106.447 101.304 106.447 101.475C106.461 101.621 106.446 101.768 106.402 101.907Z" fill="#E0E0E0"/>
<path d="M89.9499 67.6533H73.3359V84.2673H89.9499V67.6533Z" fill="#EBEBEB"/>
<path d="M407.92 28.1611H310.9V188.757H407.92V28.1611Z" fill="#E0E0E0"/>
<path d="M404.689 28.1611H307.669V188.757H404.689V28.1611Z" fill="#EBEBEB"/>
<path d="M400.558 31.4189H311.8V185.508H400.558V31.4189Z" fill="white"/>
<path d="M383.278 51.4443H328.702V165.483H383.278V51.4443Z" fill="#EBEBEB"/>
<path d="M328.702 125.101C328.576 114.454 338.152 104.05 348.7 102.601C353.731 101.89 359.077 102.889 363.775 100.963C372.163 97.5155 374.8 86.4005 383.278 83.0615L383.665 165.484H328.702V125.101Z" fill="#E0E0E0"/>
<path d="M252.922 290.61H85.4771V367.839H252.922V290.61Z" fill="#F5F5F5"/>
<path d="M248.935 364.204H89.311V294.679H248.935V364.204ZM90.346 363.16H247.9V295.723H90.346V363.16Z" fill="#E0E0E0"/>
<path d="M293.827 290.61H252.922V367.839H293.827V290.61Z" fill="#E0E0E0"/>
<path d="M89.8333 316.197H248.413C248.462 316.187 248.506 316.161 248.537 316.122C248.568 316.084 248.585 316.036 248.585 315.986C248.585 315.936 248.568 315.888 248.537 315.85C248.506 315.811 248.462 315.785 248.413 315.774H89.8333C89.7846 315.785 89.741 315.811 89.7096 315.85C89.6783 315.888 89.6611 315.936 89.6611 315.986C89.6611 316.036 89.6783 316.084 89.7096 316.122C89.741 316.161 89.7846 316.187 89.8333 316.197Z" fill="#E0E0E0"/>
<path d="M169.645 315.981C170.081 308.995 170.099 301.99 169.699 295.002C169.699 294.945 169.676 294.89 169.636 294.849C169.595 294.809 169.54 294.786 169.483 294.786C169.426 294.786 169.371 294.809 169.33 294.849C169.29 294.89 169.267 294.945 169.267 295.002C168.862 301.99 168.88 308.996 169.321 315.981C169.321 316.024 169.338 316.065 169.368 316.096C169.399 316.126 169.44 316.143 169.483 316.143C169.526 316.143 169.567 316.126 169.597 316.096C169.628 316.065 169.645 316.024 169.645 315.981Z" fill="#E0E0E0"/>
<path d="M212.332 305.496C212.334 305.925 212.208 306.346 211.971 306.703C211.734 307.061 211.396 307.341 210.999 307.506C210.603 307.672 210.167 307.716 209.746 307.633C209.324 307.551 208.937 307.345 208.633 307.042C208.328 306.739 208.121 306.352 208.036 305.931C207.952 305.51 207.994 305.074 208.158 304.677C208.322 304.28 208.6 303.941 208.957 303.702C209.314 303.463 209.734 303.336 210.163 303.336C210.737 303.336 211.287 303.563 211.694 303.968C212.1 304.373 212.33 304.922 212.332 305.496Z" fill="#E0E0E0"/>
<path d="M129.1 305.496C129.1 305.923 128.974 306.341 128.736 306.696C128.499 307.051 128.162 307.328 127.767 307.492C127.372 307.655 126.938 307.698 126.519 307.614C126.1 307.531 125.715 307.325 125.413 307.023C125.111 306.721 124.905 306.336 124.822 305.917C124.738 305.498 124.781 305.064 124.945 304.669C125.108 304.275 125.385 303.937 125.74 303.7C126.095 303.463 126.513 303.336 126.94 303.336C127.224 303.336 127.505 303.392 127.767 303.5C128.029 303.609 128.267 303.768 128.468 303.969C128.668 304.169 128.827 304.407 128.936 304.669C129.044 304.931 129.1 305.212 129.1 305.496Z" fill="#E0E0E0"/>
<path d="M171.283 329.4C171.283 329.827 171.156 330.245 170.919 330.6C170.682 330.955 170.344 331.232 169.949 331.396C169.555 331.559 169.12 331.602 168.701 331.519C168.282 331.435 167.898 331.23 167.596 330.928C167.293 330.626 167.088 330.241 167.004 329.822C166.921 329.403 166.964 328.968 167.127 328.574C167.291 328.179 167.568 327.842 167.923 327.604C168.278 327.367 168.696 327.24 169.123 327.24C169.407 327.239 169.688 327.294 169.951 327.402C170.213 327.51 170.452 327.669 170.653 327.87C170.854 328.071 171.013 328.31 171.121 328.572C171.229 328.835 171.284 329.116 171.283 329.4Z" fill="#E0E0E0"/>
<path d="M105.493 367.839L96.8711 416.322H101.722L117.616 367.839H105.493Z" fill="#E0E0E0"/>
<path d="M241.078 367.839L248.287 416.403H243.436L228.955 367.839H241.078Z" fill="#E0E0E0"/>
<path d="M273.451 367.839L281.614 416.403H276.763L261.328 367.839H273.451Z" fill="#E0E0E0"/>
<path d="M171.139 351.298C171.139 351.725 171.013 352.143 170.775 352.498C170.538 352.853 170.201 353.13 169.806 353.293C169.411 353.457 168.977 353.5 168.558 353.416C168.139 353.333 167.754 353.127 167.452 352.825C167.15 352.523 166.944 352.138 166.861 351.719C166.777 351.3 166.82 350.866 166.984 350.471C167.147 350.076 167.424 349.739 167.779 349.502C168.135 349.264 168.552 349.138 168.979 349.138C169.551 349.14 170.1 349.368 170.504 349.773C170.909 350.178 171.137 350.726 171.139 351.298Z" fill="#E0E0E0"/>
<path d="M89.8333 340.111H248.413C248.462 340.1 248.506 340.074 248.537 340.035C248.568 339.997 248.585 339.949 248.585 339.899C248.585 339.849 248.568 339.801 248.537 339.763C248.506 339.724 248.462 339.698 248.413 339.688H89.8333C89.7846 339.698 89.741 339.724 89.7096 339.763C89.6783 339.801 89.6611 339.849 89.6611 339.899C89.6611 339.949 89.6783 339.997 89.7096 340.035C89.741 340.074 89.7846 340.1 89.8333 340.111Z" fill="#E0E0E0"/>
<path d="M202.378 264.393L202.324 254.088L151.7 254.353L151.754 264.658L202.378 264.393Z" fill="#E0E0E0"/>
<path d="M208.458 290.383L208.375 274.372L151.945 274.668L152.029 290.678L208.458 290.383Z" fill="#F5F5F5"/>
<path d="M197.599 290.286C197.446 290.286 197.32 286.686 197.32 282.285C197.32 277.884 197.446 274.275 197.599 274.275C197.752 274.275 197.869 277.875 197.869 282.285C197.869 286.695 197.752 290.286 197.599 290.286Z" fill="#E0E0E0"/>
<path d="M199.966 290.286C199.813 290.286 199.696 286.686 199.696 282.285C199.696 277.884 199.813 274.275 199.966 274.275C200.119 274.275 200.245 277.875 200.245 282.285C200.245 286.695 200.119 290.286 199.966 290.286Z" fill="#E0E0E0"/>
<path d="M160.528 290.286C160.375 290.286 160.258 286.686 160.258 282.285C160.258 277.884 160.375 274.275 160.528 274.275C160.681 274.275 160.807 277.875 160.807 282.285C160.807 286.695 160.681 290.286 160.528 290.286Z" fill="#E0E0E0"/>
<path d="M162.904 290.286C162.751 290.286 162.625 286.686 162.625 282.285C162.625 277.884 162.751 274.275 162.904 274.275C163.171 276.937 163.261 279.612 163.174 282.285C163.261 284.955 163.17 287.628 162.904 290.286Z" fill="#E0E0E0"/>
<path d="M168.07 282.537C168.07 282.384 173.767 282.258 180.787 282.258C187.807 282.258 193.504 282.384 193.504 282.537C193.504 282.69 187.807 282.816 180.787 282.816C173.767 282.816 168.07 282.69 168.07 282.537Z" fill="#E0E0E0"/>
<path d="M229.652 274.285L229.598 263.98L159.966 264.345L160.02 274.65L229.652 274.285Z" fill="#EBEBEB"/>
<path d="M219.685 273.016C219.023 273.025 218.372 272.836 217.817 272.474C217.262 272.112 216.827 271.594 216.568 270.984C216.308 270.374 216.236 269.701 216.361 269.05C216.485 268.399 216.8 267.8 217.266 267.329C217.732 266.858 218.328 266.536 218.978 266.404C219.627 266.273 220.301 266.338 220.914 266.59C221.526 266.843 222.05 267.272 222.418 267.823C222.785 268.375 222.981 269.023 222.979 269.686C222.982 270.121 222.898 270.552 222.734 270.954C222.57 271.357 222.328 271.724 222.022 272.033C221.716 272.342 221.352 272.588 220.951 272.757C220.55 272.925 220.12 273.013 219.685 273.016Z" fill="#E0E0E0"/>
<path d="M210.64 270.711V268.65H164.029V270.711H210.64Z" fill="#E0E0E0"/>
<path d="M296.5 207.684L293.341 208.197L284.89 199.71L283.873 193.41C283.873 193.41 278.941 193.905 280.858 202.059C282.775 210.213 281.803 208.224 281.803 208.224C281.803 208.224 271.444 209.943 270.733 210.978C270.211 211.734 271.588 222.075 272.389 227.673C272.538 229.032 273.137 230.302 274.091 231.281C275.045 232.259 276.3 232.89 277.654 233.073C278.034 233.123 278.418 233.123 278.797 233.073C281.38 232.659 294.25 228.42 294.25 228.42L299.704 227.52L296.5 207.684Z" fill="#EBEBEB"/>
<path d="M305.248 204.489L306.796 226.404L301.396 227.277L297.967 206.118L305.248 204.489Z" fill="#EBEBEB"/>
<path d="M117.607 150.678C116.824 148.917 115.516 147.44 113.863 146.448C112.283 145.407 110.416 144.891 108.526 144.972C106.928 145.079 105.408 145.709 104.203 146.764C102.998 147.82 102.174 149.243 101.857 150.813C100.74 149.742 99.3108 149.054 97.7766 148.85C96.2424 148.647 94.6832 148.937 93.3251 149.679C91.6871 150.62 90.3866 152.053 89.6081 153.774C88.742 155.498 88.4277 157.446 88.7081 159.354C89.1038 161.781 90.2716 164.016 92.0381 165.726C94.0041 167.409 96.3426 168.6 98.8601 169.2C102.973 170.289 108.355 171.594 108.355 171.594C108.355 171.594 111.406 167.553 114.295 164.394C116.104 162.544 117.443 160.289 118.201 157.815C118.771 155.434 118.563 152.933 117.607 150.678Z" fill="#EBEBEB"/>
<path d="M361.498 224.01C361.273 222.84 360.691 221.768 359.833 220.941C359.031 220.095 357.982 219.525 356.836 219.312C355.859 219.151 354.855 219.316 353.981 219.783C353.107 220.25 352.412 220.993 352.003 221.895C351.48 221.097 350.718 220.485 349.825 220.149C348.932 219.812 347.955 219.768 347.035 220.023C345.916 220.362 344.932 221.041 344.218 221.967C343.459 222.887 343 224.018 342.904 225.207C342.806 226.721 343.197 228.226 344.02 229.5C344.962 230.783 346.196 231.823 347.62 232.533C349.942 233.766 353.02 235.305 353.02 235.305C353.02 235.305 355.414 233.289 357.592 231.813C358.94 230.956 360.061 229.786 360.859 228.402C361.54 227.045 361.764 225.505 361.498 224.01Z" fill="#EBEBEB"/>
<path d="M246.604 37.0713C247.715 36.5719 248.658 35.7612 249.317 34.7373C249.977 33.7134 250.326 32.5203 250.321 31.3023C250.369 30.507 250.254 29.7104 249.983 28.9612C249.713 28.2119 249.292 27.5257 248.747 26.9445C248.202 26.3633 247.545 25.8994 246.814 25.581C246.084 25.2626 245.296 25.0965 244.5 25.0928C243.703 25.0892 242.914 25.248 242.181 25.5596C241.448 25.8712 240.786 26.3291 240.236 26.9052C239.685 27.4814 239.258 28.1637 238.981 28.9104C238.703 29.6571 238.581 30.4526 238.621 31.2483C238.598 32.4784 238.939 33.6879 239.602 34.7242C240.265 35.7605 241.22 36.5772 242.347 37.0713C233.347 38.4303 233.761 48.2043 233.761 48.2043L255.037 48.3033C255.037 48.3033 255.523 38.4213 246.604 37.0713Z" fill="#EBEBEB"/>
<path d="M75.4962 225.621C77.5705 224.836 79.3692 223.461 80.6697 221.664C81.9702 219.868 82.7155 217.73 82.8132 215.514C83.1732 209.214 78.7182 203.913 72.8502 203.571C66.9822 203.229 61.9422 208.017 61.6002 214.272C61.4381 216.502 61.9396 218.731 63.0414 220.676C64.1433 222.622 65.7962 224.199 67.7922 225.207C51.3222 226.782 51.0972 244.584 51.0972 244.584L89.7342 246.852C89.7342 246.852 91.5612 228.942 75.4962 225.621Z" fill="#F5F5F5"/>
<path d="M417.442 416.403C417.442 416.538 332.662 416.637 228.109 416.637C123.556 416.637 38.7578 416.538 38.7578 416.403C38.7578 416.268 123.52 416.169 228.109 416.169C332.698 416.169 417.442 416.277 417.442 416.403Z" fill="#263238"/>
<path d="M352.174 367.605C364.306 360.963 377.923 348.921 383.17 335.286C369.688 342.521 358.839 353.833 352.174 367.605Z" fill="#455A64"/>
<path d="M352.858 347.202C364.99 340.56 378.607 328.518 383.854 314.883C370.372 322.118 359.523 333.43 352.858 347.202Z" fill="#455A64"/>
<path d="M354.568 327.258C366.7 320.607 380.317 308.565 385.564 294.939C372.081 302.172 361.231 313.485 354.568 327.258Z" fill="#455A64"/>
<path d="M357.115 306.297C368.356 298.008 380.434 284.157 384.025 269.901C371.512 278.964 362.112 291.678 357.115 306.297Z" fill="#455A64"/>
<path d="M360.463 290.115C368.032 277.848 374.458 260.091 372.883 245.403C364.442 258.764 360.122 274.315 360.463 290.115Z" fill="#455A64"/>
<path d="M358.771 297.819C355.468 282.591 347.539 263.817 336.217 253.278C339.606 269.879 347.396 285.263 358.771 297.819Z" fill="#455A64"/>
<path d="M356.359 315.081C351.67 299.502 341.869 280.647 329.197 270.657C334.093 287.638 343.476 302.984 356.359 315.081Z" fill="#455A64"/>
<path d="M353.704 336.096C349.015 320.526 339.214 301.662 326.551 291.672C331.44 308.653 340.821 324.001 353.704 336.096Z" fill="#455A64"/>
<path d="M352.453 361.71C347.764 346.131 337.963 327.267 325.291 317.286C330.189 334.266 339.572 349.612 352.453 361.71Z" fill="#455A64"/>
<path d="M360.751 287.037C360.713 287.117 360.685 287.202 360.67 287.289C360.628 287.481 360.574 287.724 360.508 288.018C360.355 288.702 360.157 289.656 359.896 290.853C359.374 293.319 358.69 296.901 357.916 301.338C357.142 305.775 356.314 311.067 355.513 316.971C354.712 322.875 354.001 329.373 353.398 336.222C352.795 343.071 352.435 349.605 352.183 355.554C351.931 361.503 351.859 366.867 351.868 371.376C351.877 375.885 351.922 379.521 352.021 382.032C352.066 383.265 352.102 384.228 352.12 384.93C352.12 385.236 352.12 385.488 352.165 385.686C352.135 385.693 352.108 385.71 352.09 385.736C352.071 385.761 352.063 385.792 352.067 385.823C352.07 385.854 352.085 385.882 352.108 385.903C352.131 385.924 352.161 385.935 352.192 385.935C352.223 385.935 352.253 385.924 352.276 385.903C352.299 385.882 352.314 385.854 352.317 385.823C352.321 385.792 352.312 385.761 352.294 385.736C352.276 385.71 352.249 385.693 352.219 385.686C352.219 385.488 352.219 385.236 352.219 384.93C352.219 384.228 352.219 383.256 352.219 382.032C352.219 379.512 352.219 375.876 352.219 371.376C352.219 366.876 352.39 361.521 352.642 355.572C352.894 349.623 353.308 343.107 353.893 336.267C354.478 329.427 355.216 322.929 355.972 317.025C356.728 311.121 357.529 305.829 358.267 301.392C359.005 296.955 359.626 293.364 360.067 290.898C360.283 289.683 360.454 288.729 360.571 288.045C360.625 287.739 360.661 287.496 360.697 287.298C360.727 287.214 360.745 287.126 360.751 287.037Z" fill="#455A64"/>
<path d="M360.751 287.037C360.713 287.117 360.685 287.202 360.67 287.289C360.628 287.481 360.574 287.724 360.508 288.018C360.355 288.702 360.157 289.656 359.896 290.853C359.374 293.319 358.69 296.901 357.916 301.338C357.142 305.775 356.314 311.067 355.513 316.971C354.712 322.875 354.001 329.373 353.398 336.222C352.795 343.071 352.435 349.605 352.183 355.554C351.931 361.503 351.859 366.867 351.868 371.376C351.877 375.885 351.922 379.521 352.021 382.032C352.066 383.265 352.102 384.228 352.12 384.93C352.12 385.236 352.12 385.488 352.165 385.686C352.135 385.693 352.108 385.71 352.09 385.736C352.071 385.761 352.063 385.792 352.067 385.823C352.07 385.854 352.085 385.882 352.108 385.903C352.131 385.924 352.161 385.935 352.192 385.935C352.223 385.935 352.253 385.924 352.276 385.903C352.299 385.882 352.314 385.854 352.317 385.823C352.321 385.792 352.312 385.761 352.294 385.736C352.276 385.71 352.249 385.693 352.219 385.686C352.219 385.488 352.219 385.236 352.219 384.93C352.219 384.228 352.219 383.256 352.219 382.032C352.219 379.512 352.219 375.876 352.219 371.376C352.219 366.876 352.39 361.521 352.642 355.572C352.894 349.623 353.308 343.107 353.893 336.267C354.478 329.427 355.216 322.929 355.972 317.025C356.728 311.121 357.529 305.829 358.267 301.392C359.005 296.955 359.626 293.364 360.067 290.898C360.283 289.683 360.454 288.729 360.571 288.045C360.625 287.739 360.661 287.496 360.697 287.298C360.727 287.214 360.745 287.126 360.751 287.037Z" fill="#455A64"/>
<path d="M346.9 372.907C352.507 361.009 356.53 344.314 353.677 331.309C347.419 344.22 345.063 358.677 346.9 372.907Z" fill="#263238"/>
<path d="M337.351 357.597C342.949 345.699 346.981 329.004 344.128 315.999C337.869 328.91 335.514 343.367 337.351 357.597Z" fill="#263238"/>
<path d="M328.819 342C334.417 330.111 338.449 313.407 335.596 300.402C329.334 313.313 326.979 327.77 328.819 342Z" fill="#263238"/>
<path d="M320.404 325.225C324.544 312.625 326.569 295.525 322.204 283.015C317.529 296.613 316.904 311.277 320.404 325.225Z" fill="#263238"/>
<path d="M314.905 311.463C314.419 298.098 310.405 281.394 302.053 271.575C302.317 285.846 306.788 299.722 314.905 311.463Z" fill="#263238"/>
<path d="M317.452 318.07C307.552 308.854 292.585 299.728 279.148 298.594C289.708 308.732 303.039 315.51 317.452 318.07Z" fill="#263238"/>
<path d="M324.157 332.1C313.096 323.433 296.689 315.333 282.55 315.378C294.452 324.958 308.936 330.779 324.157 332.1Z" fill="#263238"/>
<path d="M332.5 348.984C321.439 340.317 305.032 332.217 290.893 332.262C302.795 341.841 317.279 347.663 332.5 348.984Z" fill="#263238"/>
<path d="M344.2 368.433C333.139 359.766 316.741 351.666 302.593 351.711C314.498 361.285 328.98 367.106 344.2 368.433Z" fill="#263238"/>
<path d="M313.6 309.042C313.612 309.116 313.633 309.189 313.663 309.258C313.726 309.429 313.798 309.636 313.897 309.888C314.122 310.473 314.437 311.274 314.797 312.282C315.607 314.37 316.849 317.349 318.442 321.012C321.628 328.338 326.335 338.337 332.176 349.038C335.11 354.384 338.035 359.406 340.789 363.915C343.543 368.424 346.117 372.429 348.358 375.732C350.599 379.035 352.426 381.708 353.758 383.508C354.406 384.408 354.91 385.074 355.279 385.587L355.684 386.118C355.774 386.235 355.828 386.298 355.837 386.289C355.812 386.217 355.776 386.15 355.729 386.091C355.63 385.938 355.504 385.758 355.36 385.524L353.92 383.4C352.651 381.6 350.851 378.9 348.664 375.543C346.477 372.186 343.939 368.19 341.194 363.681C338.449 359.172 335.56 354.141 332.635 348.804C326.794 338.112 322.042 328.158 318.784 320.904C317.146 317.304 315.859 314.307 314.986 312.246C314.563 311.256 314.221 310.446 313.969 309.888L313.69 309.276C313.673 309.194 313.643 309.115 313.6 309.042Z" fill="#263238"/>
<path d="M319.891 374.482L376.168 374.176L376.222 385.03L370.444 385.057L365.872 416.269L330.952 416.206L325.777 385.3L319.945 385.327L319.891 374.482Z" fill="#407BFF"/>
<path d="M319.945 385.101C319.945 384.957 332.455 384.777 347.845 384.687C363.235 384.597 375.745 384.687 375.745 384.804C375.745 384.921 363.244 385.128 347.845 385.209C332.446 385.29 319.945 385.245 319.945 385.101Z" fill="#263238"/>
<path d="M80.896 379.332L86.539 416.403H119.317L126.931 379.863L80.896 379.332Z" fill="#407BFF"/>
<path d="M122.341 403.092C122.341 403.2 113.944 403.281 103.585 403.281C93.2263 403.281 84.8203 403.2 84.8203 403.092C84.8203 402.984 93.2263 402.903 103.585 402.903C113.944 402.903 122.341 402.984 122.341 403.092Z" fill="#FAFAFA"/>
<path d="M122.467 401.265C122.467 401.373 114.016 401.463 103.567 401.463C93.118 401.463 84.667 401.373 84.667 401.265C84.667 401.157 93.127 401.076 103.567 401.076C114.007 401.076 122.467 401.166 122.467 401.265Z" fill="#FAFAFA"/>
<path d="M122.404 399.205C122.404 399.313 113.953 399.403 103.504 399.403C93.055 399.403 84.604 399.313 84.604 399.205C84.604 399.097 93.064 399.016 103.504 399.016C113.944 399.016 122.404 399.106 122.404 399.205Z" fill="#FAFAFA"/>
<path d="M90.3014 414.289C89.8488 412.763 89.5149 411.204 89.3024 409.627C88.9656 408.068 88.7549 406.485 88.6724 404.893C89.473 407.974 90.0178 411.117 90.3014 414.289Z" fill="#FAFAFA"/>
<path d="M92.5331 413.901C92.2008 410.869 91.9936 407.825 91.9121 404.775C92.2755 406.264 92.4777 407.788 92.5151 409.32C92.683 410.842 92.689 412.378 92.5331 413.901Z" fill="#FAFAFA"/>
<path d="M96.6012 413.892C96.1365 412.372 95.8349 410.806 95.7012 409.221C95.4571 407.656 95.3727 406.07 95.4492 404.487C95.749 406.04 95.9594 407.609 96.0791 409.185C96.3444 410.743 96.5187 412.315 96.6012 413.892Z" fill="#FAFAFA"/>
<path d="M99.4541 414.09C99.1384 412.529 98.9846 410.94 98.9951 409.347C98.8812 407.756 98.9295 406.158 99.1391 404.577C99.3108 406.155 99.392 407.742 99.3821 409.329C99.4961 410.914 99.5201 412.503 99.4541 414.09Z" fill="#FAFAFA"/>
<path d="M104.503 413.901C104.26 412.414 104.143 410.909 104.152 409.401C104.025 407.904 104.025 406.399 104.152 404.901C104.395 406.389 104.509 407.894 104.494 409.401C104.627 410.898 104.63 412.404 104.503 413.901Z" fill="#FAFAFA"/>
<path d="M108.193 414.09C108.01 412.547 107.959 410.99 108.04 409.437C107.986 407.88 108.062 406.321 108.265 404.775C108.448 406.322 108.499 407.882 108.418 409.437C108.472 410.992 108.397 412.548 108.193 414.09Z" fill="#FAFAFA"/>
<path d="M111.649 413.596C111.691 410.343 111.992 407.098 112.549 403.894C112.581 405.521 112.488 407.149 112.27 408.763C112.192 410.388 111.985 412.004 111.649 413.596Z" fill="#FAFAFA"/>
<path d="M116.113 413.101C116.115 411.703 116.299 410.311 116.662 408.961C116.896 407.583 117.304 406.24 117.877 404.965C117.68 406.339 117.401 407.701 117.04 409.042C116.805 410.411 116.496 411.766 116.113 413.101Z" fill="#FAFAFA"/>
<path d="M112.954 306.162C112.958 306.222 112.958 306.282 112.954 306.342C112.954 306.486 112.864 306.657 112.801 306.873C112.657 307.359 112.441 308.025 112.18 308.871C111.919 309.717 111.568 310.797 111.217 312.039C110.866 313.281 110.425 314.739 110.038 316.269C109.651 317.799 109.138 319.563 108.76 321.435C108.382 323.307 107.923 325.296 107.491 327.402C106.708 331.632 105.988 336.303 105.484 341.244C104.98 346.185 104.782 350.91 104.719 355.203C104.719 357.354 104.719 359.397 104.782 361.314C104.845 363.231 104.917 365.004 105.007 366.624C105.097 368.244 105.232 369.711 105.331 370.998C105.43 372.285 105.547 373.401 105.655 374.301C105.763 375.201 105.817 375.876 105.871 376.389C105.871 376.605 105.871 376.785 105.871 376.929C105.871 377.073 105.871 377.118 105.871 377.118C105.865 377.058 105.865 376.998 105.871 376.938C105.871 376.794 105.844 376.614 105.79 376.398C105.718 375.894 105.628 375.201 105.502 374.319C105.376 373.437 105.232 372.312 105.124 371.025C105.016 369.738 104.827 368.271 104.737 366.642C104.647 365.013 104.512 363.24 104.458 361.323C104.404 359.406 104.377 357.354 104.368 355.203C104.368 350.892 104.62 346.158 105.106 341.208C105.592 336.258 106.339 331.569 107.149 327.339C107.581 325.224 107.977 323.217 108.445 321.363C108.913 319.509 109.345 317.763 109.777 316.197C110.209 314.631 110.677 313.218 111.01 311.985C111.343 310.752 111.739 309.681 112.036 308.826C112.333 307.971 112.567 307.323 112.729 306.846C112.807 306.636 112.87 306.465 112.918 306.333C112.9 306.216 112.945 306.162 112.954 306.162Z" fill="#455A64"/>
<path d="M107.032 329.122C107.939 326.452 109.742 324.178 112.135 322.687C112.51 322.388 112.952 322.187 113.423 322.1C113.894 322.014 114.379 322.045 114.835 322.192C115.978 322.741 116.077 324.352 115.735 325.576C115.143 327.653 113.824 329.448 112.018 330.634C110.419 331.812 108.422 332.316 106.456 332.038" fill="#455A64"/>
<path d="M105.043 344.628C105.889 341.424 108.445 336.879 111.091 334.899C111.498 334.565 111.966 334.315 112.468 334.161C112.721 334.088 112.988 334.079 113.246 334.134C113.503 334.189 113.743 334.306 113.944 334.476C114.171 334.775 114.319 335.126 114.375 335.497C114.432 335.868 114.395 336.247 114.268 336.6C113.728 338.935 112.548 341.074 110.859 342.775C109.171 344.476 107.041 345.672 104.71 346.23" fill="#455A64"/>
<path d="M104.494 358.272C105.811 355.217 107.917 352.567 110.596 350.595C110.883 350.333 111.219 350.13 111.586 350C111.952 349.871 112.341 349.816 112.729 349.839C113.89 350.046 114.412 351.459 114.313 352.638C114.097 355.05 112.261 356.985 110.353 358.479C108.606 359.689 106.709 360.666 104.71 361.386" fill="#455A64"/>
<path d="M104.8 368.1C106.078 365.771 107.854 363.752 110.002 362.187C110.46 361.835 110.993 361.595 111.559 361.485C111.843 361.436 112.135 361.465 112.405 361.568C112.674 361.671 112.911 361.844 113.089 362.07C113.602 362.835 113.089 363.87 112.549 364.608C110.714 367.147 108.121 369.038 105.142 370.008" fill="#455A64"/>
<path d="M104.548 364.095C102.308 361.355 99.8225 358.825 97.1233 356.535C96.7003 356.175 96.1693 355.797 95.6383 355.968C95.4413 356.052 95.2726 356.19 95.1529 356.368C95.0331 356.545 94.9672 356.753 94.9633 356.967C94.956 357.398 95.0516 357.823 95.2423 358.209C96.1235 360.19 97.4407 361.947 99.0957 363.348C100.751 364.749 102.701 365.758 104.8 366.3" fill="#455A64"/>
<path d="M104.8 351.334L98.9681 344.215C98.4541 343.503 97.8134 342.893 97.0781 342.415C96.7026 342.186 96.2714 342.064 95.8316 342.064C95.3918 342.064 94.9605 342.186 94.5851 342.415C94.248 342.692 93.9946 343.058 93.8532 343.471C93.7117 343.884 93.6878 344.329 93.7841 344.755C93.9944 345.607 94.384 346.405 94.9271 347.095C96.0623 348.837 97.5011 350.361 99.1751 351.595C100.894 352.774 102.451 353.539 104.503 353.233" fill="#455A64"/>
<path d="M105.592 336.961C104.452 333.553 102.427 330.509 99.7242 328.141C99.2992 327.715 98.7726 327.405 98.1942 327.241C97.5953 327.19 96.9975 327.35 96.5044 327.693C96.0112 328.037 95.6538 328.542 95.4942 329.122C95.3076 329.767 95.2584 330.443 95.3499 331.109C95.4414 331.774 95.6714 332.412 96.0252 332.983C96.7233 334.119 97.6413 335.104 98.7252 335.881C100.689 337.387 102.879 338.571 105.214 339.391" fill="#455A64"/>
<path d="M107.923 324.144C107.365 320.022 105.223 316.584 102.73 313.254C102.208 312.543 101.47 311.805 100.606 311.931C100.333 311.99 100.078 312.116 99.8658 312.298C99.6535 312.481 99.4904 312.713 99.3913 312.975C99.1921 313.503 99.1122 314.069 99.1573 314.631C99.2645 317.129 100.105 319.541 101.575 321.564C103.044 323.587 105.077 325.132 107.419 326.007" fill="#455A64"/>
<path d="M109.561 317.601C109.287 315.486 109.215 313.349 109.345 311.22C109.482 309.082 110.215 307.024 111.46 305.28C111.997 304.532 112.733 303.949 113.584 303.597C114.011 303.429 114.474 303.371 114.929 303.431C115.384 303.491 115.816 303.666 116.185 303.939C116.498 304.228 116.742 304.583 116.898 304.979C117.053 305.375 117.118 305.801 117.085 306.225C117.014 307.074 116.792 307.903 116.428 308.673C114.88 312.408 112.288 316.548 109.579 317.601" fill="#455A64"/>
<path d="M84.1455 322.516C84.157 322.689 84.157 322.864 84.1455 323.038C84.1455 323.416 84.1455 323.938 84.1455 324.532C84.1455 325.126 84.1455 325.981 84.1455 326.899C84.1455 327.817 84.1455 328.87 84.2625 330.031C84.3615 332.353 84.5865 335.107 84.9375 338.131C85.2885 341.155 85.8375 344.512 86.5485 347.977C87.2595 351.442 88.1505 354.7 89.0325 357.643C89.9145 360.586 90.8325 363.187 91.6785 365.356C92.0655 366.445 92.4885 367.408 92.8305 368.272C93.1725 369.136 93.4875 369.856 93.7305 370.45C93.9735 371.044 94.1625 371.476 94.3155 371.827C94.3889 371.986 94.4491 372.152 94.4955 372.322C94.3996 372.175 94.3153 372.022 94.2435 371.863C94.0815 371.521 93.8565 371.071 93.5955 370.513C93.3345 369.955 92.9745 369.208 92.6145 368.353C92.2545 367.498 91.8135 366.553 91.3995 365.455C90.4995 363.295 89.5995 360.685 88.6995 357.751C87.7995 354.817 86.8995 351.532 86.1885 348.058C85.4775 344.584 84.9555 341.227 84.5955 338.158C84.2355 335.089 84.1005 332.371 84.1005 330.04C84.0465 328.879 84.1005 327.826 84.0465 326.899C83.9925 325.972 84.0465 325.18 84.0465 324.532C84.0465 323.884 84.0465 323.416 84.1095 323.038C84.096 322.863 84.1081 322.687 84.1455 322.516Z" fill="#263238"/>
<path d="M85.0542 339.417C85.0875 337.391 85.8258 335.44 87.1422 333.9C87.3348 333.62 87.593 333.392 87.8942 333.235C88.1955 333.078 88.5306 332.998 88.8702 333C89.7702 333.135 90.1752 334.206 90.2022 335.115C90.2492 336.654 89.7413 338.158 88.7712 339.354C87.9324 340.501 86.6798 341.276 85.2792 341.514" fill="#263238"/>
<path d="M87.0341 350.397C86.9261 348.039 87.6821 344.394 89.0591 342.477C89.2654 342.162 89.5313 341.89 89.8421 341.676C89.9994 341.575 90.179 341.512 90.3655 341.495C90.5519 341.478 90.7398 341.506 90.9131 341.577C91.1306 341.733 91.3061 341.94 91.4239 342.181C91.5417 342.421 91.5981 342.687 91.5881 342.954C91.7221 344.66 91.3779 346.37 90.5942 347.892C89.8104 349.413 88.6181 350.686 87.1511 351.567" fill="#263238"/>
<path d="M89.5991 359.811C89.8383 357.447 90.7018 355.189 92.1011 353.268C92.3856 352.788 92.848 352.439 93.3881 352.296C94.2251 352.188 94.8911 353.043 95.0711 353.862C95.4491 355.545 94.6031 357.264 93.6311 358.695C92.6977 359.894 91.6115 360.965 90.4001 361.881" fill="#263238"/>
<path d="M91.9214 366.426C92.2891 364.564 93.0635 362.806 94.1894 361.278C94.4242 360.944 94.7319 360.667 95.0894 360.468C95.2708 360.372 95.4752 360.328 95.68 360.341C95.8848 360.354 96.0822 360.423 96.2504 360.54C96.7724 360.945 96.6554 361.755 96.4394 362.34C95.7385 364.472 94.3806 366.328 92.5604 367.641" fill="#263238"/>
<path d="M90.8864 363.763C88.7737 362.379 86.5383 361.192 84.2084 360.217C84.0397 360.112 83.8475 360.052 83.6494 360.041C83.4514 360.03 83.2537 360.069 83.0744 360.154C82.9573 360.253 82.8718 360.384 82.8286 360.531C82.7854 360.678 82.7864 360.835 82.8314 360.982C82.9217 361.275 83.0789 361.543 83.2904 361.765C84.3177 362.917 85.5916 363.823 87.0173 364.415C88.4431 365.007 89.984 365.27 91.5254 365.185" fill="#263238"/>
<path d="M88.3031 355.023L82.7951 351.423C82.2908 351.054 81.7236 350.779 81.1211 350.613C80.8204 350.51 80.4948 350.504 80.1906 350.597C79.8864 350.689 79.6191 350.875 79.4268 351.128C79.2344 351.382 79.1267 351.689 79.1191 352.007C79.1114 352.325 79.2042 352.637 79.3841 352.899C79.7082 353.433 80.1442 353.891 80.6621 354.24C81.8112 355.188 83.1223 355.919 84.5321 356.4C85.1606 356.669 85.8373 356.808 86.5211 356.808C87.2049 356.808 87.8816 356.669 88.5101 356.4" fill="#263238"/>
<path d="M85.7653 345.06C84.2517 342.991 82.2181 341.358 79.8703 340.326C79.4872 340.128 79.0594 340.032 78.6283 340.047C78.2154 340.147 77.8494 340.385 77.592 340.723C77.3345 341.061 77.2015 341.477 77.2153 341.901C77.2271 342.382 77.3398 342.855 77.546 343.289C77.7522 343.723 78.0474 344.109 78.4123 344.421C79.1407 345.041 79.9851 345.509 80.8963 345.798C82.5583 346.4 84.3049 346.734 86.0713 346.788" fill="#263238"/>
<path d="M84.5862 335.836C83.3172 333.136 81.1212 331.273 78.7092 329.536C78.1962 329.176 77.5392 328.825 76.9812 329.104C76.8064 329.202 76.6589 329.342 76.5521 329.512C76.4452 329.682 76.3824 329.876 76.3692 330.076C76.3543 330.475 76.4217 330.873 76.5672 331.246C77.18 332.927 78.2755 334.391 79.7164 335.452C81.1574 336.513 82.8796 337.126 84.6672 337.213" fill="#263238"/>
<path d="M84.2894 331.03C83.6501 329.638 83.1438 328.188 82.7774 326.701C82.405 325.216 82.4612 323.655 82.9394 322.201C83.1418 321.573 83.516 321.015 84.0194 320.59C84.2691 320.391 84.5643 320.257 84.8785 320.2C85.1927 320.144 85.516 320.166 85.8194 320.266C86.0925 320.398 86.3328 320.589 86.5227 320.826C86.7126 321.062 86.8475 321.338 86.9174 321.634C87.0439 322.225 87.0683 322.834 86.9894 323.434C86.7374 326.314 85.8644 329.689 84.2444 330.985" fill="#263238"/>
<path d="M125.59 322.2C125.619 322.373 125.634 322.547 125.635 322.722C125.635 323.1 125.635 323.622 125.689 324.216C125.743 324.81 125.689 325.665 125.689 326.583C125.689 327.501 125.689 328.563 125.635 329.724C125.563 332.055 125.365 334.818 125.032 337.878C124.699 340.938 124.132 344.286 123.448 347.778C122.764 351.27 121.828 354.528 120.928 357.471C120.028 360.414 119.074 363.015 118.228 365.175C117.814 366.264 117.382 367.227 117.013 368.073C116.644 368.919 116.32 369.648 116.041 370.233C115.762 370.818 115.555 371.241 115.384 371.583C115.317 371.745 115.232 371.899 115.132 372.042C115.179 371.873 115.239 371.707 115.312 371.547C115.465 371.196 115.654 370.737 115.897 370.17C116.14 369.603 116.482 368.847 116.797 367.992C117.112 367.137 117.562 366.192 117.958 365.076C118.795 362.916 119.695 360.297 120.595 357.363C121.495 354.429 122.341 351.162 123.079 347.697C123.817 344.232 124.312 340.893 124.69 337.851C125.068 334.809 125.266 332.046 125.365 329.751C125.446 328.59 125.455 327.546 125.482 326.619C125.509 325.692 125.482 324.9 125.482 324.252C125.482 323.604 125.482 323.136 125.482 322.758C125.493 322.568 125.53 322.381 125.59 322.2Z" fill="#455A64"/>
<path d="M124.672 339.058C124.63 337.044 123.893 335.108 122.584 333.577C122.391 333.297 122.133 333.069 121.832 332.912C121.531 332.755 121.196 332.674 120.856 332.677C119.956 332.812 119.551 333.883 119.524 334.792C119.477 336.331 119.985 337.835 120.955 339.031C121.789 340.183 123.044 340.959 124.447 341.191" fill="#455A64"/>
<path d="M122.692 350.047C122.8 347.68 122.044 344.035 120.667 342.118C120.464 341.8 120.197 341.528 119.884 341.317C119.727 341.215 119.547 341.153 119.361 341.136C119.174 341.119 118.986 341.147 118.813 341.218C118.596 341.374 118.42 341.581 118.302 341.821C118.185 342.062 118.128 342.327 118.138 342.595C118.004 344.301 118.348 346.011 119.132 347.532C119.916 349.054 121.108 350.326 122.575 351.208" fill="#455A64"/>
<path d="M120.1 359.451C119.861 357.087 118.998 354.829 117.598 352.908C117.314 352.427 116.851 352.078 116.311 351.936C115.474 351.828 114.817 352.683 114.628 353.502C114.25 355.185 115.096 356.904 116.068 358.335C116.996 359.532 118.076 360.603 119.281 361.521" fill="#455A64"/>
<path d="M117.805 366.066C117.437 364.206 116.666 362.449 115.546 360.918C115.311 360.584 115.004 360.307 114.646 360.108C114.464 360.013 114.26 359.97 114.056 359.983C113.851 359.995 113.654 360.064 113.485 360.18C112.963 360.585 113.08 361.395 113.296 361.98C113.997 364.113 115.355 365.968 117.175 367.281" fill="#455A64"/>
<path d="M118.84 363.402C120.957 362.02 123.195 360.833 125.527 359.856C125.694 359.752 125.885 359.692 126.082 359.681C126.278 359.67 126.475 359.708 126.652 359.793C126.768 359.893 126.853 360.024 126.898 360.171C126.943 360.317 126.945 360.474 126.904 360.621C126.807 360.911 126.65 361.178 126.445 361.404C125.416 362.556 124.14 363.462 122.713 364.054C121.286 364.646 119.744 364.909 118.201 364.824" fill="#455A64"/>
<path d="M121.423 354.664L126.931 351.064C127.435 350.695 128.003 350.42 128.605 350.254C128.908 350.175 129.228 350.182 129.528 350.272C129.828 350.363 130.097 350.534 130.306 350.767C130.478 351.036 130.569 351.348 130.569 351.667C130.569 351.986 130.478 352.298 130.306 352.567C129.98 353.102 129.545 353.562 129.028 353.917C127.876 354.86 126.566 355.591 125.158 356.077C124.529 356.344 123.853 356.482 123.169 356.482C122.486 356.482 121.809 356.344 121.18 356.077" fill="#455A64"/>
<path d="M123.97 344.7C125.478 342.629 127.51 340.995 129.856 339.966C130.239 339.768 130.667 339.672 131.098 339.687C131.511 339.786 131.877 340.025 132.135 340.363C132.392 340.7 132.525 341.117 132.511 341.541C132.5 342.022 132.388 342.494 132.181 342.929C131.975 343.363 131.68 343.749 131.314 344.061C130.586 344.681 129.741 345.149 128.83 345.438C127.169 346.04 125.422 346.374 123.655 346.428" fill="#455A64"/>
<path d="M125.14 335.475C126.409 332.775 128.605 330.912 131.017 329.175C131.243 328.957 131.522 328.801 131.827 328.723C132.132 328.646 132.451 328.65 132.754 328.734C132.926 328.835 133.071 328.976 133.176 329.146C133.281 329.315 133.343 329.507 133.357 329.706C133.372 330.106 133.305 330.504 133.159 330.876C132.546 332.558 131.451 334.021 130.01 335.083C128.569 336.144 126.847 336.757 125.059 336.843" fill="#455A64"/>
<path d="M125.437 330.669C126.075 329.289 126.581 327.852 126.949 326.376C127.322 324.891 127.266 323.331 126.787 321.876C126.585 321.249 126.211 320.691 125.707 320.265C125.458 320.067 125.162 319.933 124.848 319.876C124.534 319.82 124.211 319.842 123.907 319.941C123.634 320.072 123.392 320.261 123.201 320.496C123.009 320.731 122.872 321.006 122.8 321.3C122.674 321.892 122.649 322.501 122.728 323.1C122.98 325.98 123.853 329.4 125.473 330.651" fill="#455A64"/>
<path d="M77.1343 371.988V378.9C77.1343 379.616 77.4187 380.303 77.9251 380.809C78.4314 381.315 79.1182 381.6 79.8343 381.6H127.3C128.016 381.6 128.703 381.315 129.209 380.809C129.716 380.303 130 379.616 130 378.9V371.961L77.1343 371.988Z" fill="#407BFF"/>
<g opacity="0.4">
<path d="M81.2471 381.654L81.6431 383.859L125.446 386.982L126.553 381.654H81.2471Z" fill="black"/>
</g>
<path d="M214.681 406.232L214.33 397.475L199.066 396.899L199.3 407.618L204.853 410.966L214.681 406.232Z" fill="#A1675B"/>
<path d="M198.967 405.621V406.629C198.967 406.629 182.02 413.622 181.867 416.853L215.644 416.358L215.023 405.126C212.539 406.354 209.819 407.034 207.049 407.119C204.279 407.205 201.523 406.694 198.967 405.621Z" fill="#407BFF"/>
<g opacity="0.6">
<path d="M211.666 408.762C211.993 408.856 212.273 409.069 212.453 409.358C212.632 409.647 212.698 409.993 212.638 410.328C212.555 410.656 212.349 410.941 212.063 411.123C211.777 411.306 211.432 411.372 211.099 411.309C210.754 411.208 210.458 410.983 210.269 410.677C210.08 410.372 210.01 410.007 210.073 409.653C210.194 409.316 210.44 409.04 210.761 408.882C211.082 408.724 211.452 408.697 211.792 408.807" fill="white"/>
</g>
<g opacity="0.6">
<path d="M215.653 416.358L215.509 413.658L183.181 415.125C183.181 415.125 181.687 415.8 181.876 416.862L215.653 416.358Z" fill="white"/>
</g>
<path d="M198.859 406.719C198.859 406.89 199.687 406.953 200.506 407.466C201.325 407.979 201.775 408.672 201.919 408.609C202.063 408.546 201.811 407.592 200.812 406.98C199.813 406.368 198.823 406.575 198.859 406.719Z" fill="#263238"/>
<path d="M195.331 408.24C195.331 408.402 196.015 408.672 196.591 409.356C197.167 410.04 197.329 410.787 197.491 410.778C197.653 410.769 197.743 409.833 197.014 408.978C196.285 408.123 195.34 408.087 195.331 408.24Z" fill="#263238"/>
<path d="M193.387 412.505C193.54 412.505 193.756 411.713 193.315 410.822C192.874 409.931 192.1 409.571 192.037 409.715C191.974 409.859 192.451 410.327 192.802 411.065C193.153 411.803 193.225 412.496 193.387 412.505Z" fill="#263238"/>
<path d="M213.376 386.757L216.049 412.83L228.001 410.841L228.271 385.173L213.376 386.757Z" fill="#A1675B"/>
<path d="M227.956 405.899C227.956 405.899 220.045 412.559 215.464 407.888L214.627 410.444L211.477 428.399C211.363 428.972 211.467 429.566 211.769 430.065C212.07 430.564 212.547 430.933 213.106 431.099C213.534 431.222 213.988 431.223 214.416 431.1C214.844 430.977 215.229 430.737 215.527 430.406C218.704 426.851 230.314 413.693 230.035 412.091L229.576 407.798C229.524 407.36 229.342 406.947 229.054 406.614C228.765 406.28 228.383 406.04 227.956 405.926V405.899Z" fill="#407BFF"/>
<g opacity="0.6">
<path d="M213.529 431.153L229.9 410.57L229.981 411.47C230.041 411.856 230.012 412.25 229.896 412.623C229.781 412.996 229.582 413.337 229.315 413.621C228.037 415.691 224.383 420.398 215.59 430.334C215.336 430.622 215.015 430.844 214.656 430.98C214.297 431.117 213.91 431.164 213.529 431.117V431.153Z" fill="white"/>
</g>
<g opacity="0.6">
<path d="M226.966 408.024C226.823 408.129 226.702 408.261 226.612 408.413C226.521 408.566 226.462 408.735 226.439 408.911C226.415 409.086 226.428 409.265 226.475 409.436C226.522 409.607 226.604 409.766 226.714 409.905C226.825 410.043 226.962 410.158 227.119 410.242C227.275 410.326 227.446 410.378 227.623 410.394C227.799 410.41 227.977 410.39 228.146 410.335C228.315 410.281 228.47 410.192 228.604 410.076C228.748 409.967 228.868 409.829 228.957 409.671C229.045 409.513 229.1 409.338 229.118 409.158C229.136 408.978 229.116 408.796 229.06 408.624C229.005 408.452 228.914 408.293 228.794 408.158C228.674 408.022 228.528 407.913 228.363 407.837C228.199 407.761 228.021 407.719 227.84 407.715C227.659 407.711 227.48 407.744 227.312 407.813C227.145 407.882 226.993 407.984 226.867 408.114" fill="white"/>
</g>
<path d="M217.849 421.001C217.234 420.357 216.505 419.832 215.698 419.453C214.821 419.205 213.905 419.122 212.998 419.21C212.998 419.156 213.241 418.958 213.772 418.832C214.465 418.696 215.181 418.755 215.842 419.003C216.499 419.237 217.072 419.66 217.489 420.218C217.831 420.65 217.903 420.974 217.849 421.001Z" fill="#263238"/>
<path d="M216.499 424.115C215.813 423.815 215.11 423.556 214.393 423.341C213.648 423.276 212.9 423.252 212.152 423.269C212.483 423.024 212.867 422.859 213.274 422.789C213.68 422.718 214.097 422.744 214.492 422.864C215.869 423.125 216.607 424.043 216.499 424.115Z" fill="#263238"/>
<path d="M220.513 416.925C219.498 416.376 218.441 415.907 217.354 415.521C216.217 415.289 215.065 415.135 213.907 415.062C215.07 414.643 216.343 414.643 217.507 415.062C218.699 415.305 219.765 415.965 220.513 416.925Z" fill="#263238"/>
<path d="M220.405 411.561C220.405 411.696 219.055 411.3 217.417 411.39C215.779 411.48 214.519 411.983 214.456 411.848C215.298 411.208 216.333 410.875 217.39 410.904C218.441 410.76 219.509 410.993 220.405 411.561Z" fill="#263238"/>
<path d="M216.481 411.435C216.418 411.156 216.418 410.867 216.481 410.589C216.637 409.825 216.943 409.1 217.381 408.456C217.659 407.946 218.099 407.544 218.632 407.313C218.814 407.253 219.01 407.25 219.195 407.303C219.379 407.356 219.544 407.463 219.667 407.61C219.883 407.908 219.977 408.279 219.928 408.645C219.793 409.391 219.404 410.068 218.826 410.56C218.249 411.053 217.518 411.33 216.76 411.345C216.002 411.367 215.256 411.163 214.614 410.759C213.973 410.355 213.467 409.769 213.16 409.077C213.082 408.907 213.042 408.723 213.042 408.537C213.042 408.35 213.082 408.166 213.16 407.997C213.269 407.838 213.424 407.716 213.604 407.647C213.784 407.578 213.98 407.565 214.168 407.61C214.716 407.778 215.21 408.088 215.599 408.51C216.165 409.042 216.634 409.67 216.985 410.364C217.135 410.607 217.23 410.881 217.264 411.165C216.75 410.277 216.107 409.47 215.356 408.771C215.003 408.423 214.57 408.167 214.096 408.024C213.994 407.997 213.887 408.002 213.788 408.039C213.69 408.076 213.605 408.143 213.547 408.231C213.499 408.343 213.474 408.464 213.474 408.586C213.474 408.708 213.499 408.829 213.547 408.942C213.829 409.528 214.273 410.021 214.826 410.364C215.38 410.707 216.019 410.885 216.67 410.877C217.31 410.854 217.924 410.617 218.413 410.204C218.902 409.792 219.239 409.227 219.37 408.6C219.408 408.346 219.353 408.088 219.217 407.871C219.152 407.786 219.062 407.725 218.96 407.696C218.858 407.667 218.749 407.671 218.65 407.709C218.209 407.895 217.833 408.208 217.57 408.609C217.04 409.477 216.671 410.435 216.481 411.435Z" fill="#263238"/>
<path d="M179.374 204.3C179.374 204.3 167.098 227.799 166.054 246.384C165.01 264.969 180.094 318.384 182.182 330.543C183.604 338.841 190.597 380.331 199.012 405.585H211.99C211.99 405.585 203.575 321.426 203.89 312.66C204.205 303.894 207.4 257.22 207.4 257.22L211.963 221.796L179.374 204.3Z" fill="#263238"/>
<path d="M246.352 213.381C245.299 213.732 208.723 220.041 208.723 220.041C208.723 220.041 196.267 316.062 195.223 328.689C194.179 341.316 211.999 405.549 211.999 405.549H229.9C229.9 405.549 229.549 363.114 226.741 350.145C223.933 337.176 223.933 334.008 225.688 325.944C227.443 317.88 243.85 279.144 248.404 257.796C252.958 236.448 246.352 213.381 246.352 213.381Z" fill="#263238"/>
<path d="M205.6 245.402C205.6 245.402 205.6 245.546 205.6 245.825C205.6 246.104 205.528 246.536 205.465 247.058C205.339 248.156 205.15 249.758 204.907 251.774C204.394 255.896 203.665 261.827 202.765 269.135C200.965 283.805 198.373 304.028 195.565 326.366C195.482 329.134 195.663 331.904 196.105 334.637C196.483 337.337 196.942 340.037 197.464 342.611C198.49 347.813 199.642 352.808 200.812 357.542C203.143 367.019 205.492 375.542 207.499 382.598C209.506 389.654 211.216 395.432 212.386 399.383C212.971 401.345 213.43 402.875 213.745 403.946C213.898 404.45 214.006 404.846 214.096 405.125C214.186 405.404 214.195 405.539 214.195 405.539C214.195 405.539 214.141 405.404 214.051 405.143C213.961 404.882 213.826 404.468 213.655 403.973C213.322 402.911 212.836 401.39 212.215 399.473C210.982 395.531 209.236 389.816 207.184 382.724C205.132 375.632 202.747 367.163 200.389 357.686C199.21 352.943 198.04 347.948 197.014 342.728C196.492 340.127 196.024 337.454 195.637 334.736C195.193 331.973 195.012 329.173 195.097 326.375C197.869 303.983 200.551 283.778 202.441 269.126C203.404 261.827 204.187 255.905 204.736 251.792L205.384 247.076C205.456 246.554 205.519 246.176 205.564 245.852C205.609 245.528 205.6 245.402 205.6 245.402Z" fill="#455A64"/>
<path d="M201.397 241.704C200.758 241.122 200.157 240.5 199.597 239.841C198.194 238.334 196.69 236.924 195.097 235.62C193.493 234.305 191.8 233.102 190.03 232.02C189.272 231.61 188.539 231.156 187.834 230.661C188.663 230.915 189.456 231.275 190.192 231.732C192.028 232.733 193.769 233.899 195.394 235.215C197.022 236.532 198.528 237.993 199.894 239.58C200.473 240.23 200.977 240.942 201.397 241.704Z" fill="#455A64"/>
<path d="M226.408 234.396C226.408 234.486 225.157 234.639 223.249 235.386C220.778 236.381 218.396 237.586 216.13 238.986C213.43 240.615 211.135 242.225 209.479 243.44C207.823 244.655 206.833 245.448 206.779 245.394C206.963 245.173 207.172 244.974 207.4 244.8C207.832 244.404 208.462 243.9 209.272 243.225C211.377 241.555 213.586 240.022 215.887 238.635C218.172 237.208 220.6 236.026 223.132 235.107C223.903 234.84 224.694 234.638 225.499 234.504C225.797 234.432 226.102 234.396 226.408 234.396Z" fill="#455A64"/>
<path d="M250.807 84.4015L255.964 83.2945L253.417 77.1025L249.439 79.0825L250.807 84.4015Z" fill="#407BFF"/>
<path d="M264.658 92.9881C265.936 92.8531 269.158 94.4911 271.948 97.7761L272.092 97.9201C274.036 100.116 275.251 93.3661 275.377 90.8821C275.41 90.4958 275.53 90.1218 275.727 89.7879C275.924 89.4539 276.194 89.1685 276.516 88.9526C276.838 88.7366 277.205 88.5958 277.589 88.5403C277.972 88.4849 278.364 88.5162 278.734 88.6321L286.96 92.3041L288.607 94.2211C289.858 94.5901 289.876 94.0051 289.642 95.2471L287.041 108.171L288.157 113.868L274.504 114.768V108.468C272.517 107.013 270.987 105.021 270.094 102.726C270.094 102.663 270.049 102.609 270.022 102.555C269.535 101.318 268.834 100.175 267.952 99.1801C266.988 98.0531 265.912 97.0277 264.739 96.1201C264.647 96.0594 264.551 96.0052 264.451 95.9581C264.263 95.865 264.095 95.7366 263.956 95.5801C263.726 95.4056 263.554 95.1666 263.461 94.8936C263.368 94.6206 263.359 94.3261 263.434 94.0478C263.51 93.7694 263.666 93.5199 263.884 93.3311C264.102 93.1424 264.372 93.0229 264.658 92.9881Z" fill="#A1675B"/>
<path d="M272.101 62.4957C272.101 62.4957 280.912 61.4067 294.16 50.8677C307.408 40.3287 314.581 25.3527 316.066 25.5687C317.551 25.7847 324.319 23.3817 334.138 51.4077C343.957 79.4337 338.503 85.2117 336.055 84.9327C333.607 84.6537 317.353 78.4257 306.814 78.6327C296.275 78.8397 282.37 83.0067 282.37 83.0067L272.101 62.4957Z" fill="#407BFF"/>
<path d="M252.4 75.4104L254.821 81.2874L255.901 83.9244C256.617 85.6632 257.973 87.0608 259.69 87.8294C261.406 88.598 263.352 88.6789 265.126 88.0554L284.242 83.3574L277.042 59.3994L256.342 65.8434C254.555 66.5951 253.138 68.0227 252.4 69.8148C251.662 71.6069 251.662 73.6183 252.4 75.4104Z" fill="#263238"/>
<path d="M259.906 84.0957L266.305 95.4537L269.23 94.5537L289.21 109.467L294.169 98.6667C294.169 98.6667 282.55 94.2297 280.264 90.2427C277.978 86.2557 280.39 85.2297 280.39 85.2297L274.756 79.3438L259.906 84.0957Z" fill="#263238"/>
<path d="M333.094 51.8035C338.296 66.9775 339.808 80.1985 336.478 81.3415C333.148 82.4845 326.2 71.0995 321.025 55.9435C315.85 40.7875 314.311 27.5395 317.641 26.3965C320.971 25.2535 327.892 36.6295 333.094 51.8035Z" fill="#263238"/>
<path d="M319.999 47.3033C319.999 47.3033 327.946 43.3523 331.096 53.8823C334.246 64.4123 326.2 65.3303 326.2 65.3303C323.295 59.6432 321.207 53.5743 319.999 47.3033Z" fill="#407BFF"/>
<path d="M313.159 34.4697C313.141 35.1256 313.177 35.7819 313.267 36.4317C313.393 37.6917 313.555 39.5277 313.825 41.7777L314.527 45.3777C314.662 46.0347 314.788 46.7097 314.923 47.4117C314.995 47.7537 315.067 48.1137 315.139 48.4737C315.211 48.8337 315.328 49.1847 315.427 49.5447C315.841 50.9847 316.264 52.5057 316.714 54.0447C316.822 54.4317 316.939 54.8277 317.047 55.2327C317.155 55.6377 317.335 56.0157 317.47 56.4117L318.37 58.8147L319.27 61.2267C319.423 61.6137 319.549 62.0187 319.729 62.3877C319.909 62.7567 320.08 63.1437 320.26 63.5127L322.267 67.7787C322.429 68.1117 322.573 68.4537 322.753 68.7777L323.293 69.6777L324.328 71.4777L326.2 74.8077C327.469 76.6797 328.54 78.1647 329.278 79.1907C329.637 79.7419 330.04 80.2626 330.484 80.7477C330.204 80.154 329.87 79.5876 329.485 79.0557C328.783 77.9577 327.793 76.4277 326.578 74.5557L324.778 71.3247L323.779 69.5247C323.599 69.2187 323.428 68.9037 323.248 68.6247C323.068 68.3457 322.942 67.9587 322.78 67.6257C322.159 66.2667 321.502 64.8447 320.818 63.3777L320.305 62.2617C320.125 61.8837 319.999 61.4877 319.846 61.1007C319.558 60.3087 319.261 59.5167 318.946 58.7067C318.631 57.8967 318.343 57.1047 318.046 56.3217C317.902 55.9257 317.731 55.5477 317.623 55.1517C317.515 54.7557 317.389 54.3597 317.281 53.9727C316.822 52.4157 316.381 50.9127 315.967 49.4727C315.868 49.1127 315.751 48.7707 315.67 48.4107C315.589 48.0507 315.517 47.7087 315.445 47.3577L315.022 45.3507C314.743 44.0547 314.482 42.8487 314.248 41.7507C313.924 39.5367 313.672 37.7367 313.483 36.4497C313.435 35.7813 313.326 35.1187 313.159 34.4697Z" fill="#263238"/>
<path d="M281.461 85.9226C281.9 86.0929 282.262 86.4193 282.476 86.8394C282.69 87.2595 282.742 87.7437 282.622 88.1996C282.109 90.0536 281.272 92.9516 280.624 94.7246C280.447 95.3034 280.163 95.8438 279.787 96.3176C279.601 96.5489 279.354 96.7237 279.074 96.8223C278.794 96.9209 278.493 96.9394 278.203 96.8756C277.908 96.7544 277.651 96.5543 277.462 96.2971C277.274 96.0399 277.159 95.7356 277.132 95.4176C277.082 94.7737 277.155 94.1262 277.348 93.5096C277.771 91.7816 278.536 89.1896 279.148 87.0836C279.217 86.8559 279.332 86.6443 279.484 86.4611C279.636 86.2778 279.823 86.1265 280.034 86.016C280.245 85.9056 280.475 85.838 280.713 85.8173C280.95 85.7967 281.189 85.8233 281.416 85.8956L281.461 85.9226Z" fill="#A1675B"/>
<path d="M284.215 89.0997C284.661 89.2704 285.027 89.6011 285.241 90.0272C285.456 90.4533 285.504 90.9441 285.376 91.4037C284.863 93.2577 284.026 96.1647 283.378 97.9287C283.202 98.5104 282.918 99.0538 282.541 99.5307C282.354 99.7596 282.106 99.9321 281.827 100.029C281.547 100.126 281.246 100.143 280.957 100.08C280.661 99.9603 280.404 99.7606 280.214 99.503C280.025 99.2455 279.911 98.9403 279.886 98.6217C279.837 97.9778 279.91 97.3303 280.102 96.7137C280.525 94.9857 281.281 92.3937 281.947 90.2877C282.017 90.06 282.131 89.8484 282.283 89.6652C282.435 89.4819 282.622 89.3306 282.833 89.2202C283.044 89.1097 283.275 89.0421 283.512 89.0214C283.749 89.0008 283.988 89.0274 284.215 89.0997Z" fill="#A1675B"/>
<path d="M286.789 91.0165C287.186 91.1488 287.517 91.4299 287.711 91.8007C287.906 92.1716 287.95 92.6034 287.833 93.0055C287.365 94.6165 286.609 97.1275 286.033 98.6665C285.865 99.1716 285.606 99.6414 285.268 100.053C285.102 100.277 284.87 100.443 284.605 100.529C284.339 100.614 284.054 100.614 283.788 100.529C283.523 100.443 283.291 100.277 283.125 100.052C282.96 99.828 282.868 99.5574 282.865 99.2785C282.827 98.719 282.894 98.1574 283.063 97.6226C283.459 96.1286 284.152 93.8786 284.755 92.0516C284.821 91.8485 284.927 91.6605 285.066 91.4984C285.205 91.3363 285.375 91.2034 285.565 91.1072C285.756 91.011 285.964 90.9534 286.177 90.9379C286.39 90.9223 286.604 90.9491 286.807 91.0165H286.789Z" fill="#A1675B"/>
<path d="M290.038 91.5032C290.44 91.6357 290.775 91.9186 290.973 92.2928C291.171 92.667 291.216 93.1033 291.1 93.5102C290.623 95.1212 289.867 97.6502 289.3 99.1892C289.139 99.7001 288.879 100.174 288.535 100.584C288.367 100.807 288.133 100.972 287.867 101.056C287.601 101.14 287.315 101.139 287.049 101.053C286.784 100.967 286.552 100.8 286.386 100.575C286.22 100.351 286.128 100.08 286.123 99.8012C286.081 99.2386 286.148 98.6733 286.321 98.1362C286.717 96.6332 287.419 94.3832 288.022 92.5382C288.089 92.3348 288.196 92.1466 288.336 91.9844C288.476 91.8223 288.646 91.6893 288.838 91.5932C289.029 91.497 289.238 91.4396 289.451 91.4242C289.665 91.4087 289.879 91.4356 290.083 91.5032H290.038Z" fill="#A1675B"/>
<path d="M279.958 96.4079C280.138 96.4709 280.786 94.9949 281.425 93.1319C282.064 91.2689 282.424 89.6939 282.253 89.6309C282.082 89.5679 281.416 91.0439 280.786 92.9159C280.156 94.7879 279.787 96.3449 279.958 96.4079Z" fill="#925249"/>
<path d="M282.901 98.9999C283.081 99.0539 283.801 97.3619 284.458 95.2199C285.115 93.0779 285.538 91.3049 285.358 91.2419C285.178 91.1789 284.458 92.8709 283.81 95.0129C283.162 97.1549 282.73 98.9279 282.901 98.9999Z" fill="#925249"/>
<path d="M285.799 99.1438C285.961 99.2158 286.762 97.7848 287.401 95.8768C288.04 93.9688 288.301 92.3488 288.103 92.2768C287.905 92.2048 287.401 93.7528 286.762 95.6248C286.123 97.4968 285.628 99.0718 285.799 99.1438Z" fill="#925249"/>
<path d="M273.028 68.5703C270.63 69.5531 268.178 70.3975 265.684 71.0993C263.234 71.9303 260.737 72.6125 258.205 73.1423C260.6 72.1622 263.052 71.3296 265.549 70.6493C267.998 69.8062 270.495 69.1119 273.028 68.5703Z" fill="#455A64"/>
<path d="M273.811 71.208C271.412 72.1786 268.96 73.011 266.467 73.701C264.017 74.532 261.52 75.2142 258.988 75.744C261.382 74.7621 263.835 73.9295 266.332 73.251C268.781 72.4176 271.278 71.7353 273.811 71.208Z" fill="#455A64"/>
<path d="M274.585 73.8447C272.186 74.8153 269.734 75.6477 267.241 76.3377C264.792 77.1712 262.294 77.8534 259.762 78.3807C262.157 77.4006 264.609 76.568 267.106 75.8877C269.555 75.0568 272.053 74.3745 274.585 73.8447Z" fill="#455A64"/>
<path d="M275.368 76.5C272.97 77.4706 270.518 78.3029 268.024 78.993C265.574 79.8118 263.076 80.482 260.545 81C262.94 80.0199 265.392 79.1873 267.889 78.507C270.339 77.6882 272.837 77.018 275.368 76.5Z" fill="#455A64"/>
<path d="M284.215 83.3577C283.947 83.4816 283.667 83.5752 283.378 83.6367L281.056 84.2397L273.379 86.0397L265.684 87.8397C264.631 88.1268 263.561 88.3492 262.48 88.5057C262.735 88.3583 263.011 88.252 263.299 88.1907C263.839 88.0107 264.631 87.7857 265.603 87.5247C267.556 86.9847 270.265 86.3097 273.271 85.6077C276.277 84.9057 279.004 84.3027 280.984 83.8977C281.974 83.6907 282.784 83.5377 283.333 83.4387C283.621 83.3654 283.919 83.3381 284.215 83.3577Z" fill="#455A64"/>
<path d="M185.944 112.697C182.344 113.705 174.703 117.449 171.238 125.297C169.978 128.159 164.659 165.941 164.659 165.941L181.759 182.141L184.738 146.069L185.944 112.697Z" fill="#455A64"/>
<path d="M175.981 135.171C176.116 135.171 178.051 145.881 180.319 159.138C182.587 172.395 184.324 183.159 184.198 183.177C184.072 183.195 182.128 172.476 179.86 159.219C177.592 145.962 175.9 135.198 175.981 135.171Z" fill="#263238"/>
<path d="M246.343 127.953C246.359 128.133 246.359 128.313 246.343 128.493C246.343 128.889 246.271 129.393 246.217 130.023C246.082 131.409 245.902 133.317 245.677 135.639C245.164 140.436 244.471 146.961 243.706 154.17C242.941 161.379 242.149 167.886 241.6 172.683C241.321 175.005 241.087 176.904 240.916 178.29C240.826 178.902 240.754 179.406 240.7 179.811C240.686 179.989 240.65 180.164 240.592 180.333C240.576 180.156 240.576 179.979 240.592 179.802C240.592 179.397 240.664 178.902 240.709 178.272C240.844 176.877 241.033 174.978 241.258 172.647C241.762 167.85 242.455 161.325 243.229 154.116C244.003 146.907 244.786 140.4 245.326 135.603L246.019 129.996C246.109 129.384 246.181 128.88 246.235 128.475C246.249 128.297 246.286 128.122 246.343 127.953Z" fill="#263238"/>
<path d="M178.267 181.601C178.204 181.601 177.745 180.323 176.953 178.253C176.007 175.541 174.644 172.994 172.912 170.702C171.724 169.053 170.118 167.749 168.26 166.925C166.401 166.101 164.357 165.786 162.337 166.013C162.621 165.884 162.926 165.805 163.237 165.779C164.134 165.649 165.047 165.67 165.937 165.842C168.845 166.459 171.444 168.077 173.281 170.414C175.047 172.741 176.396 175.357 177.268 178.145C177.628 179.198 177.889 180.062 178.051 180.656C178.167 180.96 178.239 181.278 178.267 181.601Z" fill="#263238"/>
<path d="M233.5 112.725L243.742 115.101C245.109 115.413 246.379 116.056 247.441 116.973C256.189 124.452 273.73 139.149 273.73 139.149L272.659 112.869L288.544 111.186C288.544 111.186 295.213 145.863 294.646 155.178C293.989 165.978 284.296 168.678 270.175 162.828C261.471 159.326 253.046 155.165 244.975 150.381L233.5 112.725Z" fill="#455A64"/>
<path d="M240.646 180.414C240.646 180.414 245.992 212.265 246.946 216.855C247.666 226.512 177.547 221.274 175.117 213.381L184.081 184.5L177.7 146.943C177.115 133.065 185.305 112.824 185.305 112.824L198.805 110.178L218.731 111.645L235.12 113.139L246.262 132.606L240.646 180.414Z" fill="#455A64"/>
<path d="M182.2 171.791C182.011 170.126 181.732 168.344 180.535 167.165C179.338 165.986 176.935 167.822 175.054 167.741C168.988 167.471 163.156 165.086 157.054 164.816L151.654 170.423C153.706 175.223 155.755 180.008 157.801 184.778C159.601 188.963 161.752 193.526 165.946 195.299C169.501 196.811 173.812 195.794 176.746 193.319C179.651 190.717 181.56 187.185 182.146 183.329C182.731 179.507 182.749 175.619 182.2 171.791Z" fill="#455A64"/>
<path d="M281.002 155.313C280.792 155.196 280.6 155.047 280.435 154.872C279.944 154.434 279.483 153.962 279.058 153.459C276.211 150.167 274.431 146.086 273.955 141.759C273.883 141.108 273.853 140.452 273.865 139.797C273.848 139.555 273.869 139.312 273.928 139.077C274.009 139.077 274.036 140.094 274.288 141.714C274.921 145.947 276.656 149.938 279.319 153.288C280.3 154.539 281.056 155.25 281.002 155.313Z" fill="#263238"/>
<path d="M252.4 105.596C252.526 104.813 253.3 104.318 253.894 103.796C255.005 102.893 255.845 101.7 256.323 100.351C256.802 99.0011 256.899 97.5458 256.606 96.1443C256.312 94.7428 255.638 93.4492 254.658 92.405C253.678 91.3609 252.43 90.6065 251.05 90.2245C250.355 90.1148 249.687 89.8767 249.079 89.5225C247.666 88.4965 247.99 86.3275 247.396 84.6895C246.127 81.2155 241.051 80.7745 239.089 77.6425C237.892 75.7255 238.135 73.2955 238.126 71.0365C238.117 68.7775 237.559 66.1675 235.543 65.1415C234.463 64.5925 233.149 64.6195 232.087 64.0255C229.9 62.8015 229.846 59.7595 228.946 57.4195C228.18 55.5941 226.806 54.0901 225.057 53.1632C223.309 52.2362 221.293 51.9434 219.352 52.3345C219.352 52.3345 220.729 48.8605 216.553 47.3305C211.513 45.5305 211.378 49.0495 208.993 46.9615C207.688 45.8794 206.054 45.2737 204.36 45.2443C202.665 45.2148 201.011 45.7633 199.669 46.7995C198.92 47.5332 198.12 48.2129 197.275 48.8335C196.111 49.3724 194.878 49.7509 193.612 49.9585C191.264 50.666 189.215 52.1278 187.781 54.1176C186.348 56.1074 185.611 58.5142 185.683 60.9655L219.55 113.795C220.891 118.916 227.371 123.119 231.934 125.792C232.87 126.397 233.921 126.801 235.021 126.98C236.416 127.086 237.81 126.772 239.026 126.08C241.742 124.699 243.811 122.313 244.795 119.429C246.318 120.019 247.991 120.095 249.561 119.647C251.132 119.199 252.513 118.252 253.496 116.948C254.479 115.645 255.01 114.056 255.009 112.423C255.008 110.79 254.474 109.203 253.489 107.9C252.949 107.225 252.247 106.469 252.4 105.596Z" fill="#263238"/>
<path d="M186.7 69.0746L186.088 65.3666L207.787 57.8606C214.564 56.1326 223.015 61.9376 224.455 68.7866C226.066 76.3826 227.722 85.7336 227.65 91.5926C227.506 103.374 218.893 106.128 218.893 106.128L220.513 117.567L195.097 121.608L186.7 69.0746Z" fill="#A1675B"/>
<path d="M221.179 79.5145C221.24 79.8954 221.152 80.2852 220.932 80.6022C220.712 80.9193 220.378 81.1391 220 81.2155C219.812 81.2617 219.616 81.2693 219.425 81.2377C219.234 81.206 219.051 81.1359 218.888 81.0316C218.725 80.9272 218.584 80.7908 218.475 80.6306C218.367 80.4704 218.291 80.2897 218.254 80.0995C218.196 79.7151 218.289 79.3231 218.514 79.0059C218.739 78.6887 219.078 78.471 219.46 78.3985C219.646 78.3564 219.839 78.352 220.027 78.3856C220.215 78.4191 220.395 78.49 220.555 78.594C220.715 78.698 220.853 78.8331 220.96 78.9912C221.067 79.1493 221.142 79.3272 221.179 79.5145Z" fill="#263238"/>
<path d="M222.7 74.0339C222.547 74.2499 221.305 73.5839 219.721 73.8179C218.137 74.0519 217.084 75.0239 216.886 74.8529C216.688 74.6819 216.886 74.4029 217.372 73.9529C217.99 73.3803 218.769 73.0125 219.604 72.8999C220.431 72.7726 221.276 72.9146 222.016 73.3049C222.556 73.6019 222.772 73.9349 222.7 74.0339Z" fill="#263238"/>
<path d="M206.806 81.0001C206.851 81.3764 206.752 81.7559 206.528 82.0617C206.304 82.3675 205.972 82.5768 205.6 82.6471C205.414 82.6894 205.222 82.6941 205.034 82.6611C204.847 82.6281 204.668 82.558 204.508 82.4549C204.348 82.3518 204.21 82.2178 204.102 82.0607C203.994 81.9036 203.919 81.7266 203.881 81.5401C203.82 81.1553 203.913 80.7622 204.138 80.4445C204.363 80.1267 204.704 79.9095 205.087 79.8391C205.276 79.7974 205.472 79.7947 205.663 79.8311C205.853 79.8674 206.035 79.9422 206.195 80.0508C206.356 80.1594 206.493 80.2995 206.598 80.4627C206.703 80.6259 206.774 80.8088 206.806 81.0001Z" fill="#263238"/>
<path d="M207.121 76.6077C206.959 76.8237 205.726 76.1667 204.133 76.4007C202.54 76.6347 201.496 77.5977 201.298 77.4357C201.1 77.2737 201.298 76.9857 201.793 76.5357C202.41 75.9598 203.189 75.5888 204.025 75.4737C204.852 75.3545 205.695 75.4961 206.437 75.8787C206.977 76.1847 207.193 76.4997 207.121 76.6077Z" fill="#263238"/>
<path d="M214.6 87.5517C215.397 87.1633 216.241 86.879 217.111 86.7057C217.507 86.6067 217.885 86.4718 217.912 86.1838C217.886 85.7594 217.729 85.3535 217.462 85.0228L215.815 82.1068C213.502 77.9488 211.765 74.5108 211.936 74.4208C212.107 74.3308 214.114 77.6157 216.436 81.7737C217.003 82.7998 217.534 83.7807 218.047 84.7167C218.37 85.1688 218.526 85.7193 218.488 86.2738C218.451 86.4266 218.378 86.5688 218.277 86.6891C218.175 86.8093 218.047 86.9044 217.903 86.9667C217.687 87.0609 217.46 87.1274 217.228 87.1647C216.372 87.4067 215.489 87.5368 214.6 87.5517Z" fill="#263238"/>
<path d="M218.848 106.199C213.314 107.102 207.639 106.48 202.432 104.399C202.432 104.399 207.499 111.887 219.262 109.088L218.848 106.199Z" fill="#925249"/>
<path d="M211.198 90.6031C210.568 90.9181 210.766 91.3861 210.424 92.0071C210.251 92.3027 210.173 92.644 210.201 92.9851C210.228 93.3263 210.359 93.6509 210.577 93.9151C211.277 94.5343 212.19 94.8571 213.124 94.8151C214.447 94.6351 214.582 93.6541 214.852 92.7271L215.113 91.5841C213.988 91.3321 211.684 90.3601 211.198 90.6031Z" fill="#925249"/>
<path d="M206.617 70.3255C206.527 70.7755 204.907 70.8025 203.08 71.2975C201.253 71.7925 199.813 72.5305 199.48 72.1975C199.345 72.0265 199.543 71.5765 200.092 71.0725C200.823 70.4332 201.696 69.9766 202.639 69.7405C203.575 69.483 204.56 69.4552 205.51 69.6595C206.266 69.8215 206.653 70.1095 206.617 70.3255Z" fill="#263238"/>
<path d="M221.44 69.5157C221.215 69.9207 220.063 69.7047 218.74 69.8757C217.417 70.0467 216.346 70.4787 216.04 70.1367C215.905 69.9657 216.04 69.5787 216.463 69.1737C217.057 68.6656 217.788 68.3463 218.564 68.2565C219.34 68.1667 220.125 68.3106 220.819 68.6697C221.332 68.9757 221.539 69.2997 221.44 69.5157Z" fill="#263238"/>
<path d="M223.663 60.4617C220.725 57.2483 216.797 55.1098 212.503 54.3867L193.963 58.3377L189.103 61.8567C188.653 60.7047 188.365 59.9937 188.365 59.9937C186.484 58.7967 181.417 56.3937 177.565 61.2357C176.161 62.9637 175.243 67.3377 175.396 69.5607C175.459 70.4067 175.621 71.4237 174.964 71.9367C174.718 72.1026 174.443 72.2215 174.154 72.2877C171.841 73.1002 169.921 74.7585 168.78 76.9292C167.64 79.0998 167.364 81.6217 168.007 83.9877C168.123 84.2894 168.184 84.6095 168.187 84.9327C168.077 85.4323 167.824 85.889 167.458 86.2467C166.447 87.5677 165.856 89.1618 165.761 90.8226C165.667 92.4834 166.073 94.1344 166.927 95.5617C167.565 96.3631 168.075 97.2588 168.439 98.2167C168.88 100.017 167.701 101.718 166.81 103.32C164.11 108.117 164.047 114.768 167.989 118.62C168.943 119.52 170.149 120.348 170.581 121.608C170.752 122.239 170.843 122.889 170.851 123.543C171.112 126.846 173.164 130.383 176.449 130.806C178.249 131.04 180.4 130.347 181.786 131.553C182.325 132.147 182.768 132.821 183.1 133.551C183.906 134.863 185.153 135.847 186.617 136.326C188.082 136.805 189.669 136.748 191.095 136.165C192.521 135.582 193.694 134.511 194.404 133.144C195.114 131.777 195.315 130.202 194.971 128.7C196.667 127.872 198.066 126.541 198.978 124.888C199.89 123.236 200.269 121.342 200.065 119.466C200.065 119.466 197.608 108 198.4 104.796C199.192 101.592 196.51 95.0667 195.043 91.9257C193.576 88.7847 194.35 81.1257 194.413 78.0837C194.366 77.2183 194.209 76.3624 193.945 75.5367C193.756 74.8167 193.513 74.0157 193.234 73.1517C193.103 72.3529 193.013 71.5478 192.964 70.7397C192.923 70.0733 193.039 69.4065 193.301 68.7925C193.563 68.1784 193.964 67.6339 194.474 67.2022C194.983 66.7706 195.586 66.4637 196.235 66.306C196.884 66.1483 197.56 66.1441 198.211 66.2937C199.638 66.6409 201.137 66.5344 202.5 65.9892C203.863 65.4439 205.022 64.487 205.816 63.2517C207.225 64.4805 208.939 65.307 210.777 65.6444C212.616 65.9817 214.512 65.8174 216.265 65.1687C217.801 67.1376 219.593 68.893 221.593 70.3887C222.593 71.1374 223.731 71.6817 224.942 71.9906C226.153 72.2994 227.412 72.3668 228.649 72.1887C228.347 67.8317 226.591 63.7022 223.663 60.4617Z" fill="#263238"/>
<path d="M221.998 63.9811C221.998 63.9811 221.998 63.5581 221.854 62.8111C221.671 61.7414 221.256 60.7247 220.639 59.8321C219.719 58.4857 218.356 57.5047 216.787 57.0601C215.814 56.7917 214.797 56.7292 213.799 56.8764C212.801 57.0236 211.844 57.3774 210.991 57.9151L210.865 58.0051L210.757 57.8881C209.965 57.0825 209.054 56.4027 208.057 55.8721C205.869 54.7507 203.367 54.4018 200.956 54.8821C198.998 55.3075 197.199 56.2742 195.763 57.6721C194.789 58.6154 193.99 59.7247 193.405 60.9481C193 61.8481 192.865 62.3341 192.829 62.3251C192.793 62.3161 192.829 62.1901 192.91 61.9471C193.003 61.5844 193.123 61.2294 193.27 60.8851C193.951 59.3034 194.995 57.9045 196.318 56.8021C197.641 55.6996 199.205 54.9247 200.884 54.5401C202.692 54.1671 204.564 54.2517 206.33 54.7861C208.097 55.3205 209.702 56.2877 211 57.6001H210.757C211.652 57.0287 212.657 56.6531 213.707 56.498C214.757 56.3429 215.828 56.4118 216.85 56.7001C218.483 57.1733 219.89 58.222 220.81 59.6521C221.429 60.5808 221.823 61.6407 221.962 62.7481C221.991 63.0473 221.991 63.3488 221.962 63.6481C221.988 63.757 222 63.869 221.998 63.9811Z" fill="#455A64"/>
<path d="M169.168 84.1229C170.679 83.9364 172.17 83.6141 173.623 83.1599C177.105 81.9896 180.139 79.77 182.308 76.8059C182.434 76.6169 182.569 76.4369 182.686 76.2659L182.74 76.1939H182.821C184.735 75.9509 186.538 75.1602 188.014 73.9169C189.221 72.9147 190.2 71.6657 190.885 70.2539C191.49 68.9412 191.85 67.529 191.947 66.0869C191.947 66.0869 191.947 66.1949 191.947 66.3929C191.965 66.6927 191.965 66.9932 191.947 67.2929C191.846 68.365 191.563 69.412 191.11 70.3889C190.447 71.8601 189.463 73.164 188.23 74.2049C186.707 75.5205 184.827 76.3538 182.83 76.5989L182.965 76.5179L182.587 77.0579C181.383 78.7236 179.889 80.1594 178.177 81.2969C176.788 82.2293 175.273 82.9567 173.677 83.4569C172.604 83.7986 171.496 84.022 170.374 84.1229C169.987 84.1229 169.672 84.1229 169.474 84.1229C169.372 84.1361 169.27 84.1361 169.168 84.1229Z" fill="#455A64"/>
<path d="M240.124 112.248H162.553C160.227 112.248 158.341 114.134 158.341 116.46V188.847C158.341 191.173 160.227 193.059 162.553 193.059H240.124C242.45 193.059 244.336 191.173 244.336 188.847V116.46C244.336 114.134 242.45 112.248 240.124 112.248Z" fill="white"/>
<path d="M240.115 193.059C240.115 193.059 240.403 193.059 240.952 192.951C241.754 192.777 242.489 192.373 243.067 191.79C243.535 191.306 243.889 190.723 244.103 190.085C244.316 189.446 244.384 188.768 244.3 188.1C244.3 186.516 244.3 184.68 244.3 182.619C244.3 174.348 244.3 162.405 244.228 147.645C244.228 140.256 244.228 132.174 244.228 123.489C244.228 121.32 244.228 119.115 244.228 116.874C244.326 115.78 243.986 114.693 243.283 113.85C242.927 113.434 242.491 113.094 242.001 112.851C241.511 112.608 240.976 112.467 240.43 112.437H226.075H162.562C161.898 112.433 161.244 112.597 160.659 112.911C160.074 113.225 159.577 113.681 159.214 114.237C158.85 114.791 158.633 115.429 158.584 116.091C158.584 116.748 158.584 117.477 158.584 118.161V126.45C158.584 131.94 158.584 137.34 158.584 142.65C158.584 153.27 158.584 163.521 158.584 173.25C158.584 178.14 158.584 182.898 158.584 187.524C158.584 188.091 158.584 188.694 158.584 189.225C158.682 190.034 159.025 190.795 159.567 191.405C160.109 192.014 160.824 192.444 161.617 192.636C162.15 192.744 162.694 192.783 163.237 192.753H168.178H192.334L227.299 192.825L236.812 192.87H227.299L192.334 192.951H168.178H163.237C162.661 192.984 162.083 192.942 161.518 192.825C160.941 192.684 160.399 192.43 159.923 192.076C159.446 191.722 159.046 191.275 158.746 190.764C158.446 190.243 158.253 189.668 158.179 189.072C158.116 188.46 158.179 187.902 158.179 187.326C158.179 182.7 158.179 177.942 158.179 173.052C158.179 163.296 158.179 153.045 158.179 142.452V118.233C158.179 117.531 158.179 116.856 158.179 116.127C158.234 115.386 158.475 114.67 158.881 114.048C159.288 113.426 159.844 112.914 160.497 112.559C161.15 112.205 161.881 112.017 162.625 112.014H226.138H240.412C241.015 112.047 241.604 112.203 242.144 112.472C242.684 112.741 243.164 113.118 243.553 113.58C244.314 114.498 244.688 115.676 244.597 116.865C244.597 119.109 244.597 121.314 244.597 123.48C244.597 132.165 244.597 140.247 244.597 147.636C244.597 162.396 244.543 174.339 244.525 182.61C244.525 184.671 244.525 186.507 244.525 188.091C244.525 188.487 244.525 188.874 244.525 189.243C244.486 189.597 244.401 189.945 244.273 190.278C244.064 190.859 243.725 191.386 243.283 191.817C242.689 192.405 241.934 192.806 241.114 192.969C240.787 193.049 240.451 193.079 240.115 193.059Z" fill="#263238"/>
<path d="M162.652 167.498C162.652 167.498 159.295 168.767 158.404 170.045L158.152 178.991C157 178.784 153.859 176.183 152.032 175.094C151.521 174.829 151.075 174.456 150.724 174.001C150.372 173.545 150.125 173.018 149.998 172.457C149.386 172.197 148.9 171.71 148.639 171.098C148.289 170.164 148.242 169.144 148.504 168.182C147.902 167.512 147.44 166.729 147.145 165.878C146.605 164.384 148.774 162.143 148.774 162.143C148.734 161.511 148.734 160.877 148.774 160.244C149.41 158.189 150.273 156.212 151.348 154.349C151.825 153.809 156.235 152.657 159.349 152.657C162.463 152.657 162.13 155.159 162.13 155.159C162.105 155.425 162.026 155.682 161.897 155.916C161.769 156.15 161.594 156.355 161.383 156.518L162.877 156.311C166.405 156.113 165.316 159.227 165.316 159.227C169.735 160.775 165.451 163.43 165.523 163.637C165.523 163.637 165.793 164.024 165.523 165.158C165.253 166.292 162.643 167.795 162.643 167.795" fill="#A1675B"/>
<path d="M162.463 156.537C162.463 156.609 161.689 156.708 160.483 157.059C158.877 157.472 157.239 157.749 155.587 157.887C155.124 157.937 154.664 158.015 154.21 158.121C154.012 158.169 153.82 158.235 153.634 158.319C153.463 158.391 153.319 158.526 153.103 158.643C152.936 158.716 152.791 158.831 152.68 158.976C152.545 159.129 152.401 159.255 152.275 159.39C152.014 159.624 151.771 159.867 151.519 160.101C151.163 160.457 150.787 160.793 150.394 161.109C150.124 161.325 150.007 161.478 149.962 161.46C149.917 161.442 149.962 161.226 150.232 160.947L151.204 159.813L151.915 159.039C152.041 158.904 152.176 158.769 152.293 158.616C152.434 158.431 152.612 158.278 152.815 158.166C152.968 158.085 153.139 157.914 153.373 157.806C153.596 157.7 153.828 157.616 154.066 157.554C154.528 157.438 154.997 157.353 155.47 157.302C157.486 157.05 159.07 156.933 160.375 156.645C161.051 156.435 161.769 156.398 162.463 156.537Z" fill="#925249"/>
<path d="M165.523 159.399C164.91 159.934 164.188 160.33 163.408 160.56C162.022 161.118 160.006 161.541 157.855 162.117C156.021 162.547 154.299 163.357 152.797 164.493C151.681 165.393 151.249 166.23 151.159 166.176C151.402 165.389 151.876 164.693 152.518 164.178C154.01 162.895 155.787 161.987 157.702 161.532C159.898 160.956 161.887 160.632 163.273 160.155C164.659 159.678 165.478 159.3 165.523 159.399Z" fill="#925249"/>
<path d="M152.446 168.975C152.713 168.717 153.016 168.498 153.346 168.327C153.967 167.949 154.876 167.427 156.046 166.824C157.216 166.221 158.593 165.564 160.168 164.898C160.96 164.556 161.797 164.223 162.67 163.899L164.011 163.413C164.252 163.322 164.498 163.247 164.749 163.188C165.063 163.133 165.386 163.204 165.649 163.386C165.885 163.581 166.058 163.841 166.146 164.134C166.234 164.428 166.233 164.74 166.144 165.033C165.973 165.532 165.66 165.97 165.244 166.293C164.503 166.832 163.71 167.297 162.877 167.679C161.491 168.256 160.152 168.939 158.872 169.722C157.719 170.477 156.81 171.549 156.253 172.809C156.261 172.425 156.369 172.049 156.568 171.72C157.056 170.788 157.76 169.986 158.62 169.38C159.888 168.526 161.231 167.791 162.634 167.184C163.424 166.81 164.175 166.358 164.875 165.834C165.212 165.591 165.47 165.252 165.613 164.862C165.665 164.687 165.665 164.5 165.614 164.325C165.563 164.149 165.463 163.992 165.325 163.872C165.082 163.656 164.686 163.809 164.209 163.98L162.877 164.448C161.977 164.763 161.176 165.087 160.384 165.402C158.8 166.041 157.405 166.662 156.235 167.202C153.904 168.3 152.5 169.056 152.446 168.975Z" fill="#925249"/>
<path d="M214.393 94.2567C214.474 94.2567 213.943 94.9227 212.755 95.0397C212.452 95.0501 212.148 95.0168 211.855 94.9407C211.486 94.8695 211.137 94.7224 210.829 94.5087C210.487 94.2504 210.219 93.9056 210.055 93.5097C209.937 93.0721 209.921 92.6132 210.01 92.1687C210.104 91.7373 210.291 91.3317 210.559 90.9807C210.662 90.7767 210.814 90.6007 211 90.4677C211.112 90.4194 211.233 90.3945 211.355 90.3945C211.477 90.3945 211.598 90.4194 211.711 90.4677L213.574 91.0257C214.162 91.1639 214.73 91.3756 215.266 91.6557C214.654 91.6387 214.048 91.5357 213.466 91.3497L211.576 90.8907C211.396 90.8907 211.279 90.8367 211.198 90.8907C211.079 90.9976 210.981 91.1258 210.91 91.2687C210.677 91.5748 210.514 91.9281 210.433 92.3037C210.351 92.6651 210.351 93.0403 210.433 93.4017C210.558 93.7156 210.763 93.9916 211.027 94.2027C211.53 94.5443 212.12 94.7348 212.728 94.7517C213.314 94.7222 213.885 94.5525 214.393 94.2567Z" fill="#263238"/>
<path d="M175.279 174.447L175.621 175.149C175.64 175.181 175.664 175.208 175.694 175.23C175.723 175.251 175.757 175.267 175.792 175.275L176.566 175.383C176.608 175.389 176.648 175.406 176.681 175.433C176.714 175.46 176.739 175.496 176.752 175.537C176.765 175.577 176.766 175.621 176.756 175.662C176.745 175.703 176.723 175.741 176.692 175.77L176.134 176.319C176.107 176.344 176.087 176.375 176.076 176.41C176.065 176.444 176.063 176.482 176.071 176.517L176.197 177.291C176.205 177.333 176.201 177.376 176.186 177.415C176.171 177.454 176.145 177.489 176.111 177.514C176.077 177.54 176.037 177.555 175.995 177.558C175.953 177.562 175.911 177.554 175.873 177.534L175.18 177.165C175.147 177.148 175.11 177.139 175.072 177.139C175.034 177.139 174.997 177.148 174.964 177.165L174.271 177.534C174.234 177.554 174.191 177.562 174.149 177.558C174.107 177.555 174.067 177.54 174.033 177.514C173.999 177.489 173.973 177.454 173.958 177.415C173.943 177.376 173.939 177.333 173.947 177.291L174.073 176.517C174.081 176.482 174.079 176.444 174.068 176.41C174.057 176.375 174.037 176.344 174.01 176.319L173.452 175.77C173.421 175.741 173.399 175.703 173.388 175.662C173.378 175.621 173.379 175.577 173.392 175.537C173.406 175.496 173.43 175.46 173.463 175.433C173.496 175.406 173.536 175.389 173.578 175.383L174.352 175.275C174.388 175.267 174.421 175.251 174.45 175.23C174.48 175.208 174.505 175.181 174.523 175.149L174.865 174.447C174.885 174.409 174.915 174.378 174.951 174.356C174.988 174.334 175.029 174.322 175.072 174.322C175.115 174.322 175.156 174.334 175.193 174.356C175.229 174.378 175.259 174.409 175.279 174.447Z" fill="#E0E0E0"/>
<path d="M230.503 128.781L230.845 129.483C230.863 129.515 230.888 129.542 230.917 129.564C230.947 129.585 230.98 129.601 231.016 129.609L231.79 129.717C231.832 129.722 231.872 129.74 231.905 129.767C231.938 129.794 231.962 129.83 231.975 129.871C231.989 129.911 231.99 129.955 231.979 129.996C231.969 130.037 231.947 130.075 231.916 130.104L231.358 130.653C231.331 130.678 231.311 130.709 231.3 130.744C231.289 130.778 231.287 130.815 231.295 130.851L231.43 131.625C231.435 131.667 231.43 131.71 231.413 131.749C231.397 131.788 231.37 131.821 231.336 131.846C231.302 131.871 231.261 131.886 231.219 131.89C231.177 131.894 231.135 131.886 231.097 131.868L230.404 131.499C230.371 131.481 230.333 131.472 230.296 131.472C230.258 131.472 230.221 131.481 230.188 131.499L229.504 131.868C229.466 131.886 229.423 131.894 229.381 131.89C229.339 131.886 229.299 131.871 229.265 131.846C229.23 131.821 229.204 131.788 229.187 131.749C229.171 131.71 229.165 131.667 229.171 131.625L229.306 130.851C229.309 130.815 229.305 130.778 229.292 130.744C229.28 130.71 229.26 130.679 229.234 130.653L228.676 130.104C228.645 130.075 228.623 130.037 228.612 129.996C228.601 129.955 228.603 129.911 228.616 129.871C228.629 129.83 228.654 129.794 228.687 129.767C228.719 129.74 228.759 129.722 228.802 129.717L229.576 129.609C229.611 129.601 229.645 129.585 229.674 129.564C229.704 129.542 229.728 129.515 229.747 129.483L230.089 128.781C230.109 128.743 230.138 128.712 230.175 128.69C230.211 128.668 230.253 128.656 230.296 128.656C230.338 128.656 230.38 128.668 230.417 128.69C230.453 128.712 230.483 128.743 230.503 128.781Z" fill="#E0E0E0"/>
<path d="M220.531 177.201L220.873 177.903C220.889 177.937 220.913 177.966 220.942 177.988C220.972 178.009 221.007 178.024 221.044 178.029L221.818 178.137C221.86 178.144 221.899 178.163 221.932 178.191C221.964 178.219 221.988 178.256 222.001 178.297C222.014 178.338 222.016 178.381 222.006 178.423C221.995 178.465 221.974 178.503 221.944 178.533L221.386 179.073C221.358 179.1 221.338 179.132 221.325 179.168C221.313 179.204 221.309 179.242 221.314 179.28L221.449 180.045C221.458 180.088 221.455 180.132 221.439 180.173C221.424 180.214 221.397 180.25 221.362 180.275C221.326 180.301 221.284 180.316 221.241 180.318C221.197 180.321 221.153 180.31 221.116 180.288L220.432 179.919C220.362 179.892 220.285 179.892 220.216 179.919L219.523 180.288C219.485 180.306 219.442 180.314 219.4 180.31C219.358 180.306 219.318 180.291 219.284 180.266C219.249 180.241 219.223 180.207 219.206 180.169C219.19 180.13 219.184 180.087 219.19 180.045L219.325 179.28C219.333 179.243 219.332 179.204 219.321 179.168C219.31 179.132 219.289 179.099 219.262 179.073L218.704 178.533C218.673 178.503 218.652 178.465 218.642 178.423C218.632 178.381 218.633 178.338 218.646 178.297C218.659 178.256 218.683 178.219 218.716 178.191C218.748 178.163 218.787 178.144 218.83 178.137L219.604 178.029C219.64 178.024 219.675 178.009 219.705 177.988C219.735 177.966 219.759 177.937 219.775 177.903L220.117 177.201C220.137 177.163 220.166 177.132 220.203 177.11C220.239 177.088 220.281 177.076 220.324 177.076C220.366 177.076 220.408 177.088 220.445 177.11C220.481 177.132 220.511 177.163 220.531 177.201Z" fill="#E0E0E0"/>
<path d="M175.459 134.172L176.125 135.504C176.154 135.568 176.199 135.624 176.256 135.666C176.313 135.709 176.379 135.736 176.449 135.747L177.934 135.963C178.014 135.975 178.088 136.009 178.149 136.062C178.21 136.114 178.256 136.182 178.28 136.259C178.304 136.336 178.307 136.418 178.287 136.496C178.267 136.574 178.226 136.645 178.168 136.701L177.106 137.745C177.053 137.793 177.014 137.854 176.992 137.922C176.97 137.989 176.966 138.062 176.98 138.132L177.232 139.608C177.244 139.688 177.234 139.771 177.203 139.846C177.171 139.921 177.12 139.986 177.053 140.033C176.987 140.081 176.909 140.109 176.828 140.115C176.747 140.121 176.665 140.104 176.593 140.067L175.279 139.374C175.216 139.338 175.144 139.32 175.072 139.32C174.999 139.32 174.928 139.338 174.865 139.374L173.551 140.067C173.479 140.104 173.397 140.121 173.316 140.115C173.235 140.109 173.157 140.081 173.09 140.033C173.024 139.986 172.973 139.921 172.941 139.846C172.91 139.771 172.899 139.688 172.912 139.608L173.164 138.132C173.178 138.062 173.174 137.989 173.152 137.922C173.13 137.854 173.091 137.793 173.038 137.745L171.976 136.701C171.918 136.645 171.877 136.574 171.857 136.496C171.837 136.418 171.84 136.336 171.864 136.259C171.888 136.182 171.934 136.114 171.995 136.062C172.056 136.009 172.13 135.975 172.21 135.963L173.695 135.747C173.765 135.736 173.831 135.709 173.888 135.666C173.945 135.624 173.99 135.568 174.019 135.504L174.685 134.172C174.721 134.1 174.776 134.039 174.844 133.997C174.913 133.954 174.991 133.932 175.072 133.932C175.152 133.932 175.231 133.954 175.3 133.997C175.368 134.039 175.423 134.1 175.459 134.172Z" fill="#E0E0E0"/>
<path d="M228.937 170.1L229.486 171.216C229.512 171.27 229.552 171.316 229.6 171.35C229.649 171.385 229.706 171.407 229.765 171.414L230.998 171.594C231.066 171.603 231.13 171.631 231.182 171.675C231.235 171.719 231.273 171.776 231.294 171.842C231.315 171.907 231.317 171.976 231.299 172.043C231.282 172.109 231.246 172.168 231.196 172.215L230.296 173.115C230.254 173.157 230.223 173.208 230.204 173.264C230.186 173.321 230.18 173.38 230.188 173.439L230.404 174.663C230.418 174.731 230.413 174.802 230.388 174.866C230.363 174.931 230.32 174.988 230.264 175.028C230.208 175.069 230.141 175.093 230.072 175.097C230.002 175.101 229.933 175.084 229.873 175.05L228.766 174.474C228.716 174.443 228.658 174.426 228.599 174.426C228.541 174.426 228.483 174.443 228.433 174.474L227.326 175.05C227.266 175.084 227.197 175.101 227.127 175.097C227.058 175.093 226.991 175.069 226.935 175.028C226.879 174.988 226.836 174.931 226.811 174.866C226.786 174.802 226.781 174.731 226.795 174.663L227.011 173.439C227.019 173.38 227.013 173.321 226.995 173.264C226.976 173.208 226.945 173.157 226.903 173.115L226.003 172.215C225.953 172.168 225.917 172.109 225.9 172.043C225.882 171.976 225.884 171.907 225.905 171.842C225.925 171.776 225.964 171.719 226.017 171.675C226.069 171.631 226.133 171.603 226.201 171.594L227.434 171.414C227.493 171.405 227.549 171.383 227.597 171.348C227.646 171.314 227.685 171.269 227.713 171.216L228.262 170.1C228.288 170.031 228.334 169.972 228.394 169.93C228.454 169.888 228.526 169.865 228.599 169.865C228.673 169.865 228.745 169.888 228.805 169.93C228.865 169.972 228.911 170.031 228.937 170.1Z" fill="#E0E0E0"/>
<path d="M182.299 151.848V163.044H179.707V158.454H174.613V163.044H172.021V151.848H174.613V156.267H179.707V151.848H182.299Z" fill="#263238"/>
<path d="M193.162 159.444H186.7C186.83 159.981 187.151 160.453 187.603 160.771C188.055 161.089 188.607 161.231 189.157 161.172C189.554 161.189 189.951 161.124 190.323 160.981C190.694 160.839 191.032 160.622 191.317 160.344L192.649 161.784C192.195 162.263 191.641 162.636 191.027 162.877C190.412 163.118 189.753 163.221 189.094 163.179C186.124 163.179 184.18 161.307 184.18 158.742C184.173 158.144 184.289 157.551 184.52 156.999C184.751 156.448 185.092 155.949 185.523 155.534C185.954 155.119 186.465 154.797 187.025 154.587C187.585 154.378 188.182 154.284 188.779 154.314C189.379 154.279 189.98 154.371 190.542 154.584C191.104 154.798 191.614 155.128 192.039 155.553C192.465 155.979 192.795 156.489 193.009 157.051C193.222 157.613 193.314 158.214 193.279 158.814C193.207 158.967 193.18 159.237 193.162 159.444ZM186.619 157.995H190.858C190.772 157.496 190.512 157.043 190.124 156.716C189.736 156.39 189.245 156.211 188.738 156.211C188.232 156.211 187.741 156.39 187.353 156.716C186.965 157.043 186.705 157.496 186.619 157.995Z" fill="#263238"/>
<path d="M194.881 151.199H197.374V163.07H194.881V151.199Z" fill="#263238"/>
<path d="M209.074 158.741C209.109 159.321 209.023 159.902 208.822 160.446C208.62 160.991 208.308 161.488 207.904 161.905C207.5 162.322 207.014 162.651 206.476 162.87C205.939 163.089 205.361 163.194 204.781 163.178C204.299 163.201 203.818 163.12 203.371 162.94C202.923 162.759 202.52 162.485 202.189 162.134V166.148H199.696V154.448H202.081V155.438C202.417 155.06 202.835 154.764 203.303 154.57C203.77 154.377 204.276 154.292 204.781 154.322C205.36 154.306 205.936 154.411 206.472 154.629C207.008 154.847 207.494 155.174 207.897 155.59C208.301 156.005 208.614 156.5 208.816 157.042C209.019 157.585 209.106 158.163 209.074 158.741ZM206.545 158.741C206.508 158.317 206.349 157.912 206.086 157.577C205.824 157.242 205.47 156.99 205.066 156.852C204.663 156.715 204.229 156.697 203.816 156.802C203.403 156.907 203.03 157.13 202.741 157.443C202.453 157.756 202.262 158.147 202.191 158.567C202.121 158.987 202.174 159.418 202.344 159.809C202.515 160.199 202.795 160.531 203.151 160.765C203.507 160.999 203.923 161.125 204.349 161.126C204.655 161.13 204.958 161.07 205.239 160.949C205.52 160.828 205.772 160.649 205.979 160.424C206.186 160.199 206.344 159.933 206.441 159.643C206.539 159.353 206.574 159.046 206.545 158.741Z" fill="#263238"/>
<path d="M213.475 154.629H215.68V156.6H213.538V163.089H211.045V156.6H209.713V154.674H211.045V154.296C211.013 153.857 211.079 153.416 211.236 153.005C211.393 152.594 211.639 152.222 211.956 151.917C212.273 151.611 212.653 151.379 213.069 151.236C213.486 151.094 213.928 151.044 214.366 151.092C215.033 151.064 215.695 151.226 216.274 151.56L215.617 153.36C215.326 153.132 214.969 153.005 214.6 153C213.862 153 213.466 153.396 213.466 154.251L213.475 154.629Z" fill="#263238"/>
<path d="M225.598 154.439V163.043H223.231V161.999C222.891 162.376 222.474 162.674 222.008 162.873C221.542 163.072 221.038 163.167 220.531 163.151C218.371 163.151 216.859 161.936 216.859 159.272V154.412H219.352V158.912C219.352 160.352 219.991 160.991 221.098 160.991C222.205 160.991 223.078 160.253 223.078 158.669V154.439H225.598Z" fill="#263238"/>
<path d="M227.929 151.199H230.422V163.07H227.929V151.199Z" fill="#263238"/>
<path d="M187.339 168.516H183.406V167.499H192.46V168.516H188.5V178.695H187.312L187.339 168.516Z" fill="#263238"/>
<path d="M193.63 167.625C193.635 167.409 193.724 167.204 193.879 167.054C194.034 166.904 194.242 166.821 194.458 166.824C194.564 166.82 194.67 166.837 194.77 166.875C194.87 166.912 194.961 166.969 195.039 167.042C195.116 167.114 195.179 167.202 195.223 167.299C195.267 167.396 195.291 167.5 195.295 167.607C195.273 167.813 195.177 168.003 195.023 168.142C194.869 168.28 194.669 168.357 194.462 168.357C194.255 168.357 194.056 168.28 193.902 168.142C193.748 168.003 193.651 167.813 193.63 167.607V167.625ZM193.882 170.28H195.025V178.695H193.9L193.882 170.28Z" fill="#263238"/>
<path d="M206.716 174.483C206.746 175.046 206.659 175.609 206.46 176.137C206.261 176.665 205.955 177.146 205.561 177.549C205.167 177.953 204.693 178.27 204.17 178.481C203.647 178.692 203.086 178.793 202.522 178.776C201.891 178.797 201.265 178.655 200.706 178.363C200.146 178.071 199.671 177.64 199.327 177.111V181.8H198.193V170.28H199.3V171.945C199.635 171.392 200.113 170.94 200.683 170.636C201.253 170.332 201.894 170.187 202.54 170.217C203.1 170.201 203.658 170.301 204.177 170.511C204.697 170.722 205.168 171.037 205.56 171.437C205.952 171.838 206.257 172.315 206.456 172.839C206.655 173.363 206.743 173.923 206.716 174.483ZM205.582 174.483C205.554 173.868 205.346 173.275 204.983 172.778C204.621 172.28 204.121 171.9 203.544 171.685C202.968 171.469 202.341 171.428 201.741 171.565C201.142 171.703 200.595 172.014 200.171 172.459C199.746 172.904 199.462 173.465 199.353 174.07C199.244 174.676 199.315 175.3 199.558 175.866C199.801 176.431 200.204 176.913 200.718 177.251C201.232 177.589 201.835 177.769 202.45 177.768C202.877 177.776 203.302 177.695 203.697 177.531C204.092 177.368 204.448 177.124 204.744 176.815C205.04 176.506 205.269 176.14 205.416 175.738C205.564 175.337 205.626 174.909 205.6 174.483H205.582Z" fill="#263238"/>
<path d="M207.877 177.732L208.381 176.832C209.262 177.436 210.31 177.751 211.378 177.732C212.98 177.732 213.637 177.183 213.637 176.355C213.637 174.159 208.174 175.887 208.174 172.557C208.174 171.189 209.362 170.163 211.504 170.163C212.55 170.147 213.58 170.418 214.483 170.946L213.988 171.846C213.253 171.358 212.386 171.106 211.504 171.126C209.983 171.126 209.317 171.72 209.317 172.521C209.317 174.789 214.771 173.079 214.771 176.31C214.771 177.768 213.493 178.713 211.297 178.713C210.08 178.768 208.879 178.423 207.877 177.732Z" fill="#263238"/>
<path d="M208.12 136.593C208.119 135.305 207.773 134.04 207.118 132.931C206.462 131.822 205.521 130.909 204.392 130.288C203.263 129.667 201.989 129.36 200.701 129.399C199.413 129.438 198.16 129.822 197.071 130.511C195.982 131.199 195.098 132.168 194.511 133.314C193.924 134.461 193.655 135.745 193.733 137.03C193.811 138.316 194.232 139.558 194.953 140.626C195.674 141.693 196.669 142.548 197.833 143.1V144.9H204.133C204.133 144.9 204.178 143.883 204.187 142.965C205.364 142.366 206.353 141.455 207.047 140.331C207.74 139.207 208.112 137.914 208.12 136.593Z" fill="#407BFF"/>
<path d="M204.151 146.107H197.851C197.735 146.114 197.621 146.076 197.534 146C197.446 145.924 197.392 145.817 197.383 145.702C197.392 145.586 197.446 145.479 197.534 145.403C197.621 145.328 197.735 145.289 197.851 145.297H204.151C204.266 145.289 204.38 145.328 204.468 145.403C204.555 145.479 204.61 145.586 204.619 145.702C204.61 145.817 204.555 145.924 204.468 146C204.38 146.076 204.266 146.114 204.151 146.107Z" fill="#263238"/>
<path d="M203.665 146.467H198.265C198.157 146.467 198.054 146.509 197.978 146.585C197.903 146.661 197.86 146.764 197.86 146.872C197.86 146.979 197.903 147.082 197.978 147.158C198.054 147.234 198.157 147.277 198.265 147.277H198.859L199.651 148.78C199.694 148.867 199.761 148.939 199.844 148.99C199.927 149.041 200.022 149.068 200.119 149.068H202C202.097 149.066 202.191 149.038 202.273 148.988C202.356 148.937 202.423 148.865 202.468 148.78L203.233 147.277H203.638C203.745 147.277 203.848 147.234 203.924 147.158C204 147.082 204.043 146.979 204.043 146.872C204.043 146.764 204 146.661 203.924 146.585C203.848 146.509 203.745 146.467 203.638 146.467H203.665Z" fill="#263238"/>
<path d="M202.396 148.906C202.266 148.878 202.14 148.839 202.018 148.789C201.725 148.707 201.421 148.67 201.118 148.681C200.811 148.688 200.508 148.743 200.218 148.843C200.099 148.899 199.975 148.944 199.849 148.978C199.951 148.896 200.067 148.832 200.191 148.789C200.476 148.668 200.781 148.601 201.091 148.591C201.397 148.583 201.702 148.632 201.991 148.735C202.135 148.766 202.272 148.824 202.396 148.906Z" fill="#455A64"/>
<path d="M203.278 147.294C203.278 147.294 202.297 147.339 201.082 147.339C199.867 147.339 198.895 147.339 198.895 147.294C198.895 147.249 199.876 147.294 201.082 147.294C202.288 147.294 203.278 147.276 203.278 147.294Z" fill="#455A64"/>
<path d="M202.9 147.942C202.722 147.976 202.541 147.994 202.36 147.996L201.073 148.041C200.56 148.041 200.11 148.041 199.777 148.041C199.597 148.055 199.417 148.055 199.237 148.041C199.416 148.02 199.597 148.02 199.777 148.041H201.073H202.36C202.535 147.987 202.717 147.954 202.9 147.942Z" fill="#455A64"/>
<path d="M220.225 130.636C218.766 131.153 217.258 131.521 215.725 131.734C214.232 132.098 212.706 132.309 211.171 132.364C212.631 131.852 214.138 131.487 215.671 131.275C217.164 130.911 218.689 130.697 220.225 130.636Z" fill="#263238"/>
<path d="M211.612 122.193C211.01 123.439 210.27 124.613 209.407 125.694C208.668 126.861 207.802 127.942 206.824 128.916C207.426 127.671 208.165 126.496 209.029 125.415C209.767 124.248 210.633 123.168 211.612 122.193Z" fill="#263238"/>
<path d="M200.2 116.73C200.431 118.336 200.51 119.961 200.434 121.581C200.51 123.202 200.431 124.827 200.2 126.432C199.969 124.827 199.89 123.202 199.966 121.581C199.89 119.961 199.969 118.336 200.2 116.73Z" fill="#263238"/>
<path d="M194.062 128.35C193.283 127.819 192.596 127.166 192.028 126.415C191.347 125.765 190.779 125.008 190.345 124.174C191.127 124.696 191.815 125.347 192.379 126.1C193.06 126.752 193.629 127.512 194.062 128.35Z" fill="#263238"/>
<path d="M192.253 132.993C190.583 132.898 188.925 132.645 187.303 132.237C185.65 131.98 184.023 131.573 182.443 131.022C184.114 131.112 185.771 131.366 187.393 131.778C189.046 132.035 190.673 132.441 192.253 132.993Z" fill="#263238"/>
<path d="M191.92 137.935C191.116 138.486 190.229 138.905 189.292 139.177C188.409 139.585 187.468 139.852 186.502 139.969C187.304 139.421 188.188 139.005 189.121 138.736C190.008 138.327 190.952 138.057 191.92 137.935Z" fill="#263238"/>
<path d="M215.761 139.555C214.873 139.479 214.005 139.251 213.196 138.88C212.332 138.653 211.515 138.275 210.784 137.764C212.536 138.066 214.221 138.675 215.761 139.564V139.555Z" fill="#263238"/>
<path d="M198.985 130.788C198.985 130.86 198.49 130.995 197.77 131.418C196.831 131.955 196.064 132.747 195.558 133.703C195.053 134.66 194.831 135.74 194.917 136.818C194.971 137.646 195.151 138.15 195.079 138.177C194.79 137.793 194.621 137.333 194.593 136.854C194.413 135.703 194.61 134.524 195.155 133.494C195.7 132.464 196.563 131.638 197.617 131.139C198.027 130.887 198.504 130.764 198.985 130.788Z" fill="white"/>
<path d="M201.1 130.401C201.1 130.527 200.992 130.662 200.812 130.698C200.632 130.734 200.461 130.653 200.443 130.527C200.425 130.401 200.551 130.266 200.731 130.23C200.911 130.194 201.046 130.275 201.1 130.401Z" fill="white"/>
<path d="M207.121 135.369C207.288 135.725 207.35 136.122 207.301 136.512C207.276 137.451 207.049 138.373 206.634 139.215C206.219 140.057 205.627 140.799 204.898 141.39C204.331 141.831 203.917 141.993 203.881 141.948C204.858 141.145 205.652 140.143 206.211 139.008C206.769 137.874 207.08 136.633 207.121 135.369Z" fill="white"/>
<path d="M147.721 93.2127L143.788 85.1937C146.261 78.4571 146.124 71.0394 143.405 64.3983C140.687 57.7573 135.582 52.3732 129.096 49.3043C122.609 46.2355 115.209 45.7037 108.35 47.8136C101.492 49.9235 95.6699 54.5224 92.0296 60.7065C88.3893 66.8906 87.1936 74.2126 88.6776 81.2335C90.1615 88.2544 94.2178 94.4664 100.049 98.6485C105.88 102.831 113.065 104.681 120.191 103.835C127.317 102.989 133.869 99.5079 138.559 94.0767L147.721 93.2127Z" fill="white"/>
<path d="M147.721 93.2131L147.154 93.2851L145.417 93.4741L138.568 94.1851C138.554 94.1876 138.54 94.1873 138.527 94.184C138.513 94.1808 138.5 94.1747 138.489 94.1662C138.478 94.1577 138.469 94.147 138.463 94.1347C138.456 94.1225 138.452 94.109 138.451 94.0951C138.451 94.0951 138.451 94.0951 138.451 94.0411L138.622 94.1491C135.513 97.7829 131.547 100.585 127.084 102.303C125.692 102.843 124.26 103.27 122.8 103.581C121.229 103.891 119.638 104.084 118.039 104.157C110.6 104.508 103.318 101.948 97.7349 97.0201C94.5992 94.2499 92.0974 90.8364 90.3999 87.0121C88.5933 82.9429 87.7612 78.5083 87.9699 74.0611C88.1524 69.3987 89.4849 64.8538 91.8489 60.8311L92.7489 59.3011L93.8019 57.8701L94.3239 57.1591L94.9089 56.4931L96.0789 55.1791C96.4839 54.7651 96.9249 54.3871 97.3479 53.9821C97.7645 53.5771 98.2031 53.1955 98.6619 52.8391C99.5552 52.1178 100.493 51.4535 101.47 50.8501C105.142 48.5238 109.295 47.0658 113.616 46.587C117.936 46.1082 122.308 46.6212 126.4 48.0871C133.445 50.576 139.252 55.6988 142.6 62.3791C143.32 63.8284 143.922 65.3332 144.4 66.8791C144.815 68.3154 145.139 69.7762 145.372 71.2531C146.055 75.9791 145.538 80.8011 143.869 85.2751V85.2031C145.129 87.8221 146.101 89.8381 146.758 91.2241L147.487 92.7541L147.721 93.2581L147.442 92.7271C147.262 92.3671 147.001 91.8271 146.659 91.1971C145.984 89.8381 144.985 87.8581 143.698 85.2841C143.692 85.2731 143.688 85.2607 143.688 85.2481C143.688 85.2354 143.692 85.223 143.698 85.2121C145.308 80.7611 145.787 75.98 145.093 71.2981C144.849 69.8396 144.519 68.397 144.103 66.9781C143.614 65.471 143.012 64.0028 142.303 62.5861C140.528 59.0385 138.028 55.9023 134.967 53.3796C131.905 50.8569 128.349 49.0038 124.527 47.9396C120.706 46.8754 116.703 46.6239 112.779 47.2011C108.854 47.7784 105.093 49.1716 101.74 51.2911C100.773 51.8824 99.847 52.5378 98.9679 53.2531C98.5182 53.6004 98.0885 53.973 97.6809 54.3691C97.2669 54.7651 96.7809 55.1431 96.4299 55.5571L95.2779 56.8441L94.7109 57.4921L94.1889 58.1941L93.1629 59.6071L92.2629 61.1101C89.9399 65.0682 88.6292 69.5382 88.4469 74.1241C88.2365 78.5011 89.0468 82.8671 90.8139 86.8771C92.4768 90.6549 94.9322 94.0311 98.0139 96.7771C103.515 101.647 110.689 104.196 118.03 103.887C119.608 103.824 121.179 103.638 122.728 103.329C124.174 103.032 125.595 102.619 126.976 102.096C131.408 100.418 135.356 97.669 138.469 94.0951C138.485 94.0785 138.506 94.068 138.529 94.0656C138.552 94.0631 138.576 94.0688 138.595 94.0817C138.614 94.0945 138.628 94.1137 138.635 94.1358C138.641 94.158 138.64 94.1818 138.631 94.2031L138.532 94.0591L145.327 93.4741L147.127 93.3301L147.721 93.2131Z" fill="#263238"/>
<path d="M103.567 77.2109L107.275 73.5029L114.439 79.8659L128.497 66.3389L131.944 70.0559L113.908 87.0299L103.567 77.2109Z" fill="#407BFF"/>
</g>
<defs>
<filter id="filter0_d_1376_4876" x="0" y="0" width="458" height="458" filterUnits="userSpaceOnUse" color-interpolation-filters="sRGB">
<feFlood flood-opacity="0" result="BackgroundImageFix"/>
<feColorMatrix in="SourceAlpha" type="matrix" values="0 0 0 0 0 0 0 0 0 0 0 0 0 0 0 0 0 0 127 0" result="hardAlpha"/>
<feOffset dy="4"/>
<feGaussianBlur stdDeviation="2"/>
<feComposite in2="hardAlpha" operator="out"/>
<feColorMatrix type="matrix" values="0 0 0 0 0.351469 0 0 0 0 0.401278 0 0 0 0 0.5175 0 0 0 1 0"/>
<feBlend mode="normal" in2="BackgroundImageFix" result="effect1_dropShadow_1376_4876"/>
<feBlend mode="normal" in="SourceGraphic" in2="effect1_dropShadow_1376_4876" result="shape"/>
</filter>
</defs>
</svg>
