<svg width="20" height="22" viewBox="0 0 20 22" fill="none" xmlns="http://www.w3.org/2000/svg">
<path d="M0 8.08957V1.68746C0 1.04458 0.44772 0.523438 0.999999 0.523438H19C19.5523 0.523438 20 1.04458 20 1.68746V8.08957C18.6193 8.08957 17.5 9.39247 17.5 10.9996C17.5 12.6068 18.6193 13.9097 20 13.9097V20.3118C20 20.9547 19.5523 21.4758 19 21.4758H0.999999C0.44772 21.4758 0 20.9547 0 20.3118V13.9097C1.38071 13.9097 2.5 12.6068 2.5 10.9996C2.5 9.39247 1.38071 8.08957 0 8.08957ZM12 2.85148H2V6.30601C3.48172 7.16314 4.5 8.94293 4.5 10.9996C4.5 13.0562 3.48172 14.8361 2 15.6932V19.1478H12V2.85148ZM14 2.85148V19.1478H18V15.6932C16.5183 14.8361 15.5 13.0562 15.5 10.9996C15.5 8.94293 16.5183 7.16314 18 6.30601V2.85148H14Z" fill="#F0F0F0"/>
</svg>
