<svg width="181" height="342" viewBox="0 0 181 342" fill="none" xmlns="http://www.w3.org/2000/svg">
<path fill-rule="evenodd" clip-rule="evenodd" d="M122.322 28.0162L105.975 56.0298L123.784 79.3903L141.594 102.751L141.375 74.6451C141.257 59.1874 140.598 36.0672 139.914 23.271L138.67 0L122.322 28.0162ZM94.1998 94.3214C90.588 101.789 81.4659 120.645 73.9285 136.22C61.1069 162.72 60.0212 166.113 57.0526 188.95C54.9475 205.154 53.8813 228.502 53.8813 258.422V303.487H61.563C65.7888 303.487 69.7748 304.614 70.4239 305.992C71.0749 307.37 67.9602 314.969 63.5044 322.879C56.6881 334.983 55.8247 337.808 58.0545 340.704C60.2785 343.594 63.3952 342.116 77.4701 331.498L94.2388 318.847L100.595 287.198C104.092 269.792 107.511 254.429 108.193 253.056C108.875 251.686 119.933 242.625 132.764 232.922L156.096 215.281L148.357 213.87L140.619 212.458L160.809 199.808L181 187.157L162.339 173.096C152.076 165.362 143.648 158.346 143.611 157.502C143.574 156.661 148.482 156.988 154.521 158.231C160.559 159.473 165.765 160.141 166.091 159.714C166.613 159.029 132.183 117.15 109.175 90.4863L100.767 80.7402L94.1998 94.3214ZM1.40984 175.013C9.15972 188.438 11.8983 190.992 18.543 190.992C23.3321 190.992 27.1486 193.117 31.1736 198.023C37.3914 205.604 36.8047 203.349 28.2303 186.735C23.5738 177.713 21.2309 175.665 12.8729 173.313C-0.527634 169.544 -1.65035 169.71 1.40984 175.013ZM104.784 177.797C98.7979 188.824 95.3264 191.716 89.7557 190.32C85.986 189.374 82.8635 191.115 77.667 197.049C70.2777 205.491 70.6305 203.794 79.7234 187.157C85.0836 177.347 94.0575 171.577 105.179 170.789C108.503 170.554 108.479 170.989 104.784 177.797Z" fill="url(#paint0_linear_219_2273)"/>
<defs>
<linearGradient id="paint0_linear_219_2273" x1="90.5" y1="107.075" x2="37.2536" y2="313.053" gradientUnits="userSpaceOnUse">
<stop stop-color="#2F15AA"/>
<stop offset="0.47831" stop-color="#2F15AA" stop-opacity="0.7"/>
<stop offset="1" stop-color="#2F15AA" stop-opacity="0"/>
</linearGradient>
</defs>
</svg>
