<svg width="16" height="22" viewBox="0 0 16 22" fill="none" xmlns="http://www.w3.org/2000/svg">
<g id="Group 1000004974">
<path id="Vector" d="M13.3844 1H2.63996C1.73534 1 1 1.73534 1 2.63996V13.3835C1 14.2882 1.73534 15.0235 2.63996 15.0235H13.3835C14.2882 15.0235 15.0235 14.2882 15.0235 13.3835L15.0244 2.63996C15.0244 1.73534 14.2882 1 13.3844 1ZM14.0356 13.3836C14.0356 13.7439 13.7421 14.0347 13.3844 14.0347H2.63996C2.27967 14.0347 1.98884 13.7413 1.98884 13.3836V2.63999C1.98884 2.2797 2.28227 1.98886 2.63996 1.98886H13.3835C13.7438 1.98886 14.0347 2.2823 14.0347 2.63999L14.0356 13.3836ZM12.8844 17.0247H3.14003C2.86655 17.0247 2.6469 17.2469 2.6469 17.5178C2.6469 17.7887 2.86915 18.011 3.14003 18.011H12.8808C13.1543 18.011 13.3739 17.7887 13.3739 17.5178C13.3748 17.2469 13.1552 17.0247 12.8844 17.0247ZM11.2375 20.0137H4.78708C4.5136 20.0137 4.29395 20.236 4.29395 20.5069C4.29395 20.7778 4.5162 21 4.78708 21H11.2368C11.5103 21 11.7299 20.7778 11.7299 20.5069C11.7308 20.236 11.51 20.0137 11.2375 20.0137Z" fill="#F0F0F0" stroke="#F0F0F0" stroke-width="0.5"/>
</g>
</svg>
