<svg width="31" height="30" viewBox="0 0 31 30" fill="none" xmlns="http://www.w3.org/2000/svg">
<g id="Frame">
<path id="Vector" d="M21.7538 3H9.39768C8.35736 3 7.51172 3.84564 7.51172 4.88596V17.2411C7.51172 18.2814 8.35736 19.127 9.39768 19.127H21.7528C22.7931 19.127 23.6388 18.2814 23.6388 17.2411L23.6398 4.88596C23.6398 3.84564 22.7931 3 21.7538 3ZM22.5026 17.2411C22.5026 17.6554 22.1652 17.9899 21.7538 17.9899H9.39768C8.98334 17.9899 8.64888 17.6524 8.64888 17.2411V4.88598C8.64888 4.47165 8.98633 4.13719 9.39768 4.13719H21.7528C22.1671 4.13719 22.5016 4.47464 22.5016 4.88598L22.5026 17.2411ZM21.1787 21.4284H9.97275C9.65825 21.4284 9.40565 21.684 9.40565 21.9955C9.40565 22.307 9.66124 22.5626 9.97275 22.5626H21.1747C21.4892 22.5626 21.7418 22.307 21.7418 21.9955C21.7428 21.684 21.4902 21.4284 21.1787 21.4284ZM19.2848 24.8658H11.8669C11.5524 24.8658 11.2998 25.1214 11.2998 25.4329C11.2998 25.7444 11.5553 26 11.8669 26H19.284C19.5985 26 19.8511 25.7444 19.8511 25.4329C19.8521 25.1214 19.5983 24.8658 19.2848 24.8658Z" fill="#2F15AA" stroke="#2F15AA" stroke-width="0.5"/>
</g>
</svg>
