<svg width="31" height="30" viewBox="0 0 31 30" fill="none" xmlns="http://www.w3.org/2000/svg">
<g id="Frame">
<path id="Vector" d="M6.75 15.625C6.75 16.0168 7.32626 16.698 8.66309 17.3664C10.3926 18.2311 12.846 18.75 15.5 18.75C18.154 18.75 20.6074 18.2311 22.3369 17.3664C23.6737 16.698 24.25 16.0168 24.25 15.625V12.9109C22.1875 14.1853 19.0341 15 15.5 15C11.9659 15 8.81245 14.1853 6.75 12.9109V15.625ZM24.25 19.1609C22.1875 20.4352 19.0341 21.25 15.5 21.25C11.9659 21.25 8.81245 20.4352 6.75 19.1609V21.875C6.75 22.2668 7.32626 22.948 8.66309 23.6164C10.3926 24.4811 12.846 25 15.5 25C18.154 25 20.6074 24.4811 22.3369 23.6164C23.6737 22.948 24.25 22.2668 24.25 21.875V19.1609ZM4.25 21.875V9.375C4.25 6.2684 9.2868 3.75 15.5 3.75C21.7132 3.75 26.75 6.2684 26.75 9.375V21.875C26.75 24.9816 21.7132 27.5 15.5 27.5C9.2868 27.5 4.25 24.9816 4.25 21.875ZM15.5 12.5C18.154 12.5 20.6074 11.9812 22.3369 11.1164C23.6737 10.448 24.25 9.76678 24.25 9.375C24.25 8.98322 23.6737 8.302 22.3369 7.63359C20.6074 6.76885 18.154 6.25 15.5 6.25C12.846 6.25 10.3926 6.76885 8.66309 7.63359C7.32626 8.302 6.75 8.98322 6.75 9.375C6.75 9.76678 7.32626 10.448 8.66309 11.1164C10.3926 11.9812 12.846 12.5 15.5 12.5Z" fill="#2F15AA"/>
</g>
</svg>
