<svg width="20" height="20" viewBox="0 0 20 20" fill="none" xmlns="http://www.w3.org/2000/svg">
<g id="Frame">
<path id="Vector" d="M4.16667 10.4167C4.16667 10.6778 4.55084 11.132 5.44206 11.5776C6.59504 12.1541 8.23064 12.5 10 12.5C11.7693 12.5 13.4049 12.1541 14.5579 11.5776C15.4492 11.132 15.8333 10.6778 15.8333 10.4167V8.60725C14.4583 9.45683 12.3561 10 10 10C7.64394 10 5.54163 9.45683 4.16667 8.60725V10.4167ZM15.8333 12.7739C14.4583 13.6235 12.3561 14.1667 10 14.1667C7.64394 14.1667 5.54163 13.6235 4.16667 12.7739V14.5833C4.16667 14.8445 4.55084 15.2987 5.44206 15.7443C6.59504 16.3208 8.23064 16.6667 10 16.6667C11.7693 16.6667 13.4049 16.3208 14.5579 15.7443C15.4492 15.2987 15.8333 14.8445 15.8333 14.5833V12.7739ZM2.5 14.5833V6.25C2.5 4.17893 5.85787 2.5 10 2.5C14.1422 2.5 17.5 4.17893 17.5 6.25V14.5833C17.5 16.6544 14.1422 18.3333 10 18.3333C5.85787 18.3333 2.5 16.6544 2.5 14.5833ZM10 8.33333C11.7693 8.33333 13.4049 7.98743 14.5579 7.41094C15.4492 6.96533 15.8333 6.51118 15.8333 6.25C15.8333 5.98882 15.4492 5.53467 14.5579 5.08906C13.4049 4.51257 11.7693 4.16667 10 4.16667C8.23064 4.16667 6.59504 4.51257 5.44206 5.08906C4.55084 5.53467 4.16667 5.98882 4.16667 6.25C4.16667 6.51118 4.55084 6.96533 5.44206 7.41094C6.59504 7.98743 8.23064 8.33333 10 8.33333Z" fill="#F0F0F0"/>
</g>
</svg>
