<svg width="30" height="30" viewBox="0 0 30 30" fill="none" xmlns="http://www.w3.org/2000/svg">
<path d="M2.5 27.5C2.5 21.9771 6.97715 17.5 12.5 17.5C18.0229 17.5 22.5 21.9771 22.5 27.5H20C20 23.3579 16.6421 20 12.5 20C8.35786 20 5 23.3579 5 27.5H2.5ZM12.5 16.25C8.35625 16.25 5 12.8938 5 8.75C5 4.60625 8.35625 1.25 12.5 1.25C16.6438 1.25 20 4.60625 20 8.75C20 12.8938 16.6438 16.25 12.5 16.25ZM12.5 13.75C15.2625 13.75 17.5 11.5125 17.5 8.75C17.5 5.9875 15.2625 3.75 12.5 3.75C9.7375 3.75 7.5 5.9875 7.5 8.75C7.5 11.5125 9.7375 13.75 12.5 13.75ZM22.8546 18.3785C26.3305 19.9451 28.75 23.44 28.75 27.5H26.25C26.25 24.455 24.4354 21.8339 21.8285 20.6589L22.8546 18.3785ZM21.9953 4.26651C24.493 5.29629 26.25 7.75451 26.25 10.625C26.25 14.2127 23.5052 17.1565 20 17.472V14.9557C22.1209 14.6527 23.75 12.83 23.75 10.625C23.75 8.89919 22.752 7.40754 21.3013 6.69544L21.9953 4.26651Z" fill="#464E5F"/>
</svg>
