<svg width="31" height="32" viewBox="0 0 31 32" fill="none" xmlns="http://www.w3.org/2000/svg">
<path d="M4.57955 10.3864C6.63636 6.30115 10.8636 3.5 15.75 3.5C19.1193 3.5 21.9488 4.73869 24.1136 6.75569L20.5284 10.3409C19.233 9.10231 17.5851 8.47159 15.75 8.47159C12.4943 8.47159 9.73855 10.6705 8.75569 13.625C8.50563 14.375 8.36357 15.1761 8.36357 16C8.36357 16.8239 8.50563 17.625 8.75569 18.375C9.73855 21.3295 12.4943 23.5284 15.75 23.5284C17.4318 23.5284 18.8636 23.0852 19.983 22.3352C21.3068 21.4489 22.1875 20.125 22.4772 18.5625H15.75V13.7273H27.5226C27.6705 14.5454 27.75 15.3977 27.75 16.2841C27.75 20.0909 26.3864 23.2954 24.0226 25.4716C21.9545 27.3807 19.125 28.5 15.75 28.5C10.8636 28.5 6.63636 25.6989 4.57955 21.6136C3.73298 19.9261 3.25 18.017 3.25 16C3.25 13.983 3.73298 12.0739 4.57955 10.3864Z" fill="#F0F0F0"/>
</svg>
