<svg width="254" height="342" viewBox="0 0 254 342" fill="none" xmlns="http://www.w3.org/2000/svg">
<path fill-rule="evenodd" clip-rule="evenodd" d="M195.322 28.0162L178.975 56.0298L196.784 79.3903L214.594 102.751L214.375 74.6451C214.257 59.1874 213.598 36.0672 212.914 23.271L211.67 0L195.322 28.0162ZM167.2 94.3214C163.588 101.789 154.466 120.645 146.929 136.22C134.107 162.72 133.021 166.113 130.053 188.95C127.948 205.154 126.881 228.502 126.881 258.422V303.487H134.563C138.789 303.487 142.775 304.614 143.424 305.992C144.075 307.37 140.96 314.969 136.504 322.879C129.688 334.983 128.825 337.808 131.055 340.704C133.279 343.594 136.395 342.116 150.47 331.498L167.239 318.847L173.595 287.198C177.092 269.792 180.511 254.429 181.193 253.056C181.875 251.686 192.933 242.625 205.764 232.922L229.096 215.281L221.357 213.87L213.619 212.458L233.809 199.808L254 187.157L235.339 173.096C225.076 165.362 216.648 158.346 216.611 157.502C216.574 156.661 221.482 156.988 227.521 158.231C233.559 159.473 238.765 160.141 239.091 159.714C239.613 159.029 205.183 117.15 182.175 90.4863L173.767 80.7402L167.2 94.3214ZM74.4098 175.013C82.1597 188.438 84.8983 190.992 91.543 190.992C96.3321 190.992 100.149 193.117 104.174 198.023C110.391 205.604 109.805 203.349 101.23 186.735C96.5738 177.713 94.2309 175.665 85.8729 173.313C72.4724 169.544 71.3497 169.71 74.4098 175.013ZM177.784 177.797C171.798 188.824 168.326 191.716 162.756 190.32C158.986 189.374 155.863 191.115 150.667 197.049C143.278 205.491 143.631 203.794 152.723 187.157C158.084 177.347 167.058 171.577 178.179 170.789C181.503 170.554 181.479 170.989 177.784 177.797Z" fill="url(#paint0_linear_230_2283)"/>
<defs>
<linearGradient id="paint0_linear_230_2283" x1="163.5" y1="107.075" x2="110.254" y2="313.053" gradientUnits="userSpaceOnUse">
<stop stop-color="#2F15AA"/>
<stop offset="0.47831" stop-color="#2F15AA" stop-opacity="0.7"/>
<stop offset="1" stop-color="#2F15AA" stop-opacity="0"/>
</linearGradient>
</defs>
</svg>
