<svg width="103" height="111" viewBox="0 0 103 111" fill="none" xmlns="http://www.w3.org/2000/svg">
<path fill-rule="evenodd" clip-rule="evenodd" d="M0.120149 14.6156C0.120149 6.63899 6.58515 0.168945 14.5617 0.168945H88.0945C96.0711 0.168945 102.536 6.63886 102.536 14.6156V94.8643C102.536 103.417 91.881 107.331 86.3412 100.817L84.219 98.316C83.6626 97.666 82.6433 97.7103 82.1461 98.4095L76.5378 106.327C73.2389 110.985 66.5326 111.541 62.5097 107.489L52.2583 97.149C51.7462 96.632 50.9091 96.632 50.397 97.149L40.1456 107.489C36.1228 111.541 29.4165 110.985 26.1174 106.327L20.5092 98.4095C20.0119 97.7103 18.9927 97.666 18.4363 98.316L16.3141 100.817C10.7748 107.332 0.119141 103.417 0.119141 94.8643L0.120149 14.6156ZM29.0084 43.4988C29.0084 41.3273 30.7711 39.5597 32.9475 39.5597C35.1189 39.5597 36.8865 41.3273 36.8865 43.4988C36.8865 45.6752 35.1189 47.4379 32.9475 47.4379C30.7711 47.4379 29.0084 45.6752 29.0084 43.4988ZM32.9475 31.6816C26.4184 31.6816 21.1302 36.9747 21.1302 43.4988C21.1302 50.0278 26.4184 55.316 32.9475 55.316C39.4716 55.316 44.7647 50.0278 44.7647 43.4988C44.7647 36.9747 39.4716 31.6816 32.9475 31.6816ZM69.7088 60.5698C67.5373 60.5698 65.7697 62.3325 65.7697 64.5089C65.7697 66.6852 67.5373 68.4479 69.7088 68.4479C71.8852 68.4479 73.6479 66.6852 73.6479 64.5089C73.6479 62.3325 71.8852 60.5698 69.7088 60.5698ZM57.8916 64.5089C57.8916 57.9847 63.1847 52.6916 69.7088 52.6916C76.2378 52.6916 81.526 57.9847 81.526 64.5089C81.526 71.033 76.2378 76.3261 69.7088 76.3261C63.1847 76.3261 57.8916 71.033 57.8916 64.5089ZM65.2527 37.5757C66.331 35.6898 65.6761 33.2821 63.7853 32.2038C61.8995 31.1255 59.4918 31.7803 58.4134 33.6662L37.4033 70.4326C36.325 72.3234 36.9799 74.7261 38.8707 75.8094C40.7565 76.8877 43.1642 76.2279 44.2426 74.3421L65.2527 37.5757Z" fill="url(#paint0_linear_0_4)"/>
<defs>
<linearGradient id="paint0_linear_0_4" x1="0.11914" y1="55.1875" x2="102.533" y2="55.727" gradientUnits="userSpaceOnUse">
<stop stop-color="#2F15AA"/>
<stop offset="0.47831" stop-color="#2F15AA" stop-opacity="0.8"/>
<stop offset="1" stop-color="#2F15AA" stop-opacity="0.4"/>
</linearGradient>
</defs>
</svg>
