<svg width="20" height="20" viewBox="0 0 20 20" fill="none" xmlns="http://www.w3.org/2000/svg">
<path d="M15.4312 10.6499L16.174 10.7533L15.4312 10.6499ZM15.2126 12.2208L15.9554 12.3241L15.2126 12.2208ZM4.78778 12.2208L5.53062 12.1174L4.78778 12.2208ZM4.56916 10.6499L3.82632 10.7533L4.56916 10.6499ZM7.6532 18.1144L7.36161 18.8053L7.6532 18.1144ZM5.39606 15.4673L6.10005 15.2086L5.39606 15.4673ZM14.6043 15.4673L15.3082 15.7259H15.3082L14.6043 15.4673ZM12.3471 18.1144L12.0555 17.4234L12.3471 18.1144ZM4.91347 7.42939C4.87429 7.01703 4.50825 6.71451 4.09589 6.75369C3.68353 6.79287 3.38101 7.15891 3.42019 7.57127L4.91347 7.42939ZM16.5801 7.57127C16.6193 7.15891 16.3168 6.79287 15.9044 6.75369C15.4921 6.71451 15.126 7.01703 15.0869 7.42938L16.5801 7.57127ZM16.6668 6.58366C17.081 6.58366 17.4168 6.24787 17.4168 5.83366C17.4168 5.41945 17.081 5.08366 16.6668 5.08366V6.58366ZM3.3335 5.08366C2.91928 5.08366 2.5835 5.41945 2.5835 5.83366C2.5835 6.24787 2.91928 6.58366 3.3335 6.58366V5.08366ZM7.5835 15.0003C7.5835 15.4145 7.91928 15.7503 8.3335 15.7503C8.74771 15.7503 9.0835 15.4145 9.0835 15.0003H7.5835ZM9.0835 8.33366C9.0835 7.91945 8.74771 7.58366 8.3335 7.58366C7.91928 7.58366 7.5835 7.91945 7.5835 8.33366H9.0835ZM10.9168 15.0003C10.9168 15.4145 11.2526 15.7503 11.6668 15.7503C12.081 15.7503 12.4168 15.4145 12.4168 15.0003H10.9168ZM12.4168 8.33366C12.4168 7.91945 12.081 7.58366 11.6668 7.58366C11.2526 7.58366 10.9168 7.91945 10.9168 8.33366H12.4168ZM13.3335 5.83366V6.58366H14.0835V5.83366H13.3335ZM6.66683 5.83366H5.91683V6.58366H6.66683V5.83366ZM14.6883 10.5465L14.4697 12.1174L15.9554 12.3241L16.174 10.7533L14.6883 10.5465ZM5.53062 12.1174L5.312 10.5465L3.82632 10.7533L4.04494 12.3241L5.53062 12.1174ZM10.0002 17.5837C8.71463 17.5837 8.29105 17.5695 7.94479 17.4234L7.36161 18.8053C8.05476 19.0978 8.84937 19.0837 10.0002 19.0837V17.5837ZM4.04494 12.3241C4.27712 13.9925 4.40542 14.9457 4.69208 15.7259L6.10005 15.2086C5.88292 14.6176 5.77363 13.8635 5.53062 12.1174L4.04494 12.3241ZM7.94479 17.4234C7.21672 17.1161 6.52174 16.3563 6.10005 15.2086L4.69208 15.7259C5.21248 17.1423 6.14598 18.2924 7.36161 18.8053L7.94479 17.4234ZM14.4697 12.1174C14.2267 13.8635 14.1174 14.6176 13.9003 15.2086L15.3082 15.7259C15.5949 14.9457 15.7232 13.9925 15.9554 12.3241L14.4697 12.1174ZM10.0002 19.0837C11.151 19.0837 11.9456 19.0978 12.6387 18.8053L12.0555 17.4234C11.7093 17.5695 11.2857 17.5837 10.0002 17.5837V19.0837ZM13.9003 15.2086C13.4786 16.3563 12.7836 17.1161 12.0555 17.4234L12.6387 18.8053C13.8543 18.2924 14.7878 17.1423 15.3082 15.7259L13.9003 15.2086ZM5.312 10.5465C5.12675 9.21539 4.989 8.22435 4.91347 7.42939L3.42019 7.57127C3.49953 8.40629 3.64285 9.43491 3.82632 10.7533L5.312 10.5465ZM16.174 10.7533C16.3575 9.43491 16.5008 8.40629 16.5801 7.57127L15.0869 7.42938C15.0113 8.22435 14.8736 9.21539 14.6883 10.5465L16.174 10.7533ZM16.6668 5.08366H3.3335V6.58366H16.6668V5.08366ZM9.0835 15.0003V8.33366H7.5835V15.0003H9.0835ZM12.4168 15.0003V8.33366H10.9168V15.0003H12.4168ZM12.5835 5.00033V5.83366H14.0835V5.00033H12.5835ZM13.3335 5.08366H6.66683V6.58366H13.3335V5.08366ZM7.41683 5.83366V5.00033H5.91683V5.83366H7.41683ZM10.0002 2.41699C11.4269 2.41699 12.5835 3.57359 12.5835 5.00033H14.0835C14.0835 2.74516 12.2553 0.916992 10.0002 0.916992V2.41699ZM10.0002 0.916992C7.745 0.916992 5.91683 2.74516 5.91683 5.00033H7.41683C7.41683 3.57359 8.57343 2.41699 10.0002 2.41699V0.916992Z" fill="#D3424A"/>
</svg>
