<svg width="138" height="138" viewBox="0 0 138 138" fill="none" xmlns="http://www.w3.org/2000/svg">
<path d="M28.3783 115.92C52.8209 126.733 92.4545 126.736 116.9 115.92C141.345 105.103 141.345 87.5744 116.9 76.7607C92.4545 65.947 52.8209 65.9443 28.3756 76.7607C3.93026 87.5771 3.93302 105.111 28.3783 115.92Z" fill="#5F4CB9"/>
<path d="M26.1651 95.3418C31.9453 95.3418 36.6311 93.1089 36.6311 90.3545C36.6311 87.6001 31.9453 85.3672 26.1651 85.3672C20.385 85.3672 15.6992 87.6001 15.6992 90.3545C15.6992 93.1089 20.385 95.3418 26.1651 95.3418Z" fill="#EBEBEB"/>
<path d="M115.23 103.625C121.26 103.625 126.149 101.296 126.149 98.4223C126.149 95.549 121.26 93.2197 115.23 93.2197C109.2 93.2197 104.312 95.549 104.312 98.4223C104.312 101.296 109.2 103.625 115.23 103.625Z" fill="#EBEBEB"/>
<path d="M49.145 73.0795C48.9766 71.1641 47.2461 67.3194 45.0409 65.0065C42.8356 62.6936 39.554 61.1425 37.4012 62.1002C35.3947 62.989 35.8556 65.6882 38.5217 67.2587C41.1879 68.8291 45.1457 70.7639 46.5257 73.775L49.1726 77.3851L49.145 73.0795Z" fill="#2F15AA"/>
<path opacity="0.1" d="M49.145 73.0795C48.9766 71.1641 47.2461 67.3194 45.0409 65.0065C42.8356 62.6936 39.554 61.1425 37.4012 62.1002C35.3947 62.989 35.8556 65.6882 38.5217 67.2587C41.1879 68.8291 45.1457 70.7639 46.5257 73.775L49.1726 77.3851L49.145 73.0795Z" fill="black"/>
<path d="M49.5147 75.6873C49.484 75.6877 49.4541 75.6779 49.4296 75.6594C49.4051 75.641 49.3875 75.6148 49.3795 75.5852C47.5248 69.1599 41.7729 64.3106 38.5051 63.4108C38.4685 63.4009 38.4373 63.3769 38.4184 63.3441C38.3995 63.3112 38.3945 63.2722 38.4044 63.2356C38.4142 63.199 38.4383 63.1678 38.4711 63.1489C38.504 63.13 38.543 63.1249 38.5796 63.1348C41.9109 64.0511 47.7677 68.9805 49.65 75.5024C49.6602 75.5383 49.6558 75.5767 49.6376 75.6093C49.6195 75.6419 49.5892 75.666 49.5534 75.6763L49.5147 75.6873Z" fill="white"/>
<path d="M48.9051 79.957C48.5049 78.9082 47.0338 77.2467 44.7789 75.9633C42.2949 74.5474 39.2423 74.0589 38.4474 72.8555C37.4897 71.4121 38.6434 69.8665 41.086 69.9548C43.5286 70.0431 48.066 72.9687 49.1783 77.8732L48.9051 79.957Z" fill="#2F15AA"/>
<path d="M49.2744 78.7867C49.2471 78.7867 49.2204 78.7789 49.1975 78.7642C49.1745 78.7495 49.1562 78.7286 49.1446 78.7039C46.6606 73.2805 42.2088 71.688 40.205 71.6024C40.1866 71.6017 40.1686 71.5974 40.1519 71.5896C40.1353 71.5818 40.1203 71.5708 40.108 71.5572C40.0956 71.5436 40.0861 71.5276 40.0801 71.5103C40.074 71.4929 40.0714 71.4745 40.0725 71.4562C40.0728 71.4377 40.0769 71.4194 40.0846 71.4026C40.0922 71.3858 40.1032 71.3707 40.117 71.3582C40.1307 71.3458 40.1468 71.3364 40.1643 71.3304C40.1818 71.3245 40.2004 71.3222 40.2188 71.3237C42.4268 71.4148 46.8566 73.0487 49.4013 78.588C49.4164 78.6217 49.4176 78.66 49.4047 78.6946C49.3918 78.7292 49.3658 78.7573 49.3323 78.7729C49.3141 78.7814 49.2944 78.7861 49.2744 78.7867Z" fill="white"/>
<path d="M97.9271 86.1946V77.4785H44.4355V86.2112C44.4355 90.1635 47.0465 94.1158 52.2684 97.1297C62.7123 103.16 79.6449 103.16 90.0804 97.1297C95.3244 94.1158 97.9326 90.1524 97.9271 86.1946Z" fill="#E0E0E0"/>
<path d="M90.0939 88.3974C79.6501 94.4253 62.7175 94.4253 52.2819 88.3974C41.8464 82.3696 41.8381 72.5909 52.2819 66.5603C56.2287 64.2806 61.1139 62.8647 66.2034 62.3072C66.3908 62.2873 66.5791 62.3347 66.7348 62.4409C66.8905 62.547 67.0035 62.7051 67.0534 62.8868L71.1934 77.4789L96.8394 74.821C97.0318 74.8003 97.2252 74.8506 97.3833 74.9624C97.5413 75.0742 97.6531 75.2398 97.6977 75.4282C98.7548 80.0402 96.2211 84.8591 90.0939 88.3974Z" fill="#F0F0F0"/>
<path d="M99.401 61.9865C98.3163 59.2624 95.9317 56.6735 92.2553 54.5345C86.1337 51.0045 77.7847 49.5389 69.8193 50.1461C69.6035 50.1678 69.4032 50.2681 69.2566 50.4279C69.1101 50.5877 69.0274 50.7959 69.0244 51.0128V58.1529C69.0363 58.6812 69.1095 59.2064 69.2425 59.7178L73.1396 73.435C73.2067 73.6465 73.3432 73.8291 73.5271 73.9533C73.7109 74.0776 73.9313 74.1361 74.1525 74.1195L98.8904 71.5582C99.1061 71.5311 99.3049 71.4272 99.4504 71.2655C99.5958 71.1038 99.6782 70.8952 99.6825 70.6778V63.5377C99.671 63.009 99.576 62.4855 99.401 61.9865Z" fill="#2F15AA"/>
<path opacity="0.3" d="M99.5941 62.7491L73.3438 65.4705L69.1348 50.6189C69.2017 50.4916 69.2994 50.383 69.4189 50.303C69.5384 50.223 69.676 50.1741 69.8192 50.1608C77.7846 49.5536 86.1336 51.0191 92.2553 54.5492C95.9316 56.6744 98.3135 59.2605 99.4009 62.0012C99.4886 62.2439 99.5533 62.4943 99.5941 62.7491Z" fill="white"/>
<path opacity="0.1" d="M69.0244 51.0266V58.1668C69.0363 58.6951 69.1095 59.2202 69.2425 59.7317L73.1396 73.4351C73.1825 73.5736 73.2572 73.7003 73.3576 73.8049V65.4697L69.1348 50.6182C69.0633 50.7425 69.0252 50.8832 69.0244 51.0266Z" fill="black"/>
<path d="M79.35 52.1886L79.27 51.6366C79.3337 51.5115 79.3532 51.3684 79.3252 51.2308L79.1071 50.4939L78.9691 49.5279L78.8311 49.5721L78.8532 48.3798L78.4171 48.1314C78.3901 48.1151 78.359 48.1064 78.3274 48.1064C78.2958 48.1064 78.2648 48.1151 78.2377 48.1314L77.7658 48.4074L76.9157 48.8959L76.3941 49.1967C76.3652 49.2139 76.3401 49.2366 76.3202 49.2637C76.3002 49.2907 76.286 49.3214 76.2781 49.3541L75.348 53.5134C75.3094 53.69 75.348 53.8308 75.4336 53.8804L75.9249 54.1564L76.5017 51.7746L76.5155 52.7599L76.2147 57.4519C76.2037 57.5087 76.2087 57.5674 76.2292 57.6215C76.2496 57.6756 76.2847 57.723 76.3306 57.7583L76.8136 58.0343L77.2303 54.1344L77.0702 54.0323L77.1751 52.3763L77.4815 52.1996L77.7878 56.6156C77.786 56.6618 77.7966 56.7077 77.8184 56.7484C77.8402 56.7892 77.8726 56.8234 77.9121 56.8474L78.4006 57.1234L78.384 56.4859C78.4314 56.3792 78.4531 56.263 78.4475 56.1464L78.3233 54.3496L78.2902 53.1021L78.235 53.069L78.1467 51.7966L78.177 49.7901L78.7649 51.7663C78.7772 51.8138 78.8067 51.8551 78.8477 51.8822L79.35 52.1886Z" fill="#263238"/>
<path d="M79.8135 51.5015L78.8972 48.4241C78.8935 48.4118 78.887 48.4005 78.8784 48.391C78.8697 48.3816 78.859 48.3742 78.847 48.3694C78.8351 48.3646 78.8222 48.3626 78.8094 48.3635C78.7966 48.3644 78.7841 48.3681 78.773 48.3745L78.2541 48.6753L77.404 49.1666L76.8824 49.4674C76.8535 49.4846 76.8284 49.5073 76.8085 49.5343C76.7886 49.5614 76.7743 49.5921 76.7665 49.6247L75.8419 53.7951C75.7922 54.0269 75.8722 54.2008 76.024 54.1815C76.1758 54.1622 76.3414 53.9579 76.3911 53.7261L76.9072 51.4049C76.9072 51.3947 76.9113 51.3849 76.9185 51.3776C76.9258 51.3704 76.9356 51.3663 76.9459 51.3663C76.9561 51.3663 76.9659 51.3704 76.9732 51.3776C76.9804 51.3849 76.9845 51.3947 76.9845 51.4049L77.0093 53.0389L76.7085 57.7309C76.6919 57.9848 76.8272 58.12 77.0093 58.0372L77.0397 58.0207C77.1354 57.9527 77.2146 57.864 77.2714 57.7613C77.3283 57.6586 77.3613 57.5445 77.3681 57.4273L77.6745 52.6552L77.9809 52.4786L78.2872 56.8946C78.3038 57.1154 78.4473 57.2065 78.6184 57.1071L78.646 57.0905C78.7433 57.0122 78.8211 56.9123 78.8732 56.7988C78.9254 56.6853 78.9506 56.5613 78.9469 56.4364L78.6598 52.1005L78.6847 50.3534C78.687 50.3445 78.6922 50.3367 78.6994 50.3312C78.7067 50.3256 78.7155 50.3226 78.7247 50.3226C78.7338 50.3226 78.7427 50.3256 78.7499 50.3312C78.7572 50.3367 78.7624 50.3445 78.7647 50.3534L79.278 52.0784C79.3277 52.2523 79.4933 52.2661 79.6451 52.1087C79.72 52.0285 79.7744 51.9315 79.8037 51.8258C79.833 51.72 79.8363 51.6088 79.8135 51.5015Z" fill="#455A64"/>
<path d="M78.2598 46.7242L77.763 46.4482C77.6965 46.4142 77.622 46.399 77.5476 46.4044C77.4731 46.4097 77.4016 46.4354 77.3407 46.4785C77.1448 46.6187 76.9843 46.8028 76.8722 47.0161C76.76 47.2293 76.6993 47.4658 76.6948 47.7067C76.6842 47.8031 76.6984 47.9007 76.7361 47.99C76.7737 48.0794 76.8337 48.1576 76.9101 48.2173L77.4124 48.5099L78.2598 46.7242Z" fill="#263238"/>
<path d="M76.6948 47.7015C76.6842 47.7979 76.6984 47.8954 76.7361 47.9848C76.7737 48.0742 76.8337 48.1524 76.9101 48.2121L77.4124 48.5046L77.6884 47.925L76.739 47.373C76.7119 47.4805 76.6971 47.5907 76.6948 47.7015Z" fill="#263238"/>
<path d="M77.8324 48.4657C78.0287 48.3252 78.1893 48.1407 78.3015 47.9269C78.4137 47.7132 78.4742 47.4761 78.4782 47.2348C78.4782 46.7628 78.1884 46.5475 77.8324 46.7545C77.6357 46.894 77.4746 47.0779 77.3624 47.2913C77.2502 47.5047 77.1899 47.7416 77.1865 47.9827C77.1838 48.4547 77.4708 48.67 77.8324 48.4657Z" fill="#455A64"/>
<path d="M84.8152 57.0437L84.7352 56.4917C84.7992 56.3657 84.8186 56.2217 84.7904 56.0833L84.5696 55.3491L84.4316 54.3831L84.2964 54.4245L84.3157 53.2349L83.8796 52.9838C83.8526 52.9688 83.8222 52.9609 83.7913 52.9609C83.7604 52.9609 83.73 52.9688 83.703 52.9838L83.2282 53.2598L82.3782 53.7511L81.8593 54.0519C81.83 54.0685 81.8046 54.0911 81.7846 54.1182C81.7646 54.1453 81.7506 54.1763 81.7434 54.2092L80.8188 58.3796C80.7801 58.5535 80.8188 58.697 80.9016 58.7467L81.3928 59.0227L81.9724 56.6408L81.9862 57.6261L81.6854 62.3181C81.6739 62.375 81.6784 62.4341 81.6983 62.4886C81.7183 62.5432 81.753 62.5912 81.7986 62.6272L82.2816 62.9032L82.6956 59.0061L82.5355 58.904L82.6431 57.248L82.9495 57.0713L83.2558 61.4873C83.2549 61.5335 83.2655 61.5791 83.2867 61.6201C83.3079 61.6611 83.339 61.6961 83.3773 61.7219L83.8686 61.9979L83.852 61.3604C83.898 61.2533 83.9196 61.1374 83.9155 61.0209L83.7913 59.2214L83.7554 57.9766L83.703 57.9435L83.6146 56.6711L83.6422 54.6646L84.2329 56.638C84.2377 56.6621 84.2476 56.6849 84.2619 56.7048C84.2761 56.7248 84.2945 56.7416 84.3157 56.7539L84.8152 57.0437Z" fill="#263238"/>
<path d="M85.2839 56.3597L84.3593 53.2685C84.3557 53.2565 84.3493 53.2455 84.3408 53.2363C84.3322 53.2272 84.3217 53.22 84.31 53.2155C84.2983 53.211 84.2858 53.2092 84.2733 53.2102C84.2608 53.2113 84.2487 53.2152 84.2379 53.2216L83.7163 53.5445L82.8662 54.0358L82.3473 54.3338C82.3178 54.3509 82.2923 54.374 82.2723 54.4016C82.2524 54.4291 82.2384 54.4606 82.2314 54.4939L81.3068 58.6643C81.2543 58.8961 81.3371 59.0673 81.4889 59.0479C81.6407 59.0286 81.8036 58.8271 81.856 58.5953L82.3694 56.2714C82.3717 56.2625 82.3769 56.2547 82.3842 56.2492C82.3914 56.2436 82.4003 56.2406 82.4094 56.2406C82.4185 56.2406 82.4274 56.2436 82.4347 56.2492C82.4419 56.2547 82.4471 56.2625 82.4494 56.2714L82.4743 57.9053L82.1734 62.5973C82.1569 62.8484 82.2921 62.9865 82.4743 62.9037L82.5019 62.8871C82.5979 62.8192 82.6775 62.7307 82.7349 62.628C82.7922 62.5253 82.8257 62.4111 82.8331 62.2937L83.1394 57.5189L83.4458 57.3422L83.7494 61.7582C83.7659 61.979 83.9122 62.0701 84.0806 61.9708L84.1109 61.9515C84.208 61.8735 84.2857 61.7741 84.3379 61.6611C84.39 61.5481 84.4154 61.4245 84.4118 61.3001L84.1109 56.9503L84.1358 55.2005C84.1358 55.1902 84.1399 55.1804 84.1471 55.1732C84.1544 55.1659 84.1642 55.1618 84.1744 55.1618C84.1847 55.1618 84.1945 55.1659 84.2018 55.1732C84.209 55.1804 84.2131 55.1902 84.2131 55.2005L84.7264 56.9255C84.7789 57.0994 84.9445 57.1104 85.0963 56.9558C85.1723 56.8783 85.2289 56.7838 85.2615 56.6802C85.2941 56.5766 85.3018 56.4668 85.2839 56.3597Z" fill="#455A64"/>
<path d="M83.7222 51.5789L83.2254 51.3029C83.1581 51.2697 83.0831 51.2552 83.0083 51.261C82.9335 51.2669 82.8617 51.2928 82.8004 51.336C82.6041 51.476 82.4435 51.66 82.3313 51.8733C82.2191 52.0866 82.1586 52.3233 82.1545 52.5642C82.1444 52.6602 82.1588 52.7572 82.1965 52.846C82.2341 52.9349 82.2938 53.0127 82.3698 53.0721L82.8721 53.3646L83.7222 51.5789Z" fill="#263238"/>
<path d="M82.1565 52.5589C82.1463 52.6549 82.1607 52.7518 82.1984 52.8407C82.2361 52.9295 82.2957 53.0073 82.3718 53.0667L82.8741 53.3593L83.1501 52.7825L82.2006 52.2305C82.1721 52.3377 82.1573 52.448 82.1565 52.5589Z" fill="#263238"/>
<path d="M83.2913 53.3205C83.4876 53.1806 83.6483 52.9966 83.7604 52.7833C83.8726 52.57 83.9331 52.3333 83.9372 52.0923C83.9372 51.6204 83.6474 51.4051 83.2913 51.6093C83.0954 51.7496 82.935 51.9336 82.8228 52.1469C82.7107 52.3601 82.65 52.5966 82.6455 52.8375C82.6455 53.3123 82.9353 53.5275 83.2913 53.3205Z" fill="#455A64"/>
<path d="M91.8529 54.7723L91.7728 54.2203C91.8368 54.0942 91.8562 53.9503 91.828 53.8118L91.6072 53.0776L91.4692 52.1116L91.334 52.153L91.3533 50.9635L90.9172 50.7123C90.8902 50.6973 90.8598 50.6895 90.8289 50.6895C90.798 50.6895 90.7676 50.6973 90.7406 50.7123L90.2686 50.9883L89.4241 51.4713L88.9052 51.7721C88.8759 51.7888 88.8505 51.8114 88.8305 51.8385C88.8105 51.8656 88.7965 51.8966 88.7893 51.9295L87.8647 56.0998C87.826 56.2737 87.8647 56.4145 87.9475 56.4669L88.4387 56.7429L89.0183 54.3583L89.0321 55.3436L88.7313 60.0356C88.7201 60.0925 88.7247 60.1514 88.7447 60.2059C88.7646 60.2604 88.7991 60.3084 88.8445 60.3447L89.3275 60.6207L89.7415 56.7236L89.5814 56.6187L89.689 54.9627L89.9954 54.7888L90.3017 59.2048C90.3008 59.251 90.3114 59.2966 90.3326 59.3376C90.3538 59.3786 90.3849 59.4136 90.4232 59.4394L90.9145 59.7154L90.8979 59.0806C90.945 58.9739 90.9667 58.8577 90.9614 58.7411L90.8372 56.9416L90.8013 55.6969L90.7489 55.661L90.6605 54.3914L90.6881 52.3821L91.2788 54.3583C91.2903 54.4061 91.32 54.4477 91.3616 54.4742L91.8529 54.7723Z" fill="#263238"/>
<path d="M92.3165 54.0957L91.3974 51.0156C91.3938 51.0036 91.3874 50.9926 91.3789 50.9834C91.3703 50.9742 91.3598 50.9671 91.3481 50.9626C91.3364 50.9581 91.3239 50.9563 91.3114 50.9573C91.2989 50.9584 91.2868 50.9622 91.276 50.9686L90.7544 51.2695L89.9043 51.7608L89.3854 52.0616C89.3564 52.0786 89.3312 52.1013 89.3113 52.1284C89.2914 52.1554 89.2772 52.1862 89.2695 52.2189L88.3449 56.3893C88.2924 56.6211 88.3752 56.795 88.527 56.7757C88.6788 56.7564 88.8444 56.5521 88.8941 56.3203L89.4102 53.9991C89.4102 53.9889 89.4143 53.979 89.4215 53.9718C89.4288 53.9645 89.4386 53.9605 89.4489 53.9605C89.4591 53.9605 89.469 53.9645 89.4762 53.9718C89.4834 53.979 89.4875 53.9889 89.4875 53.9991L89.5124 55.633L89.2115 60.325C89.195 60.5762 89.3302 60.7142 89.5124 60.6314L89.54 60.6148C89.6355 60.5464 89.7147 60.4578 89.7719 60.3552C89.8292 60.2526 89.8631 60.1386 89.8712 60.0214L90.1775 55.2466L90.4839 55.07L90.7902 59.486C90.804 59.7068 90.9503 59.7951 91.1187 59.6985L91.149 59.6792C91.2463 59.6008 91.3241 59.501 91.3763 59.3875C91.4285 59.274 91.4537 59.1499 91.4499 59.0251L91.149 54.6781L91.1739 52.9282C91.1739 52.918 91.1779 52.9082 91.1852 52.9009C91.1924 52.8937 91.2023 52.8896 91.2125 52.8896C91.2228 52.8896 91.2326 52.8937 91.2398 52.9009C91.2471 52.9082 91.2512 52.918 91.2512 52.9282L91.7673 54.656C91.817 54.8271 91.9826 54.8409 92.1344 54.6864C92.2084 54.6087 92.2633 54.515 92.295 54.4125C92.3266 54.31 92.3339 54.2015 92.3165 54.0957Z" fill="#455A64"/>
<path d="M90.7631 49.3076L90.2635 49.0316C90.1966 48.9989 90.1221 48.9847 90.0478 48.9905C89.9736 48.9964 89.9022 49.022 89.8412 49.0647C89.6448 49.2045 89.484 49.3885 89.3718 49.6018C89.2596 49.8152 89.1992 50.0519 89.1954 50.2929C89.1896 50.3874 89.2076 50.4819 89.2476 50.5676C89.2876 50.6534 89.3484 50.7279 89.4245 50.7842L89.9268 51.0768L90.7631 49.3076Z" fill="#263238"/>
<path d="M89.1947 50.2877C89.1881 50.3831 89.2056 50.4786 89.2456 50.5655C89.2856 50.6523 89.3469 50.7277 89.4238 50.7845L89.9261 51.0771L90.2021 50.5002L89.2527 49.9482C89.2184 50.0583 89.1989 50.1725 89.1947 50.2877Z" fill="#263238"/>
<path d="M90.3294 51.06C90.5258 50.9202 90.6866 50.7363 90.7988 50.5229C90.911 50.3096 90.9714 50.0728 90.9753 49.8318C90.9753 49.3598 90.6993 49.1418 90.3294 49.3488C90.1335 49.489 89.9731 49.6731 89.8609 49.8863C89.7488 50.0996 89.6881 50.3361 89.6836 50.577C89.6836 51.0379 89.9762 51.2559 90.3294 51.06Z" fill="#455A64"/>
<path d="M121.721 94.8887H119.618V97.9495H121.721V94.8887Z" fill="#FFA8A7"/>
<path d="M114.326 91.0986L112.225 91.1709L112.33 94.2299L114.432 94.1576L114.326 91.0986Z" fill="#FFA8A7"/>
<path d="M121.581 65.0088C121.581 67.0153 121.84 79.9984 121.84 79.9984C121.89 80.578 122.431 81.6544 122.315 83.8624C122.155 86.8763 121.895 95.2474 121.895 95.2474C121.895 95.2474 120.91 96.2244 119.516 95.2474C119.516 95.2474 117.614 83.8734 117.236 80.8954C116.908 78.2899 116.35 71.2105 116.35 71.2105L114.405 79.543C114.405 79.543 114.747 81.5026 114.821 82.8853C114.896 84.2681 114.465 92.2528 114.465 92.2528C114.125 92.4664 113.735 92.5869 113.333 92.6024C112.932 92.6179 112.533 92.5278 112.177 92.3411C112.177 92.3411 110.488 80.6718 110.273 79.4243C110.058 78.1767 111.749 65.0198 111.749 65.0198L121.581 65.0088Z" fill="#37474F"/>
<path d="M119.619 96.9116V96.5997C119.417 96.688 118.948 98.471 118.114 99.2328C117.452 99.8372 116.547 100.535 116.318 101.209C116.089 101.882 117.576 102.296 118.197 102.186C118.918 102.059 120.165 101.554 120.477 101.082C120.789 100.61 120.938 99.92 121.192 99.575C121.446 99.23 122.02 98.8464 122.169 98.4489C122.246 98.2309 122.155 97.7506 122.05 97.3449C121.945 96.9392 121.846 96.5666 121.719 96.5997V96.8288C121.42 97.0649 121.049 97.1907 120.667 97.1848C120.361 97.2069 119.616 97.1517 119.619 96.9116Z" fill="#263238"/>
<path d="M112.31 93.5826C112.2 93.5826 112.112 93.7399 111.872 94.0021C111.511 94.3647 111.094 94.665 110.635 94.8908C109.849 95.2855 108.317 95.89 107.624 96.2018C107.193 96.3978 107.213 96.9194 107.66 97.2175C108.107 97.5156 109.186 97.7309 110.483 97.4383C111.19 97.281 112.109 96.6296 112.691 96.6655C113.274 96.7014 114.361 96.6904 114.792 96.3895C115.222 96.0887 115.048 95.4622 114.927 94.9184C114.794 94.325 114.604 93.417 114.408 93.4584V93.6461C114.154 94.027 112.868 94.1843 112.313 93.9028L112.31 93.5826Z" fill="#263238"/>
<path d="M127.143 63.0436C127.096 62.7676 125.785 59.7316 125.247 58.542L122.525 59.8171L123.569 62.2045L126.389 64.3849C126.665 64.3033 126.898 64.1175 127.038 63.8671C127.179 63.6166 127.216 63.3212 127.143 63.0436Z" fill="#FFA8A7"/>
<path d="M114.844 51.043C113.544 51.1478 112.247 51.5039 111.085 53.2289C109.923 54.9539 107.889 57.9209 107.889 57.9209L111.72 59.1353L114.844 51.043Z" fill="#2F15AA"/>
<path opacity="0.1" d="M114.844 51.043C113.544 51.1478 112.247 51.5039 111.085 53.2289C109.923 54.9539 107.889 57.9209 107.889 57.9209L111.72 59.1353L114.844 51.043Z" fill="black"/>
<path d="M118.418 51.1093C120.304 51.5619 122.694 52.3237 123.53 54.0597C124.366 55.7958 125.661 58.611 125.661 58.611L122.545 60.4574L121.587 58.8014V65.0197C120.113 66.6233 114.963 67.3712 111.756 65.0197V54.7635C111.756 53.1269 112.667 51.159 115.178 51.0127L118.418 51.1093Z" fill="#2F15AA"/>
<path opacity="0.1" d="M121.581 58.788C121.581 58.788 120.637 57.1486 120.433 56.7539L121.581 59.5553V58.788Z" fill="black"/>
<path d="M119.124 42.73C119.295 42.7091 119.468 42.7277 119.63 42.7841C119.792 42.8406 119.939 42.9335 120.06 43.0557C120.457 43.4641 120.375 44.2176 120.06 45.9481L118.829 46.0889L119.124 42.73Z" fill="#263238"/>
<path d="M111.951 42.2279C111.687 42.2291 111.426 42.1756 111.184 42.0706C110.806 41.8526 110.706 42.2831 110.908 42.6557C111.044 42.9229 111.246 43.1507 111.496 43.3174C111.745 43.4841 112.033 43.5841 112.332 43.6079C112.332 43.5555 112.685 42.6475 112.685 42.6475L111.951 42.2279Z" fill="#263238"/>
<path d="M118.548 46.0918C118.73 46.2022 118.992 45.8517 119.216 45.6144C119.439 45.377 120.176 45.0624 120.543 45.8296C120.911 46.5969 120.069 47.665 119.572 48.01C119.432 48.131 119.258 48.2048 119.075 48.2212C118.891 48.2375 118.707 48.1955 118.548 48.1011L118.418 51.1123C118.197 51.5949 117.861 52.0153 117.438 52.336C117.015 52.6568 116.519 52.8678 115.995 52.9504C114.229 53.1906 114.59 51.7305 115.167 51.0184V49.9144C115.167 49.9144 114.253 50.0966 113.823 49.9834C113.591 49.92 113.042 49.2548 112.686 48.5124C112.288 47.6844 111.623 46.1912 112.214 43.6824C112.849 40.9858 115.744 40.903 117.458 41.9905C119.172 43.0779 118.548 46.0918 118.548 46.0918Z" fill="#FFA8A7"/>
<path d="M118.548 46.398C118.639 46.398 118.989 45.8184 119.216 45.6114C119.53 45.3354 119.125 42.73 119.125 42.73C119.125 42.73 119.445 41.7447 118.821 41.0933C118.197 40.442 116.991 40.5413 116.111 40.5192C115.027 40.5264 113.953 40.3103 112.956 39.8844C111.703 39.3324 111.609 39.2772 111.455 39.8265C111.3 40.3757 111.239 41.637 111.987 42.4816L112.611 42.7107C112.611 42.7107 112.945 43.0088 114.115 43.1495C115.194 43.2308 116.278 43.2105 117.353 43.0888C117.692 43.0419 117.764 43.3648 117.946 44.2673C118.106 45.0567 118.239 46.3898 118.548 46.398Z" fill="#263238"/>
<path d="M119.125 42.9312L120.229 42.3378C120.193 42.2649 120.143 42.1998 120.082 42.1464C120.021 42.093 119.95 42.0522 119.873 42.0266C119.796 42.0009 119.714 41.9908 119.633 41.9968C119.552 42.0029 119.473 42.025 119.401 42.0618C119.251 42.1428 119.139 42.2786 119.087 42.4408C119.036 42.603 119.049 42.7788 119.125 42.9312Z" fill="#263238"/>
<path d="M115.175 49.9196C115.175 49.9196 116.811 49.5884 117.383 49.2848C117.719 49.1096 117.994 48.8362 118.172 48.501C118.087 48.8362 117.935 49.1508 117.725 49.4256C117.305 49.961 115.172 50.3529 115.172 50.3529L115.175 49.9196Z" fill="#F28F8F"/>
<path d="M115.569 45.6801C115.572 45.7446 115.594 45.8068 115.632 45.859C115.669 45.9112 115.722 45.9511 115.782 45.9738C115.842 45.9965 115.908 46.0009 115.971 45.9865C116.034 45.972 116.091 45.9395 116.136 45.8927C116.18 45.846 116.21 45.7873 116.221 45.7238C116.232 45.6603 116.225 45.5949 116.199 45.5358C116.173 45.4766 116.131 45.4263 116.077 45.3911C116.023 45.3559 115.96 45.3374 115.895 45.3379C115.851 45.339 115.808 45.3487 115.768 45.3665C115.728 45.3842 115.692 45.4098 115.661 45.4415C115.631 45.4733 115.607 45.5108 115.592 45.5517C115.576 45.5926 115.568 45.6363 115.569 45.6801Z" fill="#263238"/>
<path d="M115.92 44.4359L116.621 44.8223C116.669 44.7269 116.679 44.6166 116.649 44.514C116.619 44.4114 116.551 44.3242 116.458 44.2703C116.412 44.2446 116.362 44.2284 116.309 44.2229C116.257 44.2173 116.204 44.2224 116.154 44.2379C116.103 44.2534 116.057 44.2789 116.016 44.3129C115.976 44.347 115.943 44.3888 115.92 44.4359Z" fill="#263238"/>
<path d="M115.592 47.9053L114.844 48.1813C114.86 48.2316 114.886 48.2781 114.921 48.318C114.955 48.3579 114.997 48.3905 115.045 48.4137C115.092 48.4369 115.144 48.4502 115.197 48.453C115.249 48.4557 115.302 48.4478 115.352 48.4297C115.451 48.3895 115.531 48.3128 115.576 48.2153C115.621 48.1177 115.626 48.0068 115.592 47.9053Z" fill="#F28F8F"/>
<path d="M112.641 44.7121L113.281 44.218C113.252 44.1752 113.213 44.1389 113.169 44.1113C113.125 44.0837 113.075 44.0653 113.024 44.0573C112.972 44.0493 112.919 44.0518 112.869 44.0648C112.818 44.0777 112.771 44.1007 112.729 44.1325C112.644 44.1997 112.587 44.2971 112.57 44.4048C112.554 44.5125 112.579 44.6224 112.641 44.7121Z" fill="#263238"/>
<path d="M112.84 45.5864C112.843 45.6507 112.864 45.7128 112.902 45.7649C112.94 45.8171 112.992 45.857 113.052 45.8798C113.112 45.9026 113.178 45.9071 113.241 45.8929C113.303 45.8788 113.361 45.8464 113.405 45.8C113.45 45.7536 113.48 45.6951 113.491 45.6318C113.503 45.5684 113.496 45.5031 113.47 45.4439C113.445 45.3847 113.403 45.3342 113.349 45.2987C113.296 45.2632 113.233 45.2442 113.168 45.2441C113.124 45.2449 113.081 45.2543 113.04 45.2719C113 45.2895 112.963 45.315 112.933 45.3468C112.902 45.3786 112.878 45.4162 112.862 45.4573C112.846 45.4984 112.839 45.5423 112.84 45.5864Z" fill="#263238"/>
<path d="M114.51 45.2744L114.403 47.2478L113.373 46.8973L114.51 45.2744Z" fill="#F28F8F"/>
<path d="M105.935 57.165L114.33 59.3758L116.809 69.7948L108.827 67.4764L105.935 57.165Z" fill="#EBEBEB"/>
<path d="M109.594 64.0596C109.517 64.2721 109.058 64.8627 108.081 64.8158L107.96 64.3852L109.594 64.0596Z" fill="#E0E0E0"/>
<path d="M111.471 64.3848C111.509 64.6608 112.078 65.1769 113.044 65.4888C114.148 65.8531 115.829 65.6599 115.829 65.6599L115.677 65.141L111.471 64.3848Z" fill="#E0E0E0"/>
<path d="M108.393 58.6748L108.324 58.3546C108.286 58.178 108.777 58.1697 109.428 58.3381L110.668 58.6582C111.313 58.8266 111.868 59.1053 111.904 59.282L111.976 59.6021L108.393 58.6748Z" fill="#E0E0E0"/>
<path d="M110.925 58.7874C110.925 58.7681 110.925 58.7515 110.925 58.7349C110.897 58.5859 110.961 58.4948 111.242 58.5666L112.192 58.815L112.131 58.6163C112.098 58.5059 111.835 58.3403 111.546 58.2685L111.024 58.1195C111.024 58.1195 110.787 57.3329 109.699 57.0927C108.612 56.8526 108.758 57.5426 108.758 57.5426L108.267 57.4074C107.991 57.3329 107.798 57.3605 107.822 57.4709L107.869 57.6779L108.714 57.8987C108.792 57.919 108.863 57.9617 108.917 58.0215C108.972 58.0813 109.007 58.1556 109.02 58.2354C109.026 58.2562 109.031 58.2774 109.034 58.2989C108.562 58.2133 108.234 58.2409 108.267 58.3872L108.336 58.7073L111.924 59.6347L111.855 59.3145C111.816 59.1655 111.427 58.9475 110.925 58.7874Z" fill="#37474F"/>
<path d="M126.389 64.3847L123.569 62.2043C123.569 62.2043 117.88 63.1289 117.221 63.1814C116.868 63.1902 116.522 63.0924 116.226 62.9008C115.931 62.7092 115.7 62.4327 115.565 62.1077C115.311 61.4508 114.861 61.5336 114.861 61.5336L115.123 62.6376C115.184 62.9136 113.583 63.1206 112.697 62.8198C111.811 62.519 110.522 62.9578 111.317 64.1667C112.112 65.3756 113.66 65.5135 114.737 65.5135C115.186 65.5117 115.635 65.4822 116.081 65.4252C116.428 65.3811 116.776 65.3452 117.124 65.3204C119.313 65.1548 125.387 64.6994 126.389 64.3847Z" fill="#FFA8A7"/>
<path d="M106.79 60.2119L107.163 61.5395C107.235 61.7962 108.209 62.2598 108.819 62.431C109.429 62.6021 110.111 62.8008 109.818 63.6647C109.542 64.4596 108.535 64.6417 108.019 64.6196C107.502 64.5976 106.793 64.1008 106.514 63.3059C106.158 62.2902 106.349 61.2028 106.208 60.6094C106.067 60.016 106.481 59.8586 106.79 60.2119Z" fill="#FFA8A7"/>
<path d="M25.9024 30.9287H27.3873C28.4853 30.9287 29.5383 31.3649 30.3147 32.1413C31.0911 32.9177 31.5273 33.9707 31.5273 35.0687V45.5871H21.7734V35.0522C21.7778 33.9589 22.2144 32.9118 22.9879 32.1393C23.7615 31.3668 24.8092 30.9316 25.9024 30.9287Z" fill="#263238"/>
<path d="M31.6597 88.3919C32.2271 88.9888 32.85 89.5303 33.5199 90.0093C33.6267 90.079 33.7148 90.1738 33.7766 90.2853C33.8649 90.4674 34.0002 90.9201 33.1694 91.2099C32.7496 91.3562 32.3031 91.4101 31.8605 91.3677C31.4179 91.3253 30.9898 91.1876 30.6054 90.9642C29.9236 90.5364 29.8905 89.6477 29.2474 89.1399C28.77 88.7645 28.1738 88.6679 27.7902 88.1794C27.5142 87.8371 27.5914 87.3817 27.7294 86.8187C27.884 86.2032 27.953 85.7396 28.1572 85.7865L28.1241 86.0625C28.378 86.4682 29.6918 86.5869 30.2769 86.3081C30.7015 87.0261 31.1631 87.7217 31.6597 88.3919Z" fill="#263238"/>
<path d="M32.2368 88.9664C32.0409 88.787 31.8449 88.5993 31.66 88.3979C31.2721 87.8908 30.9136 87.3618 30.5864 86.8136C30.3623 86.4807 30.2564 86.0823 30.2855 85.682L30.4511 84.1668L28.3673 84.0205L28.1244 86.0629C28.0748 86.5266 28.4556 86.9378 29.1346 87.5229C29.8136 88.1081 30.6747 89.4687 31.2874 89.811C31.9001 90.1532 32.3417 90.1422 32.6012 89.9683C32.8606 89.7944 32.8992 89.6426 32.2368 88.9664Z" fill="#FFA8A7"/>
<path d="M23.7358 88.5769V88.265C23.86 88.6321 24.4313 90.2136 25.3007 91.0057C25.9907 91.6377 26.9347 92.3636 27.1748 93.0674C27.4149 93.7712 25.861 94.0417 25.2179 93.9285C24.4672 93.796 23.4957 93.3765 22.9685 92.7224C22.5959 92.2642 22.3613 91.7233 22.0964 91.3645C21.8314 91.0057 21.2187 90.6055 21.0752 90.1915C20.9979 89.9624 21.0917 89.4628 21.2021 89.0406C21.3125 88.6183 21.4119 88.2291 21.5444 88.265V88.5024C21.8537 88.7466 22.2377 88.8772 22.6318 88.8722C22.9603 88.886 23.7358 88.8225 23.7358 88.5769Z" fill="#263238"/>
<path d="M25.9278 91.5603C25.7125 91.3699 25.4972 91.1822 25.3013 91.0083C24.6941 90.4563 24.2304 89.5152 23.9654 88.8748C23.8139 88.5101 23.7361 88.1189 23.7364 87.7239V86.4736H21.5449V88.5078V88.5602C21.6498 89.0156 22.6489 90.2162 23.2285 91.0166C23.6094 91.5465 24.3325 92.22 25.2074 92.3359C26.041 92.4435 26.4632 92.1841 25.9278 91.5603Z" fill="#FFA8A7"/>
<path d="M21.9803 54.5405C20.2829 58.2499 22.041 71.313 22.041 71.313C21.9913 71.9147 21.3041 73.0987 21.0474 75.7483C20.7438 78.8754 21.5277 86.7359 21.5277 86.7359C21.861 86.9285 22.2363 87.037 22.6211 87.052C23.0058 87.0669 23.3884 86.9877 23.7357 86.8214C23.7357 86.8214 25.8222 74.9865 26.2197 71.876C26.5619 69.1602 27.2215 62.768 27.2215 62.768L29.0901 71.8539C29.0901 71.8539 28.3725 73.4161 28.2621 74.5753C28.0854 76.4052 28.2621 84.3291 28.2621 84.3291C28.2621 84.3291 29.01 84.9004 30.4452 84.6879C30.4452 84.6879 32.874 73.6479 33.0645 71.4399C33.1804 70.1234 31.6845 53.9912 31.6845 53.9912L21.9803 54.5405Z" fill="#37474F"/>
<path d="M27.2168 62.7761L27.7688 59.7401C27.7688 59.7401 30.101 59.2571 31.1608 58.2607C30.4299 59.1172 29.4738 59.752 28.4008 60.0934L27.7826 62.7457L28.8645 70.7746L27.2168 62.7761Z" fill="#263238"/>
<path d="M19.2124 52.9283C19.2317 52.6855 19.6871 50.0883 19.999 48.6338L23.0543 49.5694L22.5023 52.2439L19.93 54.3083C19.1324 54.1483 19.1958 53.1712 19.2124 52.9283Z" fill="#FFA8A7"/>
<path d="M33.9785 47.4531L35.422 50.1L33.1753 52.0237L31.1191 48.7641L33.9785 47.4531Z" fill="#F28F8F"/>
<path d="M28.5635 41.5576C29.9959 41.5714 31.5719 42.0931 32.1128 43.2136C32.6538 44.3342 34.3512 47.8311 34.3512 47.8311C34.3512 47.8311 33.0844 49.6831 31.0778 49.5533L28.5635 41.5576Z" fill="#EBEBEB"/>
<path d="M24.9756 41.6565C24.3513 41.8085 23.769 42.0987 23.2718 42.5057C22.7745 42.9127 22.3749 43.4261 22.1024 44.008C21.7037 44.8936 21.6671 45.8999 22.0003 46.8122L23.5156 51.2005C23.5156 51.2005 22.8062 52.9173 21.981 54.5401C25.787 56.6653 30.537 55.5476 31.6852 53.9881C31.7348 53.6597 31.6686 52.1776 31.7624 50.4912C31.859 48.6917 32.1074 46.6603 31.8232 45.5508C31.2988 43.4863 30.3162 41.5488 28.3594 41.5488L24.9756 41.6565Z" fill="#F5F5F5"/>
<path d="M24.4099 41.6572C23.1127 41.8394 21.2027 42.1016 20.5459 45.19C19.8724 48.3199 19.6875 49.4045 19.6875 49.4045C19.6875 49.4045 20.7529 50.6466 22.9084 50.6355L23.5791 48.2619L24.4099 41.6572Z" fill="#F5F5F5"/>
<path d="M23.0928 49.9813C23.0928 49.9813 23.5344 48.5847 23.7993 47.4531C23.8085 48.6448 23.6947 49.8342 23.4599 51.0025L23.0928 49.9813Z" fill="#EBEBEB"/>
<path d="M25.1461 44.2598C24.6942 44.2598 24.2608 44.0805 23.941 43.7612C23.6212 43.4419 23.4412 43.0088 23.4404 42.5569V37.5889H25.1461V44.2598Z" fill="#263238"/>
<path d="M29.9187 32.8994C30.432 33.203 31.0696 34.4975 31.0061 37.2105C30.9537 39.5096 30.2085 40.0782 29.8331 40.2465C29.4578 40.4149 28.7291 40.31 28.0364 40.1913V41.5713C28.0364 41.5713 29.0051 42.7002 28.9444 43.3322C28.8837 43.9643 27.5451 44.1133 26.637 43.4951C26.0483 43.0716 25.543 42.5429 25.1466 41.9357V38.5988C25.073 38.6892 24.9821 38.764 24.8793 38.8189C24.7764 38.8739 24.6637 38.9078 24.5477 38.9189C24.4316 38.9299 24.3145 38.9178 24.2032 38.8832C24.0919 38.8487 23.9885 38.7923 23.8991 38.7175C23.1236 38.2014 23.0932 36.929 23.5431 36.4709C23.993 36.0127 24.9645 36.159 25.1466 36.791C25.1466 36.791 26.2672 36.8297 27.7576 36.0127C28.3367 35.6996 28.834 35.2546 29.2095 34.7138C29.5849 34.173 29.8278 33.5515 29.9187 32.8994Z" fill="#FFA8A7"/>
<path d="M28.4284 36.6335C28.431 36.6723 28.4259 36.7112 28.4135 36.748C28.401 36.7849 28.3814 36.8189 28.3558 36.8481C28.3301 36.8773 28.2989 36.9012 28.264 36.9184C28.2291 36.9355 28.1912 36.9456 28.1524 36.9481C28.0758 36.9498 28.0014 36.9221 27.9445 36.8708C27.8876 36.8195 27.8523 36.7485 27.846 36.6721C27.8442 36.634 27.8499 36.596 27.8628 36.5601C27.8757 36.5243 27.8955 36.4913 27.9212 36.4631C27.9468 36.4349 27.9777 36.4121 28.0122 36.3958C28.0466 36.3796 28.084 36.3703 28.122 36.3685C28.1601 36.3667 28.1981 36.3724 28.234 36.3853C28.2698 36.3982 28.3028 36.418 28.331 36.4436C28.3592 36.4692 28.3821 36.5002 28.3983 36.5346C28.4145 36.5691 28.4238 36.6064 28.4256 36.6445L28.4284 36.6335Z" fill="#263238"/>
<path d="M28.516 38.582L29.1867 38.7973C29.175 38.8424 29.1543 38.8847 29.1257 38.9215C29.0971 38.9583 29.0613 38.9889 29.0204 39.0114C28.9796 39.0339 28.9346 39.0478 28.8882 39.0523C28.8418 39.0567 28.795 39.0517 28.7506 39.0374C28.6599 39.0071 28.5846 38.9425 28.5408 38.8574C28.4969 38.7724 28.4881 38.6735 28.516 38.582Z" fill="#F28F8F"/>
<path d="M30.8097 35.7445L30.2246 35.3278C30.2492 35.2884 30.2815 35.2545 30.3196 35.2281C30.3577 35.2017 30.4008 35.1832 30.4462 35.1739C30.4916 35.1646 30.5385 35.1647 30.5839 35.174C30.6293 35.1834 30.6723 35.2019 30.7104 35.2284C30.7906 35.2847 30.8458 35.3701 30.8644 35.4664C30.8829 35.5627 30.8633 35.6624 30.8097 35.7445Z" fill="#263238"/>
<path d="M30.675 36.4324C30.6748 36.4857 30.6591 36.5379 30.6298 36.5825C30.6005 36.6271 30.5589 36.6622 30.5101 36.6837C30.4612 36.7051 30.4072 36.712 30.3546 36.7034C30.3019 36.6948 30.2529 36.6711 30.2134 36.6352C30.1739 36.5993 30.1457 36.5528 30.1321 36.5012C30.1186 36.4496 30.1202 36.3952 30.137 36.3445C30.1537 36.2938 30.1847 36.2491 30.2263 36.2157C30.268 36.1823 30.3184 36.1617 30.3714 36.1564C30.448 36.1541 30.5224 36.1816 30.579 36.233C30.6356 36.2845 30.6701 36.356 30.675 36.4324Z" fill="#263238"/>
<path d="M29.3115 36.2578L29.3557 37.9994L30.272 37.7151L29.3115 36.2578Z" fill="#F28F8F"/>
<path d="M28.0358 40.1881C27.2961 40.0915 25.7726 39.6554 25.5518 39.0537C25.6458 39.3584 25.8319 39.6264 26.0844 39.821C26.5371 40.2102 28.0496 40.649 28.0496 40.649L28.0358 40.1881Z" fill="#F28F8F"/>
<path d="M40.139 47.29L31.7431 49.5008L29.2646 59.9198L37.2466 57.6014L40.139 47.29Z" fill="#2F15AA"/>
<path opacity="0.15" d="M36.4785 54.1846C36.5558 54.3971 37.014 54.9877 37.991 54.9408L38.1124 54.5102L36.4785 54.1846Z" fill="black"/>
<path opacity="0.15" d="M34.6024 54.5098C34.5665 54.7858 33.9952 55.3019 33.0292 55.6138C31.9252 55.9781 30.2471 55.7849 30.2471 55.7849L30.3961 55.266L34.6024 54.5098Z" fill="black"/>
<path opacity="0.15" d="M37.6793 48.7998C37.6793 48.7998 37.7124 48.6563 37.7483 48.4796C37.7842 48.303 37.2957 48.2947 36.6443 48.4631L35.4078 48.7832C34.7592 48.9516 34.2072 49.2303 34.1686 49.407L34.0996 49.7271L37.6793 48.7998Z" fill="black"/>
<path d="M38.2617 47.5909C38.2865 47.4805 38.0878 47.4529 37.8173 47.5274L37.326 47.6627C37.326 47.6627 37.4723 46.9699 36.3849 47.2128C35.2974 47.4557 35.0601 48.2395 35.0601 48.2395L34.5384 48.3885C34.2624 48.4713 33.9864 48.6259 33.9533 48.7363L33.8926 48.935L38.2147 47.7979L38.2617 47.5909Z" fill="#37474F"/>
<path d="M37.666 47.9388C37.2713 48.0326 37.114 48.0851 37.0478 48.3583C36.9815 48.6315 36.9512 48.9103 36.9512 48.9103L35.0523 49.4043C35.0523 49.4043 35.1434 49.0097 35.1737 48.8523C35.2041 48.695 35.1378 48.6067 34.8342 48.6867L34.8066 48.5653L37.8068 47.8008L37.666 47.9388Z" fill="#37474F"/>
<path d="M37.7319 48.8301L37.8009 48.5099C37.8395 48.3333 37.3483 48.325 36.6969 48.4933L35.4577 48.8135C34.8118 48.9819 34.2571 49.2606 34.2212 49.4373L34.1494 49.7574L37.7319 48.8301Z" fill="#37474F"/>
<path d="M19.9385 54.3082L22.5108 52.2437C22.5108 52.2437 28.1936 53.2539 28.8588 53.3064C29.211 53.3155 29.5576 53.2179 29.8532 53.0263C30.1488 52.8346 30.3795 52.558 30.5148 52.2327C30.7715 51.5758 31.2186 51.6586 31.2186 51.6586C31.2186 51.6586 31.0199 52.4866 30.9592 52.7626C30.8984 53.0386 32.4965 53.2456 33.3824 52.9448C34.2684 52.644 35.5573 53.0828 34.7624 54.2917C33.9676 55.5006 32.4192 55.6386 31.3428 55.6413C30.8934 55.6369 30.4446 55.6065 29.9987 55.5502C29.6509 55.5061 29.3032 55.4702 28.9554 55.4454C26.7722 55.2798 20.9404 54.6201 19.9385 54.3082Z" fill="#FFA8A7"/>
<path d="M39.2835 50.3366L38.9165 51.6642C38.8447 51.9209 37.8704 52.3845 37.2605 52.5557C36.6505 52.7268 35.9688 52.9255 36.2613 53.7894C36.5373 54.5843 37.5447 54.7664 38.0636 54.7443C38.5825 54.7223 39.2863 54.2255 39.5651 53.4306C39.9211 52.4149 39.7307 51.3302 39.8714 50.7341C40.0122 50.1379 39.5927 49.9833 39.2835 50.3366Z" fill="#FFA8A7"/>
</svg>
