<svg width="26" height="25" viewBox="0 0 26 25" fill="none" xmlns="http://www.w3.org/2000/svg">
<path d="M0.5 5.50109C0.5 4.81014 1.06914 4.25 1.73975 4.25H24.2603C24.945 4.25 25.5 4.80579 25.5 5.50109V22.9989C25.5 23.6899 24.9309 24.25 24.2603 24.25H1.73975C1.05506 24.25 0.5 23.6943 0.5 22.9989V5.50109ZM3 6.75V21.75H23V6.75H3ZM15.5 18C17.5711 18 19.25 16.3211 19.25 14.25C19.25 12.1789 17.5711 10.5 15.5 10.5C13.4289 10.5 11.75 12.1789 11.75 14.25C11.75 16.3211 13.4289 18 15.5 18ZM15.5 20.5C12.0483 20.5 9.25 17.7017 9.25 14.25C9.25 10.7983 12.0483 8 15.5 8C18.9517 8 21.75 10.7983 21.75 14.25C21.75 17.7017 18.9517 20.5 15.5 20.5ZM3 0.5H10.5V3H3V0.5Z" fill="url(#paint0_linear_546_2825)"/>
<defs>
<linearGradient id="paint0_linear_546_2825" x1="0.5" y1="12.375" x2="25.4991" y2="12.5239" gradientUnits="userSpaceOnUse">
<stop stop-color="#2F15AA"/>
<stop offset="0.47831" stop-color="#2F15AA" stop-opacity="0.8"/>
<stop offset="1" stop-color="#2F15AA" stop-opacity="0.4"/>
</linearGradient>
</defs>
</svg>
