<svg width="135" height="140" viewBox="0 0 135 140" fill="none" xmlns="http://www.w3.org/2000/svg">
<path d="M123.749 38.6298V100.596C123.749 107.088 119.731 113.58 113.418 115.94L84.7186 127.154C82.9968 127.743 81.275 128.334 78.9789 128.334C76.109 128.334 72.6654 127.154 69.7955 125.383C68.6474 124.203 66.9256 123.022 66.3513 121.842H44.5402C35.9305 121.842 28.4688 114.76 28.4688 105.318V99.4161C28.4688 97.0554 30.1907 94.6946 33.0606 94.6946C35.9305 94.6946 37.6525 96.465 37.6525 99.4161V105.318C37.6525 109.449 41.0963 112.399 44.5402 112.399H63.4814V27.4168H44.5402C40.5223 27.4168 37.6525 30.3676 37.6525 34.4987V40.4003C37.6525 42.7609 35.9305 45.1215 33.0606 45.1215C30.1907 45.1215 28.4688 42.7609 28.4688 40.4003V34.4987C28.4688 25.6464 35.3566 17.9743 44.5402 17.9743H66.3513C67.4994 16.794 68.6474 15.6137 69.7955 14.4334C74.3872 11.4826 79.5532 10.8924 84.7186 12.6629L113.418 23.8759C119.158 25.6464 123.749 32.1381 123.749 38.6298Z" fill="url(#paint0_linear_1495_7024)"/>
<path d="M27.3214 86.4318C26.1735 86.4318 25.0255 85.842 24.4515 85.2517L12.9719 73.4485C12.3979 72.8582 12.398 72.2684 11.824 72.2684C11.824 71.6781 11.25 71.0878 11.25 70.498C11.25 69.9077 11.25 69.3173 11.824 68.7276C11.824 68.1373 12.3979 67.5469 12.9719 67.5469L24.4515 55.7439C26.1735 53.9734 29.0434 53.9734 30.7653 55.7439C32.4872 57.5143 32.4872 60.4653 30.7653 62.2357L26.7474 66.3668H50.2806C52.5765 66.3668 54.8724 68.1373 54.8724 71.0878C54.8724 74.0388 52.5765 74.6292 50.2806 74.6292H26.1735L30.1913 78.7598C31.9133 80.5302 31.9133 83.4813 30.1913 85.2517C29.6174 85.842 28.4694 86.4318 27.3214 86.4318Z" fill="url(#paint1_linear_1495_7024)"/>
<defs>
<linearGradient id="paint0_linear_1495_7024" x1="28.4687" y1="70.0003" x2="123.36" y2="72.0192" gradientUnits="userSpaceOnUse">
<stop stop-color="#E90D35"/>
<stop offset="0.47831" stop-color="#E90D35" stop-opacity="0.8"/>
<stop offset="1" stop-color="#E90D35" stop-opacity="0.4"/>
</linearGradient>
<linearGradient id="paint1_linear_1495_7024" x1="11.25" y1="70.4239" x2="54.6591" y2="71.9647" gradientUnits="userSpaceOnUse">
<stop stop-color="#E90D35"/>
<stop offset="0.47831" stop-color="#E90D35" stop-opacity="0.8"/>
<stop offset="1" stop-color="#E90D35" stop-opacity="0.4"/>
</linearGradient>
</defs>
</svg>
