<svg width="20" height="18" viewBox="0 0 20 18" fill="none" xmlns="http://www.w3.org/2000/svg">
<path d="M7.50085 15.7371C8.59142 16.3967 9.82852 16.7439 11.0878 16.7439C12.3471 16.7439 13.5842 16.3967 14.6748 15.7371C15.7653 15.0774 16.671 14.1287 17.3006 12.9862C17.9302 11.8437 18.2617 10.5477 18.2617 9.22842C18.2617 7.90917 17.9302 6.61316 17.3006 5.47065C16.671 4.32815 15.7653 3.37941 14.6748 2.71978C13.5842 2.06016 12.3471 1.71289 11.0878 1.71289C9.82852 1.71289 8.59142 2.06015 7.50085 2.71978" stroke="#F0F0F0" stroke-width="2"/>
<path d="M2 9.7291L1.20523 9.12219L0.741771 9.7291L1.20523 10.336L2 9.7291ZM10.6087 10.7291C11.161 10.7291 11.6087 10.2814 11.6087 9.7291C11.6087 9.17682 11.161 8.7291 10.6087 8.7291V10.7291ZM5.03132 4.11184L1.20523 9.12219L2.79477 10.336L6.62085 5.32566L5.03132 4.11184ZM1.20523 10.336L5.03132 15.3464L6.62085 14.1325L2.79477 9.12219L1.20523 10.336ZM2 10.7291H10.6087V8.7291H2V10.7291Z" fill="#F0F0F0"/>
</svg>
