<svg width="256" height="125" viewBox="0 0 256 125" fill="none" xmlns="http://www.w3.org/2000/svg">
<mask id="path-1-outside-1_219_2270" maskUnits="userSpaceOnUse" x="7" y="19" width="243" height="83" fill="black">
<rect fill="white" x="7" y="19" width="243" height="83"/>
<path d="M10.8398 22.6816H79.1016V36.2559H26.3184V56.2266H71.1426V68.9707H26.3184V99H10.8398V22.6816ZM231.293 22.6816H246.869V99H231.293V22.6816Z"/>
</mask>
<path d="M10.8398 22.6816V19.6816H7.83984V22.6816H10.8398ZM79.1016 22.6816H82.1016V19.6816H79.1016V22.6816ZM79.1016 36.2559V39.2559H82.1016V36.2559H79.1016ZM26.3184 36.2559V33.2559H23.3184V36.2559H26.3184ZM26.3184 56.2266H23.3184V59.2266H26.3184V56.2266ZM71.1426 56.2266H74.1426V53.2266H71.1426V56.2266ZM71.1426 68.9707V71.9707H74.1426V68.9707H71.1426ZM26.3184 68.9707V65.9707H23.3184V68.9707H26.3184ZM26.3184 99V102H29.3184V99H26.3184ZM10.8398 99H7.83984V102H10.8398V99ZM10.8398 25.6816H79.1016V19.6816H10.8398V25.6816ZM76.1016 22.6816V36.2559H82.1016V22.6816H76.1016ZM79.1016 33.2559H26.3184V39.2559H79.1016V33.2559ZM23.3184 36.2559V56.2266H29.3184V36.2559H23.3184ZM26.3184 59.2266H71.1426V53.2266H26.3184V59.2266ZM68.1426 56.2266V68.9707H74.1426V56.2266H68.1426ZM71.1426 65.9707H26.3184V71.9707H71.1426V65.9707ZM23.3184 68.9707V99H29.3184V68.9707H23.3184ZM26.3184 96H10.8398V102H26.3184V96ZM13.8398 99V22.6816H7.83984V99H13.8398ZM231.293 22.6816V19.6816H228.293V22.6816H231.293ZM246.869 22.6816H249.869V19.6816H246.869V22.6816ZM246.869 99V102H249.869V99H246.869ZM231.293 99H228.293V102H231.293V99ZM231.293 25.6816H246.869V19.6816H231.293V25.6816ZM243.869 22.6816V99H249.869V22.6816H243.869ZM246.869 96H231.293V102H246.869V96ZM234.293 99V22.6816H228.293V99H234.293Z" fill="#F0F0F0" mask="url(#path-1-outside-1_219_2270)"/>
<path fill-rule="evenodd" clip-rule="evenodd" d="M168.928 20.7004L163.057 28.4L169.453 34.8207L175.849 41.2414L175.77 33.5165C175.727 29.2679 175.491 22.9132 175.245 19.3961L174.799 13L168.928 20.7004ZM158.829 38.9246C157.532 40.9772 154.256 46.1598 151.549 50.4407C146.944 57.7243 146.555 58.6569 145.489 64.9335C144.733 69.3873 144.35 75.8045 144.35 84.0284V96.4145H147.108C148.626 96.4145 150.057 96.7244 150.29 97.1031C150.524 97.4819 149.406 99.5704 147.805 101.745C145.358 105.071 145.048 105.848 145.848 106.644C146.647 107.438 147.766 107.032 152.821 104.113L158.843 100.636L161.125 91.9375C162.381 87.1534 163.609 82.9308 163.854 82.5534C164.099 82.1768 168.07 79.6863 172.678 77.0195L181.056 72.1708L178.278 71.7829L175.499 71.395L182.749 67.9179L190 64.4409L183.298 60.576C179.613 58.4503 176.586 56.522 176.573 56.2901C176.56 56.0589 178.322 56.1489 180.491 56.4904C182.659 56.8319 184.529 57.0153 184.646 56.898C184.833 56.7096 172.469 45.1991 164.207 37.8705L161.187 35.1918L158.829 38.9246ZM125.506 61.103C128.289 64.793 129.273 65.495 131.659 65.495C133.379 65.495 134.749 66.0789 136.195 67.4274C138.428 69.511 138.217 68.8912 135.138 64.325C133.466 61.8451 132.624 61.2822 129.623 60.6357C124.811 59.5999 124.407 59.6456 125.506 61.103ZM162.63 61.8683C160.48 64.8991 159.233 65.6939 157.233 65.3102C155.879 65.0502 154.758 65.5287 152.891 67.1597C150.238 69.4801 150.365 69.0135 153.63 64.4409C155.555 61.7446 158.778 60.1586 162.772 59.9421C163.965 59.8775 163.957 59.9969 162.63 61.8683Z" fill="#F0F0F0"/>
</svg>
