<svg width="11" height="10" viewBox="0 0 11 10" fill="none" xmlns="http://www.w3.org/2000/svg">
<path d="M5.50261 9.16827C3.20142 9.16827 1.33594 7.30282 1.33594 5.00161C1.33594 2.70044 3.20142 0.834961 5.50261 0.834961C7.80378 0.834961 9.66928 2.70044 9.66928 5.00161C9.66928 7.30282 7.80378 9.16827 5.50261 9.16827ZM5.50261 8.33494C7.34357 8.33494 8.83595 6.84257 8.83595 5.00161C8.83595 3.16068 7.34357 1.66829 5.50261 1.66829C3.66165 1.66829 2.16927 3.16068 2.16927 5.00161C2.16927 6.84257 3.66165 8.33494 5.50261 8.33494ZM5.50261 2.93923L7.56499 5.00161L5.50261 7.06402L3.44021 5.00161L5.50261 2.93923ZM5.50261 4.11774L4.61872 5.00161L5.50261 5.88552L6.38649 5.00161L5.50261 4.11774Z" fill="#FFAA00"/>
</svg>
