<svg width="159" height="102" viewBox="0 0 159 102" fill="none" xmlns="http://www.w3.org/2000/svg">
<path d="M32.6044 101.703H14.0427C13.7166 101.703 13.4521 101.453 13.4521 101.144V100.837C13.4521 100.528 13.7166 100.277 14.0427 100.277H32.6041C32.9302 100.277 33.1946 100.528 33.1946 100.837V101.144C33.1949 101.453 32.9305 101.703 32.6044 101.703Z" fill="#ADBEC4"/>
<path d="M150.221 101.703H145.142C144.816 101.703 144.552 101.453 144.552 101.144V100.837C144.552 100.528 144.816 100.277 145.142 100.277H150.221C150.547 100.277 150.811 100.528 150.811 100.837V101.144C150.811 101.453 150.547 101.703 150.221 101.703Z" fill="#ADBEC4"/>
<path d="M67.5351 101.703H48.9733C48.6473 101.703 48.3828 101.453 48.3828 101.144V100.837C48.3828 100.528 48.6473 100.277 48.9733 100.277H67.5351C67.8612 100.277 68.1256 100.528 68.1256 100.837V101.144C68.1256 101.453 67.8615 101.703 67.5351 101.703Z" fill="#ADBEC4"/>
<path d="M94.7906 101.703H76.2292C75.9031 101.703 75.6387 101.453 75.6387 101.144V100.837C75.6387 100.528 75.9031 100.277 76.2292 100.277H94.7906C95.1167 100.277 95.3811 100.528 95.3811 100.837V101.144C95.3811 101.453 95.1167 101.703 94.7906 101.703Z" fill="#ADBEC4"/>
<path d="M128.17 101.703H102.867C102.541 101.703 102.276 101.453 102.276 101.144V100.837C102.276 100.528 102.541 100.277 102.867 100.277H128.17C128.496 100.277 128.76 100.528 128.76 100.837V101.144C128.76 101.453 128.496 101.703 128.17 101.703Z" fill="#ADBEC4"/>
<path d="M38.8264 21.8373C38.8264 21.8373 36.8658 20.5739 33.9985 21.5469C31.1311 22.5202 30.487 26.1782 31.1934 29.1469C31.8998 32.1157 27.9521 42.2515 27.9521 42.2515C27.9521 42.2515 30.004 44.985 37.1747 43.9389C37.1747 43.9389 42.5217 34.7337 42.1249 28.1251C41.7281 21.5166 38.8264 21.8373 38.8264 21.8373Z" fill="#0E3944"/>
<path d="M41.0898 33.2569C43.7847 32.4406 45.434 34.5663 46.9782 38.5227C48.5224 42.4791 49.0418 42.8758 49.0418 42.8758L55.0019 46.5035L54.5064 48.6179C54.5064 48.6179 48.834 46.514 47.4626 45.1756C46.0912 43.8376 42.1459 37.0586 42.1459 37.0586L41.0898 33.2569Z" fill="#EF6E4B"/>
<path d="M27.9545 58.8164C27.9545 58.8164 26.7852 64.4261 26.9779 72.8703C26.9779 72.8703 22.3703 79.3069 26.1728 97.6714H28.1674C28.1674 97.6714 29.7968 82.0465 31.0435 77.8128C32.2902 73.579 36.8938 72.2799 37.143 59.4068L27.9545 58.8164Z" fill="#FF8B66"/>
<path d="M18.838 75.3116C17.6789 71.6931 14.7 65.6328 7.05831 57.4181C7.05831 57.4181 6.60254 57.1957 5.98642 57.5525C5.33594 57.929 5.33594 58.3713 5.33594 58.3713C5.33594 58.3713 9.16774 66.2822 11.6113 72.0783C12.4339 74.0297 14.4241 75.3116 16.642 75.3116H18.838Z" fill="#FF8B66"/>
<path d="M32.7521 82.3076C32.7521 82.3076 32.7784 85.0073 30.9085 85.0532C28.2682 85.1206 28.1708 82.396 25.1788 82.4847C22.1868 82.5731 16.0159 83.2818 14.0523 78.8531C13.0387 76.5644 14.4262 73.6273 11.1539 71.4129C7.88132 69.1986 9.47097 66.7184 11.1539 65.3899C12.8369 64.065 10.4283 62.6123 12.1824 61.9355C12.6011 61.7759 13.0127 61.7938 13.3941 61.9141C13.6184 61.9885 13.8279 62.0912 14.0297 62.2189C14.9571 62.8035 15.6079 63.8202 15.6079 63.8202C20.5635 50.9627 29.3862 49.2656 29.3862 49.2656L38.1116 52.1179C38.3208 72.1217 32.7521 82.3076 32.7521 82.3076Z" fill="#164353"/>
<path d="M41.0901 33.2559C41.0901 33.2559 39.0544 33.9066 36.1588 33.4901C33.2631 33.0737 32.3219 31.3514 30.2866 32.46C27.2309 34.1242 28.6609 39.852 29.4283 42.8303C29.7143 43.9409 30.0767 46.8582 29.3868 49.266C29.3868 49.266 33.4554 52.265 38.1122 52.116L40.6528 46.8815C40.6528 46.8815 46.1777 40.6185 41.0901 33.2559Z" fill="#CFD8DC"/>
<path d="M35.9197 28.4528C35.9197 28.4528 36.2583 31.1624 35.2002 33.6275C35.2002 33.6275 36.711 35.7404 38.1528 34.35C38.1528 34.35 38.2845 31.8667 39.9041 29.0572C40.9885 27.1757 35.9197 28.4528 35.9197 28.4528Z" fill="#EF6E4B"/>
<path d="M33.6037 28.5432C33.6037 28.5432 32.3294 27.7795 32.4732 28.9577C32.64 30.3229 34.0457 30.589 34.1953 30.1116C34.3448 29.6345 33.6037 28.5432 33.6037 28.5432Z" fill="#FF8B66"/>
<path d="M40.9139 27.0658C40.9139 27.0658 41.7227 25.8601 42.1232 26.9841C42.5871 28.2864 41.4353 29.0947 41.085 28.7236C40.735 28.3524 40.9139 27.0658 40.9139 27.0658Z" fill="#FF8B66"/>
<path d="M38.2831 32.6235C35.9719 33.1137 34.3293 31.9604 33.3154 27.6708C32.7922 25.4581 33.66 23.8487 36.2488 23.2999C38.8379 22.7507 40.2487 23.8765 40.7718 26.0893C41.8612 30.6983 40.6707 32.1171 38.2831 32.6235Z" fill="#FF8B66"/>
<path d="M40.3673 27.7816C40.4599 27.9932 40.3087 28.2536 40.0294 28.3631C39.7501 28.4725 39.4486 28.3902 39.3563 28.1786C39.2637 27.967 39.415 27.7066 39.6942 27.5972C39.9731 27.4877 40.2746 27.5704 40.3673 27.7816Z" fill="#DB614D"/>
<path d="M35.6422 28.9095C35.6796 29.1357 35.4677 29.355 35.1693 29.399C34.8708 29.4434 34.5983 29.2959 34.5609 29.0697C34.5235 28.8434 34.7354 28.6242 35.0339 28.5801C35.3327 28.5358 35.6049 28.6832 35.6422 28.9095Z" fill="#DB614D"/>
<path d="M38.7586 25.7822C38.7361 25.7822 38.7135 25.7762 38.6929 25.7634C38.2978 25.5135 37.7379 25.6463 37.7319 25.6476C37.6675 25.6635 37.6039 25.6268 37.5877 25.5668C37.5715 25.5068 37.6096 25.4456 37.6729 25.4302C37.7002 25.4239 38.3423 25.2716 38.8247 25.577C38.8792 25.6115 38.8937 25.6811 38.8573 25.7324C38.8344 25.7647 38.797 25.7822 38.7586 25.7822Z" fill="#0E3944"/>
<path d="M34.4061 26.7068C34.3855 26.7068 34.3643 26.7017 34.3454 26.6908C34.2895 26.6589 34.2713 26.5903 34.305 26.537C34.6038 26.0663 35.2533 25.9441 35.2809 25.939C35.3439 25.9294 35.4069 25.9671 35.419 26.028C35.4311 26.0886 35.3894 26.1474 35.325 26.1592C35.3193 26.1604 34.7514 26.2686 34.5075 26.6525C34.4856 26.6873 34.4462 26.7068 34.4061 26.7068Z" fill="#0E3944"/>
<path d="M38.8602 26.9841C38.9242 27.2559 38.847 27.5039 38.6877 27.5374C38.5284 27.5712 38.3468 27.3782 38.2825 27.1063C38.2181 26.8344 38.2953 26.5864 38.4549 26.5526C38.6143 26.5191 38.7958 26.7119 38.8602 26.9841Z" fill="#1A4850"/>
<path d="M35.6483 27.6383C35.7126 27.9102 35.6355 28.1582 35.4758 28.1917C35.3165 28.2255 35.1349 28.0325 35.0705 27.7606C35.0062 27.4887 35.0833 27.2407 35.243 27.2069C35.4027 27.1734 35.5839 27.3665 35.6483 27.6383Z" fill="#1A4850"/>
<path d="M36.6875 30.2141C36.6875 30.2141 38.172 30.0995 38.8262 29.5762C38.8262 29.5762 38.646 30.6749 37.8386 30.7508C37.0308 30.8274 36.6875 30.2141 36.6875 30.2141Z" fill="#1A4850"/>
<path d="M38.05 27.0146C38.05 27.0146 38.1022 26.3001 38.3912 26.2892C38.6802 26.2784 39.0265 26.8075 39.0265 26.8075L39.388 26.5145L38.9898 26.6524C38.9898 26.6524 38.6347 26.0994 38.3599 26.1565C37.9688 26.2375 38.05 27.0146 38.05 27.0146Z" fill="#1A4850"/>
<path d="M35.8254 27.5719C35.8254 27.5719 35.4565 26.9467 35.19 27.0536C34.9236 27.1605 34.8488 27.779 34.8488 27.779L34.3896 27.6603L34.8121 27.6239C34.8121 27.6239 34.8845 26.9802 35.1587 26.9209C35.5495 26.836 35.8254 27.5719 35.8254 27.5719Z" fill="#1A4850"/>
<path d="M37.436 28.9451L37.3171 28.7312C37.5094 28.6352 37.5259 28.5053 37.5057 28.414C37.4774 28.2845 37.3663 28.1817 37.2857 28.1757C37.2396 28.1734 37.1999 28.2108 37.1689 28.2886L36.9297 28.2041C37.0321 27.9433 37.2258 27.929 37.3053 27.9344C37.5084 27.9491 37.7062 28.138 37.7563 28.3646C37.8079 28.602 37.6883 28.819 37.436 28.9451Z" fill="#DB614D"/>
<path d="M33.7865 29.3159C33.7865 29.3159 33.0737 26.8312 33.4968 25.0742C33.4968 25.0742 35.5076 22.4217 39.3889 23.7333C39.3889 23.7333 40.5396 25.489 41.1099 27.9462C41.1099 27.9462 41.2548 27.0635 40.8687 25.0978C40.4827 23.132 38.6417 21.9108 36.1169 22.3039C33.5925 22.6971 30.8909 25.0764 33.7865 29.3159Z" fill="#0E3944"/>
<path d="M37.857 23.1822C37.857 23.1822 38.0109 23.8306 37.345 25.5006C37.345 25.5006 36.866 25.0264 36.3051 25.5006C35.7442 25.9748 34.6049 25.8165 34.2162 26.0727C33.8275 26.329 33.8275 26.9149 33.8275 26.9149C33.8275 26.9149 33.4909 26.1854 33.8275 25.3104C33.8275 25.3104 33.0705 26.2218 33.1709 27.3473C33.1709 27.3473 32.1445 27.1903 32.191 25.5858C32.2378 23.9816 34.6447 21.3862 37.345 21.5547C40.0453 21.7229 40.688 25.7731 40.688 25.7731C40.688 25.7731 40.4417 25.5896 40.0564 25.6713C40.0564 25.6713 39.9967 24.8135 39.3897 23.733C39.3897 23.733 39.6693 24.5129 39.3897 25.3544C39.3897 25.3544 38.6375 24.9807 38.0446 25.0975C38.0446 25.0982 38.4108 24.4197 37.857 23.1822Z" fill="#0E3944"/>
<path d="M29.6002 32.9726C30.9143 31.991 31.9376 33.2397 32.1883 34.9661C32.4392 36.6929 30.0627 46.8787 28.2301 46.5034C27.5227 46.3586 27.2344 43.6904 27.2344 43.6904C27.2344 43.6904 27.9512 40.8264 28.4151 36.5157C28.6283 34.5347 28.915 33.4845 29.6002 32.9726Z" fill="#FF8B66"/>
<path d="M25.7765 45.0634C24.0073 43.4659 20.8351 38.167 20.0293 35.4676L21.372 34.9561C21.372 34.9561 25.415 40.4353 27.258 41.8167C29.101 43.1985 29.7491 44.737 28.9261 46.0546C28.1032 47.3722 26.1491 45.3995 25.7765 45.0634Z" fill="#FF8B66"/>
<path d="M20.5799 31.9336C20.4873 33.6664 21.9779 34.0771 21.3167 35.4072C21.1802 35.6816 20.9724 35.8275 20.7565 35.8999C20.3468 36.0371 19.8917 35.9075 19.5862 35.6149C18.8774 34.9365 17.782 34.2175 17.1989 33.9022C16.5359 33.5397 16.9115 33.4411 16.9115 33.4411C16.8472 33.4124 16.7849 33.3884 16.7222 33.3645C16.2493 33.1769 15.871 33.106 16.2139 32.9066C16.5999 32.6794 17.9683 33.1529 17.9683 33.1529C16.1873 32.029 15.7039 32.3031 16.0289 32.0644C16.4726 31.7377 18.166 32.4892 18.2165 32.5118C17.2753 31.669 16.5932 31.4779 16.9664 31.3509C17.3447 31.222 19.2066 32.4994 19.886 32.9787C20.0393 33.0862 20.1329 33.1555 20.1329 33.1555C20.11 31.7396 20.5799 31.9336 20.5799 31.9336Z" fill="#FF8B66"/>
<path d="M19.886 32.9785C20.0393 33.0861 20.1329 33.1553 20.1329 33.1553C20.1329 33.1553 19.8143 33.6633 20.2269 34.3214C20.2269 34.3214 19.469 33.8497 19.886 32.9785Z" fill="#EF6E4B"/>
<path d="M18.3245 33.9742C18.1668 33.8922 17.2684 33.4129 16.911 33.4413C16.8467 33.4126 16.7843 33.3886 16.7217 33.3647C16.9619 33.0644 18.1459 33.8513 18.3245 33.9742Z" fill="#EF6E4B"/>
<path d="M25.3888 59.6872C25.3888 59.8755 25.2278 60.0277 25.0294 60.0277C24.8309 60.0277 24.6699 59.8751 24.6699 59.6872C24.6699 59.4992 24.8309 59.3467 25.0294 59.3467C25.2278 59.3467 25.3888 59.4989 25.3888 59.6872Z" fill="#6097B2"/>
<path d="M31.8028 62.0299C31.8028 62.2182 31.6418 62.3704 31.4434 62.3704C31.245 62.3704 31.084 62.2179 31.084 62.0299C31.084 61.842 31.245 61.6895 31.4434 61.6895C31.6418 61.6895 31.8028 61.842 31.8028 62.0299Z" fill="#6097B2"/>
<path d="M37.2667 63.2878C37.2667 63.4757 37.1057 63.6283 36.9073 63.6283C36.7089 63.6283 36.5479 63.4757 36.5479 63.2878C36.5479 63.0998 36.7089 62.9473 36.9073 62.9473C37.1057 62.9473 37.2667 63.0998 37.2667 63.2878Z" fill="#6097B2"/>
<path d="M28.8702 55.2389C28.8702 55.4272 28.7092 55.5794 28.5108 55.5794C28.3124 55.5794 28.1514 55.4269 28.1514 55.2389C28.1514 55.051 28.3124 54.8984 28.5108 54.8984C28.7092 54.8984 28.8702 55.051 28.8702 55.2389Z" fill="#6097B2"/>
<path d="M29.7208 58.8158C29.9193 58.8158 30.0802 58.6633 30.0802 58.4753C30.0802 58.2872 29.9193 58.1348 29.7208 58.1348C29.5222 58.1348 29.3613 58.2872 29.3613 58.4753C29.3613 58.6633 29.5222 58.8158 29.7208 58.8158Z" fill="#6097B2"/>
<path d="M35.7687 60.321C35.7687 60.5092 35.6076 60.6615 35.4092 60.6615C35.2108 60.6615 35.0498 60.5089 35.0498 60.321C35.0498 60.133 35.2108 59.9805 35.4092 59.9805C35.6076 59.9805 35.7687 60.1327 35.7687 60.321Z" fill="#6097B2"/>
<path d="M36.5489 54.7389C36.5489 54.9269 36.3879 55.0794 36.1895 55.0794C35.9911 55.0794 35.8301 54.9269 35.8301 54.7389C35.8301 54.5507 35.9911 54.3984 36.1895 54.3984C36.3879 54.3984 36.5489 54.551 36.5489 54.7389Z" fill="#6097B2"/>
<path d="M32.4629 53.9173C32.6615 53.9173 32.8224 53.7649 32.8224 53.5768C32.8224 53.3888 32.6615 53.2363 32.4629 53.2363C32.2644 53.2363 32.1035 53.3888 32.1035 53.5768C32.1035 53.7649 32.2644 53.9173 32.4629 53.9173Z" fill="#6097B2"/>
<path d="M22.2071 66.3307C22.2071 66.519 22.0461 66.6712 21.8477 66.6712C21.6493 66.6712 21.4883 66.5187 21.4883 66.3307C21.4883 66.1428 21.6493 65.9902 21.8477 65.9902C22.0461 65.9902 22.2071 66.1428 22.2071 66.3307Z" fill="#6097B2"/>
<path d="M17.0831 64.8815C17.0831 65.0695 16.9221 65.222 16.7237 65.222C16.5253 65.222 16.3643 65.0695 16.3643 64.8815C16.3643 64.6932 16.5253 64.541 16.7237 64.541C16.9221 64.541 17.0831 64.6936 17.0831 64.8815Z" fill="#6097B2"/>
<path d="M14.0291 62.2198C13.9655 62.312 13.8533 62.372 13.7263 62.372C13.5282 62.372 13.3672 62.2198 13.3672 62.0318C13.3672 61.9894 13.3746 61.9505 13.3935 61.915C13.6178 61.9894 13.8273 62.0922 14.0291 62.2198Z" fill="#6097B2"/>
<path d="M23.6837 71.1126C23.8822 71.1126 24.0431 70.9602 24.0431 70.7721C24.0431 70.5841 23.8822 70.4316 23.6837 70.4316C23.4851 70.4316 23.3242 70.5841 23.3242 70.7721C23.3242 70.9602 23.4851 71.1126 23.6837 71.1126Z" fill="#6097B2"/>
<path d="M14.8468 75.6003C14.8468 75.7885 14.6858 75.9408 14.4874 75.9408C14.2889 75.9408 14.1279 75.7882 14.1279 75.6003C14.1279 75.4123 14.2889 75.2598 14.4874 75.2598C14.6858 75.2598 14.8468 75.412 14.8468 75.6003Z" fill="#6097B2"/>
<path d="M18.2442 73.014C18.4427 73.014 18.6036 72.8616 18.6036 72.6735C18.6036 72.4855 18.4427 72.333 18.2442 72.333C18.0457 72.333 17.8848 72.4855 17.8848 72.6735C17.8848 72.8616 18.0457 73.014 18.2442 73.014Z" fill="#6097B2"/>
<path d="M12.6495 70.4251C12.848 70.4251 13.0089 70.2727 13.0089 70.0846C13.0089 69.8966 12.848 69.7441 12.6495 69.7441C12.451 69.7441 12.29 69.8966 12.29 70.0846C12.29 70.2727 12.451 70.4251 12.6495 70.4251Z" fill="#6097B2"/>
<path d="M17.5245 80.2799C17.5245 80.4679 17.3635 80.6204 17.1651 80.6204C16.9667 80.6204 16.8057 80.4679 16.8057 80.2799C16.8057 80.0917 16.9667 79.9395 17.1651 79.9395C17.3635 79.9395 17.5245 80.092 17.5245 80.2799Z" fill="#6097B2"/>
<path d="M20.9484 62.3717C20.9484 62.56 20.7873 62.7122 20.5889 62.7122C20.3902 62.7122 20.2295 62.5597 20.2295 62.3717C20.2295 62.1838 20.3905 62.0313 20.5889 62.0313C20.7873 62.0309 20.9484 62.1835 20.9484 62.3717Z" fill="#6097B2"/>
<path d="M24.4025 56.6354C24.4025 56.8237 24.2414 56.9759 24.043 56.9759C23.8446 56.9759 23.6836 56.8234 23.6836 56.6354C23.6836 56.4475 23.8446 56.2949 24.043 56.2949C24.2414 56.2949 24.4025 56.4475 24.4025 56.6354Z" fill="#6097B2"/>
<path d="M28.3116 51.862C28.3116 52.0499 28.1506 52.2025 27.9522 52.2025C27.7535 52.2025 27.5928 52.0499 27.5928 51.862C27.5928 51.6737 27.7538 51.5215 27.9522 51.5215C28.1506 51.5212 28.3116 51.6737 28.3116 51.862Z" fill="#6097B2"/>
<path d="M20.3888 58.8171C20.3888 59.0053 20.2278 59.1576 20.0294 59.1576C19.8309 59.1576 19.6699 59.005 19.6699 58.8171C19.6699 58.6291 19.8309 58.4766 20.0294 58.4766C20.2278 58.4766 20.3888 58.6288 20.3888 58.8171Z" fill="#6097B2"/>
<path d="M24.7618 53.235C24.7618 53.423 24.6008 53.5755 24.4024 53.5755C24.204 53.5755 24.043 53.423 24.043 53.235C24.043 53.0467 24.204 52.8945 24.4024 52.8945C24.6008 52.8945 24.7618 53.0471 24.7618 53.235Z" fill="#6097B2"/>
<path d="M17.8849 68.571C17.8849 68.7592 17.7239 68.9115 17.5254 68.9115C17.3267 68.9115 17.166 68.7589 17.166 68.571C17.166 68.383 17.327 68.2305 17.5254 68.2305C17.7239 68.2305 17.8849 68.383 17.8849 68.571Z" fill="#6097B2"/>
<path d="M13.3683 65.5632C13.3683 65.7514 13.2073 65.9037 13.0088 65.9037C12.8104 65.9037 12.6494 65.7511 12.6494 65.5632C12.6494 65.3752 12.8104 65.2227 13.0088 65.2227C13.2073 65.2227 13.3683 65.3752 13.3683 65.5632Z" fill="#6097B2"/>
<path d="M26.1075 64.8822C26.306 64.8822 26.4669 64.7297 26.4669 64.5417C26.4669 64.3536 26.306 64.2012 26.1075 64.2012C25.909 64.2012 25.748 64.3536 25.748 64.5417C25.748 64.7297 25.909 64.8822 26.1075 64.8822Z" fill="#6097B2"/>
<path d="M33.5411 66.6712C33.7396 66.6712 33.9005 66.5188 33.9005 66.3307C33.9005 66.1427 33.7396 65.9902 33.5411 65.9902C33.3426 65.9902 33.1816 66.1427 33.1816 66.3307C33.1816 66.5188 33.3426 66.6712 33.5411 66.6712Z" fill="#6097B2"/>
<path d="M33.5411 56.6354C33.5411 56.8237 33.3801 56.9759 33.1817 56.9759C32.9833 56.9759 32.8223 56.8234 32.8223 56.6354C32.8223 56.4475 32.9833 56.2949 33.1817 56.2949C33.3801 56.2949 33.5411 56.4475 33.5411 56.6354Z" fill="#6097B2"/>
<path d="M37.8624 57.3503C37.8624 57.5385 37.7014 57.6908 37.503 57.6908C37.3046 57.6908 37.1436 57.5382 37.1436 57.3503C37.1436 57.1623 37.3046 57.0098 37.503 57.0098C37.7014 57.0098 37.8624 57.1623 37.8624 57.3503Z" fill="#6097B2"/>
<path d="M29.2296 68.9128C29.2296 69.101 29.0686 69.2533 28.8702 69.2533C28.6718 69.2533 28.5107 69.1007 28.5107 68.9128C28.5107 68.7248 28.6718 68.5723 28.8702 68.5723C29.0686 68.5723 29.2296 68.7245 29.2296 68.9128Z" fill="#6097B2"/>
<path d="M25.7481 75.3119C25.9466 75.3119 26.1075 75.1594 26.1075 74.9714C26.1075 74.7833 25.9466 74.6309 25.7481 74.6309C25.5496 74.6309 25.3887 74.7833 25.3887 74.9714C25.3887 75.1594 25.5496 75.3119 25.7481 75.3119Z" fill="#6097B2"/>
<path d="M20.2286 76.2806C20.4271 76.2806 20.588 76.1282 20.588 75.9401C20.588 75.7521 20.4271 75.5996 20.2286 75.5996C20.0301 75.5996 19.8691 75.7521 19.8691 75.9401C19.8691 76.1282 20.0301 76.2806 20.2286 76.2806Z" fill="#6097B2"/>
<path d="M35.4092 71.1126C35.6077 71.1126 35.7687 70.9602 35.7687 70.7721C35.7687 70.5841 35.6077 70.4316 35.4092 70.4316C35.2107 70.4316 35.0498 70.5841 35.0498 70.7721C35.0498 70.9602 35.2107 71.1126 35.4092 71.1126Z" fill="#6097B2"/>
<path d="M30.7999 73.3551C30.7999 73.5434 30.6389 73.6956 30.4405 73.6956C30.2421 73.6956 30.0811 73.5431 30.0811 73.3551C30.0811 73.1672 30.2421 73.0146 30.4405 73.0146C30.6389 73.0146 30.7999 73.1669 30.7999 73.3551Z" fill="#6097B2"/>
<path d="M23.3243 80.9606C23.3243 81.1486 23.1633 81.3011 22.9649 81.3011C22.7662 81.3011 22.6055 81.1486 22.6055 80.9606C22.6055 80.7723 22.7665 80.6201 22.9649 80.6201C23.1633 80.6201 23.3243 80.7723 23.3243 80.9606Z" fill="#6097B2"/>
<path d="M28.5108 79.5277C28.7093 79.5277 28.8702 79.3752 28.8702 79.1872C28.8702 78.9991 28.7093 78.8467 28.5108 78.8467C28.3123 78.8467 28.1514 78.9991 28.1514 79.1872C28.1514 79.3752 28.3123 79.5277 28.5108 79.5277Z" fill="#6097B2"/>
<path d="M33.8536 77.5208C34.0521 77.5208 34.213 77.3684 34.213 77.1803C34.213 76.9923 34.0521 76.8398 33.8536 76.8398C33.6551 76.8398 33.4941 76.9923 33.4941 77.1803C33.4941 77.3684 33.6551 77.5208 33.8536 77.5208Z" fill="#6097B2"/>
<path d="M31.8028 83.0397C31.8028 83.228 31.6418 83.3802 31.4434 83.3802C31.245 83.3802 31.084 83.2277 31.084 83.0397C31.084 82.8518 31.245 82.6992 31.4434 82.6992C31.6418 82.6992 31.8028 82.8514 31.8028 83.0397Z" fill="#6097B2"/>
<path d="M31.4099 100.975H25.5044C25.119 99.9335 25.8298 98.8884 25.7102 97.9707C25.5044 96.4188 26.458 97.2763 26.458 97.2763C26.6265 95.6076 29.1024 95.2923 29.0761 96.0362C29.035 97.1311 29.2594 97.8076 29.5885 98.2611C30.2541 99.1715 31.3462 99.1645 31.5332 99.8164C31.5521 99.8802 31.5669 99.9441 31.578 100.001C31.7613 100.816 31.4099 100.975 31.4099 100.975Z" fill="#164353"/>
<path d="M31.5787 100.002C30.3555 100.271 27.5357 99.9202 27.4235 99.2468C27.315 98.5949 28.8336 98.2901 29.5888 98.2617C30.2545 99.1722 31.3466 99.1651 31.5335 99.8171C31.5527 99.8809 31.5676 99.9447 31.5787 100.002Z" fill="#205260"/>
<path d="M7.13237 57.6419C6.50412 57.0997 5.48309 57.9961 5.48309 57.9961C5.48309 57.9961 6.03285 58.7683 5.67746 59.0801C5.32207 59.3919 4.91077 58.6796 4.21144 58.9914C4.15519 59.0163 4.09556 59.0482 4.03931 59.0836C3.49325 59.3919 2.92463 60.0403 2.46482 60.5327C2.37117 60.632 2.28156 60.7242 2.19937 60.8056C1.66443 61.3369 0.284647 61.6487 0.0262745 60.2315C-0.231761 58.8143 1.4512 57.1526 3.29888 55.6257C5.14657 54.0987 6.3394 55.0056 6.3394 55.0056C6.3394 55.0056 6.75812 55.6471 6.75812 56.0472C6.75812 56.4439 7.13203 56.6424 7.34156 57.0215C7.55142 57.3974 7.13237 57.6419 7.13237 57.6419Z" fill="#164353"/>
<path d="M4.03927 59.0836C3.49321 59.3919 2.92459 60.0403 2.46478 60.5327C1.77286 60.6884 1.15203 60.6425 1.05467 60.026C0.818869 58.5379 3.95303 56.6459 3.70274 57.691C3.57574 58.2156 3.79268 58.715 4.03927 59.0836Z" fill="#205260"/>
<path d="M113.395 98.5567C113.103 98.4119 112.835 98.0934 112.594 97.6907C112.594 97.6907 112.386 96.4994 112.594 95.2481C112.801 93.9966 112.226 92.9748 110.356 92.5909C108.538 92.2178 107.459 93.0475 107.879 96.5099L107.879 96.5112C107.603 97.9495 107.546 99.592 108.177 100.976H113.773C113.773 100.976 114.655 99.1838 113.395 98.5567Z" fill="#CFD8DC"/>
<path d="M118.304 79.8958C118.304 79.8958 118.304 83.3502 116.247 86.8931C114.152 90.501 111.563 95.4524 111.563 95.4524C111.563 95.4524 109.837 97.047 108.741 94.4057C108.741 94.4057 109.515 85.2101 111.292 81.844C113.068 78.4786 118.304 79.8958 118.304 79.8958Z" fill="#FF8B66"/>
<path d="M145.139 68.6465C145.139 68.6465 148.472 81.9249 150.592 85.4275C150.592 85.4275 150.104 86.8929 147.809 87.3359C147.809 87.3359 140.557 77.2384 140.09 72.9868C139.622 68.7349 145.139 68.6465 145.139 68.6465Z" fill="#FF8B66"/>
<path d="M146.751 71.7669C145.865 73.7898 139.017 73.8999 139.017 73.8999L138.493 73.17L138.355 72.9789L137.285 71.4838C137.285 71.4838 125.938 60.9399 123.727 61.8254H123.724C123.66 61.8538 123.597 61.8858 123.537 61.9282C122.018 62.9558 121.876 68.5856 120.081 78.0346C119.909 78.931 119.527 79.9761 119.239 80.6989C119.206 80.7768 119.176 80.8515 119.146 80.9223C118.981 81.3228 118.865 81.5778 118.865 81.5778C111.939 84.2351 109.653 78.9843 109.653 78.9843C109.653 78.9843 109.736 78.8321 109.855 78.5877C109.881 78.5344 109.911 78.4744 109.941 78.4106C110.304 77.6523 110.884 76.3379 110.876 75.6435C110.869 74.8818 110.861 74.1484 110.858 73.4432C110.858 73.3794 110.858 73.3191 110.854 73.2591C110.843 70.9879 110.846 69.0145 110.861 67.2999V67.1193C110.869 66.3716 110.88 65.6737 110.895 65.0217V64.8376C110.955 61.851 111.056 59.8562 111.164 58.5274C111.168 58.4671 111.175 58.4032 111.179 58.3468C111.37 56.111 111.572 55.8915 111.572 55.8915L110.185 46.7539H125.324C125.324 46.7539 127.598 48.9115 130.549 51.7602C130.613 51.817 130.672 51.8735 130.732 51.9338C131.802 52.9649 132.957 54.0843 134.117 55.2217C134.165 55.2676 134.21 55.3101 134.252 55.3528C134.708 55.7993 135.164 56.2457 135.617 56.6886C135.673 56.7416 135.725 56.7984 135.781 56.8517C137.3 58.3432 138.773 59.8137 140.034 61.0998C140.079 61.1422 140.12 61.185 140.161 61.2274C141.885 62.9953 143.198 64.409 143.651 65.068C144.851 66.8075 145.786 69.0716 146.303 70.4709C146.303 70.4709 146.303 70.471 146.303 70.4745C146.329 70.5383 146.351 70.5951 146.374 70.6551C146.616 71.3348 146.751 71.7669 146.751 71.7669Z" fill="#8B383E"/>
<path d="M113.838 57.2579C113.221 57.9488 112.323 58.3738 111.164 58.5264C111.168 58.4661 111.175 58.4022 111.179 58.3457C112.271 58.197 113.117 57.793 113.696 57.1411C114.736 55.9789 114.568 54.4095 114.564 54.3954L114.751 54.374C114.758 54.4414 114.93 56.0357 113.838 57.2579Z" fill="#662C33"/>
<path d="M130.732 51.9332C130.672 51.9367 130.616 51.9402 130.556 51.9402C128.873 51.9402 127.115 50.1972 127.025 50.1085L127.16 49.9844C127.183 50.0093 128.933 51.7453 130.549 51.7593C130.612 51.8164 130.672 51.8729 130.732 51.9332Z" fill="#662C33"/>
<path d="M119.238 80.6989C119.205 80.7767 119.175 80.8514 119.145 80.9222C118.023 81.3119 116.994 81.4714 116.055 81.4714C113.063 81.4714 110.991 79.8309 109.854 78.5873C109.881 78.534 109.911 78.474 109.94 78.4102C111.396 80.0255 114.504 82.41 119.238 80.6989Z" fill="#662C33"/>
<path d="M123.305 58.5338C123.555 59.5505 123.716 60.6597 123.723 61.8251C123.66 61.8535 123.596 61.8854 123.536 61.9279C123.529 56.5779 120.26 52.4042 120.223 52.3582L120.372 52.252C120.402 52.2874 122.339 54.7675 123.256 58.3496C123.637 58.1122 123.895 57.772 124.004 57.3329C124.475 55.4553 122.332 52.3869 122.313 52.355L122.466 52.2558C122.556 52.3869 124.673 55.4198 124.187 57.3719C124.06 57.8818 123.761 58.2679 123.305 58.5338Z" fill="#662C33"/>
<path d="M140.161 61.2265C139.603 61.8006 139.08 62.2894 139.031 62.3319L138.93 62.4276L138.882 62.3C138.149 60.4823 133.436 56.5425 133.387 56.5036L133.331 56.4538L134.117 55.2207C134.165 55.2667 134.21 55.3091 134.251 55.3519L133.593 56.3864C134.509 56.6877 135.16 56.7407 135.616 56.6877C135.673 56.7407 135.725 56.7975 135.781 56.8507C135.628 56.8756 135.463 56.8897 135.291 56.8897C134.868 56.8897 134.386 56.8083 133.844 56.6523C134.913 57.5662 138.238 60.4858 139.001 62.112C139.297 61.8357 139.671 61.4709 140.034 61.0988C140.078 61.1416 140.119 61.184 140.161 61.2265Z" fill="#662C33"/>
<path d="M114.302 73.4103L114.227 73.4243C114.156 73.4422 113.307 73.6085 112.331 73.6085C111.841 73.6085 111.324 73.566 110.857 73.4419C110.857 73.378 110.857 73.3177 110.854 73.2577C112.088 73.5944 113.737 73.3356 114.111 73.2683L113.797 65.8954C113.621 66.2994 113.274 66.8521 112.623 67.1566C112.312 67.3053 111.964 67.3761 111.583 67.3761C111.355 67.3761 111.116 67.3512 110.861 67.2982V67.1176C111.508 67.2593 112.069 67.2204 112.537 66.997C113.33 66.6249 113.644 65.8277 113.741 65.5125C113.117 65.6009 111.856 65.2999 110.895 65.0201V64.8359C111.931 65.1337 113.333 65.4774 113.838 65.3108L113.958 65.2718L114.302 73.4103Z" fill="#662C33"/>
<path d="M146.372 70.6546C145.284 71.6713 143.055 73.2267 139.625 73.2267C139.262 73.2267 138.885 73.2091 138.492 73.1698L138.354 72.9787C142.524 73.4322 145.138 71.5791 146.301 70.4736C146.327 70.5378 146.35 70.5943 146.372 70.6546Z" fill="#662C33"/>
<path d="M128.121 7.90593C128.121 7.90593 127.705 6.99837 125.948 6.99805C124.593 6.99773 124.075 7.70649 124.075 7.70649C123.264 9.95051 122.393 18.5421 122.082 18.8478C121.924 19.0029 111.876 25.4133 111.876 25.4133C117.328 25.51 120.73 31.877 120.73 31.877C120.907 29.7849 127.064 21.4942 127.13 20.7548C127.255 19.3606 129.86 13.1321 128.121 7.90593Z" fill="#CE364C"/>
<path d="M110.679 52.8289C110.679 52.8289 110.628 54.6214 111.24 54.7395C111.852 54.8575 116.839 56.2537 122.574 53.7844C128.308 51.3147 129.306 49.4843 127.623 48.1261C125.94 46.7679 110.679 52.8289 110.679 52.8289Z" fill="#CE364C"/>
<path d="M108.382 26.6527C108.382 26.6527 103.164 26.0671 100.172 27.2938C100.172 27.2938 99.3377 30.8016 103.448 38.6512C107.558 46.5011 106.605 51.4452 111.241 53.3063C115.351 54.9564 127.468 50.0462 127.848 48.4177C128.806 44.3184 121.397 37.1239 120.929 32.955C120.462 28.7863 116.161 22.5186 108.382 26.6527Z" fill="#F24052"/>
<path d="M100.172 27.295C96.525 28.5217 92.4227 32.4002 92.417 34.2696C92.4113 36.139 95.8385 36.8599 95.8385 36.8599L101.458 34.2696C101.458 34.2696 103.065 33.2066 102.042 30.108C101.018 27.0097 100.172 27.295 100.172 27.295Z" fill="#CE364C"/>
<path d="M115.154 30.7508C114.064 30.7508 112.713 30.3791 111.873 29.812C111.41 29.4996 111.134 29.1473 111.075 28.7927C110.868 27.5657 112.13 26.9419 112.184 26.916L112.354 27.2313C112.31 27.2527 111.281 27.7665 111.444 28.7369C111.487 28.9954 111.711 29.2673 112.09 29.5232C113.03 30.1582 114.656 30.5306 115.715 30.3539C116.192 30.2741 116.504 30.1113 116.643 29.8707C116.812 29.5762 116.667 29.243 116.666 29.2395L117.009 29.0994C117.018 29.1192 117.227 29.5883 116.973 30.0354C116.779 30.3778 116.377 30.6021 115.78 30.702C115.586 30.7352 115.375 30.7508 115.154 30.7508Z" fill="#CFD8DC"/>
<path d="M110.529 34.4906C109.723 34.4906 108.383 34.1718 108.195 32.917C108.1 32.2784 108.161 31.7458 108.215 31.2761C108.295 30.5843 108.359 30.0376 107.933 29.3828C107.231 28.3019 106.274 28.2292 106.233 28.2266L106.256 27.873C106.304 27.8756 107.442 27.9519 108.252 29.1971C108.744 29.9556 108.668 30.6159 108.587 31.3147C108.533 31.7857 108.477 32.2727 108.565 32.8672C108.768 34.2212 110.59 34.1363 110.667 34.1325L110.689 34.4861C110.639 34.489 110.585 34.4906 110.529 34.4906Z" fill="#CFD8DC"/>
<path d="M111.666 28.1308C111.666 28.1308 114.424 26.3511 113.77 24.4246C113.115 22.4981 104.233 22.6308 101.942 24.9339C99.6511 27.2369 106.897 28.7655 106.897 28.7655C107.458 27.6945 111.042 27.5765 111.666 28.1308Z" fill="#CE364C"/>
<path d="M106.706 27.8296C105.397 27.4087 104.621 26.5139 104.902 25.4803C105.183 24.447 110.809 24.4195 111.876 25.2451C112.943 26.0709 111.44 29.3521 106.706 27.8296Z" fill="#A02E44"/>
<path d="M106.084 24.9262C106.084 24.9262 107.242 26.8 106.707 27.8304C106.707 27.8304 110.679 29.1296 110.679 27.024C110.679 27.024 109.931 25.446 110.213 24.4258L106.084 24.9262Z" fill="#EF6E4B"/>
<path d="M104.759 23.2886C104.759 23.2886 102.808 20.3275 102.988 17.4988C103.079 16.0845 103.847 15.5305 103.847 15.5305C103.847 15.5305 103.227 14.7142 103.891 13.4668C103.891 13.4668 104.81 14.4746 108.037 14.1567C111.148 13.8504 111.458 15.9514 111.458 15.9514C113.682 16.2645 112.182 22.6372 110.63 23.2889L104.759 23.2886Z" fill="#FFB878"/>
<path d="M103.931 20.5542C103.931 20.5542 102.809 19.4938 102.671 20.7335C102.511 22.1699 103.888 22.7484 104.157 22.2914C104.426 21.8345 103.931 20.5542 103.931 20.5542Z" fill="#FF8B66"/>
<path d="M111.786 20.6294C111.786 20.6294 112.908 19.5689 113.046 20.8087C113.206 22.2451 111.829 22.8236 111.56 22.3666C111.29 21.91 111.786 20.6294 111.786 20.6294Z" fill="#FF8B66"/>
<path d="M107.739 25.7579C105.25 25.7579 103.846 24.2175 103.846 19.5983C103.846 17.2155 105.125 15.7539 107.914 15.7539C110.702 15.7539 111.876 17.2155 111.876 19.5983C111.876 24.5618 110.311 25.7579 107.739 25.7579Z" fill="#FF8B66"/>
<path d="M111.052 21.245C111.096 21.4821 110.878 21.716 110.565 21.7677C110.252 21.8194 109.963 21.6691 109.92 21.4323C109.876 21.1952 110.094 20.9613 110.407 20.9096C110.72 20.8579 111.009 21.0082 111.052 21.245Z" fill="#DB614D"/>
<path d="M105.932 21.3739C105.915 21.6139 105.645 21.7926 105.328 21.7731C105.011 21.7536 104.767 21.543 104.784 21.3031C104.801 21.0631 105.071 20.8841 105.388 20.9038C105.705 20.9233 105.948 21.1336 105.932 21.3739Z" fill="#DB614D"/>
<path d="M109.956 18.7673C109.924 18.7721 109.89 18.7647 109.862 18.7443C109.466 18.4558 108.871 18.5579 108.862 18.5592C108.796 18.5694 108.73 18.5292 108.717 18.4651C108.704 18.4009 108.749 18.3396 108.817 18.3275C108.842 18.3221 109.53 18.2053 110.013 18.5576C110.068 18.5972 110.078 18.6712 110.036 18.7229C110.016 18.7478 109.987 18.7628 109.956 18.7673Z" fill="#FFB878"/>
<path d="M105.192 18.7844C105.161 18.7809 105.132 18.7665 105.111 18.7423C105.068 18.6918 105.075 18.6175 105.128 18.5763C105.6 18.2103 106.29 18.3073 106.317 18.3118C106.385 18.322 106.431 18.382 106.421 18.4461C106.41 18.5106 106.344 18.5533 106.279 18.5447C106.275 18.5431 105.669 18.4614 105.286 18.7588C105.258 18.7799 105.224 18.7882 105.192 18.7844Z" fill="#FFB878"/>
<path d="M109.699 20.0987C109.699 20.3914 109.56 20.6291 109.388 20.6288C109.216 20.6288 109.077 20.3914 109.077 20.0987C109.077 19.8058 109.216 19.5684 109.388 19.5684C109.56 19.5684 109.699 19.8058 109.699 20.0987Z" fill="#1A4850"/>
<path d="M106.374 20.0987C106.374 20.3914 106.235 20.6291 106.063 20.6288C105.891 20.6288 105.752 20.3914 105.752 20.0987C105.752 19.8058 105.891 19.5684 106.063 19.5684C106.235 19.5684 106.374 19.8058 106.374 20.0987Z" fill="#1A4850"/>
<path d="M104.61 16.2643C104.61 16.2643 107.263 17.1843 111.066 16.9255C111.066 16.9255 111.877 17.8828 111.778 21.2613C111.778 21.2613 114.005 15.1758 107.504 15.1758C101.004 15.1758 103.932 21.1263 103.932 21.1263C103.932 21.1263 103.401 17.4045 104.61 16.2643Z" fill="#FFB878"/>
<path d="M107.897 21.6741L107.711 21.4963L108.203 21.033C107.726 20.3935 107.728 18.9137 107.729 18.8477L107.994 18.8489C107.994 18.8649 107.991 20.457 108.478 20.9573L108.565 21.046L107.897 21.6741Z" fill="#DB614D"/>
<path d="M106.246 22.4453C106.246 22.4453 108.696 22.5433 109.933 22.2334C109.933 22.2334 110.151 23.9212 108.253 24.0048C106.246 24.0932 106.246 22.4453 106.246 22.4453Z" fill="#1A4850"/>
<path d="M116.715 28.8245C117.183 28.7422 117.136 29.9012 116.715 29.5652C116.294 29.2295 116.248 28.9068 116.715 28.8245Z" fill="#CFD8DC"/>
<path d="M111.077 34.4419C111.006 34.8874 109.865 34.4655 110.338 34.199C110.811 33.9326 111.148 33.9964 111.077 34.4419Z" fill="#CFD8DC"/>
<path d="M106.058 36.8594C106.058 36.8594 105.315 38.6627 105.358 39.6816C105.4 40.7006 105.752 40.5675 105.752 40.5675C105.752 40.5675 105.189 40.7775 105.082 41.3647C104.976 41.9518 106.541 42.3833 106.648 42.3833C106.756 42.3833 107.86 41.9847 107.86 41.9847L108.092 38.6522L107.114 38.0704L106.058 36.8594Z" fill="#EF6E4B"/>
<path d="M106.648 36.627C106.648 36.627 108 37.4241 108.523 37.9114C109.047 38.3987 108.748 42.163 108.523 42.3401C108.299 42.5172 106.576 42.8826 106.245 42.6777C105.915 42.4728 106.374 41.3658 106.374 41.3658C106.374 41.3658 107.239 41.1887 107.114 41.4986C106.99 41.8088 107.114 42.0743 107.114 42.0743L107.47 41.9415C107.47 41.9415 107.295 41.1 107.47 40.48C107.644 39.8599 106.251 39.206 106.083 38.0716C105.914 36.9368 106.648 36.627 106.648 36.627Z" fill="#FF8B66"/>
<path d="M92.6419 34.7924C92.2091 33.0223 94.0638 32.3958 96.6438 32.6977C99.6358 33.0478 105.78 33.7891 107.116 36.86C107.116 36.86 107.552 38.071 106.423 38.6528C103.267 40.279 93.4544 38.1173 92.6419 34.7924Z" fill="#CE364C"/>
<path d="M102.001 33.6196C102.001 33.6196 98.4356 32.2164 96.6589 32.0741C94.8823 31.9321 99.1153 33.4026 102.001 33.6196Z" fill="#A02E44"/>
<path d="M128.731 3.20695C128.462 3.49734 128.017 4.62766 128.017 4.62766C127.83 5.57703 127.722 6.10165 127.37 6.53725C127.022 6.97316 127.205 7.74191 127.205 7.74191C127.205 7.74191 125.844 8.4044 124.699 7.58586C124.699 7.58586 124.819 6.82413 124.699 6.60809C124.464 6.17601 123.708 5.9456 123.45 5.0741C123.192 4.19908 122.418 3.2245 122.418 3.2245C122.418 3.2245 122.639 2.77104 123.043 3.04739C123.45 3.32726 123.708 4.02516 123.929 4.09601C123.974 4.11005 124.019 4.1209 124.064 4.12441C124.064 4.12441 124.067 4.12441 124.075 4.12792C124.243 4.1493 124.415 4.11388 124.52 4.01814C124.527 4.01463 124.539 4.00761 124.546 3.99676C124.916 3.58925 125.002 2.39161 124.987 1.85677C124.965 1.11291 124.995 0.0853535 125.473 0.258953C125.952 0.432552 125.514 0.847085 125.885 2.48766L126.064 2.50904C126.098 2.62584 126.427 1.5134 126.505 0.468293C126.562 -0.250996 127.059 0.0148287 127.167 0.241401C127.28 0.468293 127.111 1.18375 127.078 1.70455C127.051 2.04824 127.022 2.40597 127.003 2.61882L127.213 2.72859C127.968 1.48149 127.71 0.964199 128.151 0.939308C128.589 0.914416 128.432 1.96686 128.196 2.36704C128.095 2.54064 127.998 2.90187 127.919 3.25641C128.693 2.40948 128.607 1.96686 128.963 2.01984C129.33 2.07664 129.001 2.91623 128.731 3.20695Z" fill="#FF8B66"/>
<path d="M125.388 5.15842C125.126 4.47455 124.191 4.16278 124.075 4.12735C124.244 4.14874 124.415 4.11331 124.52 4.01758C125.436 4.40722 125.388 5.15842 125.388 5.15842Z" fill="#EF6E4B"/>
<path d="M109.141 95.7788C109.141 95.7788 108.624 94.7784 109.085 94.3485C109.546 93.9187 110.089 94.7158 110.877 94.5387C111.666 94.3616 111.848 93.8309 112.053 94.5537C112.258 95.2769 112.009 97.5502 109.141 95.7788Z" fill="#CFD8DC"/>
<path d="M112.108 95.7344C112.108 95.7344 109.991 96.4447 108.894 95.7344L109.172 96.6024C109.172 96.6024 111.473 96.8331 111.791 96.2839L112.108 95.7344Z" fill="#ADBEC4"/>
<path d="M112.079 96.8131C112.079 96.8131 110.141 96.5585 109.206 97.0142V97.4447C109.206 97.4447 111.733 96.8859 112.55 97.4447L112.079 96.8131Z" fill="#ADBEC4"/>
<path d="M109.113 98.3386C109.113 98.3386 109.489 97.4709 110.668 97.4087C111.847 97.3465 112.643 97.9614 112.643 97.9614C112.643 97.9614 110.773 97.2316 109.113 98.3386Z" fill="#ADBEC4"/>
<path d="M158.999 86.2835C155.278 90.9885 150.214 91.892 150.214 91.892C148.744 90.7795 148.706 89.4616 148.706 89.4616C148.706 89.4616 147.289 88.2639 147.102 87.6901C146.915 87.1161 148.317 85.3871 149.159 85.5645C149.739 85.6848 150.075 86.1243 150.228 86.3831C149.533 84.8985 150.09 84.3812 151.077 84.5089C152.106 84.64 151.133 84.8704 151.87 85.6532C151.922 85.71 151.982 85.756 152.046 85.7984C152.181 85.8871 152.341 85.9471 152.525 85.979C152.685 86.0074 152.865 86.0145 153.052 86.0039C153.149 86.0004 153.25 85.9899 153.351 85.9755C153.542 85.9471 153.736 85.9012 153.938 85.8409C154.249 85.7487 154.57 85.6178 154.884 85.4547C156.171 84.7887 156.713 84.5619 157.693 84.7993C158.669 85.0332 158.654 85.7346 158.654 85.7346L158.999 86.2835Z" fill="#CFD8DC"/>
<path d="M158.999 86.2833C155.278 90.9884 150.214 91.8918 150.214 91.8918C152.798 90.8397 155.173 89.4614 156.796 87.764C158.416 86.0673 158.999 86.2833 158.999 86.2833Z" fill="#ADBEC4"/>
<path d="M152.047 85.7988C152.182 85.8875 152.343 85.9475 152.526 85.9795C151.543 86.1671 151.471 87 151.471 87L151.053 86.8723C151.142 85.8732 151.976 85.8023 152.047 85.7988Z" fill="#ADBEC4"/>
<path d="M152.709 87.0993L152.272 87.1133C152.107 86.5252 152.32 86.1745 152.526 85.9795C152.687 86.0079 152.866 86.0149 153.053 86.0044C152.533 86.4898 152.709 87.0993 152.709 87.0993Z" fill="#ADBEC4"/>
<path d="M153.79 86.8729L153.356 86.9258C153.188 86.5078 153.237 86.196 153.352 85.9765C153.543 85.9481 153.738 85.9021 153.94 85.8418C153.581 86.3486 153.79 86.8729 153.79 86.8729Z" fill="#ADBEC4"/>
<path d="M112.145 43.1813C112.145 43.1813 113.106 48.0912 111.163 50.0477C109.221 52.0042 110.506 50.3965 111.085 47.8739C111.665 45.3513 111.223 42.694 112.145 43.1813Z" fill="#CE364C"/>
<path d="M121.109 40.9906C121.109 40.9906 124.171 41.9434 125.772 44.6221C125.772 44.6221 123.634 40.2607 121.109 40.9906Z" fill="#CE364C"/>
<path d="M41.5945 4.51004C42.0024 4.51611 43.1855 4.96223 43.1855 4.96223C44.0539 5.46835 44.537 5.74439 45.114 5.79002C45.6884 5.83853 45.9242 6.77322 45.9242 6.77322C45.9242 6.77322 48.1896 7.24264 48.3176 5.88958C48.3176 5.88958 47.0513 4.19157 46.9624 3.96244C46.7825 3.50674 47.1093 2.82192 46.6009 2.0554C46.0896 1.28665 45.847 0.0890088 45.847 0.0890088C45.847 0.0890088 45.3441 -0.060338 45.2892 0.408763C45.2346 0.88297 45.6072 1.53269 45.5146 1.73533C45.4954 1.77618 45.4738 1.81511 45.4465 1.84893C45.4465 1.84893 45.4442 1.85149 45.4418 1.85915C45.3455 1.99158 45.2023 2.08859 45.0571 2.09785C45.0494 2.10072 45.0362 2.10391 45.0227 2.10199C44.4555 2.08859 43.4607 1.34473 43.0524 0.975195C42.4855 0.459822 41.6615 -0.208726 41.4759 0.24378C41.2903 0.696606 41.9085 0.667565 42.9433 2.0286L42.8395 2.16901C42.9083 2.27113 41.8172 1.75543 40.9467 1.1089C40.3464 0.665333 40.2204 1.19315 40.3249 1.42132C40.4269 1.65236 41.1 2.01456 41.5298 2.34069C41.8162 2.55291 42.1163 2.77214 42.2952 2.90202L42.2406 3.12285C40.7577 2.81586 40.5263 2.2874 40.2107 2.58067C39.8974 2.87106 40.8261 3.46749 41.2977 3.57089C41.5012 3.61652 41.8495 3.79076 42.1793 3.97361C40.9969 3.94872 40.7082 3.59099 40.5115 3.87596C40.3087 4.17146 41.1866 4.50398 41.5945 4.51004Z" fill="#FF8B66"/>
<path d="M45.3667 3.47315C45.0076 2.83013 45.3913 1.96436 45.4415 1.85938C45.3451 1.99181 45.2019 2.08882 45.0568 2.09807C44.7462 3.00277 45.3667 3.47315 45.3667 3.47315Z" fill="#EF6E4B"/>
<path d="M108.245 4.51004C107.837 4.51611 106.654 4.96223 106.654 4.96223C105.785 5.46835 105.302 5.74439 104.725 5.79002C104.151 5.83853 103.915 6.77322 103.915 6.77322C103.915 6.77322 101.649 7.24264 101.521 5.88958C101.521 5.88958 102.788 4.19157 102.877 3.96244C103.057 3.50674 102.73 2.82192 103.238 2.0554C103.749 1.28665 103.992 0.0890088 103.992 0.0890088C103.992 0.0890088 104.495 -0.060338 104.55 0.408763C104.604 0.88297 104.232 1.53269 104.325 1.73533C104.344 1.77618 104.365 1.81511 104.393 1.84893C104.393 1.84893 104.395 1.85149 104.398 1.85915C104.494 1.99158 104.637 2.08859 104.782 2.09785C104.79 2.10072 104.803 2.10391 104.817 2.10199C105.384 2.08859 106.379 1.34473 106.787 0.975195C107.354 0.459822 108.178 -0.208726 108.364 0.24378C108.549 0.696606 107.931 0.667565 106.896 2.0286L107 2.16901C106.931 2.27113 108.023 1.75543 108.893 1.1089C109.493 0.665333 109.619 1.19315 109.515 1.42132C109.413 1.65236 108.74 2.01456 108.31 2.34069C108.024 2.55291 107.723 2.77214 107.545 2.90202L107.599 3.12285C109.082 2.81586 109.313 2.2874 109.629 2.58067C109.942 2.87106 109.014 3.46749 108.542 3.57089C108.339 3.61652 107.99 3.79076 107.66 3.97361C108.842 3.94872 109.132 3.59099 109.328 3.87596C109.53 4.17146 108.653 4.50398 108.245 4.51004Z" fill="#FF8B66"/>
<path d="M104.472 3.47315C104.831 2.83013 104.448 1.96436 104.397 1.85938C104.494 1.99181 104.637 2.08882 104.782 2.09807C105.093 3.00277 104.472 3.47315 104.472 3.47315Z" fill="#EF6E4B"/>
<path d="M88.3362 69.5606L83.9843 44.0342L75.2703 44.9561L66.5564 44.0342L62.2045 69.5606L60.1143 94.318C60.1143 94.318 60.7789 96.3693 65.1257 94.9521C65.1257 94.9521 68.3509 71.9891 68.8494 71.4833C69.348 70.9775 74.4693 55.9787 74.4693 55.9787H76.0711C76.0711 55.9787 81.192 70.9775 81.6909 71.4833C82.1895 71.9891 85.4146 94.9521 85.4146 94.9521C89.7618 96.3693 90.4261 94.318 90.4261 94.318L88.3362 69.5606Z" fill="#0E3944"/>
<path d="M72.5243 19.3145C73.0747 19.8218 75.7827 20.7374 77.2127 19.3145L78.1822 20.2166C78.1822 20.2166 77.0766 22.6795 75.1366 22.7657C73.1963 22.8519 71.7939 20.5743 71.7939 20.5743L72.5243 19.3145Z" fill="#0C476B"/>
<path d="M80.1943 19.0365C83.4356 17.7144 93.9076 14.2007 93.9076 14.2007C93.9076 14.2007 100.947 5.84555 102.383 4.60547C102.383 4.60547 103.941 4.87129 104.398 6.70908C104.398 6.70908 99.8644 15.9041 97.4006 18.5365C94.9364 21.1689 82.4567 26.8622 82.4567 26.8622L80.1943 19.0365Z" fill="#0C476B"/>
<path d="M68.8499 18.8474C69.8144 18.2698 74.6554 21.3378 74.6554 21.3378C74.6554 21.3378 80.9493 18.1716 82.4265 18.7849C82.4265 18.7849 83.7578 20.4724 84.2924 24.8105C84.8273 29.1485 84.8627 47.0005 84.8627 47.0005C84.8627 47.0005 80.631 48.4187 74.9074 48.4187C68.3824 48.4187 64.8719 46.646 64.8719 46.646C64.8719 46.646 63.7074 21.9285 68.8499 18.8474Z" fill="#FFB878"/>
<path d="M72.7812 18.3838C72.7812 18.3838 73.4782 20.4609 72.7812 21.2613C72.7812 21.2613 73.5052 22.7002 74.8065 22.764C76.3099 22.8374 76.8313 21.2613 76.8313 21.2613C76.8313 21.2613 76.0363 19.255 76.8313 18.55L72.7812 18.3838Z" fill="#EF6E4B"/>
<path d="M71.0428 16.3391C71.0428 16.3391 69.5758 13.6642 69.8662 10.8056C70.1565 7.94726 74.7032 7.29179 77.7669 8.69622C77.7669 8.69622 76.8574 7.85376 77.2135 7.61952C77.5695 7.38561 78.1829 8.88354 78.1829 8.88354C78.1829 8.88354 79.1508 8.60272 79.299 8.88354C79.4472 9.16468 78.3076 9.31818 78.3076 9.31818C78.3076 9.31818 80.2846 10.3569 78.4376 15.885L71.0428 16.3391Z" fill="#8B383E"/>
<path d="M70.8222 14.6452C70.8222 14.6452 69.7284 13.6112 69.5936 14.8201C69.4377 16.2207 70.7804 16.7849 71.0428 16.3394C71.3052 15.8936 70.8222 14.6452 70.8222 14.6452Z" fill="#FF8B66"/>
<path d="M78.4814 14.7186C78.4814 14.7186 79.5751 13.6843 79.7099 14.8934C79.8658 16.294 78.5231 16.8582 78.2607 16.4128C77.9983 15.967 78.4814 14.7186 78.4814 14.7186Z" fill="#FF8B66"/>
<path d="M74.537 19.7176C72.1099 19.7176 70.7402 18.2159 70.7402 13.7116C70.7402 11.3881 71.988 9.96289 74.7068 9.96289C77.4253 9.96289 78.5702 11.3881 78.5702 13.7116C78.5702 18.5516 77.0443 19.7176 74.537 19.7176Z" fill="#FF8B66"/>
<path d="M77.7653 15.3185C77.8081 15.5495 77.5952 15.7777 77.29 15.8281C76.9848 15.8785 76.7032 15.732 76.6607 15.501C76.618 15.27 76.8309 15.0418 77.1361 14.9914C77.4409 14.941 77.7229 15.0874 77.7653 15.3185Z" fill="#DB614D"/>
<path d="M72.7741 15.4444C72.758 15.6786 72.4945 15.8528 72.1853 15.8337C71.8764 15.8146 71.6389 15.6094 71.6551 15.3751C71.6712 15.1412 71.9347 14.9667 72.2439 14.9858C72.5528 15.005 72.7903 15.2101 72.7741 15.4444Z" fill="#DB614D"/>
<path d="M76.6565 12.9809C76.6245 12.9809 76.5929 12.9691 76.5689 12.9455C76.2324 12.6114 75.6436 12.6257 75.6348 12.6257C75.5691 12.626 75.5119 12.5778 75.5098 12.5143C75.5075 12.4508 75.56 12.3979 75.6271 12.396C75.653 12.3944 76.3341 12.3794 76.7441 12.7869C76.7903 12.8328 76.7886 12.9056 76.7404 12.9493C76.7168 12.9707 76.6865 12.9809 76.6565 12.9809Z" fill="#8B383E"/>
<path d="M72.086 12.9808C72.056 12.9808 72.026 12.9706 72.0024 12.9492C71.9539 12.9055 71.9522 12.8328 71.9981 12.7868C72.4084 12.379 73.0885 12.3946 73.1151 12.3959C73.1821 12.3981 73.2343 12.4511 73.2323 12.5143C73.2303 12.5778 73.1717 12.6266 73.1073 12.6256C73.103 12.6247 72.5064 12.6142 72.1739 12.9454C72.1496 12.969 72.118 12.9808 72.086 12.9808Z" fill="#8B383E"/>
<path d="M76.4462 14.2006C76.4462 14.4862 76.3104 14.7175 76.143 14.7175C75.9756 14.7175 75.8398 14.4859 75.8398 14.2006C75.8398 13.915 75.9756 13.6836 76.143 13.6836C76.3108 13.6836 76.4462 13.915 76.4462 14.2006Z" fill="#1A4850"/>
<path d="M73.205 14.2006C73.205 14.4862 73.0692 14.7175 72.9018 14.7175C72.7344 14.7175 72.5986 14.4862 72.5986 14.2006C72.5986 13.915 72.7344 13.6836 72.9018 13.6836C73.0692 13.6836 73.205 13.9153 73.205 14.2006Z" fill="#1A4850"/>
<path d="M73.2051 17.2553C73.2051 17.2553 75.3455 17.5163 76.4464 17.0156C76.4464 17.0156 75.8238 18.3961 74.6549 18.2723C73.4857 18.1488 73.2051 17.2553 73.2051 17.2553Z" fill="#1A4850"/>
<path d="M78.3166 15.2285C78.3166 15.2285 78.2408 12.7279 77.2131 10.8058C77.2131 10.8058 75.4014 11.5992 75.0026 11.4118C74.6037 11.2245 75.3826 10.8058 75.3826 10.8058C75.3826 10.8058 72.3932 11.7396 72.2137 11.5523C72.0342 11.3649 73.2044 10.8058 73.2044 10.8058L71.3422 11.4118C71.3422 11.4118 70.7682 13.6616 71.0057 15.2288C71.0057 15.2288 70.2057 13.9207 70.1066 13.0173C70.0076 12.1139 70.427 9.53927 73.2317 9.35195C76.0367 9.16463 77.6119 9.76776 78.3069 10.9877C79.0021 12.2074 78.9159 13.7082 78.3166 15.2285Z" fill="#8B383E"/>
<path d="M74.9608 16.5328C74.725 16.5332 74.4855 16.4751 74.4131 16.4559L74.4818 16.2208C74.7365 16.2874 75.136 16.327 75.2232 16.2297C75.2532 16.1959 75.2414 16.1174 75.1899 16.0143C74.8392 15.3074 74.7661 13.5182 74.7631 13.4425L75.0211 13.4336C75.0218 13.4518 75.0949 15.2487 75.4233 15.9103C75.5237 16.1119 75.5224 16.2725 75.4203 16.3873C75.3206 16.499 75.1417 16.5328 74.9608 16.5328Z" fill="#DB614D"/>
<path d="M77.6455 19.9729C77.6455 19.9729 82.0382 32.8908 82.4566 43.4015C82.4566 43.4015 84.0422 43.8147 85.8272 41.512C87.6122 39.2089 86.5504 20.9676 83.1306 17.9303C83.1306 17.9303 81.5787 17.5952 77.6455 19.9729Z" fill="#105E99"/>
<path d="M78.3606 22.2319C78.3606 22.2319 79.1468 20.5014 78.7975 19.3146C78.4482 18.1278 77.2129 19.3146 77.2129 19.3146C77.2129 19.3146 77.7121 21.2577 78.3606 22.2319Z" fill="#0C476B"/>
<path d="M69.5439 19.0369C66.3026 17.7148 55.8306 14.201 55.8306 14.201C55.8306 14.201 48.773 5.60207 47.3373 4.3623C47.3373 4.3623 45.5607 5.31455 45.4404 7.28541C45.4404 7.28541 49.8739 15.9047 52.338 18.5371C54.8021 21.1695 67.2819 26.8629 67.2819 26.8629L69.5439 19.0369Z" fill="#0C476B"/>
<path d="M72.0935 19.9729C72.0935 19.9729 67.7008 32.8908 67.2824 43.4015C67.2824 43.4015 65.6968 43.8147 63.9118 41.512C62.1268 39.2089 63.1885 20.9676 66.6084 17.9303C66.6084 17.9303 68.16 17.5952 72.0935 19.9729Z" fill="#105E99"/>
<path d="M71.3779 22.2319C71.3779 22.2319 70.5917 20.5014 70.941 19.3146C71.2904 18.1278 72.5256 19.3146 72.5256 19.3146C72.5256 19.3146 72.0267 21.2577 71.3779 22.2319Z" fill="#0C476B"/>
<path d="M94.3005 100.976H85.5788C84.9691 97.6912 85.9416 94.4033 85.9416 94.4033L89.9284 93.7549C90.2912 95.8311 90.7288 96.6496 91.3348 97.0711C91.3385 97.0711 91.3385 97.0711 91.3385 97.0711C91.7798 97.3759 92.307 97.4751 92.9655 97.6912C93.7174 97.9391 94.1139 98.3891 94.312 98.878C94.7048 99.8487 94.3005 100.976 94.3005 100.976Z" fill="#662C33"/>
<path d="M94.3118 98.8781C92.1613 99.1331 87.4375 99.569 87.7255 98.3892C87.965 97.4041 89.9582 97.1386 91.3346 97.0713C91.3383 97.0713 91.3383 97.0713 91.3383 97.0713C91.7796 97.376 92.3068 97.4753 92.9654 97.6913C93.7169 97.9393 94.1134 98.3892 94.3118 98.8781Z" fill="#8B383E"/>
<path d="M65.0922 100.976H56.3705C56.3705 100.976 56.0936 100.203 56.221 99.3847C56.3257 98.7187 56.6997 98.0205 57.7059 97.6912C58.4614 97.4432 59.0412 97.351 59.5162 96.9295C60.0322 96.469 60.4176 95.6185 60.743 93.7549L64.7298 94.4033C64.7298 94.4033 65.6982 97.6912 65.0922 100.976Z" fill="#662C33"/>
<path d="M56.2217 99.385C56.3264 98.719 56.7004 98.0207 57.7066 97.6914C58.4621 97.4435 59.0419 97.3512 59.5169 96.9297C60.6201 97.252 62.1649 97.8439 62.6436 98.74C63.3092 99.9693 58.2115 99.7746 56.2217 99.385Z" fill="#8B383E"/>
<path d="M127.707 100.385C127.707 100.732 127.67 100.976 127.67 100.976H117.074C117.074 100.778 117.078 100.58 117.089 100.385C117.209 97.7595 118.084 95.4813 118.084 95.4813L120.732 94.4043C120.96 95.6974 121.547 96.5229 122.284 97.0616C122.478 97.2068 122.681 97.3274 122.89 97.4302C122.987 97.4799 123.085 97.5259 123.186 97.5683C123.406 97.6641 123.634 97.7419 123.863 97.8058C124.798 98.0751 125.744 98.1316 126.406 98.2273C127.535 98.3936 127.707 99.6301 127.707 100.385Z" fill="#164353"/>
<path d="M127.707 100.385C127.707 100.732 127.67 100.976 127.67 100.976H117.074C117.074 100.778 117.078 100.58 117.089 100.385H127.707Z" fill="#225866"/>
<path d="M122.89 97.4301L121.42 97.8766L121.109 97.3663L122.284 97.0615C122.478 97.207 122.68 97.3273 122.89 97.4301Z" fill="#225866"/>
<path d="M123.862 97.8058L122.871 98.4293L122.262 98.2024L123.185 97.5684C123.406 97.6641 123.634 97.742 123.862 97.8058Z" fill="#225866"/>
<path d="M87.2249 100.384C87.1987 100.724 87.1053 100.976 87.1053 100.976H80.0481C79.9585 100.781 79.8948 100.586 79.8497 100.384C79.1541 97.1845 83.8438 93.2695 83.8438 93.2695L85.3324 95.151C85.3324 95.151 85.1603 98.1625 86.4208 98.7896C87.1764 99.1649 87.2738 99.8736 87.2249 100.384Z" fill="#164353"/>
<path d="M79.8496 100.385H87.2249C87.1986 100.725 87.1053 100.976 87.1053 100.976H80.048C79.9581 100.781 79.8944 100.586 79.8496 100.385Z" fill="#225866"/>
<path d="M86.0985 98.5495C86.0985 98.5495 83.1251 97.9075 81.7695 98.7388V98.2738C81.7695 98.2738 84.2704 97.1225 86.0985 98.5495Z" fill="#225866"/>
<path d="M85.5087 97.836C85.5087 97.836 83.6102 97.0136 81.7686 97.836L81.9788 97.3669C81.9788 97.3669 84.1785 96.579 85.5087 97.836Z" fill="#225866"/>
<path d="M124.51 71.9407C124.513 74.6299 121.993 96.5541 121.993 96.5541C119.472 96.7915 117.452 96.3132 117.452 96.3132C116.761 85.2022 116.693 75.6469 116.693 75.6469L104.613 67.0694L104.583 67.048C104.583 67.048 104.538 67.243 104.456 67.5902C103.857 70.1058 101.325 80.6427 100.27 83.0555C99.0699 85.805 85.9431 97.3666 85.9431 97.3666C83.5046 97.0478 81.4355 95.3747 81.4355 95.3747C86.1479 87.9699 92.5732 80.5437 92.5732 80.5437C93.0745 77.8759 93.4335 71.9413 93.6468 67.5056C93.6505 67.4383 93.6542 67.3674 93.6579 67.3001C93.8001 64.2956 93.8711 62.028 93.8711 62.028L91.6569 57.7266L105.723 52.8301L108.876 56.6531C108.876 56.6531 109.598 57.2872 110.735 58.3007C110.787 58.3466 110.84 58.3929 110.892 58.4389C115.115 62.2118 124.51 70.736 124.51 71.9407Z" fill="#8BBDDB"/>
<path d="M93.6465 67.5048C93.6502 67.4375 93.6539 67.3667 93.6576 67.2993C96.6196 65.7759 96.1224 63.3452 96.1147 63.3206L96.2979 63.2852C96.3053 63.3097 96.8366 65.9211 93.6465 67.5048Z" fill="#6097B2"/>
<path d="M104.396 65.3495C104.497 65.8809 104.572 66.4549 104.613 67.068L104.583 67.0466C104.583 67.0466 104.538 67.2416 104.456 67.5888C104.325 63.4221 102.511 60.9598 102.488 60.9314L102.642 60.8286C102.66 60.85 103.805 62.4159 104.358 65.1475C106.498 63.3477 104.403 59.6594 104.381 59.6239L104.545 59.5391C104.568 59.578 106.786 63.4824 104.396 65.3495Z" fill="#6097B2"/>
<path d="M110.891 58.4378C110.888 58.4414 110.88 58.4414 110.877 58.4449C110.791 58.4768 110.69 58.4908 110.585 58.4908C109.549 58.4908 107.81 57.1161 107.728 57.0487L107.851 56.9141C108.416 57.3675 109.99 58.4554 110.734 58.2993C110.787 58.3459 110.839 58.3919 110.891 58.4378Z" fill="#6097B2"/>
<path d="M92.6426 34.7922C92.6426 34.7922 96.9214 34.14 99.0652 35.4346C101.209 36.7293 104.024 40.1084 104.024 40.1084C104.024 40.1084 100.682 40.5264 100.303 42.677C100.303 42.677 97.8761 37.2003 92.6426 34.7922Z" fill="#ADBEC4"/>
<path d="M86.2044 36.9062C84.3944 37.8333 81.3691 41.3132 81.2323 43.4532C81.0989 45.5406 82.7313 47.4604 83.8315 49.0923C87.2651 54.1851 90.8803 58.685 92.4168 64.6582C92.4265 64.6962 100.271 67.6448 109.477 57.1618C109.477 57.1618 104.275 50.5315 102.478 44.8867C101.746 42.5891 101.002 40.1481 99.597 38.123C98.0494 35.8924 95.3987 34.5802 92.6415 34.7918C90.308 34.9714 87.9874 35.9929 86.2044 36.9062Z" fill="#CFD8DC"/>
<path d="M85.4453 34.7699C85.4453 34.7699 86.6028 36.6438 86.0682 37.6742C86.0682 37.6742 90.0408 38.9733 90.0408 36.8678C90.0408 36.8678 89.2919 35.2897 89.5742 34.2695L85.4453 34.7699Z" fill="#EF6E4B"/>
<path d="M94.2722 47.6016C94.2722 47.6016 92.0624 48.1961 91.5049 48.9371C90.9474 49.6781 90.4512 51.3403 90.4512 51.3403H94.2722L94.9907 50.0881L95.8319 48.4191L94.2722 47.6016Z" fill="#EF6E4B"/>
<path d="M90.6209 32.6804C90.6209 32.6804 92.1721 32.0639 91.1686 27.6438C90.5036 24.715 89.5456 24.2784 88.9268 24.2526C88.9268 24.2526 88.1695 23.1717 85.543 23.689C83.7442 24.0435 82.3088 25.0784 81.6768 26.9935C81.0173 28.9924 82.3364 33.2772 84.0736 33.7035L90.6209 32.6804Z" fill="#164353"/>
<path d="M90.9884 29.6937C90.9884 29.6937 91.966 28.4045 92.3352 29.6752C92.763 31.1473 91.4317 31.9754 91.0679 31.5427C90.7044 31.11 90.9884 29.6937 90.9884 29.6937Z" fill="#FF8B66"/>
<path d="M82.8077 31.0521C82.8077 31.0521 81.4448 30.1289 81.5259 31.4446C81.6199 32.9687 83.1614 33.3478 83.3591 32.8273C83.5572 32.3068 82.8077 31.0521 82.8077 31.0521Z" fill="#FF8B66"/>
<path d="M87.9599 35.741C90.5564 35.3351 91.7419 33.4996 90.9027 28.6809C90.4699 26.1953 88.8694 24.8793 85.9613 25.334C83.0532 25.7884 82.0938 27.5043 82.5267 29.9902C83.4281 35.1679 85.2775 36.1604 87.9599 35.741Z" fill="#FF8B66"/>
<path d="M83.6846 31.5745C83.6822 31.8289 83.9524 32.0376 84.2882 32.0405C84.6241 32.0433 84.8983 31.8394 84.9007 31.5851C84.903 31.3307 84.6328 31.122 84.297 31.1192C83.9615 31.1166 83.6873 31.3202 83.6846 31.5745Z" fill="#DB614D"/>
<path d="M89.0494 30.8743C89.11 31.1219 89.4246 31.2642 89.7517 31.1924C90.0788 31.1203 90.2944 30.8612 90.2338 30.6132C90.1728 30.3656 89.8585 30.223 89.5314 30.2951C89.2043 30.3672 88.9884 30.6263 89.0494 30.8743Z" fill="#DB614D"/>
<path d="M84.4157 28.8907C84.3901 28.8907 84.3642 28.8837 84.3416 28.869C84.2817 28.8304 84.2662 28.7529 84.3069 28.6961C84.6701 28.1916 85.3987 28.0949 85.4297 28.0907C85.5062 28.0827 85.5675 28.13 85.5772 28.1976C85.5867 28.2659 85.5365 28.3285 85.4644 28.3377C85.4576 28.3384 84.82 28.4248 84.5245 28.8362C84.4989 28.8719 84.4575 28.8907 84.4157 28.8907Z" fill="#1A4850"/>
<path d="M89.3042 28.1262C89.2766 28.1262 89.2486 28.1183 89.225 28.101C88.8046 27.8004 88.173 27.9137 88.1669 27.915C88.0945 27.93 88.0268 27.8847 88.0123 27.817C87.9982 27.7497 88.0443 27.6839 88.1157 27.6705C88.1461 27.6651 88.869 27.5343 89.3833 27.9019C89.4413 27.9434 89.4527 28.0216 89.4093 28.0765C89.3833 28.109 89.3439 28.1262 89.3042 28.1262Z" fill="#1A4850"/>
<path d="M84.8881 30.1586C84.9413 30.4639 85.1297 30.6892 85.3089 30.6612C85.4881 30.6331 85.5902 30.3628 85.5369 30.0574C85.4837 29.752 85.2954 29.527 85.1162 29.5551C84.937 29.5829 84.8349 29.8532 84.8881 30.1586Z" fill="#1A4850"/>
<path d="M88.3559 29.6159C88.4091 29.9213 88.5974 30.1463 88.7766 30.1182C88.9559 30.0901 89.0579 29.8198 89.0047 29.5144C88.9515 29.209 88.7632 28.9841 88.584 29.0121C88.4047 29.0402 88.3027 29.3105 88.3559 29.6159Z" fill="#1A4850"/>
<path d="M89.3298 32.3906C89.3298 32.3906 87.0775 32.9631 85.8281 32.7356C85.8281 32.7356 86.6915 33.7657 87.9244 33.4686C89.157 33.1718 89.3298 32.3906 89.3298 32.3906Z" fill="#1A4850"/>
<path d="M89.4363 26.4457C89.4363 26.4457 86.5056 28.4558 82.8271 28.609L82.9312 31.7111C82.9312 31.7111 79.5026 25.7264 86.2839 24.6666C93.065 23.6069 91.0913 30.2914 91.0913 30.2914C91.0913 30.2914 90.8807 27.4082 89.4363 26.4457Z" fill="#0E3944"/>
<path d="M87.0395 31.556L87.0209 31.2879C87.025 31.2876 87.4161 31.2589 87.5178 31.0294C87.5599 30.935 87.3932 30.6337 87.246 30.3682C87.0418 29.999 86.7878 29.5398 86.6797 29.0295L86.9579 28.9766C87.0577 29.4492 87.3012 29.8896 87.4969 30.2435C87.7149 30.6376 87.8725 30.9222 87.7789 31.1335C87.6091 31.5167 87.0627 31.5547 87.0395 31.556Z" fill="#DB614D"/>
<path d="M91.0262 26.4524C86.0969 24.4257 81.4442 28.6278 81.4442 28.6278C81.4442 28.6278 80.9018 25.2229 81.8518 24.4257C82.0987 24.2167 82.3642 24.0326 82.6411 23.8695C84.8179 22.5691 87.7125 22.594 89.0401 23.0404C89.3129 23.1327 89.5225 23.2424 89.6424 23.3592C90.4276 24.1315 91.0262 26.4524 91.0262 26.4524Z" fill="#CE364C"/>
<path d="M90.4283 25.6939C90.4283 25.6939 86.2879 24.9181 82.4285 27.338C82.4285 27.338 82.1816 25.1412 82.6417 23.8695C84.8185 22.5691 87.7131 22.594 89.0407 23.0404C89.8148 23.8765 90.4283 25.6939 90.4283 25.6939Z" fill="#CFD8DC"/>
<path d="M81.8525 28.2271C81.8525 28.2271 82.5091 25.5864 83.3933 24.8425C84.8641 23.6053 88.9974 23.1802 91.1698 23.9241C93.3422 24.6679 91.1698 26.9164 91.1698 26.9164C91.1698 26.9164 87.7072 24.5671 81.8525 28.2271Z" fill="#A02E44"/>
<path d="M88.2438 45.7754C88.2438 45.7754 89.9358 48.2581 92.8174 49.7187C92.8174 49.7187 96.4224 46.7544 101.096 47.0212C101.096 47.0212 97.2225 53.6422 93.896 54.3756C92.148 54.7607 85.8271 50.7957 85.8271 50.7957C85.8271 50.7957 87.089 46.5815 88.2438 45.7754Z" fill="#FF8B66"/>
<path d="M82.0121 41.2734C83.5606 38.8855 87.1327 42.4155 88.3484 44.9366C89.5641 47.4579 90.4514 47.9924 90.4514 47.9924C90.4514 47.9924 86.8821 49.4048 86.9077 51.9392C86.9077 51.9392 78.633 46.4843 82.0121 41.2734Z" fill="#ADBEC4"/>
<path d="M92.8174 48.6273C92.8174 48.6273 94.9915 46.6067 102.14 43.9695L101.217 41.2187C102.037 40.1963 103.545 40.1963 103.545 40.1963C103.545 40.1963 107.207 45.096 106.577 46.5595C106.183 47.4737 98.5437 48.433 92.8174 48.6273Z" fill="#EF6E4B"/>
<path d="M100.646 44.6296C100.646 44.6296 100.703 44.3402 100.967 43.9869C101.231 43.6337 101.16 42.9906 101.255 42.7912C101.349 42.5921 101.912 41.7774 102.285 41.6191C102.658 41.4605 103.148 41.2013 103.252 41.6503C103.356 42.099 102.583 41.972 102.236 42.6176C102.236 42.6176 102.996 42.3849 103.598 42.5199C104.2 42.6549 104.371 43.1764 103.627 43.1591C103.033 43.1454 102.269 43.5462 102.269 43.5462C102.269 43.5462 103.042 43.6563 102.918 43.9943C102.744 44.4611 101.801 44.1736 100.646 44.6296Z" fill="#FF8B66"/>
<path d="M47.7738 53.8541C48.4128 55.404 51.0306 58.0613 51.0306 58.0613C51.0306 58.0613 57.4256 54.4298 60.3758 55.9577C63.326 57.4856 65.6706 58.4178 67.584 57.7524C69.4973 57.0871 61.2927 42.9518 61.2927 42.9518L50.6553 39.1064C50.6553 39.1064 50.4232 41.6552 49.2078 42.1081C47.9924 42.5609 46.6965 46.7681 46.7834 47.5653C46.87 48.3624 47.7738 53.8541 47.7738 53.8541Z" fill="#3E6575"/>
<path d="M59.7436 58.1529C59.7436 58.1529 57.0005 63.2467 51.3376 69.77C51.3376 69.77 50.7571 77.5274 35.7816 89.7327L34.2139 88.5644C34.2139 88.5644 43.1323 75.3303 44.916 71.2727C46.7 67.2152 43.93 63.4975 52.1366 53.2344L59.7436 58.1529Z" fill="#EF6E4B"/>
<path d="M51.0122 49.1396C48.6511 53.4244 47.8585 58.9024 47.8585 58.9024L46.7832 61.4722C46.7832 61.4722 50.5971 63.4207 55.0013 64.1295L56.7674 59.7008L51.0122 49.1396Z" fill="#662C33"/>
<path d="M63.3282 57.752C63.3282 57.752 64.4975 63.3617 64.3048 71.8058C64.3048 71.8058 68.9124 78.2424 65.1099 96.6069H63.1153C63.1153 96.6069 61.4859 80.9823 60.2392 76.7483C58.9925 72.5146 54.3889 71.2155 54.1396 58.3423L63.3282 57.752Z" fill="#FF8B66"/>
<path d="M64.4978 63.774C64.4978 63.774 60.7465 64.412 54.138 64.1177L54.0332 63.4128L54.0069 63.2322L53.3224 58.6688C53.3224 58.6688 52.6868 57.9246 52.0322 56.7129C51.9538 56.5713 51.879 56.4261 51.8042 56.2735C50.9139 54.4772 50.1249 51.8659 51.0112 49.1416L52.4062 49.2019L52.6005 49.2124L57.2681 49.4144L57.4662 49.425L58.9995 49.4923L59.2387 49.5028L60.2335 49.5453C60.2335 49.5453 65.2901 53.8572 64.3887 61.829L64.4523 62.938L64.4597 63.1186L64.4978 63.774Z" fill="#8B383E"/>
<path d="M52.6012 49.2124C52.4701 49.5775 51.5876 52.2843 52.0325 56.713C51.9541 56.5713 51.8793 56.4261 51.8045 56.2735C51.4717 52.2239 52.2384 49.6978 52.4065 49.2016C52.429 49.1413 52.4402 49.1132 52.4402 49.1094L52.616 49.1697C52.616 49.1735 52.6086 49.1879 52.6012 49.2124Z" fill="#662C33"/>
<path d="M64.4613 63.1189C63.1337 63.4412 60.8821 63.53 58.7427 63.53C56.824 63.53 55.0026 63.4556 54.0341 63.4132L54.0078 63.2326C55.6871 63.3104 60.1077 63.4735 62.9575 63.1793L62.7743 60.327C62.8191 57.0002 61.757 54.1588 60.7322 52.1959C58.1367 51.7495 57.4222 49.9283 57.269 49.4145C57.2464 49.3331 57.2353 49.2833 57.2353 49.2798L57.4185 49.2514C57.4185 49.2549 57.4334 49.3188 57.467 49.425C57.6355 49.9564 58.3311 51.5401 60.6238 51.9936C59.9319 50.7146 59.2773 49.8396 59.0008 49.4924C58.9186 49.3861 58.866 49.3258 58.8623 49.3223L59.0045 49.209C59.0119 49.216 59.0981 49.3153 59.2399 49.5029C60.1077 50.6188 63.036 54.8175 62.9613 60.3197L63.1445 63.1576C63.6421 63.1008 64.087 63.0299 64.4536 62.938L64.4613 63.1189Z" fill="#662C33"/>
<path d="M54.9032 29.9178C53.4146 29.1411 42.688 33.1262 42.688 33.1262C42.688 33.1262 41.101 35.8077 42.0904 36.8592C43.0797 37.9107 46.5895 37.447 47.6647 36.8592C48.74 36.2714 51.5882 35.8265 51.5882 35.8265L54.9032 29.9178Z" fill="#8BBDDB"/>
<path d="M64.3898 21.4587C64.3898 21.4587 66.6057 22.2689 67.4162 24.6872C68.2267 27.1055 65.8036 33.228 66.6411 36.0423C67.4785 38.8566 67.3485 44.1712 64.7331 45.2932C62.1177 46.4152 56.7538 44.4073 55.6024 41.3368C54.4507 38.2662 54.9479 26.6332 57.1614 22.6771C59.3753 18.7204 63.8569 20.7129 64.3898 21.4587Z" fill="#F24052"/>
<path d="M61.8434 31.8933C62.4279 32.49 63.9303 31.4264 63.9303 31.4264C63.9303 31.4264 63.8996 36.7036 62.2807 37.1082C60.6617 37.5129 56.5355 32.9511 56.7053 31.7114C56.8751 30.4709 60.5475 30.5696 61.8434 31.8933Z" fill="#8BBDDB"/>
<path d="M55.6025 30.5723C55.6025 30.5723 57.2403 31.8896 60.0932 32.516C62.9464 33.1424 64.4926 31.8717 65.9516 33.6144C68.1415 36.2302 64.5785 41.0524 62.7039 43.5514C62.0049 44.4829 60.5301 47.0671 60.232 49.546C60.232 49.546 55.2815 50.9083 51.0125 49.1397L50.6938 43.3864C50.6938 43.3864 48.0029 35.6328 55.6025 30.5723Z" fill="#0E3944"/>
<path d="M60.7207 36.1694C60.7207 36.1694 62.9827 31.0626 63.6379 30.7364C64.2931 30.4103 65.9542 31.1931 66.2877 31.8916C66.6212 32.5902 66.2877 34.114 66.2877 34.114C66.2877 34.114 64.5037 32.1852 60.7207 36.1694Z" fill="#8BBDDB"/>
<path d="M71.5548 57.7511C70.5264 59.7459 68.0016 60.3197 68.0016 60.3197C68.0016 60.3197 67.811 60.0434 67.4892 59.5474C67.4556 59.498 67.4182 59.4412 67.3845 59.3844C65.3984 56.3339 59.3284 46.5728 59.448 41.4957C59.5865 35.4299 63.7639 32.0996 63.7639 32.0996C65.8844 32.578 66.5541 33.1272 66.5541 33.1272C66.5541 33.1272 67.2686 36.5781 66.6141 40.7304C65.9596 44.8793 64.7701 45.9777 65.3687 46.2894C65.9633 46.5977 65.3687 47.2177 65.3687 47.2177C65.3687 47.2177 68.8879 51.8625 69.5465 53.3081C69.9729 54.2504 70.6985 55.8521 71.1509 56.8512C71.1809 56.9221 71.2109 56.9929 71.2405 57.0567C71.4312 57.4786 71.5548 57.7511 71.5548 57.7511Z" fill="#6097B2"/>
<path d="M65.4418 33.127C65.4418 33.127 62.922 34.8965 64.3901 37.6L71.3746 44.4498C67.5411 48.3194 67.1611 49.9083 64.3901 51.6922L65.4418 53.2354C65.4418 53.2354 75.1467 46.1696 75.1612 44.4498C75.1673 43.7136 69.2331 34.8077 65.4418 33.127Z" fill="#FF8B66"/>
<path d="M64.2366 51.6927C64.2366 51.6927 62.9053 51.8324 62.0669 52.0312C61.2284 52.2297 60.1107 52.4282 60.0757 52.5938C60.0406 52.7591 61.9271 52.5938 61.9271 52.5938C61.9271 52.5938 60.39 53.1919 60.3553 53.4223C60.3206 53.6527 62.3114 53.2557 62.3114 53.2557C62.3114 53.2557 61.0539 53.9836 61.1237 54.1821C61.1934 54.3806 62.7426 53.8844 62.7426 53.8844C62.7426 53.8844 62.4546 54.5791 62.1558 54.91C62.1558 54.91 62.4559 55.066 63.0647 54.4256C63.6734 53.7848 64.6455 53.9906 65.4153 53.4223C66.1847 52.8536 64.9373 51.6071 64.2366 51.6927Z" fill="#FF8B66"/>
<path d="M57.1 31.4223C57.1 31.4223 55.1829 32.5957 53.9722 35.4301C52.7616 38.2645 48.9412 43.5982 48.0462 44.9764C47.1511 46.3544 47.7747 53.8539 47.7747 53.8539C47.7747 53.8539 46.6526 49.3072 46.154 47.5354C45.6555 45.764 47.7642 41.3864 48.0812 41.1541C48.3982 40.9217 50.0188 41.3468 49.7072 39.5696C49.3956 37.7925 53.7439 30.1337 54.9047 29.918C54.9047 29.918 56.7638 30.2489 57.1 31.4223Z" fill="#6097B2"/>
<path d="M51.1717 31.8064C51.138 31.8667 51.1006 31.927 51.0558 31.9835C50.6219 32.5751 49.8142 33.0464 49.8142 33.0464C49.8142 33.0464 48.3518 34.9879 48.337 35.2113C48.3222 35.4028 45.7974 37.1388 44.6757 37.1034H44.672C44.5187 37.0999 44.3914 37.0609 44.3018 36.9827C43.6361 36.3876 46.5682 31.3918 47.2153 30.3148C47.2564 30.244 47.2901 30.1907 47.3126 30.1553C47.3274 30.1269 47.3389 30.1093 47.3389 30.1093C47.3389 30.1093 46.8228 28.2881 48.9771 28.6283C50.7685 28.9081 51.1239 30.258 51.3108 31.1614C51.355 31.3778 51.2913 31.5973 51.1717 31.8064Z" fill="#6097B2"/>
<path d="M43.6494 33.6936C45.1293 31.8507 50.3365 28.2766 53.0792 27.2188L53.7647 28.4263C53.7647 28.4263 48.4649 32.8403 47.2198 34.7285C45.9748 36.6167 44.4323 37.3976 42.9589 36.7689C41.4851 36.14 43.3382 34.0817 43.6494 33.6936Z" fill="#FF8B66"/>
<path d="M50.6565 31.4272L50.3759 31.732L50.2337 31.8877L49.7699 32.3909C49.7699 32.3909 48.603 33.7303 48.6478 34.2686C48.6815 34.6547 46.4336 36.3837 44.6759 37.103C43.9614 37.3969 43.3257 37.5246 42.9555 37.3226C41.6839 36.6282 41.9682 34.5415 42.6901 33.1278C43.3183 31.8947 46.0971 30.3039 46.8116 29.9143C46.9012 29.861 46.9574 29.8294 46.976 29.822C46.9797 29.8185 46.9797 29.8185 46.9797 29.8185L47.2451 28.8408C47.2451 28.8408 48.2139 28.2881 48.9769 28.6282C48.9769 28.6282 47.294 28.6956 47.5709 29.3156C47.8552 29.9388 50.1889 31.4058 50.6565 31.4272Z" fill="#8BBDDB"/>
<path d="M56.7663 26.3137C55.0722 26.9727 55.3151 28.4253 53.7632 28.4253C52.8021 28.4253 52.6748 27.3837 52.6748 27.3837C53.1087 26.4943 53.3852 24.9779 53.4452 24.2551C53.5089 23.5323 53.7632 23.8122 53.7632 23.8122C53.7632 23.7448 53.7595 23.681 53.7558 23.6172C53.7332 23.1318 53.6399 22.7776 53.9764 22.9866C54.3578 23.2205 54.4888 24.5953 54.4888 24.5953C54.8031 22.5899 54.3355 22.2922 54.702 22.4693C55.2033 22.7103 55.207 24.4817 55.207 24.535C55.6109 23.3692 55.5024 22.7032 55.783 22.9691C56.0673 23.2384 55.6409 25.3784 55.4728 26.165C55.4354 26.3421 55.4091 26.4519 55.4091 26.4519C56.7515 25.828 56.7663 26.3137 56.7663 26.3137Z" fill="#FF8B66"/>
<path d="M55.4719 26.1641C55.4345 26.3412 55.4082 26.4509 55.4082 26.4509C55.4082 26.4509 54.7874 26.3941 54.335 27.0285C54.335 27.0285 54.462 26.1784 55.4719 26.1641Z" fill="#EF6E4B"/>
<path d="M53.8566 25.2507C53.8677 25.0807 53.9425 24.1064 53.7633 23.8122C53.7633 23.7448 53.7596 23.681 53.7559 23.6172C54.1446 23.6954 53.898 25.0452 53.8566 25.2507Z" fill="#EF6E4B"/>
<path d="M54.9082 33.7036C54.9082 33.7036 56.0532 30.7639 56.4173 30.1078C56.7818 29.4514 58.6787 29.564 60.1144 29.8177C61.5501 30.0714 61.8435 31.8923 61.8435 31.8923C61.8435 31.8923 57.4758 29.9396 54.9082 33.7036Z" fill="#8BBDDB"/>
<path d="M62.2808 27.919C62.2808 27.919 60.9091 30.3184 60.9306 32.9792C60.9306 32.9792 58.7026 34.4136 57.9053 32.617C57.9053 32.617 58.7515 30.2632 58.3425 27.0858C58.069 24.9579 62.2808 27.919 62.2808 27.919Z" fill="#EF6E4B"/>
<path d="M57.9063 24.5889C57.9063 24.5889 57.4987 23.2135 56.7731 24.1805C55.9326 25.3006 56.7893 26.3894 57.2376 26.1296C57.686 25.8699 57.9063 24.5889 57.9063 24.5889Z" fill="#FF8B66"/>
<path d="M64.3828 28.1249C64.3828 28.1249 65.8357 27.7419 65.3392 28.8308C64.7638 30.0922 63.3368 29.963 63.3389 29.4652C63.3409 28.9677 64.3828 28.1249 64.3828 28.1249Z" fill="#FF8B66"/>
<path d="M58.5004 30.5863C56.4364 29.4853 56.0309 27.5869 58.3077 23.7566C59.482 21.7809 61.2637 21.135 63.5752 22.3681C65.8871 23.6015 66.1401 25.3324 64.9658 27.3083C62.5191 31.424 60.6324 31.7236 58.5004 30.5863Z" fill="#FF8B66"/>
<path d="M63.4701 28.3113C63.3896 28.527 63.0932 28.6246 62.8082 28.5292C62.5232 28.4338 62.3578 28.1814 62.4383 27.9654C62.5188 27.7496 62.8153 27.652 63.1003 27.7477C63.3852 27.8431 63.5506 28.0956 63.4701 28.3113Z" fill="#DB614D"/>
<path d="M59.1618 26.1529C59.0298 26.3447 58.7175 26.3734 58.4645 26.2171C58.2115 26.0607 58.1132 25.7783 58.2452 25.5868C58.3773 25.395 58.6895 25.3663 58.9425 25.5227C59.1958 25.6787 59.2939 25.9611 59.1618 26.1529Z" fill="#DB614D"/>
<path d="M63.7656 25.8352C63.7127 25.8352 63.6645 25.8014 63.651 25.7507C63.5341 25.3145 63.0238 25.0576 63.0188 25.0553C62.9608 25.0266 62.9382 24.959 62.9686 24.9041C62.9985 24.8492 63.0696 24.8278 63.1282 24.8565C63.1532 24.8686 63.7379 25.1635 63.8804 25.6958C63.8966 25.7558 63.8582 25.8167 63.7949 25.8321C63.7848 25.834 63.775 25.8352 63.7656 25.8352Z" fill="#1A4850"/>
<path d="M60.9317 23.9235C60.9108 23.9235 60.8899 23.9184 60.8707 23.9075C60.8657 23.9046 60.3685 23.6248 59.9147 23.7559C59.8517 23.7741 59.786 23.7406 59.7668 23.6813C59.748 23.6222 59.783 23.5594 59.8456 23.5412C60.4008 23.38 60.9694 23.7017 60.9933 23.7154C61.0493 23.7473 61.0671 23.8163 61.0331 23.8692C61.0108 23.9043 60.9718 23.9235 60.9317 23.9235Z" fill="#1A4850"/>
<path d="M62.913 26.7628C62.7685 27.0056 62.5361 27.1409 62.3939 27.0647C62.2514 26.9887 62.2531 26.7302 62.3973 26.4874C62.5415 26.2445 62.7742 26.1092 62.9164 26.1852C63.0589 26.2615 63.0575 26.5196 62.913 26.7628Z" fill="#1A4850"/>
<path d="M60.0195 25.2918C59.8753 25.5346 59.6428 25.6699 59.5004 25.5937C59.3579 25.5177 59.3595 25.2595 59.5037 25.0167C59.6479 24.7738 59.8803 24.6385 60.0228 24.7145C60.1653 24.7904 60.1636 25.0489 60.0195 25.2918Z" fill="#1A4850"/>
<path d="M59.0173 27.7852C59.0173 27.7852 60.2014 28.641 61.057 28.6672C61.057 28.6672 60.1471 29.3693 59.4929 28.9139C58.8391 28.4585 59.0173 27.7852 59.0173 27.7852Z" fill="#1A4850"/>
<path d="M62.291 26.271C62.291 26.271 62.8344 25.7732 63.057 25.9484C63.2794 26.1236 63.1631 26.7363 63.1631 26.7363L63.6388 26.7478L63.2457 26.5978C63.2457 26.5978 63.3723 25.9618 63.1278 25.83C62.7795 25.642 62.291 26.271 62.291 26.271Z" fill="#1A4850"/>
<path d="M60.2424 25.2752C60.2424 25.2752 60.4099 24.577 60.1363 24.4877C59.8628 24.3983 59.3703 24.8103 59.3703 24.8103L59.1133 24.4309L59.4528 24.6718C59.4528 24.6718 59.9612 24.2394 60.2071 24.3689C60.5571 24.5537 60.2424 25.2752 60.2424 25.2752Z" fill="#1A4850"/>
<path d="M64.1237 23.1877C64.1237 23.1877 63.3843 22.2144 62.3632 22.9873C61.3422 23.7602 59.0391 24.9971 57.9062 24.5883C56.773 24.1798 60.3849 19.6069 63.5207 20.9459C66.6566 22.2852 66.3743 26.6444 65.0699 28.0303C63.7656 29.4162 64.3827 28.1251 64.3827 28.1251C64.3827 28.1251 64.47 26.1587 64.9055 24.8557C65.3414 23.5525 64.1237 23.1877 64.1237 23.1877Z" fill="#F24052"/>
<path d="M60.6476 27.3399C60.5904 27.3399 60.5304 27.3326 60.4688 27.3179L60.5317 27.0834C60.7426 27.1341 60.8464 27.0482 60.8959 26.9675C60.9663 26.8533 60.9565 26.7062 60.9006 26.6509C60.8679 26.6187 60.8123 26.6222 60.7342 26.6608L60.616 26.4464C60.8757 26.3175 61.031 26.4295 61.0855 26.484C61.226 26.6238 61.2398 26.8896 61.1165 27.0894C61.0162 27.2518 60.8477 27.3399 60.6476 27.3399Z" fill="#DB614D"/>
<path d="M75.7621 44.1772C75.6388 45.8957 71.1508 51.4901 70.4026 51.6883C70.2082 51.7378 70.0098 51.8405 69.8229 51.9611C69.7444 52.0144 69.6659 52.0709 69.5911 52.1277C69.1646 52.4535 68.8433 52.8291 68.8433 52.8291C67.5342 52.7478 63.8577 51.1356 65.0398 50.7814C65.1108 50.76 65.1893 50.721 65.2752 50.6646C65.3237 50.6326 65.3763 50.5972 65.4285 50.5513C66.8197 49.4459 69.5274 44.9604 69.5463 44.6202C69.5611 44.2481 70.0287 44.1772 70.0287 44.1772C70.0287 44.1772 67.4743 40.6236 65.9931 40.195C64.5119 39.7664 63.7641 38.0694 63.7641 38.0694C62.3018 32.2056 66.5543 33.1269 66.5543 33.1269C69.6885 34.8945 75.8854 42.4553 75.7621 44.1772Z" fill="#8BBDDB"/>
<path d="M69.824 51.9616C69.7455 52.0149 69.667 52.0714 69.5922 52.1282C67.5839 51.997 65.9009 51.0617 65.2764 50.665C65.3249 50.6331 65.3774 50.5977 65.4296 50.5518C66.099 50.966 67.8119 51.8908 69.824 51.9616Z" fill="#3E6575"/>
<path d="M51.1716 31.8049C51.1379 31.8652 51.1005 31.9255 51.0557 31.982C50.7677 31.9715 50.4948 31.9396 50.2327 31.8863C48.9052 31.6313 47.8841 30.9261 47.2144 30.313C47.0612 30.1713 46.9264 30.0367 46.8105 29.9125C46.9002 29.8592 46.9564 29.8277 46.9749 29.8203C47.0723 29.9231 47.1845 30.0364 47.3115 30.1535C47.9771 30.7735 49.0133 31.4963 50.3745 31.7302C50.6292 31.7768 50.8947 31.8014 51.1716 31.8049Z" fill="#3E6575"/>
<path d="M71.2408 57.0571C70.6237 58.0457 69.4831 59.2395 67.4895 59.5478C67.4558 59.4983 67.4185 59.4415 67.3848 59.3847C69.4305 59.094 70.5637 57.8364 71.1509 56.8516C71.1809 56.9227 71.2108 56.9933 71.2408 57.0571Z" fill="#3E6575"/>
<path d="M37.2023 89.2952C37.2023 89.2952 36.7347 89.7311 36.2486 90.5318C35.7625 91.3325 36.2971 92.0696 33.9448 93.9259C33.9448 93.9259 29.1988 91.2935 27.0557 87.9099C27.0557 87.9099 27.0931 86.9427 28.1289 86.7158C28.6861 86.5952 30.2195 87.2756 31.6932 87.5379C31.9028 87.5733 32.112 87.6052 32.3178 87.6192C32.5758 87.6406 32.8301 87.6441 33.0734 87.6157C33.2977 87.5943 33.5109 87.5484 33.709 87.4705H33.7127C34.214 87.2756 34.6105 86.8894 34.8159 86.2129C34.8159 86.2129 36.0761 86.8933 35.2347 88.0446C35.2347 88.0446 36.731 87.4243 37.2023 89.2952Z" fill="#CFD8DC"/>
<path d="M33.9448 93.9262C33.9448 93.9262 29.1988 91.2938 27.0557 87.9102C27.0557 87.9102 27.8523 87.7506 28.5106 88.8704C29.1688 89.9934 34.3302 92.5409 33.9448 93.9262Z" fill="#ADBEC4"/>
<path d="M33.9642 88.6035C33.5792 89.1811 33.5866 88.1147 33.0742 87.6149C33.2986 87.5935 33.5118 87.5476 33.7099 87.4697H33.7136C33.9416 87.704 34.267 88.1536 33.9642 88.6035Z" fill="#ADBEC4"/>
<path d="M32.4712 88.6355C32.0636 89.0006 31.9325 88.0474 31.6934 87.5371C31.9029 87.5725 32.1121 87.6044 32.3179 87.6185C32.5571 87.9271 32.7818 88.3556 32.4712 88.6355Z" fill="#ADBEC4"/>
<path d="M66.4015 100.976H59.6882C59.6882 100.976 59.4076 100.09 59.6882 99.1161C59.8078 98.6945 60.5034 98.3011 61.1505 97.7519C61.33 97.5996 61.5022 97.4401 61.6629 97.2595C61.7902 97.1178 61.9061 96.9617 62.0031 96.7955C62.1264 96.5935 62.2237 96.3739 62.28 96.133C62.3885 95.6511 62.3474 95.0844 62.0557 94.404C62.0557 94.404 64.3409 93.9506 65.1561 95.1303C65.1561 95.1303 65.2346 94.5846 65.9602 94.9497C65.9602 94.9497 65.8555 96.0446 65.9976 96.9621C66.1398 97.876 67.0412 98.1418 66.4015 100.976Z" fill="#CFD8DC"/>
<path d="M64.6547 97.1463C64.5947 97.2101 64.5125 97.242 64.4304 97.242C64.3593 97.242 64.2919 97.2207 64.2319 97.1782C63.8843 96.9159 63.1176 96.5087 62.0029 96.7956C62.1262 96.5936 62.2236 96.374 62.2798 96.1331C62.7285 95.9774 63.5737 95.8852 64.6173 96.7283C64.7521 96.8345 64.7709 97.0222 64.6547 97.1463Z" fill="#ADBEC4"/>
<path d="M64.0898 98.2014L64.0525 98.2547C63.9628 98.3859 63.7833 98.4283 63.6411 98.3505C63.1847 98.0955 62.16 97.6136 61.1504 97.7518C61.3299 97.5996 61.5021 97.44 61.6628 97.2594C62.1603 97.1496 63.0988 97.0893 64.0228 97.8156C64.1424 97.9111 64.1757 98.0776 64.0898 98.2014Z" fill="#ADBEC4"/>
</svg>
