<svg width="16" height="17" viewBox="0 0 16 17" fill="none" xmlns="http://www.w3.org/2000/svg">
<path d="M10.3566 5.46491L5.64251 10.1789C5.31707 10.5043 5.31707 11.032 5.64251 11.3574C5.96795 11.6829 6.4956 11.6829 6.82101 11.3574L11.5351 6.64341C12.5113 5.66711 12.5113 4.0842 11.5351 3.10788C10.5588 2.13157 8.97585 2.13157 7.99952 3.10788L3.28549 7.82193C1.65831 9.4491 1.65831 12.0873 3.28549 13.7145C4.91267 15.3417 7.55085 15.3417 9.17801 13.7145L13.8921 9.00043L15.0706 10.1789L10.3566 14.893C8.07851 17.171 4.38504 17.171 2.10698 14.893C-0.171077 12.6149 -0.171077 8.92151 2.10698 6.64341L6.82101 1.92937C8.44818 0.302189 11.0864 0.302189 12.7136 1.92937C14.3408 3.55656 14.3408 6.19474 12.7136 7.82193L7.99952 12.536C7.02326 13.5123 5.44031 13.5123 4.46401 12.536C3.48769 11.5597 3.48769 9.97676 4.46401 9.00043L9.17801 4.2864L10.3566 5.46491Z" fill="#464E5F"/>
</svg>
