<svg width="349" height="355" viewBox="0 0 349 355" fill="none" xmlns="http://www.w3.org/2000/svg">
<path d="M171.5 347.396C248.768 347.396 311.405 311.813 311.405 267.919C311.405 224.025 248.768 188.441 171.5 188.441C94.2323 188.441 31.5945 224.025 31.5945 267.919C31.5945 311.813 94.2323 347.396 171.5 347.396Z" fill="#F5F5F5"/>
<path d="M229.72 318.03L125.286 257.73C124.367 257.201 123.604 256.439 123.074 255.521C122.543 254.603 122.264 253.561 122.264 252.501C122.264 251.441 122.543 250.399 123.074 249.481C123.604 248.563 124.367 247.801 125.286 247.272L135.588 240.775C137.367 239.751 139.383 239.212 141.435 239.212C143.487 239.212 145.504 239.751 147.282 240.775L251.73 301.083C252.649 301.612 253.412 302.374 253.942 303.292C254.473 304.21 254.752 305.252 254.752 306.312C254.752 307.372 254.473 308.414 253.942 309.332C253.412 310.25 252.649 311.012 251.73 311.541L241.428 318.03C239.649 319.06 237.63 319.602 235.574 319.602C233.518 319.602 231.499 319.06 229.72 318.03Z" fill="#E0E0E0"/>
<path d="M70.9285 263.055C83.4451 263.055 93.5917 257.228 93.5917 250.041C93.5917 242.853 83.4451 237.026 70.9285 237.026C58.412 237.026 48.2653 242.853 48.2653 250.041C48.2653 257.228 58.412 263.055 70.9285 263.055Z" fill="#E6E6E6"/>
<path d="M266.754 266.037L276.694 271.752C276.694 271.752 271.617 255.798 274.322 239.717C275.345 233.639 277.538 230.622 278.305 228.996C279.072 227.37 285.015 217.323 279.725 212.723C274.436 208.122 262.131 217.373 262.799 242.131C263.102 250.234 264.431 258.267 266.754 266.037Z" fill="url(#paint0_linear_1411_6233)"/>
<path opacity="0.5" d="M266.754 266.037L276.694 271.752C276.694 271.752 271.617 255.798 274.322 239.717C275.345 233.639 277.538 230.622 278.305 228.996C279.072 227.37 285.015 217.323 279.725 212.723C274.436 208.122 262.131 217.373 262.799 242.131C263.102 250.234 264.431 258.267 266.754 266.037Z" fill="black"/>
<path d="M271.376 269.047C271.303 269.048 271.232 269.027 271.173 268.986C271.113 268.946 271.067 268.887 271.042 268.819C271.006 268.713 267.208 258.333 267.329 241.648C267.449 224.963 276.218 215.903 276.303 215.818C276.336 215.785 276.375 215.758 276.419 215.74C276.462 215.722 276.508 215.713 276.555 215.713C276.602 215.713 276.648 215.722 276.692 215.74C276.735 215.758 276.774 215.785 276.807 215.818C276.84 215.851 276.867 215.89 276.885 215.933C276.903 215.977 276.912 216.023 276.912 216.07C276.912 216.117 276.903 216.163 276.885 216.206C276.867 216.25 276.84 216.289 276.807 216.322C276.722 216.407 268.159 225.197 268.039 241.655C267.918 258.113 271.667 268.479 271.709 268.578C271.741 268.666 271.737 268.764 271.697 268.849C271.657 268.934 271.585 269 271.496 269.032C271.457 269.044 271.416 269.049 271.376 269.047Z" fill="white"/>
<path d="M270.9 268.479L284.489 276.289C285.905 277.126 287.585 277.398 289.193 277.052C290.801 276.706 292.219 275.767 293.166 274.421C294.065 273.022 294.445 271.351 294.238 269.7C293.585 262.643 290.517 261.017 294.273 257.871C298.029 254.726 299.009 254.506 298.796 251.481C298.583 248.457 296.517 247.136 295.537 245.943C294.557 244.751 291.845 242.251 293.691 238.559C295.537 234.867 298.058 231.296 294.238 229.663C291.959 228.683 288.16 229.99 285.661 232.702C283.162 235.414 281.103 237.367 278.71 238.02C276.317 238.673 271.333 238.779 271.546 242.905C271.759 247.03 272.853 248.443 271.873 250.281C270.027 253.718 261.997 255.67 270.9 268.479Z" fill="url(#paint1_linear_1411_6233)"/>
<path d="M277.617 272.682C277.528 272.679 277.444 272.645 277.378 272.585C277.313 272.525 277.272 272.443 277.262 272.355C277.262 272.114 275.174 247.747 291.93 231.53C291.999 231.473 292.087 231.445 292.177 231.45C292.266 231.455 292.35 231.494 292.412 231.559C292.474 231.623 292.51 231.709 292.511 231.799C292.512 231.888 292.48 231.975 292.42 232.042C275.905 248.024 277.95 272.05 277.972 272.292C277.979 272.385 277.95 272.477 277.891 272.549C277.831 272.621 277.745 272.666 277.652 272.675L277.617 272.682Z" fill="white"/>
<path d="M280.307 251.709C280.218 251.709 280.132 251.676 280.066 251.615C280 251.555 279.96 251.472 279.952 251.382C279.804 249.494 279.272 247.656 278.389 245.98C277.507 244.304 276.292 242.825 274.819 241.634C274.781 241.607 274.748 241.573 274.723 241.533C274.698 241.494 274.681 241.45 274.673 241.403C274.665 241.357 274.666 241.31 274.677 241.264C274.687 241.218 274.707 241.175 274.734 241.137C274.76 241.099 274.794 241.066 274.833 241.041C274.872 241.016 274.915 240.999 274.961 240.991C275.007 240.984 275.053 240.985 275.099 240.995C275.144 241.006 275.186 241.025 275.224 241.052C276.793 242.297 278.087 243.854 279.024 245.625C279.96 247.396 280.518 249.342 280.662 251.34C280.67 251.435 280.641 251.529 280.579 251.602C280.518 251.675 280.431 251.721 280.336 251.73L280.307 251.709Z" fill="white"/>
<path d="M279.15 255.89C279.064 255.891 278.981 255.861 278.916 255.805C278.845 255.742 278.802 255.654 278.796 255.56C278.789 255.466 278.819 255.373 278.88 255.301C279.051 255.102 283.247 250.473 293.08 251.701C293.174 251.714 293.258 251.762 293.315 251.837C293.372 251.911 293.398 252.006 293.386 252.099C293.373 252.192 293.325 252.278 293.25 252.336C293.176 252.394 293.082 252.421 292.988 252.411C283.545 251.226 279.448 255.727 279.406 255.769C279.373 255.806 279.334 255.835 279.29 255.856C279.246 255.877 279.199 255.888 279.15 255.89Z" fill="white"/>
<path d="M226.539 310.824L134.694 257.794C128.211 254.052 122.957 244.013 122.957 235.372V38.7023C122.957 30.0616 128.211 26.0927 134.694 29.8344L226.539 82.8643C233.021 86.606 238.275 96.6454 238.275 105.286V301.956C238.275 310.59 233.021 314.566 226.539 310.824Z" fill="#455A64"/>
<path d="M237.118 76.6803L145.265 23.6504C142.496 22.0529 139.955 21.8683 137.945 22.8481C137.699 22.9712 137.462 23.1112 137.235 23.267L126.94 29.2523C129.014 28.0098 131.726 28.1021 134.701 29.8203L226.546 82.8502C233.029 86.5919 238.283 96.6313 238.283 105.272V301.942C238.283 306.514 236.813 309.752 234.47 311.286L244.63 305.371C247.221 303.994 248.89 300.621 248.89 295.786V99.1163C248.89 90.4614 243.6 80.422 237.118 76.6803Z" fill="#37474F"/>
<path d="M238.275 105.272V301.942C238.275 306.514 236.806 309.752 234.463 311.285L244.63 305.371C247.221 303.994 248.89 300.621 248.89 295.786V99.1162L238.311 105.258L238.275 105.272Z" fill="#263238"/>
<path d="M248.854 114.374L238.275 120.48V125.251L248.854 119.138V114.374Z" fill="#37474F"/>
<path d="M244.218 146.104C243.274 146.651 242.507 146.068 242.507 144.812V134.552C242.517 133.911 242.676 133.281 242.974 132.712C243.271 132.144 243.697 131.653 244.218 131.279C245.162 130.732 245.929 131.279 245.929 132.571V142.831C245.92 143.472 245.76 144.102 245.463 144.671C245.166 145.239 244.739 145.73 244.218 146.104Z" fill="#37474F"/>
<path d="M242.5 144.84V134.553C242.51 133.911 242.669 133.281 242.966 132.713C243.264 132.144 243.69 131.653 244.211 131.279C244.367 131.17 244.548 131.104 244.737 131.087C244.927 131.069 245.117 131.101 245.29 131.18L244.005 130.52C243.829 130.435 243.634 130.398 243.44 130.413C243.245 130.428 243.058 130.494 242.898 130.605C242.376 130.979 241.949 131.47 241.651 132.038C241.352 132.606 241.191 133.236 241.179 133.878V144.13C241.153 144.389 241.192 144.651 241.294 144.891C241.396 145.13 241.557 145.34 241.762 145.501L243.103 146.211C242.89 146.057 242.721 145.849 242.615 145.608C242.509 145.367 242.469 145.102 242.5 144.84Z" fill="#455A64"/>
<path d="M244.218 170.933C243.274 171.48 242.507 170.933 242.507 169.641V159.381C242.517 158.74 242.677 158.11 242.974 157.542C243.271 156.973 243.697 156.482 244.218 156.108C245.162 155.561 245.929 156.108 245.929 157.407V167.66C245.921 168.301 245.762 168.932 245.464 169.501C245.167 170.069 244.74 170.56 244.218 170.933Z" fill="#37474F"/>
<path d="M242.5 169.64V159.381C242.51 158.739 242.67 158.109 242.967 157.541C243.264 156.973 243.69 156.482 244.211 156.108C244.368 156.001 244.549 155.935 244.738 155.918C244.927 155.901 245.117 155.932 245.29 156.008L244.005 155.341C243.83 155.252 243.635 155.214 243.44 155.229C243.244 155.244 243.057 155.312 242.898 155.426C242.375 155.799 241.947 156.289 241.648 156.858C241.35 157.426 241.189 158.057 241.179 158.699V168.98C241.152 169.239 241.191 169.501 241.293 169.74C241.395 169.98 241.556 170.19 241.762 170.35L243.104 171.06C242.881 170.903 242.707 170.687 242.6 170.436C242.494 170.185 242.459 169.91 242.5 169.64Z" fill="#455A64"/>
<path d="M223.33 88.381L133.075 36.2528C132.698 36.0361 132.271 35.9217 131.837 35.9209C131.402 35.9201 130.975 36.0329 130.597 36.2482C130.22 36.4635 129.905 36.7738 129.685 37.1482C129.464 37.5227 129.345 37.9483 129.34 38.3828V235.372C129.34 241.947 134.005 250.02 139.699 253.307L227.739 304.164C228.157 304.404 228.63 304.531 229.112 304.53C229.593 304.53 230.066 304.403 230.484 304.162C230.901 303.921 231.247 303.575 231.488 303.158C231.729 302.741 231.857 302.267 231.857 301.786V103.17C231.893 97.7459 228.044 91.0932 223.33 88.381Z" fill="url(#paint2_linear_1411_6233)"/>
<path opacity="0.9" d="M223.33 88.381L133.075 36.2528C132.698 36.0361 132.271 35.9217 131.837 35.9209C131.402 35.9201 130.975 36.0329 130.597 36.2482C130.22 36.4635 129.905 36.7738 129.685 37.1482C129.464 37.5227 129.345 37.9483 129.34 38.3828V235.372C129.34 241.947 134.005 250.02 139.699 253.307L227.739 304.164C228.157 304.404 228.63 304.531 229.112 304.53C229.593 304.53 230.066 304.403 230.484 304.162C230.901 303.921 231.247 303.575 231.488 303.158C231.729 302.741 231.857 302.267 231.857 301.786V103.17C231.893 97.7459 228.044 91.0932 223.33 88.381Z" fill="white"/>
<path d="M160.069 49.8633L161.468 55.7492L191.387 73.0022L196.556 70.2474L160.069 49.8633Z" fill="#455A64"/>
<path d="M168.866 55.5506C168.866 56.5304 168.156 56.9209 167.332 56.4381C166.89 56.1446 166.523 55.7514 166.26 55.2902C165.998 54.8291 165.847 54.3127 165.82 53.7827C165.82 52.81 166.53 52.4124 167.354 52.9023C167.796 53.1943 168.163 53.5861 168.425 54.0462C168.688 54.5062 168.839 55.0215 168.866 55.5506Z" fill="#263238"/>
<path d="M189.023 68.0116C188.859 68.0103 188.698 67.9689 188.554 67.8909L173.275 59.3709C173.059 59.2442 172.902 59.0382 172.836 58.7969C172.77 58.5555 172.801 58.298 172.922 58.0793C173.044 57.8605 173.246 57.6979 173.486 57.6262C173.725 57.5545 173.983 57.5793 174.205 57.6953L189.491 66.2153C189.677 66.3186 189.823 66.4807 189.907 66.6762C189.991 66.8717 190.007 67.0894 189.953 67.2951C189.9 67.5008 189.779 67.6828 189.611 67.8125C189.442 67.9423 189.235 68.0123 189.023 68.0116Z" fill="#263238"/>
<path d="M148.269 77.2486C147.339 76.709 146.664 77.1776 146.664 78.3633C146.664 78.9562 146.811 79.54 147.091 80.0627C147.371 80.5854 147.775 81.0308 148.269 81.3595C148.533 81.5199 148.836 81.6048 149.146 81.6048C149.455 81.6048 149.758 81.5199 150.022 81.3595L151.506 84.0433C150.984 84.3313 150.393 84.4686 149.797 84.4397C149.201 84.4109 148.626 84.2171 148.134 83.88C146.928 83.1424 145.923 82.119 145.207 80.9005C144.492 79.6819 144.087 78.3057 144.03 76.8936C144.03 74.2595 145.798 73.3436 148.233 74.7636C149.609 75.6492 150.735 76.871 151.506 78.3136L150.022 79.4922C149.657 78.5965 149.05 77.8199 148.269 77.2486Z" fill="url(#paint3_linear_1411_6233)"/>
<path d="M160.048 86.1443C160.048 88.7997 158.251 89.6943 155.788 88.2743C154.548 87.5333 153.51 86.4975 152.767 85.2588C152.024 84.0202 151.598 82.6171 151.528 81.1743C151.528 78.5189 153.324 77.6243 155.788 79.0443C157.031 79.782 158.071 80.817 158.814 82.0564C159.558 83.2957 159.982 84.7005 160.048 86.1443ZM154.162 82.7576C154.174 83.3672 154.331 83.9652 154.62 84.5021C154.909 85.0391 155.321 85.4998 155.823 85.8461C156.704 86.3573 157.414 85.8461 157.414 84.6391C157.411 84.0433 157.265 83.4567 156.989 82.9291C156.712 82.4014 156.312 81.9481 155.823 81.6074C154.929 81.0891 154.162 81.5293 154.162 82.7576Z" fill="url(#paint4_linear_1411_6233)"/>
<path d="M162.909 83.3262L165.976 89.7162V85.1154L168.298 86.4573V95.4104L166.168 94.175L163.115 87.8418V92.4142L160.779 91.0652V82.0908L162.909 83.3262Z" fill="url(#paint5_linear_1411_6233)"/>
<path d="M175.888 90.8167V93.1597L173.673 91.8817V98.4989L171.109 97.015V90.3978L168.908 89.1269V86.791L175.888 90.8167Z" fill="url(#paint6_linear_1411_6233)"/>
<path d="M180.886 101.395L177.975 99.7123L177.578 100.749L174.951 99.2295L178.224 92.165L180.858 93.6844L184.01 104.462L181.277 102.886L180.886 101.395ZM180.254 98.91L179.459 95.8499L178.643 97.9799L180.254 98.91Z" fill="url(#paint7_linear_1411_6233)"/>
<path d="M188.078 100.231C187.148 99.6985 186.474 100.16 186.474 101.353C186.475 101.945 186.622 102.529 186.902 103.051C187.182 103.574 187.586 104.019 188.078 104.349C188.345 104.508 188.649 104.592 188.959 104.592C189.269 104.592 189.573 104.508 189.839 104.349L191.323 107.033C190.799 107.318 190.206 107.453 189.611 107.424C189.015 107.395 188.438 107.203 187.944 106.869C186.737 106.131 185.731 105.107 185.015 103.887C184.3 102.667 183.896 101.289 183.84 99.876C183.84 97.2419 185.615 96.326 188.043 97.746C189.416 98.6359 190.544 99.8566 191.323 101.296L189.839 102.467C189.465 101.577 188.857 100.804 188.078 100.231Z" fill="url(#paint8_linear_1411_6233)"/>
<path d="M198.324 103.774V106.11L196.109 104.832V111.471L193.545 109.987V103.369L191.344 102.099V99.7627L198.324 103.774Z" fill="url(#paint9_linear_1411_6233)"/>
<path d="M205.899 114.764C206.531 115.127 207.014 114.843 207.014 113.955V108.793L209.584 110.27V115.432C209.584 117.81 208.164 118.52 205.892 117.221C204.798 116.613 203.878 115.734 203.22 114.669C202.562 113.604 202.189 112.387 202.136 111.136V105.975L204.707 107.459V112.62C204.717 113.048 204.83 113.466 205.038 113.84C205.246 114.213 205.542 114.531 205.899 114.764Z" fill="url(#paint10_linear_1411_6233)"/>
<path d="M213.724 114.793C213.433 114.63 213.248 114.622 213.248 114.892C213.248 116.014 217.259 117.633 217.259 120.878C217.259 122.866 215.747 122.873 214.001 121.864C212.465 120.924 211.143 119.674 210.117 118.194L211.068 116.518C211.849 117.727 212.851 118.777 214.022 119.614C214.398 119.834 214.64 119.834 214.64 119.514C214.64 118.35 210.621 116.802 210.621 113.657C210.621 111.868 211.927 111.527 213.944 112.663C215.243 113.449 216.386 114.467 217.316 115.666L216.386 117.384C215.618 116.406 214.723 115.534 213.724 114.793Z" fill="url(#paint11_linear_1411_6233)"/>
<path d="M135.354 121.368C138.235 117.829 139.685 113.34 139.418 108.785C139.151 104.23 137.187 99.9409 133.913 96.763C130.639 93.5851 126.293 91.7497 121.733 91.6188C117.172 91.488 112.728 93.0712 109.277 96.0561C105.826 99.041 103.619 103.211 103.092 107.743C102.564 112.275 103.755 116.84 106.428 120.538C109.101 124.235 113.063 126.797 117.532 127.717C122.001 128.636 126.652 127.848 130.568 125.507L139.458 129.369L135.354 121.368Z" fill="url(#paint12_linear_1411_6233)"/>
<path opacity="0.4" d="M135.354 121.368C138.235 117.829 139.685 113.34 139.418 108.785C139.151 104.23 137.187 99.9409 133.913 96.763C130.639 93.5851 126.293 91.7497 121.733 91.6188C117.172 91.488 112.728 93.0712 109.277 96.0561C105.826 99.041 103.619 103.211 103.092 107.743C102.564 112.275 103.755 116.84 106.428 120.538C109.101 124.235 113.063 126.797 117.532 127.717C122.001 128.636 126.652 127.848 130.568 125.507L139.458 129.369L135.354 121.368Z" fill="black"/>
<path d="M114.451 108.872C114.451 108.595 114.253 108.439 113.891 108.439C113.051 108.549 112.266 108.919 111.647 109.497L110.639 107.537C111.7 106.739 112.982 106.287 114.309 106.245C116.013 106.245 117.306 107.14 117.306 108.475C117.306 109.426 116.596 110.342 115.687 111.258L114.416 112.514H117.419V114.602H110.965V112.891L113.841 109.916C114.151 109.642 114.364 109.276 114.451 108.872Z" fill="white"/>
<path d="M122.673 106.365L120.714 111.065H121.516V109.482H123.987V111.065H124.924V113.004H123.987V114.601H121.516V113.004H118.001V111.243L120.131 106.365H122.673Z" fill="white"/>
<path d="M132.549 110.504V114.601H129.908V111.264C129.923 111.155 129.915 111.045 129.884 110.94C129.853 110.834 129.799 110.737 129.727 110.654C129.655 110.572 129.566 110.505 129.466 110.46C129.367 110.414 129.258 110.391 129.148 110.391C128.63 110.391 128.304 110.795 128.304 111.42V114.601H125.662V105.896H128.304V109.099C128.51 108.772 128.798 108.505 129.139 108.323C129.48 108.141 129.863 108.051 130.249 108.062C130.566 108.054 130.88 108.113 131.173 108.234C131.465 108.356 131.728 108.538 131.945 108.769C132.162 108.999 132.328 109.273 132.433 109.572C132.537 109.871 132.576 110.189 132.549 110.504Z" fill="white"/>
<path d="M218.672 176.478V264.696C218.674 265.693 218.412 266.674 217.915 267.538C217.417 268.403 216.7 269.121 215.836 269.621C214.972 270.12 213.992 270.384 212.994 270.384C211.997 270.384 211.016 270.122 210.152 269.623L162.639 242.189L154.219 237.332C151.319 235.656 148.91 233.247 147.233 230.348C145.556 227.449 144.67 224.16 144.662 220.81V132.586C144.661 131.588 144.922 130.608 145.42 129.743C145.918 128.878 146.635 128.16 147.498 127.661C148.362 127.161 149.342 126.898 150.34 126.897C151.338 126.897 152.318 127.16 153.182 127.658L209.13 159.956C212.031 161.63 214.44 164.038 216.115 166.939C217.79 169.839 218.672 173.129 218.672 176.478Z" fill="url(#paint13_linear_1411_6233)"/>
<path opacity="0.5" d="M218.672 176.478V264.696C218.674 265.693 218.412 266.674 217.915 267.538C217.417 268.403 216.7 269.121 215.836 269.621C214.972 270.12 213.992 270.384 212.994 270.384C211.997 270.384 211.016 270.122 210.152 269.623L162.639 242.189L154.219 237.332C151.319 235.656 148.91 233.247 147.233 230.348C145.556 227.449 144.67 224.16 144.662 220.81V132.586C144.661 131.588 144.922 130.608 145.42 129.743C145.918 128.878 146.635 128.16 147.498 127.661C148.362 127.161 149.342 126.898 150.34 126.897C151.338 126.897 152.318 127.16 153.182 127.658L209.13 159.956C212.031 161.63 214.44 164.038 216.115 166.939C217.79 169.839 218.672 173.129 218.672 176.478Z" fill="white"/>
<path d="M191.302 228.677C191.302 228.677 200.198 243.431 193.773 260.066L162.618 242.188L191.302 228.677Z" fill="#263238"/>
<path d="M205.49 162.389C206.163 156.921 202.276 151.943 196.808 151.269C191.34 150.596 186.361 154.483 185.688 159.951C185.015 165.419 188.902 170.397 194.37 171.071C199.838 171.744 204.816 167.857 205.49 162.389Z" fill="#263238"/>
<path d="M195.64 133.189C195.64 133.189 198.7 128.219 199.637 128.581C200.575 128.943 199.027 133.679 199.027 133.679C199.027 133.679 203.656 134.645 202.797 135.809C201.938 136.974 196.279 136.697 196.279 136.697L195.64 133.189Z" fill="#263238"/>
<path d="M197.77 145.997C195.64 162.001 182.15 162.001 182.15 162.001L153.892 149.562C153.892 149.562 151.762 147.694 151.109 143.406C150.858 141.649 150.858 139.866 151.109 138.109C151.109 138.109 151.109 138.074 151.109 138.06C152.01 131.329 157.044 124.094 168.007 121.872C170.409 121.387 172.855 121.149 175.306 121.162C176.491 121.157 177.676 121.217 178.856 121.339C187.376 122.177 193.347 126.153 196.194 132.337C196.834 133.733 197.311 135.198 197.614 136.704C198.192 139.77 198.244 142.913 197.77 145.997Z" fill="#263238"/>
<path d="M129.929 176.954C129.929 176.954 119.897 176.606 116.035 186.382C116.035 186.382 120.295 189.258 125.882 186.382C131.47 183.507 129.929 176.954 129.929 176.954Z" fill="url(#paint14_linear_1411_6233)"/>
<path opacity="0.5" d="M129.929 176.954C129.929 176.954 119.897 176.606 116.035 186.382C116.035 186.382 120.295 189.258 125.882 186.382C131.47 183.507 129.929 176.954 129.929 176.954Z" fill="black"/>
<path d="M129.646 181.661C129.646 181.661 126.805 169.321 125.307 169.172C123.809 169.023 123.518 172.935 123.639 175.143L120.089 167.504C119.976 167.266 119.816 167.055 119.619 166.881C119.421 166.708 119.19 166.577 118.94 166.497C118.69 166.416 118.426 166.388 118.164 166.413C117.903 166.439 117.649 166.517 117.419 166.645C113.869 168.597 107.643 174.533 120.77 189.208L129.646 181.661Z" fill="#945959"/>
<path d="M165.997 173.127L163.867 172.85C161.721 172.565 159.537 172.857 157.541 173.696C155.544 174.534 153.807 175.889 152.507 177.621L139.834 194.491L129.894 176.954C129.894 176.954 128.701 188.882 115.999 186.383L129.638 209.337C130.502 210.79 131.703 212.013 133.14 212.902C134.578 213.791 136.209 214.32 137.894 214.444C139.58 214.567 141.271 214.281 142.822 213.611C144.374 212.941 145.741 211.906 146.806 210.594L158.479 196.244L165.997 173.127Z" fill="url(#paint15_linear_1411_6233)"/>
<path d="M193.049 212.496C190.209 219.695 189.896 221.101 191.629 224.701C192.835 227.359 193.786 230.126 194.469 232.965C194.469 232.965 181.305 247.719 162.568 242.195L154.148 237.339C152.396 236.329 150.819 235.044 149.476 233.533L152.039 214.42C152.168 213.414 152.066 212.392 151.741 211.431L149.05 203.543C147.737 199.69 147.541 195.544 148.486 191.585C149.431 187.626 151.478 184.015 154.389 181.171L163.434 172.331L187.191 175.37L190.741 176.385C193.065 177.057 195.069 178.546 196.383 180.576C197.698 182.607 198.236 185.044 197.898 187.44C196.733 195.818 194.831 207.973 193.049 212.496Z" fill="url(#paint16_linear_1411_6233)"/>
<path opacity="0.5" d="M193.049 212.496C190.209 219.695 189.896 221.101 191.629 224.701C192.835 227.359 193.786 230.126 194.469 232.965C194.469 232.965 181.305 247.719 162.568 242.195L154.148 237.339C152.396 236.329 150.819 235.044 149.476 233.533L152.039 214.42C152.168 213.414 152.066 212.392 151.741 211.431L149.05 203.543C147.737 199.69 147.541 195.544 148.486 191.585C149.431 187.626 151.478 184.015 154.389 181.171L163.434 172.331L187.191 175.37L190.741 176.385C193.065 177.057 195.069 178.546 196.383 180.576C197.698 182.607 198.236 185.044 197.898 187.44C196.733 195.818 194.831 207.973 193.049 212.496Z" fill="black"/>
<path d="M178.721 190.99L173.964 186.936C173.46 186.505 172.852 186.213 172.201 186.089C171.55 185.964 170.878 186.012 170.25 186.226L164.499 188.207L163.726 184.984C163.605 184.482 163.384 184.01 163.076 183.597C162.767 183.183 162.379 182.836 161.933 182.577C161.487 182.317 160.993 182.151 160.481 182.087C159.969 182.024 159.45 182.065 158.954 182.208L156.462 182.918L160.68 174.838C162.057 172.206 164.178 170.038 166.779 168.604L168.433 167.695L182.1 168.405C182.1 168.405 187.191 170.535 187.191 175.328L178.721 190.948" fill="url(#paint17_linear_1411_6233)"/>
<path d="M182.157 174.461L168.454 185.14V151.138H182.157V174.461Z" fill="#945959"/>
<path d="M168.667 171.657L164.499 188.236L182.1 174.462L168.667 171.657Z" fill="#945959"/>
<path d="M168.454 169.193C171.501 168.062 174.286 166.323 176.641 164.082C178.995 161.841 180.87 159.145 182.15 156.157V151.138H168.447L168.454 169.193Z" fill="#703838"/>
<path d="M171.408 125.94C166.21 125.94 155.163 128.837 153.885 142.441C152.607 156.044 153.842 166.581 160.857 167.603C167.872 168.626 184.173 163.535 186.36 145.927C188.547 128.319 176.47 125.94 171.408 125.94Z" fill="#945959"/>
<path d="M163.229 148.198V156.214L158.528 154.773L163.229 148.198Z" fill="#703838"/>
<path d="M168.454 151.216C169.356 151.216 170.087 150.485 170.087 149.583C170.087 148.681 169.356 147.95 168.454 147.95C167.552 147.95 166.821 148.681 166.821 149.583C166.821 150.485 167.552 151.216 168.454 151.216Z" fill="#263238"/>
<path d="M159.338 148.447C159.336 148.769 159.239 149.084 159.059 149.352C158.879 149.62 158.623 149.828 158.325 149.95C158.026 150.073 157.698 150.104 157.382 150.04C157.065 149.977 156.775 149.82 156.548 149.592C156.32 149.363 156.165 149.072 156.103 148.756C156.04 148.439 156.073 148.111 156.197 147.813C156.32 147.515 156.53 147.26 156.798 147.081C157.067 146.902 157.382 146.807 157.705 146.807C157.92 146.807 158.133 146.849 158.331 146.932C158.53 147.014 158.71 147.135 158.862 147.287C159.014 147.44 159.134 147.621 159.215 147.82C159.297 148.019 159.339 148.232 159.338 148.447Z" fill="#263238"/>
<path d="M155.71 145.039L158.905 143.143C158.905 143.143 157.683 141.872 156.462 142.632C155.241 143.391 155.71 145.039 155.71 145.039Z" fill="#263238"/>
<path d="M161.02 159.467C162.576 159.58 164.125 159.165 165.415 158.288C165.415 158.288 165.721 160.61 163.775 161.05C161.83 161.49 161.02 159.467 161.02 159.467Z" fill="#703838"/>
<path d="M158.23 130.569C158.23 130.569 160.183 149.349 185.721 149.938C185.721 149.938 193.439 131.272 178.188 125.209C162.937 119.145 158.23 130.569 158.23 130.569Z" fill="#263238"/>
<path d="M193.24 147.127L190.102 145.309C188.909 144.599 187.262 144.699 185.437 145.749C181.816 147.837 178.877 152.928 178.877 157.109C178.877 159.204 179.587 160.659 180.808 161.369L183.889 163.144L184.067 163.244L184.173 163.308C185.338 163.876 186.893 163.741 188.604 162.754C192.225 160.624 195.164 155.576 195.164 151.394C195.143 149.278 194.412 147.816 193.24 147.127Z" fill="url(#paint18_linear_1411_6233)"/>
<path d="M193.215 157.82C195.776 153.385 195.776 148.591 193.215 147.113C190.655 145.635 186.504 148.032 183.943 152.467C181.382 156.902 181.382 161.695 183.943 163.174C186.503 164.652 190.655 162.255 193.215 157.82Z" fill="url(#paint19_linear_1411_6233)"/>
<path opacity="0.5" d="M193.215 157.82C195.776 153.385 195.776 148.591 193.215 147.113C190.655 145.635 186.504 148.032 183.943 152.467C181.382 156.902 181.382 161.695 183.943 163.174C186.503 164.652 190.655 162.255 193.215 157.82Z" fill="black"/>
<path d="M194.497 151.067L192.367 149.825C191.557 149.342 190.429 149.406 189.179 150.123C187.874 150.976 186.787 152.124 186.008 153.475C185.228 154.825 184.777 156.34 184.692 157.898C184.692 159.318 185.196 160.333 186.012 160.801L188.142 162.016C188.18 162.043 188.221 162.067 188.263 162.087L188.334 162.129C188.833 162.319 189.371 162.383 189.901 162.316C190.431 162.249 190.936 162.053 191.373 161.746C192.677 160.893 193.763 159.746 194.543 158.397C195.322 157.048 195.773 155.534 195.86 153.978C195.803 152.537 195.306 151.536 194.497 151.067Z" fill="url(#paint20_linear_1411_6233)"/>
<path d="M195.803 153.964C195.717 155.52 195.265 157.033 194.486 158.382C193.706 159.732 192.621 160.879 191.316 161.731C188.831 163.151 186.822 162.001 186.822 159.14C186.906 157.582 187.357 156.067 188.138 154.717C188.919 153.367 190.008 152.221 191.316 151.372C193.794 149.938 195.803 151.095 195.803 153.964Z" fill="url(#paint21_linear_1411_6233)"/>
<path opacity="0.3" d="M195.803 153.964C195.717 155.52 195.265 157.033 194.486 158.382C193.706 159.732 192.621 160.879 191.316 161.731C188.831 163.151 186.822 162.001 186.822 159.14C186.906 157.582 187.357 156.067 188.138 154.717C188.919 153.367 190.008 152.221 191.316 151.372C193.794 149.938 195.803 151.095 195.803 153.964Z" fill="black"/>
<path d="M183.492 122.276C181.456 120.704 178.964 119.839 176.392 119.813H175.76C173.156 119.785 170.556 120.023 168 120.523C168.468 120.523 168.937 120.523 169.42 120.523H168V121.843H169.32C173.872 121.998 178.184 123.917 181.347 127.193C184.51 130.47 186.274 134.848 186.268 139.402V144.989C186.268 145.21 186.314 145.429 186.404 145.631C186.493 145.832 186.624 146.013 186.788 146.161C186.952 146.309 187.146 146.421 187.356 146.489C187.566 146.558 187.788 146.581 188.007 146.558H188.171L189.591 146.118C189.496 146.148 189.399 146.167 189.3 146.175C189.723 146.118 190.11 145.906 190.388 145.582C190.666 145.257 190.814 144.841 190.805 144.414V139.231C190.791 129.852 186.737 124.811 183.492 122.276Z" fill="url(#paint22_linear_1411_6233)"/>
<path d="M174.553 167.212C173.967 167.212 173.389 167.086 172.856 166.843L168.419 164.791C168.349 164.766 168.286 164.727 168.232 164.677C168.179 164.626 168.136 164.565 168.107 164.497C168.079 164.429 168.064 164.356 168.065 164.282C168.066 164.209 168.083 164.136 168.113 164.069C168.144 164.002 168.188 163.942 168.243 163.893C168.298 163.843 168.363 163.806 168.433 163.783C168.503 163.761 168.577 163.753 168.65 163.76C168.723 163.767 168.795 163.789 168.859 163.826L173.296 165.877C173.862 166.141 174.496 166.22 175.11 166.106C175.723 165.991 176.286 165.688 176.718 165.238L180.978 160.836C181.078 160.737 181.214 160.681 181.355 160.681C181.496 160.681 181.631 160.737 181.731 160.836C181.829 160.937 181.884 161.072 181.884 161.213C181.884 161.353 181.829 161.488 181.731 161.589L177.471 165.991C177.092 166.38 176.638 166.689 176.137 166.899C175.635 167.109 175.097 167.215 174.553 167.212Z" fill="url(#paint23_linear_1411_6233)"/>
<path opacity="0.5" d="M174.553 167.212C173.967 167.212 173.389 167.086 172.856 166.843L168.419 164.791C168.349 164.766 168.286 164.727 168.232 164.677C168.179 164.626 168.136 164.565 168.107 164.497C168.079 164.429 168.064 164.356 168.065 164.282C168.066 164.209 168.083 164.136 168.113 164.069C168.144 164.002 168.188 163.942 168.243 163.893C168.298 163.843 168.363 163.806 168.433 163.783C168.503 163.761 168.577 163.753 168.65 163.76C168.723 163.767 168.795 163.789 168.859 163.826L173.296 165.877C173.862 166.141 174.496 166.22 175.11 166.106C175.723 165.991 176.286 165.688 176.718 165.238L180.978 160.836C181.078 160.737 181.214 160.681 181.355 160.681C181.496 160.681 181.631 160.737 181.731 160.836C181.829 160.937 181.884 161.072 181.884 161.213C181.884 161.353 181.829 161.488 181.731 161.589L177.471 165.991C177.092 166.38 176.638 166.689 176.137 166.899C175.635 167.109 175.097 167.215 174.553 167.212Z" fill="black"/>
<path d="M169.583 163.301C169.583 163.711 169.461 164.112 169.234 164.453C169.006 164.793 168.682 165.059 168.303 165.216C167.924 165.373 167.507 165.414 167.105 165.334C166.703 165.254 166.334 165.057 166.044 164.767C165.754 164.477 165.556 164.107 165.476 163.705C165.396 163.303 165.437 162.886 165.594 162.507C165.751 162.129 166.017 161.805 166.358 161.577C166.699 161.349 167.1 161.228 167.51 161.228C168.06 161.228 168.587 161.446 168.976 161.835C169.365 162.224 169.583 162.751 169.583 163.301Z" fill="url(#paint24_linear_1411_6233)"/>
<path opacity="0.5" d="M169.583 163.301C169.583 163.711 169.461 164.112 169.234 164.453C169.006 164.793 168.682 165.059 168.303 165.216C167.924 165.373 167.507 165.414 167.105 165.334C166.703 165.254 166.334 165.057 166.044 164.767C165.754 164.477 165.556 164.107 165.476 163.705C165.396 163.303 165.437 162.886 165.594 162.507C165.751 162.129 166.017 161.805 166.358 161.577C166.699 161.349 167.1 161.228 167.51 161.228C168.06 161.228 168.587 161.446 168.976 161.835C169.365 162.224 169.583 162.751 169.583 163.301Z" fill="black"/>
<path d="M190.791 139.231V144.414C190.8 144.841 190.651 145.257 190.374 145.582C190.096 145.906 189.709 146.118 189.285 146.175C189.052 146.2 188.815 146.175 188.591 146.103C188.368 146.03 188.162 145.911 187.987 145.754C187.812 145.597 187.672 145.404 187.577 145.189C187.481 144.974 187.432 144.742 187.432 144.506V139.231C187.436 136.714 186.931 134.221 185.947 131.904C184.962 129.586 183.519 127.492 181.705 125.747C179.89 124.002 177.741 122.642 175.387 121.749C173.033 120.856 170.522 120.449 168.007 120.551C170.563 120.051 173.163 119.813 175.767 119.841H176.385C178.957 119.868 181.449 120.733 183.485 122.305C186.737 124.811 190.791 129.852 190.791 139.231Z" fill="url(#paint25_linear_1411_6233)"/>
<path opacity="0.5" d="M190.791 139.231V144.414C190.8 144.841 190.651 145.257 190.374 145.582C190.096 145.906 189.709 146.118 189.285 146.175C189.052 146.2 188.815 146.175 188.591 146.103C188.368 146.03 188.162 145.911 187.987 145.754C187.812 145.597 187.672 145.404 187.577 145.189C187.481 144.974 187.432 144.742 187.432 144.506V139.231C187.436 136.714 186.931 134.221 185.947 131.904C184.962 129.586 183.519 127.492 181.705 125.747C179.89 124.002 177.741 122.642 175.387 121.749C173.033 120.856 170.522 120.449 168.007 120.551C170.563 120.051 173.163 119.813 175.767 119.841H176.385C178.957 119.868 181.449 120.733 183.485 122.305C186.737 124.811 190.791 129.852 190.791 139.231Z" fill="black"/>
<path d="M182.81 236.906C182.81 236.906 179.374 246.371 191.657 250.631C191.657 250.631 195.668 244.738 191.657 239.917C187.645 235.096 182.81 236.906 182.81 236.906Z" fill="url(#paint26_linear_1411_6233)"/>
<path opacity="0.7" d="M182.81 236.906C182.81 236.906 179.374 246.371 191.657 250.631C191.657 250.631 195.668 244.738 191.657 239.917C187.645 235.096 182.81 236.906 182.81 236.906Z" fill="black"/>
<path d="M187.12 237.339C187.12 237.339 175.121 241.734 175.185 243.438C175.249 245.142 180.283 243.977 180.283 243.977L178.444 245.184C176.507 246.448 175.007 248.278 174.148 250.424C173.961 250.898 173.954 251.423 174.13 251.901C174.305 252.379 174.651 252.776 175.1 253.016L179.658 255.43C179.915 255.566 180.197 255.65 180.488 255.675C180.778 255.701 181.07 255.668 181.348 255.579C181.625 255.489 181.882 255.345 182.102 255.155C182.323 254.965 182.504 254.732 182.633 254.471C182.887 253.969 183.238 253.522 183.666 253.157C184.093 252.791 184.589 252.514 185.125 252.341C187.603 251.518 192.225 249.146 194.078 242.657L187.12 237.339Z" fill="#945959"/>
<path d="M190.72 176.371C190.72 176.371 184.33 179.921 187.724 190.699C191.117 201.477 197.486 218.197 197.486 218.197L182.81 236.906C184.378 237.095 185.889 237.612 187.243 238.425C188.597 239.237 189.765 240.326 190.67 241.62C191.537 242.936 192.079 244.439 192.25 246.006C192.422 247.573 192.218 249.157 191.657 250.63L209.875 227.2C211.56 225.035 212.679 222.484 213.13 219.778C213.581 217.071 213.351 214.295 212.46 211.701L204.65 188.895C203.695 186.11 202.109 183.583 200.015 181.512C197.921 179.442 195.376 177.884 192.58 176.96L190.72 176.371Z" fill="url(#paint27_linear_1411_6233)"/>
<path d="M82.8565 112.705L54.6198 96.3748C54.2949 96.1496 53.9189 96.0089 53.5259 95.9655C53.133 95.9221 52.7354 95.9774 52.3691 96.1263C52.2919 96.162 52.2182 96.2047 52.149 96.2541L46.0075 99.8538H46.0501C45.2762 100.294 44.7863 101.316 44.7863 102.779V134.189C44.7863 136.845 46.398 139.933 48.3931 141.084L76.6298 157.414C76.9881 157.673 77.4146 157.821 77.8563 157.84C78.2981 157.859 78.7357 157.748 79.1148 157.52C79.0956 157.528 79.0786 157.54 79.0651 157.556L85.164 154.006C85.9592 153.58 86.4633 152.543 86.4633 151.059V119.599C86.4633 116.944 84.88 113.855 82.8565 112.705Z" fill="url(#paint28_linear_1411_6233)"/>
<path d="M85.4551 115.68C84.8838 114.465 83.9836 113.434 82.8565 112.705L54.6198 96.3748C54.2949 96.1496 53.9189 96.0089 53.5259 95.9655C53.133 95.9221 52.7354 95.9774 52.3691 96.1263C52.2919 96.162 52.2182 96.2047 52.149 96.2541L46.0075 99.8538C46.3832 99.6618 46.8044 99.5768 47.2252 99.6081C47.6459 99.6394 48.05 99.7858 48.3931 100.031L76.6298 116.361C77.7953 117.123 78.719 118.202 79.2923 119.471L85.4551 115.68Z" fill="url(#paint29_linear_1411_6233)"/>
<path d="M80.2366 154.652C80.2366 156.072 79.7822 157.058 79.0651 157.492L85.164 153.942C85.9592 153.516 86.4633 152.479 86.4633 150.995V119.599C86.4333 118.232 86.0883 116.891 85.4551 115.68L79.2923 119.471C79.884 120.647 80.2066 121.94 80.2366 123.255V154.652Z" fill="url(#paint30_linear_1411_6233)"/>
<path opacity="0.3" d="M85.4551 115.68C84.8838 114.465 83.9836 113.434 82.8565 112.705L54.6198 96.3748C54.2949 96.1496 53.9189 96.0089 53.5259 95.9655C53.133 95.9221 52.7354 95.9774 52.3691 96.1263C52.2919 96.162 52.2182 96.2047 52.149 96.2541L46.0075 99.8538C46.3832 99.6618 46.8044 99.5768 47.2252 99.6081C47.6459 99.6394 48.05 99.7858 48.3931 100.031L76.6298 116.361C77.7953 117.123 78.719 118.202 79.2923 119.471L85.4551 115.68Z" fill="black"/>
<path opacity="0.6" d="M80.2366 154.652C80.2366 156.072 79.7822 157.058 79.0651 157.492L85.164 153.942C85.9592 153.516 86.4633 152.479 86.4633 150.995V119.599C86.4333 118.232 86.0883 116.891 85.4551 115.68L79.2923 119.471C79.884 120.647 80.2066 121.94 80.2366 123.255V154.652Z" fill="black"/>
<path d="M71.958 132.251C71.958 136.32 70.3463 137.704 67.9323 136.306C67.2664 135.926 66.6841 135.416 66.2204 134.806C65.7567 134.196 65.4213 133.499 65.2343 132.756C64.5243 133.629 63.4238 133.686 61.876 132.791C59.3342 131.321 57.332 127.821 57.332 124.42C57.332 121.019 59.3129 119.848 61.876 121.325C63.1766 122.091 64.2272 123.218 64.9006 124.569V123.227L67.5773 124.775V132.131C67.5374 132.518 67.6044 132.908 67.7709 133.26C67.9373 133.612 68.197 133.911 68.5216 134.126C69.4233 134.651 69.9771 133.764 69.9771 131.13C69.9771 126.522 67.0235 121.637 62.657 119.116C58.2905 116.596 55.344 118.35 55.344 123.092C55.4012 125.609 56.0947 128.07 57.3598 130.247C58.6248 132.423 60.4203 134.244 62.5789 135.539C63.7509 136.261 65.0819 136.685 66.4555 136.774L67.0874 139.224C65.488 139.095 63.9423 138.586 62.5789 137.74C56.8989 134.452 53.143 127.835 53.143 121.843C53.143 115.85 56.9344 113.678 62.657 116.986C68.1879 120.174 71.958 126.557 71.958 132.251ZM64.9432 128.836C64.957 127.936 64.7373 127.048 64.3056 126.257C63.8738 125.467 63.2447 124.802 62.4795 124.328C61.0595 123.497 60.0442 124.079 60.0442 126.011C60.0259 126.912 60.2405 127.804 60.667 128.598C61.0936 129.393 61.7179 130.064 62.4795 130.547C63.8995 131.35 64.9432 130.831 64.9432 128.836Z" fill="url(#paint31_linear_1411_6233)"/>
<g opacity="0.9">
<path d="M71.958 132.251C71.958 136.32 70.3463 137.704 67.9323 136.306C67.2664 135.926 66.6841 135.416 66.2204 134.806C65.7567 134.196 65.4213 133.499 65.2343 132.756C64.5243 133.629 63.4238 133.686 61.876 132.791C59.3342 131.321 57.332 127.821 57.332 124.42C57.332 121.019 59.3129 119.848 61.876 121.325C63.1766 122.091 64.2272 123.218 64.9006 124.569V123.227L67.5773 124.775V132.131C67.5374 132.518 67.6044 132.908 67.7709 133.26C67.9373 133.612 68.197 133.911 68.5216 134.126C69.4233 134.651 69.9771 133.764 69.9771 131.13C69.9771 126.522 67.0235 121.637 62.657 119.116C58.2905 116.596 55.344 118.35 55.344 123.092C55.4012 125.609 56.0947 128.07 57.3598 130.247C58.6248 132.423 60.4203 134.244 62.5789 135.539C63.7509 136.261 65.0819 136.685 66.4555 136.774L67.0874 139.224C65.488 139.095 63.9423 138.586 62.5789 137.74C56.8989 134.452 53.143 127.835 53.143 121.843C53.143 115.85 56.9344 113.678 62.657 116.986C68.1879 120.174 71.958 126.557 71.958 132.251ZM64.9432 128.836C64.957 127.936 64.7373 127.048 64.3056 126.257C63.8738 125.467 63.2447 124.802 62.4795 124.328C61.0595 123.497 60.0442 124.079 60.0442 126.011C60.0259 126.912 60.2405 127.804 60.667 128.598C61.0936 129.393 61.7179 130.064 62.4795 130.547C63.8995 131.35 64.9432 130.831 64.9432 128.836Z" fill="white"/>
</g>
<path d="M82.8565 168.639L54.6198 152.309C54.2953 152.082 53.9189 151.941 53.5254 151.899C53.132 151.857 52.7343 151.915 52.3691 152.067C52.2919 152.103 52.2182 152.146 52.149 152.195L46.0075 155.795H46.0501C45.2762 156.235 44.7863 157.257 44.7863 158.713V190.109C44.7863 192.772 46.398 195.853 48.3931 197.003L76.6298 213.333C76.9873 213.594 77.414 213.743 77.8562 213.762C78.2984 213.781 78.7363 213.669 79.1148 213.44L79.0651 213.482L85.164 209.897C85.9592 209.478 86.4633 208.477 86.4633 206.95V175.526C86.4633 172.87 84.88 169.789 82.8565 168.639Z" fill="url(#paint32_linear_1411_6233)"/>
<path d="M85.4551 171.614C84.8858 170.397 83.9851 169.366 82.8565 168.639L54.6198 152.309C54.2953 152.082 53.9189 151.941 53.5254 151.899C53.132 151.857 52.7342 151.915 52.3691 152.067C52.2919 152.103 52.2182 152.146 52.149 152.195L46.0075 155.795C46.3823 155.601 46.8034 155.514 47.2243 155.544C47.6452 155.574 48.0496 155.72 48.3931 155.965L76.6298 172.295C77.7971 173.058 78.7211 174.14 79.2923 175.412L85.4551 171.614Z" fill="url(#paint33_linear_1411_6233)"/>
<path d="M80.2366 210.579C80.2366 211.999 79.7822 212.986 79.0651 213.455L85.164 209.869C85.9592 209.45 86.4633 208.449 86.4633 206.923V175.526C86.4332 174.162 86.0882 172.823 85.4551 171.614L79.2923 175.406C79.8839 176.579 80.2065 177.869 80.2366 179.183V210.579Z" fill="url(#paint34_linear_1411_6233)"/>
<path opacity="0.3" d="M85.4551 171.614C84.8858 170.397 83.9851 169.366 82.8565 168.639L54.6198 152.309C54.2953 152.082 53.9189 151.941 53.5254 151.899C53.132 151.857 52.7342 151.915 52.3691 152.067C52.2919 152.103 52.2182 152.146 52.149 152.195L46.0075 155.795C46.3823 155.601 46.8034 155.514 47.2243 155.544C47.6452 155.574 48.0496 155.72 48.3931 155.965L76.6298 172.295C77.7971 173.058 78.7211 174.14 79.2923 175.412L85.4551 171.614Z" fill="black"/>
<path opacity="0.6" d="M80.2366 210.579C80.2366 211.999 79.7822 212.986 79.0651 213.455L85.164 209.869C85.9592 209.45 86.4633 208.449 86.4633 206.923V175.526C86.4332 174.162 86.0882 172.823 85.4551 171.614L79.2923 175.406C79.8839 176.579 80.2065 177.869 80.2366 179.183V210.579Z" fill="black"/>
<path d="M59.3555 182.676L52.5466 171.614V186.602L59.3555 182.676Z" fill="url(#paint35_linear_1411_6233)"/>
<path d="M65.6816 185.863L72.4763 197.628V182.661L65.6816 185.863Z" fill="url(#paint36_linear_1411_6233)"/>
<path d="M53.5761 171.109L60.5696 182.469C60.5992 182.494 60.6255 182.523 60.6477 182.555C60.6539 182.583 60.6539 182.612 60.6477 182.64L62.728 186.019L64.4888 185.189C64.5162 185.159 64.5472 185.133 64.5811 185.111C64.6505 185.07 64.7282 185.046 64.8083 185.04L71.9083 181.71L53.5761 171.109Z" fill="url(#paint37_linear_1411_6233)"/>
<path d="M64.6521 186.347L62.7493 187.241C62.676 187.275 62.5959 187.292 62.515 187.291C62.417 187.292 62.3204 187.268 62.2346 187.221C62.1487 187.173 62.0766 187.105 62.0251 187.021L59.9448 183.642L53.1146 187.589L71.4965 198.197L64.6521 186.347Z" fill="url(#paint38_linear_1411_6233)"/>
<g opacity="0.9">
<path d="M59.3555 182.675L52.5466 171.613V186.601L59.3555 182.675Z" fill="white"/>
<path d="M65.6816 185.863L72.4763 197.628V182.661L65.6816 185.863Z" fill="white"/>
<path d="M53.5761 171.109L60.5696 182.469C60.5992 182.494 60.6255 182.523 60.6477 182.555C60.6539 182.583 60.6539 182.612 60.6477 182.64L62.728 186.019L64.4888 185.189C64.5162 185.159 64.5472 185.133 64.5811 185.111C64.6505 185.07 64.7282 185.046 64.8083 185.04L71.9083 181.71L53.5761 171.109Z" fill="white"/>
<path d="M64.6521 186.346L62.7493 187.24C62.676 187.274 62.5959 187.291 62.515 187.29C62.417 187.291 62.3204 187.267 62.2346 187.22C62.1487 187.172 62.0766 187.104 62.0251 187.02L59.9448 183.641L53.1146 187.588L71.4965 198.196L64.6521 186.346Z" fill="white"/>
</g>
<path d="M82.8565 56.7998L54.6198 40.4698C54.2953 40.2433 53.9189 40.1025 53.5254 40.0603C53.132 40.0181 52.7343 40.0759 52.3691 40.2284C52.2919 40.2641 52.2182 40.3068 52.149 40.3562L46.0075 43.9559H46.0501C45.2762 44.389 44.7863 45.4185 44.7863 46.874V78.2702C44.7863 80.9256 46.398 84.0141 48.3931 85.1643L76.6298 101.494C76.9873 101.755 77.414 101.904 77.8562 101.923C78.2984 101.942 78.7363 101.83 79.1148 101.601L79.0651 101.636L85.164 98.0863C85.9592 97.6674 86.4633 96.6663 86.4633 95.1398V63.6655C86.4633 61.0101 84.88 57.9216 82.8565 56.7998Z" fill="url(#paint39_linear_1411_6233)"/>
<path d="M85.4551 59.7534C84.8859 58.5352 83.9854 57.5018 82.8565 56.7714L54.6198 40.4698C54.2953 40.2433 53.9189 40.1025 53.5254 40.0603C53.132 40.0181 52.7342 40.0759 52.3691 40.2284C52.2919 40.2641 52.2182 40.3068 52.149 40.3562L46.0075 43.9559C46.3823 43.7621 46.8034 43.6754 47.2243 43.7055C47.6452 43.7356 48.0496 43.8812 48.3931 44.1263L76.6298 60.4563C77.7971 61.2193 78.7211 62.301 79.2923 63.5732L85.4551 59.7534Z" fill="url(#paint40_linear_1411_6233)"/>
<path d="M80.2366 98.6893C80.2366 100.109 79.7822 101.096 79.0651 101.529L85.164 97.9793C85.9592 97.5604 86.4633 96.5593 86.4633 95.0328V63.665C86.4332 62.3007 86.0882 60.9618 85.4551 59.7529L79.2923 63.5443C79.8839 64.7176 80.2065 66.0079 80.2366 67.3215V98.6893Z" fill="url(#paint41_linear_1411_6233)"/>
<path opacity="0.3" d="M85.4551 59.7534C84.8859 58.5352 83.9854 57.5018 82.8565 56.7714L54.6198 40.4698C54.2953 40.2433 53.9189 40.1025 53.5254 40.0603C53.132 40.0181 52.7342 40.0759 52.3691 40.2284C52.2919 40.2641 52.2182 40.3068 52.149 40.3562L46.0075 43.9559C46.3823 43.7621 46.8034 43.6754 47.2243 43.7055C47.6452 43.7356 48.0496 43.8812 48.3931 44.1263L76.6298 60.4563C77.7971 61.2193 78.7211 62.301 79.2923 63.5732L85.4551 59.7534Z" fill="black"/>
<path opacity="0.6" d="M80.2366 98.6893C80.2366 100.109 79.7822 101.096 79.0651 101.529L85.164 97.9793C85.9592 97.5604 86.4633 96.5593 86.4633 95.0328V63.665C86.4332 62.3007 86.0882 60.9618 85.4551 59.7529L79.2923 63.5443C79.8839 64.7176 80.2065 66.0079 80.2366 67.3215V98.6893Z" fill="black"/>
<path d="M70.9995 85.1995C69.9132 83.4103 68.8198 81.6495 67.7335 79.8461C67.5612 79.5045 67.3203 79.2021 67.0259 78.9578C66.7315 78.7135 66.3899 78.5325 66.0224 78.4261C65.497 78.3196 64.9716 78.1989 64.432 78.0427C64.2398 77.9626 64.0782 77.8233 63.9705 77.6451C62.1929 74.6029 60.7798 71.3619 59.7602 67.9891C59.7385 67.917 59.7324 67.8411 59.7421 67.7665C59.7519 67.6918 59.7775 67.6201 59.817 67.556C60.1507 67.2223 60.527 66.917 60.8678 66.6188C61.2086 66.3206 61.3861 65.6319 61.1376 64.7373C60.6122 62.8416 60.1081 60.9459 59.5827 59.0573C59.481 58.5207 59.2398 58.0203 58.8834 57.6065C58.5269 57.1927 58.0678 56.8801 57.5521 56.7001C56.4071 56.3818 55.1916 56.4265 54.0731 56.8279C53.64 56.9912 53.4128 57.3817 53.4057 58.0562C53.5903 59.3555 53.711 60.6406 53.9595 61.9612C55.7108 71.4847 59.9235 80.2414 66.5975 88.2312C66.7717 88.4962 67.0058 88.7165 67.2808 88.8743C67.5559 89.0322 67.8641 89.1232 68.1808 89.14C69.2857 89.1138 70.3473 88.7047 71.1841 87.9827C71.816 87.4147 71.7521 86.4065 70.9995 85.1995Z" fill="url(#paint42_linear_1411_6233)"/>
<path d="M70.9143 75.5223C70.7658 73.4801 70.2029 71.4895 69.26 69.6719C68.556 68.252 67.6601 66.9356 66.5975 65.7598C66.3206 65.4474 66.0863 65.348 65.9443 65.5823C65.8023 65.8166 65.9443 66.1503 66.2141 66.4556L66.491 66.7751C68.4534 69.0404 69.6902 71.8429 70.041 74.8194C70.0375 75.0365 70.059 75.2533 70.1049 75.4655C70.1941 75.7097 70.3373 75.9305 70.5238 76.1116C70.6729 76.2181 70.8433 76.1116 70.964 76.1116C70.9214 75.8205 70.9285 75.6714 70.9143 75.5223Z" fill="url(#paint43_linear_1411_6233)"/>
<path d="M64.4817 69.6938C65.3733 70.6745 65.9151 71.9228 66.0224 73.2438C66.0692 73.4447 66.1433 73.6381 66.2425 73.8189C66.6756 74.1739 66.8886 74.0532 66.8886 73.6059C66.7368 71.9121 66.0363 70.3142 64.8935 69.0548C64.6237 68.7779 64.4036 68.6927 64.2758 68.927C64.2299 69.0608 64.2249 69.2052 64.2616 69.3419C64.2983 69.4785 64.3749 69.601 64.4817 69.6938Z" fill="url(#paint44_linear_1411_6233)"/>
<g opacity="0.9">
<path d="M70.9995 85.1995C69.9132 83.4103 68.8198 81.6495 67.7335 79.8461C67.5612 79.5045 67.3203 79.2021 67.0259 78.9578C66.7315 78.7135 66.3899 78.5325 66.0224 78.4261C65.497 78.3196 64.9716 78.1989 64.432 78.0427C64.2398 77.9626 64.0782 77.8233 63.9705 77.6451C62.1929 74.6029 60.7798 71.3619 59.7602 67.9891C59.7385 67.917 59.7324 67.8411 59.7421 67.7665C59.7519 67.6918 59.7775 67.6201 59.817 67.556C60.1507 67.2223 60.527 66.917 60.8678 66.6188C61.2086 66.3206 61.3861 65.6319 61.1376 64.7373C60.6122 62.8416 60.1081 60.9459 59.5827 59.0573C59.481 58.5207 59.2398 58.0203 58.8834 57.6065C58.5269 57.1927 58.0678 56.8801 57.5521 56.7001C56.4071 56.3818 55.1916 56.4265 54.0731 56.8279C53.64 56.9912 53.4128 57.3817 53.4057 58.0562C53.5903 59.3555 53.711 60.6406 53.9595 61.9612C55.7108 71.4847 59.9235 80.2414 66.5975 88.2312C66.7717 88.4962 67.0058 88.7165 67.2808 88.8743C67.5559 89.0322 67.8641 89.1232 68.1808 89.14C69.2857 89.1138 70.3473 88.7047 71.1841 87.9827C71.816 87.4147 71.7521 86.4065 70.9995 85.1995Z" fill="white"/>
<path d="M70.9143 75.5223C70.7658 73.4801 70.2029 71.4895 69.26 69.6719C68.556 68.252 67.6601 66.9356 66.5975 65.7598C66.3206 65.4474 66.0863 65.348 65.9443 65.5823C65.8023 65.8166 65.9443 66.1503 66.2141 66.4556L66.491 66.7751C68.4534 69.0404 69.6902 71.8429 70.041 74.8194C70.0375 75.0365 70.059 75.2533 70.1049 75.4655C70.1941 75.7097 70.3373 75.9305 70.5238 76.1116C70.6729 76.2181 70.8433 76.1116 70.964 76.1116C70.9214 75.8205 70.9285 75.6714 70.9143 75.5223Z" fill="white"/>
<path d="M64.4817 69.6928C65.3733 70.6735 65.915 71.9218 66.0224 73.2428C66.0691 73.4437 66.1432 73.6372 66.2425 73.8179C66.6756 74.1729 66.8886 74.0522 66.8886 73.6049C66.7368 71.9111 66.0363 70.3132 64.8935 69.0538C64.6237 68.7769 64.4036 68.6917 64.2758 68.926C64.2298 69.0598 64.2248 69.2043 64.2615 69.3409C64.2982 69.4775 64.3749 69.6001 64.4817 69.6928Z" fill="white"/>
</g>
<path d="M227.732 37.971L234.385 41.7553V39.3981C234.385 39.2348 234.385 39.0644 234.385 38.9011C234.385 38.7378 234.385 38.5816 234.385 38.4254V38.3402C234.626 35.2233 236.99 34.0234 239.873 35.6919C241.178 36.4946 242.296 37.567 243.153 38.8372C243.799 34.5772 247.257 33.072 251.439 35.4789C256.082 38.1627 259.845 44.7089 259.845 50.0481V55.0891C259.839 55.4923 259.938 55.8902 260.134 56.2429C260.329 56.5955 260.614 56.8906 260.96 57.0984L264.879 59.3917C265.725 59.8932 266.426 60.6057 266.914 61.4594C267.402 62.3132 267.66 63.279 267.662 64.2623C267.663 64.6702 267.555 65.071 267.351 65.4243C267.147 65.7775 266.853 66.0708 266.5 66.2745C266.147 66.4782 265.746 66.5852 265.338 66.5847C264.93 66.5842 264.529 66.4762 264.176 66.2716L227.831 45.2627C226.867 44.7027 226.066 43.9002 225.508 42.9349C224.95 41.9696 224.655 40.8751 224.651 39.7602C224.65 39.3993 224.745 39.0446 224.925 38.7318C225.105 38.4189 225.364 38.1588 225.676 37.9776C225.988 37.7964 226.342 37.7004 226.703 37.6992C227.064 37.6981 227.419 37.7918 227.732 37.971Z" fill="#E6E6E6"/>
<path d="M278.447 36.9837L283.282 39.7598V38.0274C283.282 37.9067 283.282 37.786 283.282 37.6653C283.282 37.5446 283.282 37.431 283.282 37.3174V37.2748C283.46 35.0099 285.178 34.1366 287.273 35.3507C288.221 35.9319 289.034 36.7089 289.658 37.6298C290.134 34.5484 292.647 33.4337 295.686 35.1874C299.066 37.1399 301.799 41.8827 301.799 45.7806V49.4513C301.802 49.7391 301.879 50.0212 302.023 50.2702C302.168 50.5191 302.374 50.7262 302.623 50.8713L305.463 52.5398C306.081 52.9032 306.593 53.4222 306.948 54.0451C307.303 54.6679 307.488 55.3729 307.486 56.0898C307.486 56.3835 307.409 56.6719 307.263 56.9267C307.117 57.1816 306.907 57.394 306.654 57.543C306.401 57.6921 306.114 57.7727 305.82 57.7768C305.527 57.781 305.237 57.7085 304.98 57.5666L278.518 42.2874C277.817 41.8818 277.235 41.299 276.83 40.5974C276.425 39.8959 276.211 39.1002 276.211 38.2901C276.21 38.0279 276.279 37.7702 276.409 37.5427C276.539 37.3152 276.727 37.1259 276.953 36.9936C277.18 36.8614 277.437 36.7909 277.699 36.7891C277.961 36.7874 278.219 36.8545 278.447 36.9837Z" fill="#E6E6E6"/>
<defs>
<linearGradient id="paint0_linear_1411_6233" x1="262.773" y1="241.668" x2="281.896" y2="241.702" gradientUnits="userSpaceOnUse">
<stop stop-color="#2F15AA"/>
<stop offset="0.47831" stop-color="#2F15AA" stop-opacity="0.8"/>
<stop offset="1" stop-color="#2F15AA" stop-opacity="0.4"/>
</linearGradient>
<linearGradient id="paint1_linear_1411_6233" x1="266.782" y1="253.269" x2="298.823" y2="253.39" gradientUnits="userSpaceOnUse">
<stop stop-color="#2F15AA"/>
<stop offset="0.47831" stop-color="#2F15AA" stop-opacity="0.8"/>
<stop offset="1" stop-color="#2F15AA" stop-opacity="0.4"/>
</linearGradient>
<linearGradient id="paint2_linear_1411_6233" x1="129.34" y1="170.226" x2="231.857" y2="170.447" gradientUnits="userSpaceOnUse">
<stop stop-color="#2F15AA"/>
<stop offset="0.47831" stop-color="#2F15AA" stop-opacity="0.8"/>
<stop offset="1" stop-color="#2F15AA" stop-opacity="0.4"/>
</linearGradient>
<linearGradient id="paint3_linear_1411_6233" x1="144.03" y1="79.2706" x2="151.506" y2="79.3012" gradientUnits="userSpaceOnUse">
<stop stop-color="#2F15AA"/>
<stop offset="0.47831" stop-color="#2F15AA" stop-opacity="0.8"/>
<stop offset="1" stop-color="#2F15AA" stop-opacity="0.4"/>
</linearGradient>
<linearGradient id="paint4_linear_1411_6233" x1="151.528" y1="83.6593" x2="160.047" y2="83.6982" gradientUnits="userSpaceOnUse">
<stop stop-color="#2F15AA"/>
<stop offset="0.47831" stop-color="#2F15AA" stop-opacity="0.8"/>
<stop offset="1" stop-color="#2F15AA" stop-opacity="0.4"/>
</linearGradient>
<linearGradient id="paint5_linear_1411_6233" x1="160.779" y1="88.7506" x2="168.298" y2="88.7746" gradientUnits="userSpaceOnUse">
<stop stop-color="#2F15AA"/>
<stop offset="0.47831" stop-color="#2F15AA" stop-opacity="0.8"/>
<stop offset="1" stop-color="#2F15AA" stop-opacity="0.4"/>
</linearGradient>
<linearGradient id="paint6_linear_1411_6233" x1="168.908" y1="92.645" x2="175.888" y2="92.6685" gradientUnits="userSpaceOnUse">
<stop stop-color="#2F15AA"/>
<stop offset="0.47831" stop-color="#2F15AA" stop-opacity="0.8"/>
<stop offset="1" stop-color="#2F15AA" stop-opacity="0.4"/>
</linearGradient>
<linearGradient id="paint7_linear_1411_6233" x1="174.951" y1="98.3136" x2="184.01" y2="98.3514" gradientUnits="userSpaceOnUse">
<stop stop-color="#2F15AA"/>
<stop offset="0.47831" stop-color="#2F15AA" stop-opacity="0.8"/>
<stop offset="1" stop-color="#2F15AA" stop-opacity="0.4"/>
</linearGradient>
<linearGradient id="paint8_linear_1411_6233" x1="183.84" y1="102.254" x2="191.323" y2="102.285" gradientUnits="userSpaceOnUse">
<stop stop-color="#2F15AA"/>
<stop offset="0.47831" stop-color="#2F15AA" stop-opacity="0.8"/>
<stop offset="1" stop-color="#2F15AA" stop-opacity="0.4"/>
</linearGradient>
<linearGradient id="paint9_linear_1411_6233" x1="191.344" y1="105.617" x2="198.324" y2="105.64" gradientUnits="userSpaceOnUse">
<stop stop-color="#2F15AA"/>
<stop offset="0.47831" stop-color="#2F15AA" stop-opacity="0.8"/>
<stop offset="1" stop-color="#2F15AA" stop-opacity="0.4"/>
</linearGradient>
<linearGradient id="paint10_linear_1411_6233" x1="202.136" y1="111.919" x2="209.584" y2="111.945" gradientUnits="userSpaceOnUse">
<stop stop-color="#2F15AA"/>
<stop offset="0.47831" stop-color="#2F15AA" stop-opacity="0.8"/>
<stop offset="1" stop-color="#2F15AA" stop-opacity="0.4"/>
</linearGradient>
<linearGradient id="paint11_linear_1411_6233" x1="210.117" y1="117.266" x2="217.316" y2="117.294" gradientUnits="userSpaceOnUse">
<stop stop-color="#2F15AA"/>
<stop offset="0.47831" stop-color="#2F15AA" stop-opacity="0.8"/>
<stop offset="1" stop-color="#2F15AA" stop-opacity="0.4"/>
</linearGradient>
<linearGradient id="paint12_linear_1411_6233" x1="102.969" y1="110.49" x2="139.457" y2="110.69" gradientUnits="userSpaceOnUse">
<stop stop-color="#2F15AA"/>
<stop offset="0.47831" stop-color="#2F15AA" stop-opacity="0.8"/>
<stop offset="1" stop-color="#2F15AA" stop-opacity="0.4"/>
</linearGradient>
<linearGradient id="paint13_linear_1411_6233" x1="144.662" y1="198.641" x2="218.672" y2="198.857" gradientUnits="userSpaceOnUse">
<stop stop-color="#2F15AA"/>
<stop offset="0.47831" stop-color="#2F15AA" stop-opacity="0.8"/>
<stop offset="1" stop-color="#2F15AA" stop-opacity="0.4"/>
</linearGradient>
<linearGradient id="paint14_linear_1411_6233" x1="116.035" y1="182.306" x2="130.123" y2="182.411" gradientUnits="userSpaceOnUse">
<stop stop-color="#2F15AA"/>
<stop offset="0.47831" stop-color="#2F15AA" stop-opacity="0.8"/>
<stop offset="1" stop-color="#2F15AA" stop-opacity="0.4"/>
</linearGradient>
<linearGradient id="paint15_linear_1411_6233" x1="115.999" y1="193.608" x2="165.995" y2="193.947" gradientUnits="userSpaceOnUse">
<stop stop-color="#2F15AA"/>
<stop offset="0.47831" stop-color="#2F15AA" stop-opacity="0.8"/>
<stop offset="1" stop-color="#2F15AA" stop-opacity="0.4"/>
</linearGradient>
<linearGradient id="paint16_linear_1411_6233" x1="147.897" y1="207.882" x2="197.996" y2="208.082" gradientUnits="userSpaceOnUse">
<stop stop-color="#2F15AA"/>
<stop offset="0.47831" stop-color="#2F15AA" stop-opacity="0.8"/>
<stop offset="1" stop-color="#2F15AA" stop-opacity="0.4"/>
</linearGradient>
<linearGradient id="paint17_linear_1411_6233" x1="156.462" y1="179.343" x2="187.189" y2="179.572" gradientUnits="userSpaceOnUse">
<stop stop-color="#2F15AA"/>
<stop offset="0.47831" stop-color="#2F15AA" stop-opacity="0.8"/>
<stop offset="1" stop-color="#2F15AA" stop-opacity="0.4"/>
</linearGradient>
<linearGradient id="paint18_linear_1411_6233" x1="178.877" y1="154.248" x2="195.164" y2="154.328" gradientUnits="userSpaceOnUse">
<stop stop-color="#2F15AA"/>
<stop offset="0.47831" stop-color="#2F15AA" stop-opacity="0.8"/>
<stop offset="1" stop-color="#2F15AA" stop-opacity="0.4"/>
</linearGradient>
<linearGradient id="paint19_linear_1411_6233" x1="183.943" y1="163.174" x2="193.372" y2="147.206" gradientUnits="userSpaceOnUse">
<stop stop-color="#2F15AA"/>
<stop offset="0.47831" stop-color="#2F15AA" stop-opacity="0.8"/>
<stop offset="1" stop-color="#2F15AA" stop-opacity="0.4"/>
</linearGradient>
<linearGradient id="paint20_linear_1411_6233" x1="184.692" y1="155.928" x2="195.86" y2="155.983" gradientUnits="userSpaceOnUse">
<stop stop-color="#2F15AA"/>
<stop offset="0.47831" stop-color="#2F15AA" stop-opacity="0.8"/>
<stop offset="1" stop-color="#2F15AA" stop-opacity="0.4"/>
</linearGradient>
<linearGradient id="paint21_linear_1411_6233" x1="186.822" y1="156.548" x2="195.803" y2="156.587" gradientUnits="userSpaceOnUse">
<stop stop-color="#2F15AA"/>
<stop offset="0.47831" stop-color="#2F15AA" stop-opacity="0.8"/>
<stop offset="1" stop-color="#2F15AA" stop-opacity="0.4"/>
</linearGradient>
<linearGradient id="paint22_linear_1411_6233" x1="168" y1="133.189" x2="190.805" y2="133.299" gradientUnits="userSpaceOnUse">
<stop stop-color="#2F15AA"/>
<stop offset="0.47831" stop-color="#2F15AA" stop-opacity="0.8"/>
<stop offset="1" stop-color="#2F15AA" stop-opacity="0.4"/>
</linearGradient>
<linearGradient id="paint23_linear_1411_6233" x1="168.065" y1="163.946" x2="181.882" y2="164.112" gradientUnits="userSpaceOnUse">
<stop stop-color="#2F15AA"/>
<stop offset="0.47831" stop-color="#2F15AA" stop-opacity="0.8"/>
<stop offset="1" stop-color="#2F15AA" stop-opacity="0.4"/>
</linearGradient>
<linearGradient id="paint24_linear_1411_6233" x1="165.437" y1="163.301" x2="169.583" y2="163.324" gradientUnits="userSpaceOnUse">
<stop stop-color="#2F15AA"/>
<stop offset="0.47831" stop-color="#2F15AA" stop-opacity="0.8"/>
<stop offset="1" stop-color="#2F15AA" stop-opacity="0.4"/>
</linearGradient>
<linearGradient id="paint25_linear_1411_6233" x1="168.007" y1="133.012" x2="190.791" y2="133.123" gradientUnits="userSpaceOnUse">
<stop stop-color="#2F15AA"/>
<stop offset="0.47831" stop-color="#2F15AA" stop-opacity="0.8"/>
<stop offset="1" stop-color="#2F15AA" stop-opacity="0.4"/>
</linearGradient>
<linearGradient id="paint26_linear_1411_6233" x1="182.368" y1="243.602" x2="193.44" y2="243.651" gradientUnits="userSpaceOnUse">
<stop stop-color="#2F15AA"/>
<stop offset="0.47831" stop-color="#2F15AA" stop-opacity="0.8"/>
<stop offset="1" stop-color="#2F15AA" stop-opacity="0.4"/>
</linearGradient>
<linearGradient id="paint27_linear_1411_6233" x1="182.81" y1="213.501" x2="213.355" y2="213.572" gradientUnits="userSpaceOnUse">
<stop stop-color="#2F15AA"/>
<stop offset="0.47831" stop-color="#2F15AA" stop-opacity="0.8"/>
<stop offset="1" stop-color="#2F15AA" stop-opacity="0.4"/>
</linearGradient>
<linearGradient id="paint28_linear_1411_6233" x1="44.7863" y1="126.897" x2="86.4627" y2="127.055" gradientUnits="userSpaceOnUse">
<stop stop-color="#2F15AA"/>
<stop offset="0.47831" stop-color="#2F15AA" stop-opacity="0.8"/>
<stop offset="1" stop-color="#2F15AA" stop-opacity="0.4"/>
</linearGradient>
<linearGradient id="paint29_linear_1411_6233" x1="46.0075" y1="107.711" x2="85.4516" y2="108.086" gradientUnits="userSpaceOnUse">
<stop stop-color="#2F15AA"/>
<stop offset="0.47831" stop-color="#2F15AA" stop-opacity="0.8"/>
<stop offset="1" stop-color="#2F15AA" stop-opacity="0.4"/>
</linearGradient>
<linearGradient id="paint30_linear_1411_6233" x1="79.0651" y1="136.586" x2="86.4633" y2="136.593" gradientUnits="userSpaceOnUse">
<stop stop-color="#2F15AA"/>
<stop offset="0.47831" stop-color="#2F15AA" stop-opacity="0.8"/>
<stop offset="1" stop-color="#2F15AA" stop-opacity="0.4"/>
</linearGradient>
<linearGradient id="paint31_linear_1411_6233" x1="53.143" y1="127.332" x2="71.9576" y2="127.416" gradientUnits="userSpaceOnUse">
<stop stop-color="#2F15AA"/>
<stop offset="0.47831" stop-color="#2F15AA" stop-opacity="0.8"/>
<stop offset="1" stop-color="#2F15AA" stop-opacity="0.4"/>
</linearGradient>
<linearGradient id="paint32_linear_1411_6233" x1="44.7863" y1="182.825" x2="86.4627" y2="182.984" gradientUnits="userSpaceOnUse">
<stop stop-color="#2F15AA"/>
<stop offset="0.47831" stop-color="#2F15AA" stop-opacity="0.8"/>
<stop offset="1" stop-color="#2F15AA" stop-opacity="0.4"/>
</linearGradient>
<linearGradient id="paint33_linear_1411_6233" x1="46.0075" y1="163.649" x2="85.4516" y2="164.023" gradientUnits="userSpaceOnUse">
<stop stop-color="#2F15AA"/>
<stop offset="0.47831" stop-color="#2F15AA" stop-opacity="0.8"/>
<stop offset="1" stop-color="#2F15AA" stop-opacity="0.4"/>
</linearGradient>
<linearGradient id="paint34_linear_1411_6233" x1="79.0651" y1="192.534" x2="86.4633" y2="192.542" gradientUnits="userSpaceOnUse">
<stop stop-color="#2F15AA"/>
<stop offset="0.47831" stop-color="#2F15AA" stop-opacity="0.8"/>
<stop offset="1" stop-color="#2F15AA" stop-opacity="0.4"/>
</linearGradient>
<linearGradient id="paint35_linear_1411_6233" x1="52.5466" y1="179.108" x2="59.3555" y2="179.126" gradientUnits="userSpaceOnUse">
<stop stop-color="#2F15AA"/>
<stop offset="0.47831" stop-color="#2F15AA" stop-opacity="0.8"/>
<stop offset="1" stop-color="#2F15AA" stop-opacity="0.4"/>
</linearGradient>
<linearGradient id="paint36_linear_1411_6233" x1="65.6816" y1="190.145" x2="72.4763" y2="190.162" gradientUnits="userSpaceOnUse">
<stop stop-color="#2F15AA"/>
<stop offset="0.47831" stop-color="#2F15AA" stop-opacity="0.8"/>
<stop offset="1" stop-color="#2F15AA" stop-opacity="0.4"/>
</linearGradient>
<linearGradient id="paint37_linear_1411_6233" x1="53.5761" y1="178.564" x2="71.9074" y2="178.692" gradientUnits="userSpaceOnUse">
<stop stop-color="#2F15AA"/>
<stop offset="0.47831" stop-color="#2F15AA" stop-opacity="0.8"/>
<stop offset="1" stop-color="#2F15AA" stop-opacity="0.4"/>
</linearGradient>
<linearGradient id="paint38_linear_1411_6233" x1="53.1146" y1="190.919" x2="71.4956" y2="191.05" gradientUnits="userSpaceOnUse">
<stop stop-color="#2F15AA"/>
<stop offset="0.47831" stop-color="#2F15AA" stop-opacity="0.8"/>
<stop offset="1" stop-color="#2F15AA" stop-opacity="0.4"/>
</linearGradient>
<linearGradient id="paint39_linear_1411_6233" x1="44.7863" y1="70.9862" x2="86.4627" y2="71.1451" gradientUnits="userSpaceOnUse">
<stop stop-color="#2F15AA"/>
<stop offset="0.47831" stop-color="#2F15AA" stop-opacity="0.8"/>
<stop offset="1" stop-color="#2F15AA" stop-opacity="0.4"/>
</linearGradient>
<linearGradient id="paint40_linear_1411_6233" x1="46.0075" y1="51.81" x2="85.4516" y2="52.1844" gradientUnits="userSpaceOnUse">
<stop stop-color="#2F15AA"/>
<stop offset="0.47831" stop-color="#2F15AA" stop-opacity="0.8"/>
<stop offset="1" stop-color="#2F15AA" stop-opacity="0.4"/>
</linearGradient>
<linearGradient id="paint41_linear_1411_6233" x1="79.0651" y1="80.6411" x2="86.4633" y2="80.6486" gradientUnits="userSpaceOnUse">
<stop stop-color="#2F15AA"/>
<stop offset="0.47831" stop-color="#2F15AA" stop-opacity="0.8"/>
<stop offset="1" stop-color="#2F15AA" stop-opacity="0.4"/>
</linearGradient>
<linearGradient id="paint42_linear_1411_6233" x1="53.4057" y1="72.8151" x2="71.615" y2="72.8726" gradientUnits="userSpaceOnUse">
<stop stop-color="#2F15AA"/>
<stop offset="0.47831" stop-color="#2F15AA" stop-opacity="0.8"/>
<stop offset="1" stop-color="#2F15AA" stop-opacity="0.4"/>
</linearGradient>
<linearGradient id="paint43_linear_1411_6233" x1="65.8883" y1="70.806" x2="70.964" y2="70.8196" gradientUnits="userSpaceOnUse">
<stop stop-color="#2F15AA"/>
<stop offset="0.47831" stop-color="#2F15AA" stop-opacity="0.8"/>
<stop offset="1" stop-color="#2F15AA" stop-opacity="0.4"/>
</linearGradient>
<linearGradient id="paint44_linear_1411_6233" x1="64.2373" y1="71.4086" x2="66.8886" y2="71.4162" gradientUnits="userSpaceOnUse">
<stop stop-color="#2F15AA"/>
<stop offset="0.47831" stop-color="#2F15AA" stop-opacity="0.8"/>
<stop offset="1" stop-color="#2F15AA" stop-opacity="0.4"/>
</linearGradient>
</defs>
</svg>
