<svg width="21" height="21" viewBox="0 0 21 21" fill="none" xmlns="http://www.w3.org/2000/svg">
<path d="M10.2025 18.5856C5.60011 18.5856 1.86914 14.8547 1.86914 10.2522C1.86914 5.6499 5.60011 1.91895 10.2025 1.91895C14.8048 1.91895 18.5358 5.6499 18.5358 10.2522C18.5358 14.8547 14.8048 18.5856 10.2025 18.5856ZM10.2025 16.9189C13.8844 16.9189 16.8692 13.9342 16.8692 10.2522C16.8692 6.57038 13.8844 3.58561 10.2025 3.58561C6.52057 3.58561 3.53581 6.57038 3.53581 10.2522C3.53581 13.9342 6.52057 16.9189 10.2025 16.9189ZM10.2025 6.12749L14.3272 10.2522L10.2025 14.3771L6.07769 10.2522L10.2025 6.12749ZM10.2025 8.48451L8.43471 10.2522L10.2025 12.0201L11.9702 10.2522L10.2025 8.48451Z" fill="url(#paint0_linear_1042_1472)"/>
<defs>
<linearGradient id="paint0_linear_1042_1472" x1="1.86914" y1="10.2523" x2="18.5353" y2="10.3466" gradientUnits="userSpaceOnUse">
<stop stop-color="#2F15AA"/>
<stop offset="0.47831" stop-color="#2F15AA" stop-opacity="0.8"/>
<stop offset="1" stop-color="#2F15AA" stop-opacity="0.4"/>
</linearGradient>
</defs>
</svg>
