<svg width="24" height="26" viewBox="0 0 24 26" fill="none" xmlns="http://www.w3.org/2000/svg">
<path d="M17 2.52344V4.61868H20.0066C20.5552 4.61868 21 5.08481 21 5.65938V22.4351C21 23.0098 20.5551 23.4758 20.0066 23.4758H3.9934C3.44476 23.4758 3 23.0097 3 22.4351V5.65938C3 5.08461 3.44495 4.61868 3.9934 4.61868H7V2.52344H17ZM7 6.71391H5V21.3806H19V6.71391H17V8.80915H7V6.71391ZM9 17.1901V19.2853H7V17.1901H9ZM9 14.0472V16.1425H7V14.0472H9ZM9 10.9044V12.9996H7V10.9044H9ZM15 4.61868H9V6.71391H15V4.61868Z" fill="#F0F0F0"/>
</svg>
