<svg width="24" height="26" viewBox="0 0 24 26" fill="none" xmlns="http://www.w3.org/2000/svg">
<path d="M3.78307 3.48422L12 1.57129L20.2169 3.48422C20.6745 3.59074 21 4.01588 21 4.5069V14.9692C21 17.0708 19.9974 19.0334 18.3282 20.1992L12 24.6189L5.6718 20.1992C4.00261 19.0334 3 17.0708 3 14.9692V4.5069C3 4.01588 3.32553 3.59074 3.78307 3.48422ZM5 5.34726V14.9692C5 16.3703 5.6684 17.6786 6.7812 18.4559L12 22.1007L17.2188 18.4559C18.3316 17.6786 19 16.3703 19 14.9692V5.34726L12 3.71764L5 5.34726ZM12 12.0475C10.6193 12.0475 9.5 10.8749 9.5 9.42843C9.5 7.98197 10.6193 6.80938 12 6.80938C13.3807 6.80938 14.5 7.98197 14.5 9.42843C14.5 10.8749 13.3807 12.0475 12 12.0475ZM7.52746 17.2856C7.77619 14.9284 9.68372 13.0951 12 13.0951C14.3163 13.0951 16.2238 14.9284 16.4725 17.2856H7.52746Z" fill="#F0F0F0"/>
</svg>
