<svg width="10" height="11" viewBox="0 0 10 11" fill="none" xmlns="http://www.w3.org/2000/svg">
<path d="M10 8.13333V10.2764C10 10.5946 9.7745 10.8586 9.48361 10.881C9.24061 10.8998 9.04239 10.9091 8.88889 10.9091C3.97967 10.9091 0 6.56764 0 1.21212C0 1.04467 0.00858334 0.828406 0.02575 0.563333C0.0463167 0.245988 0.2883 0 0.579922 0H2.5445C2.6871 0 2.80653 0.11783 2.82085 0.272606C2.83371 0.411558 2.84566 0.523115 2.85671 0.607285C2.96908 1.46347 3.19863 2.2784 3.52706 3.03214C3.57977 3.15312 3.54539 3.29793 3.44547 3.37579L2.24642 4.31018C2.9764 6.17036 4.34383 7.66212 6.049 8.45848L6.90394 7.15267C6.97622 7.04236 7.11056 7.00442 7.22278 7.06255C7.91367 7.42055 8.66061 7.67067 9.44533 7.79297C9.522 7.80497 9.62361 7.81788 9.75011 7.83182C9.892 7.84745 10 7.97776 10 8.13333Z" fill="#464E5F"/>
</svg>
